<?xml version="1.0" standalone="no"?>
<!DOCTYPE svg PUBLIC "-//W3C//DTD SVG 1.1//EN" "http://www.w3.org/Graphics/SVG/1.1/DTD/svg11.dtd">
<svg xmlns="http://www.w3.org/2000/svg">
<metadata>Generated by Fontastic.me</metadata>
<defs>
<font id="food-48" horiz-adv-x="512">
<font-face font-family="food-48" units-per-em="512" ascent="480" descent="-32"/>
<missing-glyph horiz-adv-x="512" />

<glyph unicode="&#97;" d="M273 452c-6 0-11 5-11 11 0 15-12 28-28 28-15 0-27-13-27-28 0-6-5-11-11-11-6 0-11 5-11 11 0 27 22 49 49 49 27 0 49-22 49-49 0-6-4-11-10-11z m129-411l-5 0c-4 0-7 1-9 4l-10 13-144 0c-2 0-4 0-5 2l-117 75c0 0-1 0-1 1-9 7-14 20-6 32 5 7 12 11 21 11 8 0 15-3 16-4 27-13 77-34 91-35 8-1 25-2 41-2-9 3-19 6-29 8 0 0 0 0-1 0-13 5-16 15-15 23 2 10 12 19 23 19 15 0 35 0 76 0 23-1 99-20 99-36 0-1 0-1 0-2l-14-100c-1-5-6-9-11-9z m-164 38l146 0c3 0 6-1 8-4l2-3 11 74c-15 6-49 20-78 20-40 1-60 1-75 1 0 0-1 0-1-1 67-15 71-23 73-27 2-4 2-9 0-12-4-6-9-10-50-10-17 0-34 1-43 2-23 2-91 34-99 37-1 1-4 2-6 2-2 0-3 0-4-2 0-1 1-3 3-4z m249-79c0 0-1 0-2 0l-86 21c-6 1-9 6-8 11l18 132c1 2 2 5 5 7 2 1 5 2 8 2l67-11c5-1 9-6 9-11l0-140c0-4-1-7-4-9-2-1-4-2-7-2z m-74 39l64-15 0 118-48 8z m-31 163l-295 0c-6 0-10 5-10 11l0 1-18 0c-6 0-10 5-10 11l0 10-24 0c-6 0-11 5-11 11l0 36c0 6 5 11 11 11l419 0c6 0 11-5 11-11l0-37c0-5-5-10-11-10l-24 0 0-10c0-6-5-11-10-11l-18 0 0-1c0-6-5-11-10-11z m-284 21l273 0 0 2c0 6 5 11 11 11l17 0 0 10c0 5 5 10 11 10l24 0 0 15-399 0 0-15 24 0c6 0 11-5 11-11l0-9 17 0c6 0 11-5 11-11z m-45 48c-5 0-10 5-10 11 0 106 86 192 191 192 106 0 192-86 192-192 0-6-5-11-11-11 0 0 0 0 0 0-5 0-10 5-10 11 0 94-77 170-171 170-93 0-170-76-170-170 0-6-5-11-11-11z"/>
<glyph unicode="&#98;" d="M459 136l-406 0c-6 0-11 5-11 11 0 127 96 231 214 231 118 0 214-104 214-231 0-3-1-5-3-7-2-2-5-4-8-4z m-396 22l386 0c-6 110-90 199-193 199-103 0-187-89-193-199z m414-158l-442 0c-5 0-10 4-11 9l-24 136c0 3 0 7 2 9 3 2 6 4 9 4l490 0c3 0 6-2 9-4 2-2 2-6 2-9l-24-136c-1-5-6-9-11-9z m-433 21l424 0 21 115-466 0z m264 377c-5 0-10 5-10 11l0 57c0 6 5 11 10 11 6 0 11-5 11-11l0-57c0-6-5-11-11-11z m-52 0c-6 0-11 5-11 11l0 92c0 6 5 11 11 11 6 0 11-5 11-11l0-92c0-6-5-11-11-11z m-52 0c-6 0-11 5-11 11l0 57c0 6 5 11 11 11 5 0 10-5 10-11l0-57c0-6-5-11-10-11z"/>
<glyph unicode="&#99;" d="M256 204c-19 0-37 9-51 24l-189 217c-20 23-17 40-13 48 3 7 12 19 39 19l428 0c27 0 36-12 39-19 4-8 7-25-13-48l-189-217c-14-15-32-24-51-24z m-214 287c-11 0-18-3-20-7-2-4 0-13 10-24l190-218c9-11 21-17 34-17 13 0 25 6 34 17l190 218c10 11 12 20 10 24-2 4-9 7-20 7z m214-491c-6 0-11 5-11 11l0 204c0 6 5 10 11 10 6 0 11-4 11-10l0-204c0-6-5-11-11-11z m64 0l-128 0c-6 0-10 5-10 11 0 6 4 10 10 10l128 0c6 0 10-4 10-10 0-6-4-11-10-11z m-119 370c-5 0-10 0-16 2-10 2-19 8-28 13-7 5-14 9-19 10-3 0-10-2-14-4-5-1-10-3-15-4-11-1-22-1-31-1-6 0-10 5-10 11 0 6 5 10 10 10 0 0 0 0 1 0 7 0 18 0 28 2 2 0 6 1 10 3 8 2 17 5 24 4 9-2 18-7 27-13 8-4 15-9 22-11 18-4 31 3 48 11 11 5 24 11 39 14 12 2 36 6 52 2 8-2 16-8 25-14 7-4 18-12 22-11 4 0 8 5 12 9 6 6 14 14 25 16 9 2 18 0 25-2 2-1 4-1 5-1 6-2 10-7 8-13-1-6-7-9-12-8-2 0-4 1-6 1-6 2-11 3-16 2-4-1-9-5-14-10-6-6-13-13-23-15-13-3-26 6-39 15-6 4-12 9-17 10-9 2-25 1-43-2-12-2-23-7-34-13-14-6-28-13-46-13z"/>
<glyph unicode="&#100;" d="M219 136c-122 0-218 52-218 117 0 66 96 118 218 118 122 0 218-52 218-118 0-65-95-117-218-117z m0 213c-106 0-196-44-196-96 0-52 90-96 196-96 107 0 197 44 197 96 0 52-90 96-197 96z m0-349c-121 0-219 112-219 250 0 6 5 10 11 10 6 0 10-4 10-10 0-126 89-229 198-229 109 0 198 103 198 229 0 6 5 10 11 10 6 0 11-4 11-10 0-138-99-250-220-250z m64 386c-6 0-11 5-11 11l0 52c0 6 5 11 11 11 6 0 11-5 11-11l0-52c0-6-5-11-11-11z m-64 0c-6 0-10 5-10 11l0 104c0 6 4 11 10 11 6 0 11-5 11-11l0-104c0-6-5-11-11-11z m-64 0c-5 0-10 5-10 11l0 52c0 6 5 11 10 11 6 0 11-5 11-11l0-52c0-6-5-11-11-11z m218-309c-6 0-10 4-11 10 0 6 4 11 10 11 29 3 65 26 91 59 19 24 30 48 27 65-1 9-4 10-5 11-11 4-38-8-52-19-5-3-12-2-15 3-4 5-2 11 2 15 8 5 48 31 73 20 7-3 16-10 19-28 2-22-9-52-32-80-24-30-64-63-106-67-1 0-1 0-1 0z"/>
<glyph unicode="&#101;" d="M44 116c-22 0-36 6-42 18-9 20 9 47 57 84 42 33 101 69 167 100 97 47 193 78 242 78 22 0 36-6 42-18 23-49-136-142-224-184-97-47-193-78-242-78z m424 258c-46 0-138-29-233-75-64-31-122-66-163-97-47-37-52-55-50-59 1-2 6-5 22-5 46 0 138 29 233 75 151 73 220 141 213 156-1 2-6 5-22 5z m-208-155c-2 0-5 1-7 3l-67 60c-4 4-4 11 0 15 4 5 10 5 15 1l47-43-3 65c0 6 5 11 11 11 5 0 10-4 11-10l4-91c0-4-2-8-6-10-2-1-3-1-5-1z m-104-46c-2 0-4 1-5 2l-69 42c-5 3-7 10-4 15 3 5 10 6 15 3l49-30-9 55c-1 6 3 12 9 13 5 1 11-3 12-9l13-78c1-5-1-9-5-11-2-1-4-2-6-2z m208 104c-2 0-5 0-7 2l-62 53c-4 4-5 11-1 15 4 5 10 5 15 1l46-39 5 57c1 6 6 10 12 10 6-1 10-6 9-12l-6-78c-1-4-3-7-7-9-1 0-3 0-4 0z"/>
<glyph unicode="&#102;" d="M384 0l-256 0c-48 0-86 37-86 82l0 170c0 6 5 11 11 11l406 0c6 0 11-5 11-11l0-170c0-45-38-82-86-82z m-321 242l0-160c0-33 29-61 65-61l256 0c36 0 65 28 65 61l0 160z m398 0l-410 0c-3 0-6 1-8 4-2 2-3 6-2 9 19 74 109 127 215 127 106 0 196-53 215-127 1-3 0-7-2-9-2-3-5-4-8-4z m-395 21l380 0c-24 58-101 98-190 98-89 0-166-40-190-98z m435-21l-490 0c-6 0-11 4-11 10 0 6 5 11 11 11l490 0c6 0 11-5 11-11 0-6-5-10-11-10z m-209 145l-72 0c-6 0-11 5-11 11 0 6 5 11 11 11l72 0c6 0 11-5 11-11 0-6-5-11-11-11z m6 36c-6 0-10 4-10 10l0 45c0 6 4 11 10 11 6 0 11-5 11-11l0-45c0-6-5-10-11-10z m-42 0c-6 0-11 4-11 10l0 68c0 6 5 11 11 11 6 0 11-5 11-11l0-68c0-6-5-10-11-10z m-42 0c-6 0-11 4-11 10l0 45c0 6 5 11 11 11 6 0 10-5 10-11l0-45c0-6-4-10-10-10z"/>
<glyph unicode="&#103;" d="M235 108c-18 0-37 8-51 21l-55 56c-27 27-29 68-5 92l111 111c11 11 26 17 41 17 19 0 37-8 51-22l56-55c26-27 29-68 5-92l-112-112c-10-10-25-16-41-16z m41 276c-10 0-19-4-26-11l-111-111c-16-16-14-44 5-62l56-56c9-9 22-15 35-15 10 0 19 4 26 10l112 112c15 16 13 43-5 61l-56 56c-10 10-23 16-36 16z m-125-384c-3 0-6 1-8 3l-140 140c-3 3-4 7-3 11 1 4 4 6 8 7l131 31c6 1 11-2 13-8 1-6-3-12-8-13l-112-26 113-113 29 115c1 6 7 10 12 8 6-1 10-7 8-13l-33-134c-1-4-3-7-7-8-1 0-2 0-3 0z m220 320c-5 0-9 3-11 8-1 6 3 12 8 13l112 26-113 113-29-115c-1-6-7-10-12-8-6 1-10 7-8 13l33 134c1 4 3 7 7 8 4 1 8 0 11-3l140-140c3-3 4-7 3-11-1-4-4-6-8-7l-131-31c-1 0-1 0-2 0z"/>
<glyph unicode="&#104;" d="M300 0l-133 0c-20 0-37 16-39 36l-30 300c-1 10 2 20 8 27 7 7 16 11 26 11l203 0c10 0 19-4 26-11 6-7 9-17 8-27l-30-300c-2-20-19-36-39-36z m-168 353c-4 0-8-2-10-4-2-3-4-7-3-11l30-300c1-9 9-17 18-17l133 0c9 0 17 8 18 17l30 300c1 4-1 8-3 11-2 2-6 4-10 4l-203 0z m252-242c-1 0-3 0-4 0l-8 1c-25 2-43 24-41 50l9 95c2 24 24 43 49 41l8-1c25-2 44-24 42-49l-9-96c-2-23-22-41-46-41z m1 166c-12 0-23-10-24-22l-9-95c-1-14 9-26 22-27l8-1c13-1 25 9 27 22l8 96c2 13-8 25-22 26l-7 1c-1 0-2 0-3 0z m-23 57l-7 20c22 7 37 27 37 50 0 29-24 53-53 53-11 0-23-4-32-11l-16-13-1 20c-1 21-19 38-40 38-16 0-30-10-36-25l-7-18-12 16c-9 13-24 20-40 20-28 0-50-22-50-49 0-5 1-10 2-15l2-6-4-5c-7-6-10-15-10-24 0-13 7-24 18-30l-9-19c-19 9-31 28-31 49 0 13 5 25 12 35-1 5-1 10-1 15 0 39 32 71 71 71 17 0 34-7 47-18 11 15 29 24 48 24 27 0 50-17 58-41 10 5 20 7 31 7 41 0 74-33 74-74 0-32-21-60-51-70z m-170-154c-17 0-31 13-31 30 0 17 14 31 31 31 17 0 30-14 30-31 0-17-13-30-30-30z m0 40c-6 0-10-5-10-10 0-5 4-9 10-9 5 0 9 4 9 9 0 5-4 10-9 10z m56-150c-20 0-37 17-37 37 0 20 17 37 37 37 20 0 37-17 37-37 0-20-17-37-37-37z m0 52c-8 0-15-7-15-15 0-8 7-15 15-15 8 0 15 7 15 15 0 8-7 15-15 15z m32 112c-21 0-37 16-37 36 0 20 16 36 37 36 20 0 36-16 36-36 0-20-16-36-36-36z m0 51c-9 0-15-7-15-15 0-8 6-15 15-15 8 0 14 7 14 15 0 8-6 15-14 15z"/>
<glyph unicode="&#105;" d="M48 98c-6 0-10 4-10 10l0 183c0 6 4 11 10 11 6 0 11-5 11-11l0-183c0-6-5-10-11-10z m-37 220c-6 0-11 5-11 11l0 75c0 6 5 10 11 10 6 0 10-4 10-10l0-75c0-6-4-11-10-11z m37 0c-6 0-10 5-10 11l0 75c0 6 4 10 10 10 6 0 11-4 11-10l0-75c0-6-5-11-11-11z m38 0c-6 0-11 5-11 11l0 75c0 6 5 10 11 10 6 0 11-4 11-10l0-75c0-6-5-11-11-11z m-38-37c-26 0-48 21-48 48 0 6 5 10 11 10 6 0 10-4 10-10 0-15 12-27 27-27 15 0 27 12 27 27 0 6 5 10 11 10 6 0 11-4 11-10 0-27-22-48-49-48z m214-183c-87 0-158 71-158 158 0 87 71 158 158 158 88 0 159-71 159-158 0-87-71-158-159-158z m0 295c-75 0-137-61-137-137 0-76 62-137 137-137 76 0 137 61 137 137 0 76-61 137-137 137z m0-235c-54 0-98 44-98 98 0 54 44 98 98 98 54 0 98-44 98-98 0-54-44-98-98-98z m0 174c-42 0-76-34-76-76 0-42 34-76 76-76 42 0 77 34 77 76 0 42-35 76-77 76z m239-234l-36 0c-3 0-6 1-8 3-2 2-3 5-3 8l8 78c-6 2-12 5-16 12-7 9-8 20-5 34 3 8 5 24 7 41 9 71 19 130 50 140 3 1 7 0 10-2 2-2 4-5 4-8l0-296c0-6-5-10-11-10z m-25 21l15 0 0 257c-12-26-18-77-22-105-2-18-4-34-7-43-1-5-2-12 1-17 3-4 11-5 11-5 3 0 5-1 7-4 2-2 3-5 3-7z"/>
<glyph unicode="&#106;" d="M388 77l-357 0c-5 0-10 4-11 9-2 14-3 28-3 41 0 123 86 223 193 223 106 0 192-100 192-223 0-13-1-27-3-41-1-5-5-9-11-9z m-348 21l339 0c1 10 2 20 2 29 0 111-77 201-171 201-95 0-172-90-172-201 0-9 1-19 2-29z m298 172c-6 0-11 5-11 11 0 118-19 186-117 186-98 0-118-75-118-186 0-6-5-11-11-11-6 0-10 5-10 11 0 108 17 207 139 207 128 0 139-107 139-207 0-6-5-11-11-11z m-128 57c-21 0-38 17-38 38 0 21 17 39 38 39 21 0 38-18 38-39 0-21-17-38-38-38z m0 55c-10 0-17-7-17-17 0-9 7-16 17-16 9 0 16 7 16 16 0 10-7 17-16 17z m199-358l-398 0c-6 0-11 5-11 11 0 5 5 10 11 10l398 0c6 0 10-5 10-10 0-6-4-11-10-11z m-12 78c-4 0-6 1-7 1-5 0-10 6-9 11 1 6 6 11 12 10 0 0 26-3 43 14 13 13 17 35 13 64-6 50 20 79 40 91l-2 15c-17-9-45-29-50-62-9-63-51-66-53-66-6-1-11 4-11 10-1 5 4 11 10 11 1 0 27 3 33 48 8 60 72 84 75 85 3 1 6 1 9-1 3-1 5-4 5-7l7-38c1-5-2-10-7-11-1-1-41-18-34-72 4-37-2-64-20-82-18-18-42-21-54-21z"/>
<glyph unicode="&#107;" d="M149 194c-82 0-149 72-149 159 0 88 67 159 149 159 41 0 79-18 107-49 28 31 66 49 107 49 82 0 149-71 149-159 0-70-44-133-107-152-5-2-11 1-13 7-2 5 1 11 7 13 54 17 92 71 92 132 0 76-57 138-128 138-38 0-74-19-98-51-4-6-13-6-18 0-24 32-60 51-98 51-71 0-128-62-128-138 0-76 57-137 128-137 19 0 37 4 54 13 6 3 12 1 15-5 2-5 0-11-5-14-20-10-42-16-64-16z m262-194l-310 0c-5 0-10 5-10 11l0 199c0 6 5 10 10 10 6 0 11-4 11-10l0-189 288 0 0 189c0 6 5 10 11 10 5 0 10-4 10-10l0-199c0-6-5-11-10-11z"/>
<glyph unicode="&#108;" d="M501 0l-490 0c-6 0-11 5-11 11l0 153c0 6 5 11 11 11l490 0c6 0 11-5 11-11l0-153c0-6-5-11-11-11z m-480 21l470 0 0 132-470 0z m374 132l-278 0c-5 0-10 5-10 11l0 119c0 6 5 11 10 11l278 0c6 0 10-5 10-11l0-119c0-6-4-11-10-11z m-267 21l256 0 0 98-256 0z m164 98l-72 0c-6 0-11 5-11 11l0 94c0 6 5 10 11 10l72 0c6 0 11-4 11-10l0-94c0-6-5-11-11-11z m-62 22l52 0 0 72-52 0z m26 77c-6 0-11 5-11 11l0 29c0 6 5 11 11 11 6 0 11-5 11-11l0-29c0-6-5-11-11-11z m36 24c-3 0-6 1-8 4-4 4-3 11 1 15 11 8 15 19 10 33-3 12-14 19-26 28-3 2-5 4-7 5-1-2-3-5-4-7-5-9-14-18-21-26l-2-2c-6-6-7-8-6-12 0-10 2-12 3-13 5-3 6-9 3-14-3-5-10-7-15-4-12 8-12 24-13 30 0 13 5 20 13 28l2 2c6 6 14 14 17 21 4 8 5 13 5 14-2 5-1 10 4 13 4 3 10 2 13-1 6-6 13-11 20-17 14-10 29-20 35-39 7-22 1-42-17-56-2-2-5-2-7-2z m-207-358c-5 0-10 5-10 11l0 63c0 6 5 11 10 11 6 0 11-5 11-11l0-63c0-6-5-11-11-11z m86 0c-6 0-11 5-11 11l0 63c0 6 5 11 11 11 6 0 10-5 10-11l0-63c0-6-4-11-10-11z m85 0c-6 0-11 5-11 11l0 63c0 6 5 11 11 11 6 0 11-5 11-11l0-63c0-6-5-11-11-11z m85 0c-6 0-10 5-10 11l0 63c0 6 4 11 10 11 6 0 11-5 11-11l0-63c0-6-5-11-11-11z m86 0c-6 0-11 5-11 11l0 63c0 6 5 11 11 11 5 0 10-5 10-11l0-63c0-6-5-11-10-11z m-246 173c-5 0-10 2-14 5-5 4-5 11-2 15 4 4 10 5 15 2 2 0 7 0 10 1 6 2 12-1 14-7 1-5-2-11-7-13-4-1-10-3-16-3z m73 0c-5 0-11 2-15 5-4 4-5 11-1 15 4 4 10 5 14 2 2 0 8 0 11 1 6 2 11-1 13-7 2-5-1-11-7-13-3-1-9-3-15-3z m72 0c-5 0-10 2-15 5-4 4-4 11-1 15 4 4 10 5 15 2 2 0 7 0 10 1 6 2 12-1 14-7 1-5-2-11-7-13-4-1-10-3-16-3z"/>
<glyph unicode="&#109;" d="M306 0l0 0c-116 0-206 45-206 102 0 57 90 101 206 101 115 0 206-44 206-101 0-29-23-55-63-74-39-18-89-28-143-28z m0 182c-111 0-185-42-185-80 0-39 74-81 185-81l0 0c51 0 98 9 134 26 32 15 51 35 51 55 0 38-75 80-185 80z m-30-125c-10 0-19 0-26 2-16 2-30 14-35 19-6 7-14 15-17 28l0 2c-2 9-5 26 11 35 4 2 10 3 16 3 5 0 16-1 22-9 3-4 4-9 5-12 0 0 0-1 0-1 0 0 1 0 1 0 3 0 5 2 10 6 4 4 8 8 15 10 9 4 18 5 27 5l5 0c15 0 25-4 36-12 6-5 11-9 16-9 1 1 3 4 4 6 2 6 8 16 21 16 3 0 6 0 9-1 3-1 6-3 8-5 14-4 11-26 11-30-3-17-11-24-24-31-23-11-53-18-88-21-9-1-19-1-27-1z m-51 68c-3 0-5-1-6-1-2-1-2-3 0-11l0-3c1-5 4-10 11-16 6-6 16-13 24-14 10-2 27-2 48-1 32 3 59 9 79 19 10 5 12 8 13 14 0 3 0 7 0 9-1 0-1 0-1 1l-2 1c-1 1-2 1-2 2-2 0-2 0-2 0 0 0-1-3-2-5-3-6-9-17-23-17-12 0-22 7-28 12-8 6-14 8-24 8l-5 0c-8 0-13 0-19-2-3-2-6-4-9-7-5-4-12-11-24-11-19 0-21 12-22 18-1 1-1 3-2 4 0-1-1 0-4 0z m-112-19c-1 0-2 1-3 1-65 16-110 70-110 129l0 151c0 6 5 11 11 11l295 0c6 0 10-5 10-11l0-151c0-17-3-33-10-48-2-5-8-8-14-5-5 2-7 8-5 14 5 12 8 25 8 39l0 140-274 0 0-140c0-50 39-94 95-109 5-1 9-7 7-13-1-4-5-8-10-8z m240 110l-5 0c-29 0-53 23-53 52l0 62c0 29 24 52 53 52l5 0c29 0 52-23 52-52l0-62c0-29-23-52-52-52z m-5 145c-17 0-32-14-32-31l0-62c0-17 15-31 32-31l5 0c17 0 31 14 31 31l0 62c0 17-14 31-31 31z m-133 58c-6 0-11 4-11 10l0 43c0 6 5 10 11 10 6 0 11-4 11-10l0-43c0-6-5-10-11-10z m-57 0c-6 0-10 4-10 10l0 72c0 6 4 11 10 11 6 0 11-5 11-11l0-72c0-6-5-10-11-10z m-57 0c-6 0-10 4-10 10l0 43c0 6 4 10 10 10 6 0 11-4 11-10l0-43c0-6-5-10-11-10z"/>
<glyph unicode="&#110;" d="M30 0c-11 0-19 3-24 10-20 26 15 59 30 73 2 2 4 4 7 6 22 20 60 54 74 116 20 84 69 146 129 162 1 0 31 11 57 11 13 0 23-3 31-7 13-8 23-24 27-42 2-8 2-16 2-24 6 9 11 22 14 41 0 4 3 8 7 9 4 1 9 0 11-3 2-3 48-58 34-123-10-46-47-85-110-115-122-58-158-66-175-69-9-2-11-2-19-8-20-15-66-37-95-37z m-7 22c0 0 2-1 7-1 21 0 62 18 83 33 11 8 16 10 27 12 16 3 50 10 170 67 56 27 89 61 98 100 7 34-5 66-16 85-15-47-48-53-49-53-5-1-9 1-11 4-3 4-2 9 0 12 9 12 12 28 8 43-2 13-9 23-17 28-4 3-11 4-20 4-23 0-50-9-50-9-53-15-97-71-115-146-16-69-58-107-81-127-2-3-5-5-7-7-29-27-31-39-27-45z m403 323c-4 0-7 2-9 5-32 45-90 51-91 51-6 1-10 6-10 12 1 6 6 10 12 10 3-1 69-8 106-61 4-5 3-11-2-15-2-1-4-2-6-2z m-41 43c-1 0-3 0-4 0-5 3-8 9-6 14 2 4 42 104 126 110 6 0 11-4 11-10 0-6-4-11-10-11-71-6-107-96-107-97-2-4-6-6-10-6z"/>
<glyph unicode="&#111;" d="M211 0c-18 0-35 5-49 15-29 20-110 103-122 197-7 48 6 91 37 127 2 3 48 49 103 43 24-3 32-6 38-9 7-2 12-4 38-4 26 0 31 2 38 4 6 3 14 6 38 9 55 6 101-40 102-42 32-37 45-80 38-128-12-95-93-177-122-197-14-10-31-15-49-15-19 0-36 6-45 11-9-5-26-11-45-11z m-41 361c-42 0-77-36-77-36-27-31-38-69-32-110 11-86 88-165 113-182 11-8 23-12 37-12 19 0 35 9 40 11 3 2 7 2 10 0 5-2 21-11 40-11 14 0 26 4 37 12 25 17 102 95 113 182 6 41-5 79-32 111 0 0-40 39-84 35-22-3-28-5-33-7-10-4-17-7-46-7-29 0-36 3-46 7-5 2-11 4-33 7-2 0-5 0-7 0z m86-8c0 0-1 0-2 1-5 0-9 6-9 12 12 76-42 127-42 128-4 4-5 10-1 15 4 4 11 4 15 0 3-2 62-58 50-146-1-6-6-10-11-10z m59 35c-19 0-40 5-62 15-3 2-6 6-6 9 0 2-2 32 22 57 29 30 80 40 152 29 5-1 9-6 9-11 0-7-32-99-115-99z m-46 32c16-7 31-10 46-10 52 0 79 46 89 68-57 8-98-1-119-24-12-12-15-26-16-34z"/>
<glyph unicode="&#112;" d="M207 181c-99 0-179 90-179 199 0 7 0 14 1 21 0 5 5 9 11 9l334 0c5 0 10-4 10-9 1-7 1-14 1-21 0-109-80-199-178-199z m-157 208c-1-3-1-6-1-9 0-98 71-177 158-177 86 0 157 79 157 177 0 3 0 6 0 9z m157-389c-6 0-11 5-11 11l0 172c0 6 5 11 11 11 6 0 10-5 10-11l0-172c0-6-4-11-10-11z m80 0l-161 0c-6 0-10 5-10 11 0 6 4 10 10 10l161 0c6 0 11-4 11-10 0-6-5-11-11-11z m-30 299c-8 0-15 1-22 4-5 3-10 5-14 7-10 6-21 11-31 13-13 3-28 1-47-4l-4-2c-17-4-34-9-52-9-11 1-22 4-31 10-2 2-4 3-6 4-2 2-4 4-6 4-6 2-9 7-8 13 1 6 7 9 13 8 6-1 11-5 14-8 2-1 3-2 4-3 6-4 13-6 21-6 15-1 30 4 45 8l4 1c14 4 35 9 57 5 13-2 25-9 37-15 4-2 8-4 13-6 13-6 26-1 41 4 9 3 17 6 27 8 23 3 40 0 56-13 4-3 5-10 1-15-3-4-10-5-15-1-10 8-22 10-39 8-7-1-15-4-23-7-11-4-23-8-35-8z m-65 24c-3 0-6 1-8 4l-153 167c-4 4-4 11 1 15 4 4 11 4 15 0l153-168c4-4 3-11-1-15-2-2-5-3-7-3z m183-30c-6 0-11 5-11 11 0 6 5 11 11 11 48 0 88 39 88 88 0 48-40 88-88 88-49 0-88-40-88-88 0-6-5-11-11-11-6 0-11 5-11 11 0 60 49 109 110 109 60 0 109-49 109-109 0-61-49-110-109-110z m0 101c-6 0-11 4-11 10l0 92c0 6 5 11 11 11 6 0 10-5 10-11l0-92c0-6-4-10-10-10z m92 0l-89 0c-6 0-11 4-11 10 0 6 5 11 11 11l89 0c6 0 11-5 11-11 0-6-5-10-11-10z m-22-64c-2 0-5 1-7 3l-136 126c-5 4-5 11-1 15 4 4 11 4 15 1l136-126c5-4 5-11 1-15-2-2-5-4-8-4z m-67 67c-3 0-6 1-8 3-4 4-4 11 0 15l64 59c4 4 11 4 15 0 4-4 4-11-1-15l-63-59c-2-2-5-3-7-3z"/>
<glyph unicode="&#113;" d="M303 0l-126 0c-24 0-43 19-43 43l-4 314c0 3 1 5 3 8 2 2 5 3 8 3l198 0c3 0 6-1 8-3 2-3 3-5 3-8l-4-314c0-24-20-43-43-43z m-152 346l4-303c0-12 10-22 22-22l126 0c12 0 22 10 22 22l3 303z m91-97c-4 0-7 2-9 6l-102 181-33-12c-6-2-12 1-14 6-2 6 1 12 7 14l41 15c5 1 10-1 13-5l106-189c3-5 1-12-4-14-1-1-3-2-5-2z m96 0l-192 0c-6 0-10 5-10 11 0 6 4 10 10 10l192 0c6 0 11-4 11-10 0-6-5-11-11-11z m80 116c-2 0-3 0-4 1l-188 67c-5 2-8 7-6 13 0 2 1 4 2 5 40 45 83 59 132 42 48-18 73-56 75-116 0-2-1-4-2-6-1-2-2-4-5-5-1 0-3-1-4-1z m-169 83l157-57c-5 43-24 69-60 82-35 12-67 5-97-25z m22-196c-1 0-2 0-4 1-5 2-8 8-6 13l53 147c2 6 8 9 13 7 6-2 9-8 7-14l-53-147c-2-4-6-7-10-7z m79 220c-1 0-2 0-4 1-5 2-8 8-6 13l7 19c2 6 8 8 13 6 6-2 9-8 7-13l-7-19c-1-4-6-7-10-7z m-65-54c-3 0-6 1-8 3-4 4-4 11 0 15l55 54c4 4 11 4 15 0 4-4 4-11 0-15l-55-54c-2-2-4-3-7-3z m78-27c-5 0-10 4-10 9l-7 78c0 6 4 11 10 12 6 0 11-4 11-10l7-78c1-6-4-11-10-11 0 0 0 0-1 0z m-145-248c-5 0-9 2-10 6l-18 43c-1 3-1 6 0 8 1 3 3 5 6 6l42 18c6 2 12 0 14-6l18-43c3-5 0-11-6-13l-42-18c-2-1-3-1-4-1z m-4 48l9-24 23 10-9 23z m55-143c-1 0-3 0-4 0l-43 18c-6 2-8 8-6 14l17 43c1 2 3 4 6 5 2 2 5 2 8 1l43-18c6-2 8-8 6-14l-17-43c-1-2-3-4-6-6-1 0-3 0-4 0z m-29 34l23-10 9 23-23 10z"/>
<glyph unicode="&#114;" d="M435 88l-358 0c-43 0-77 35-77 77l0 201c0 42 34 77 77 77l358 0c43 0 77-35 77-77l0-201c0-42-34-77-77-77z m-358 334c-31 0-56-25-56-56l0-201c0-31 25-56 56-56l358 0c31 0 56 25 56 56l0 201c0 31-25 56-56 56z m256-263l-257 0c-6 0-11 5-11 11l0 191c0 6 5 10 11 10l257 0c6 0 11-4 11-10l0-191c0-6-5-11-11-11z m-247 22l236 0 0 169-236 0z m331 109c-24 0-43 19-43 43 0 24 19 43 43 43 24 0 44-19 44-43 0-24-20-43-44-43z m0 65c-12 0-22-10-22-22 0-12 10-22 22-22 12 0 22 10 22 22 0 12-10 22-22 22z m0-178c-24 0-43 20-43 44 0 23 19 43 43 43 24 0 44-20 44-43 0-24-20-44-44-44z m0 65c-12 0-22-9-22-21 0-13 10-22 22-22 12 0 22 9 22 22 0 12-10 21-22 21z m-309-173c-6 0-11 5-11 11l0 14c0 6 5 11 11 11 6 0 10-5 10-11l0-14c0-6-4-11-10-11z m296 0c-6 0-10 5-10 11l0 14c0 6 4 11 10 11 6 0 11-5 11-11l0-14c0-6-5-11-11-11z"/>
<glyph unicode="&#115;" d="M256 0c-5 0-9 3-10 7l-87 270c-2 6 1 12 7 14 6 1 11-2 13-7l77-239 83 259c2 5 8 8 14 7 5-2 8-8 6-14l-93-290c-1-4-5-7-10-7z m-90 273c-35 0-65 29-65 65 0 21 11 41 28 53-3 6-4 14-4 21 0 34 28 62 62 62 8 0 15-2 23-5 12 26 38 43 67 43 36 0 66-25 74-59 35-11 60-44 60-81 0-47-39-85-86-85-13 0-25 3-37 8-14-12-32-18-50-18-12 0-24 2-34 8-11-8-24-12-38-12z m21 180c-23 0-41-19-41-41 0-7 2-14 6-20 1-3 2-6 1-9-1-3-3-5-6-6-15-8-24-23-24-39 0-24 19-44 43-44 11 0 21 4 29 11 4 3 9 4 13 1 9-5 19-8 30-8 15 0 30 6 41 18 3 3 9 4 13 2 10-7 22-10 33-10 36 0 64 29 64 64 0 30-21 56-50 62-4 1-7 5-8 9-3 27-26 48-54 48-24 0-45-16-51-40-1-3-4-5-7-7-3-1-7 0-10 2-6 4-14 7-22 7z m128-237c-115 0-148 60-150 62-3 5-1 12 4 15 6 3 12 1 15-4 1-3 30-53 135-51 6 0 11-5 11-11 0-6-5-10-10-10-2 0-3-1-5-1z m-16-65c0 0 0 0-1 0-40 2-75 12-101 30-5 4-6 10-3 15 3 5 10 6 15 3 23-15 54-25 91-26 5-1 10-6 10-12-1-5-5-10-11-10z m-16-67c0 0 0 0-1 0-24 2-45 7-63 16-5 3-7 9-4 14 2 6 9 8 14 5 15-8 34-12 55-14 6 0 10-5 10-11-1-6-5-10-11-10z"/>
<glyph unicode="&#116;" d="M298 347c0 0 0 0 0 0-18 1-37 1-55 1-6 0-11 5-11 10 0 6 4 11 10 11 19 1 39 0 57-1 5 0 10-5 10-11-1-5-5-10-11-10z m-42-139c-127 0-256 28-256 81 0 33 50 53 93 63 6 2 11-2 13-8 1-5-2-11-8-13-57-14-77-31-77-42 0-25 90-60 235-60 145 0 235 35 235 60 0 12-27 31-85 44-6 2-10 7-9 13 2 6 8 9 13 8 47-10 102-30 102-65 0-53-129-81-256-81z m0-157c-141 0-256 106-256 238 0 6 5 10 11 10 6 0 10-4 10-10 0-120 106-217 235-217 129 0 235 97 235 217 0 6 4 10 10 10 6 0 11-4 11-10 0-132-115-238-256-238z m95 205c-9 0-17 6-22 16l-74 154c-4 9-5 18 0 25 5 8 14 12 26 10l148-21c10-1 19-7 23-15 4-8 3-18-3-27l-76-128c-8-12-17-14-22-14z m-75 184c-2 0-3 0-3 0 0 0 0-2 1-5l74-153c1-3 3-4 3-4 1 0 2 1 4 3l76 128c2 3 2 5 1 7 0 2-3 3-6 3l-148 21c-1 0-2 0-2 0z m-38-183c-5 0-10 2-15 4l-150 80c-9 6-15 14-15 22 0 9 6 17 15 22l132 71c5 3 10 4 15 4 14 0 25-10 26-26l14-148c1-11-3-18-6-22-4-4-10-7-16-7z m-159 106c0 0 1-1 4-3l150-80c4-2 6-1 6-1 0 0 0 2 0 5l-14 148c0 3-1 7-5 7-2 0-3-1-5-2l-132-70c-3-2-4-3-4-4z m267 38c0-5-4-9-9-9-5 0-8 4-8 9 0 4 3 8 8 8 5 0 9-4 9-8z m37-17c0-5-4-9-8-9-5 0-9 4-9 9 0 4 4 8 9 8 4 0 8-4 8-8z m-22-40c0-5-3-9-8-9-5 0-9 4-9 9 0 4 4 8 9 8 5 0 8-4 8-8z m-155 40c0-5-4-9-9-9-5 0-8 4-8 9 0 4 3 8 8 8 5 0 9-4 9-8z m-38-17c0-5-4-9-9-9-5 0-8 4-8 9 0 4 3 8 8 8 5 0 9-4 9-8z m-9 0c0-5-4-9-8-9-5 0-9 4-9 9 0 4 4 8 9 8 4 0 8-4 8-8z m50-32c0-4-4-8-8-8-5 0-9 4-9 8 0 5 4 9 9 9 4 0 8-4 8-9z"/>
<glyph unicode="&#117;" d="M399 22c-41 0-78 23-97 59-10-4-22-6-34-6-48 0-88 37-93 84-56 7-99 54-102 111-31 22-49 56-49 94 0 62 51 113 113 113 17 0 35-4 51-12 16 29 46 47 80 47 51 0 93-42 93-94 0-4 0-8-1-11 16-9 27-23 33-40 7 2 14 3 21 3 54 0 98-45 98-99 0-26-10-51-27-69 15-20 24-44 24-69 0-61-49-111-110-111z m-91 84c1 0 2 0 3 0 3-1 5-4 7-6 13-35 45-57 81-57 49 0 88 41 88 90 0 23-8 46-25 62-2 3-3 5-2 8 0 3 1 6 3 8 18 15 28 37 28 60 0 43-35 77-77 77-8 0-17-1-25-4-3-1-7-1-9 1-3 1-5 4-5 7-3 18-14 32-30 39-5 2-8 7-7 12 1 5 2 10 2 15 0 40-32 73-72 73-29 0-55-18-66-45-1-3-4-5-7-6-3-1-6-1-9 1-15 10-32 15-49 15-50 0-91-41-91-92 0-33 16-62 43-79 3-2 5-5 5-9 0-52 41-94 92-96 6 0 10-5 10-11 0 0 0-1 0-1 0-39 32-72 72-72 12 0 24 3 34 9 2 1 4 1 6 1z m-297-84c-3 0-5 1-7 3-5 3-5 10-1 15 63 74 86 180 86 181 2 6 7 9 13 8 6-1 10-7 8-12-1-5-24-112-91-191-2-3-5-4-8-4z m15-22c-2 0-5 1-6 2-5 4-6 11-2 15 3 4 81 101 225 83 6-1 10-6 9-12 0-6-6-10-12-9-131 17-205-74-206-75-2-3-5-4-8-4z m-11 10c-3 0-6 2-8 4-4 4-3 11 1 15 1 1 87 81 166 149 4 3 11 3 15-2 3-4 3-11-2-15-77-67-164-147-165-148-2-2-4-3-7-3z m246 300c-5 0-9 3-10 8-12 55-68 54-70 54-6 0-11 4-11 10 0 6 4 11 10 11 27 1 80-13 92-71 1-5-3-11-9-12 0 0-1 0-2 0z m41-144c0 0-1 0-1 0-6 0-10 5-10 11 3 63-83 79-84 80-6 1-10 6-9 12 2 6 7 10 13 9 36-7 104-37 101-102 0-6-5-10-10-10z m113-51c-1 0-3 0-4 1-6 2-8 9-6 14 11 24 12 45 5 64-14 33-51 47-52 48-5 2-8 8-6 13 2 6 8 9 14 7 2-1 46-19 63-60 10-24 9-52-4-81-2-4-6-6-10-6z"/>
<glyph unicode="&#118;" d="M148 213c0 10 1 21 1 29l0 0c2-8 4-16 7-26l11-30 6 0 12 31c3 9 6 17 8 25l0 0c0-8 1-19 1-28l2-29 8 0-4 65-11 0-11-31c-3-8-6-16-7-22l0 0c-2 7-4 14-7 22l-11 31-11 0-4-65 8 0z m105-21l-28 0 0 24 25 0 0 6-25 0 0 21 26 0 0 7-34 0 0-65 36 0z m18 21c0 11 0 18 0 27l0 0c3-7 8-15 12-22l21-33 8 0 0 65-8 0 0-27c0-10 0-18 1-27l0 0c-3 7-7 14-12 21l-20 33-9 0 0-65 7 0z m79-29c14 0 24 8 24 28l0 38-8 0 0-38c0-15-6-21-16-21-9 0-15 6-15 21l0 38-9 0 0-38c0-20 10-28 24-28z m68-184l-324 0c-6 0-10 5-10 11l0 413c0 5 4 10 10 10l324 0c6 0 11-5 11-10l0-413c0-6-5-11-11-11z m-313 21l302 0 0 392-302 0z m-11 392c-5 0-10 4-10 9-1 6 3 11 9 12 2 0 187 27 241 75 3 3 8 4 11 2 4-2 7-6 7-10l-1-76c0-6-5-11-10-11 0 0-1 0-1 0-5 0-10 5-10 11l0 55c-71-44-227-66-234-67-1 0-1 0-2 0z"/>
<glyph unicode="&#119;" d="M352 231l-192 0c-34 0-62 28-62 63l0 156c0 34 28 62 62 62l192 0c34 0 62-28 62-62l0-156c0-35-28-63-62-63z m-192 260c-22 0-41-19-41-41l0-156c0-23 19-41 41-41l192 0c22 0 41 18 41 41l0 156c0 22-19 41-41 41z m96-416c-6 0-11 5-11 11l0 151c0 6 5 10 11 10 6 0 11-4 11-10l0-151c0-6-5-11-11-11z m-66 230c-5 0-10 5-10 11l0 112c0 5 5 10 10 10 6 0 11-5 11-10l0-112c0-6-5-11-11-11z m66 0c-6 0-11 5-11 11l0 112c0 5 5 10 11 10 6 0 11-5 11-10l0-112c0-6-5-11-11-11z m66 0c-6 0-11 5-11 11l0 112c0 5 5 10 11 10 5 0 10-5 10-10l0-112c0-6-5-11-10-11z m-66-298c-15 0-27 12-27 27l0 96c0 15 12 27 27 27 15 0 27-12 27-27l0-96c0-15-12-27-27-27z"/>
<glyph unicode="&#120;" d="M278 78l-47 0c-83 0-151 70-151 156l0 148c0 6 5 11 10 11l328 0c6 0 11-5 11-11l0-148c0-86-68-156-151-156z m-177 293l0-137c0-75 58-135 130-135l47 0c71 0 130 60 130 135l0 137z m359-156c-29 0-52 25-52 55l0 46c0 30 23 55 52 55 29 0 52-25 52-55l0-46c0-31-23-55-52-55z m0 135c-17 0-31-16-31-34l0-46c0-19 14-34 31-34 17 0 31 15 31 34l0 46c0 18-14 34-31 34z m-206-350c-123 0-254 31-254 90 0 32 39 58 111 75 6 1 11-3 13-8 1-6-2-12-8-13-58-13-95-35-95-54 0-33 96-69 233-69 138 0 233 36 233 69 0 19-37 41-94 54-6 1-10 7-8 13 1 5 7 9 13 8 71-17 111-43 111-75 0-59-131-90-255-90z m52 400c-6 0-10 5-10 11l0 56c0 6 4 11 10 11 6 0 11-5 11-11l0-56c0-6-5-11-11-11z m-52 0c-6 0-10 5-10 11l0 90c0 6 4 11 10 11 6 0 11-5 11-11l0-90c0-6-5-11-11-11z m-52 0c-6 0-10 5-10 11l0 56c0 6 4 11 10 11 6 0 11-5 11-11l0-56c0-6-5-11-11-11z"/>
<glyph unicode="&#121;" d="M413 47l-314 0c-3 0-5 1-7 3l-88 71c-4 3-5 8-3 12 1 4 5 7 10 7l490 0c5 0 9-3 10-7 2-4 1-9-3-12l-88-71c-2-2-4-3-7-3z m-311 21l308 0 61 51-430 0z m228 129c-22 0-42 11-54 31-13 21-17 44-11 66 13 44 60 74 87 87 42 22 42 27 43 33 0 1 0 3 0 5 1 2 1 5 1 9 0 10-1 26 17 35 3 1 6 2 9 2 17 0 26-19 31-31 0 0 0 0 1-1 6-1 17-3 25-9 8-5 12-15 10-25-2-10-9-17-17-19-3-1-6-1-9-1l-9 0c-9 0-18-1-25-8-4-5-4-23-4-40 0-21-1-46-8-70-11-36-50-64-87-64z m92 247c-4-3-5-5-5-16 0-4 0-8-1-12 0-2 0-3 0-4-2-16-7-25-54-50-41-20-69-48-76-74-5-16-2-32 8-49 11-17 26-21 36-21 0 0 0 0 0 0 28 0 58 23 67 49 6 21 6 44 6 64 0 24 0 43 11 54 12 14 28 15 40 15l9 0c3 0 3 0 4 0 0 0 1 1 1 3 0 0 0 3-1 4-6 4-17 6-21 6-3 0-5 1-7 4-2 2-3 4-5 8-5 12-10 18-12 19z m-288-314c-1 0-1 0-1 0-6 1-10 6-10 12 3 41-80 48-81 48-6 1-10 5-10 11l-1 33c0 3 1 6 4 8 2 2 6 3 9 2 1 0 41-4 150 95 3 2 72 61 139 25 5-3 7-10 4-15-3-5-9-7-15-4-53 29-113-22-114-22-86-79-134-96-156-99l1-13c26-4 95-19 91-71 0-5-5-10-10-10z m304 0c-1 0-3 1-4 1-6 3-8 9-5 15 41 84-23 157-23 158-4 5-4 11 1 15 4 4 11 4 15-1 0 0 73-84 26-182-2-3-6-6-10-6z"/>
<glyph unicode="&#122;" d="M256 0c-141 0-256 115-256 256 0 141 115 256 256 256 141 0 256-115 256-256 0-141-115-256-256-256z m0 491c-129 0-235-106-235-235 0-129 106-235 235-235 129 0 235 106 235 235 0 129-106 235-235 235z m0-392c-86 0-157 71-157 157 0 86 71 157 157 157 86 0 157-71 157-157 0-86-71-157-157-157z m0 292c-75 0-135-60-135-135 0-75 60-135 135-135 75 0 135 60 135 135 0 75-60 135-135 135z"/>
<glyph unicode="&#65;" d="M285 440l-58 0c-6 0-11 5-11 11l0 50c0 6 5 11 11 11l58 0c6 0 11-5 11-11l0-50c0-6-5-11-11-11z m-47 22l36 0 0 29-36 0z m97-462l-158 0c-5 0-10 5-10 11l0 284c0 4 1 26 32 48 7 6 17 12 20 15 0 1 0 2 0 2l0 91c0 6 5 11 11 11l52 0c6 0 11-5 11-11l0-91c0 0 0-1 0-2 3-3 13-9 20-15 33-24 32-47 32-49l0-283c0-3-1-6-3-8-2-2-5-3-7-3z m-147 21l136 0 0 274c0 1 0 14-23 31-27 19-31 22-30 33 0 0 0 1 0 1l0 80-30 0 0-80c0 0 0-1 0-1 1-11-3-14-30-33-23-17-23-30-23-31z"/>
<glyph unicode="&#66;" d="M414 375c-22 0-39 17-39 39 0 21 17 38 39 38 21 0 38-17 38-38 0-22-17-39-38-39z m0 56c-10 0-18-8-18-17 0-10 8-18 18-18 9 0 17 8 17 18 0 9-8 17-17 17z m-276-431c-4 0-7 2-9 5-1 2-31 45-31 93 0 0 0 0 0 0-48 0-92 30-93 31-4 2-5 6-5 10 0 4 3 7 6 9l118 52c10 40 22 76 35 108l-59 8c-3 0-6 2-8 5-1 3-2 7 0 10 7 13 65 124 112 146 23 10 48 6 72-12 54 39 109 47 147 47 42 0 71-10 72-11 3-1 5-3 6-6 2-5 40-114-36-219 18-24 22-49 12-72-22-47-133-105-146-112-3-1-7-1-10 0-3 2-5 5-5 8l-8 59c-32-13-68-25-108-35l-52-118c-2-3-5-6-9-6 0 0-1 0-1 0z m-28 120c3 0 5-1 7-3 3-2 4-5 3-9-3-28 8-56 17-74l46 104c1 3 4 5 7 6 46 10 87 24 122 41 4 1 7 1 10-1 3-1 5-4 6-8l7-58c38 21 109 65 123 95 7 17 3 36-15 56-3 3-3 9 0 13 66 86 46 179 40 201-10 3-32 8-60 8-52 0-99-16-141-48-4-3-9-3-13 0-10 8-24 18-40 18-5 0-11-1-16-3-30-14-74-85-95-123l58-7c4-1 7-3 8-6 2-3 2-6 1-10-17-35-31-76-41-122-1-3-3-6-6-7l-104-46c18-9 46-20 74-17 1 0 1 0 2 0z"/>
<glyph unicode="&#67;" d="M256 116c-117 0-212 89-212 198 0 6 5 11 11 11l402 0c6 0 11-5 11-11 0-109-95-198-212-198z m-190 187c6-92 89-166 190-166 101 0 184 74 190 166z m242 46c-6 0-11 5-11 11l0 57c0 6 5 11 11 11 6 0 10-5 10-11l0-57c0-6-4-11-10-11z m-52 0c-6 0-11 5-11 11l0 86c0 5 5 10 11 10 6 0 11-5 11-10l0-86c0-6-5-11-11-11z m-52 0c-6 0-10 5-10 11l0 57c0 6 4 11 10 11 6 0 11-5 11-11l0-57c0-6-5-11-11-11z m240-293l-376 0c-5 0-10 5-10 10 0 6 5 11 10 11l376 0c5 0 10-5 10-11 0-5-5-10-10-10z m57 220l-41 0c-6 0-10 4-10 10 0 6 4 11 10 11l41 0c6 0 11-5 11-11 0-6-5-10-11-10z m-449 0l-41 0c-6 0-11 4-11 10 0 6 5 11 11 11l41 0c6 0 10-5 10-11 0-6-4-10-10-10z"/>
<glyph unicode="&#68;" d="M433 0l-148 0c-6 0-11 5-11 11 0 6 5 10 11 10l138 0 35 390-198 0 14-152c0-6-4-11-10-11-6-1-11 3-12 9l-14 164c0 3 1 6 3 8 2 2 5 3 8 3l220 0c3 0 6-1 8-3 2-2 3-5 3-8l-37-411c0-6-5-10-10-10z m-59 169c-5 0-9 3-10 8-8 41-45 70-87 70l-131 0c-42 0-78-29-86-70-1-5-7-9-13-8-6 1-9 7-8 12 10 51 55 88 107 88l131 0c52 0 98-37 108-88 1-5-3-11-9-12-1 0-1 0-2 0z m-97-169l-131 0c-52 0-97 36-107 87-1 5 2 11 8 12 6 1 12-2 13-8 8-40 44-70 86-70l131 0c42 0 79 30 87 70 1 6 6 9 12 8 6-1 10-7 9-12-10-51-56-87-108-87z m93 78l-317 0c-31 0-56 25-56 56 0 30 25 55 56 55l317 0c31 0 56-25 56-55 0-31-25-56-56-56z m-317 90c-19 0-34-16-34-34 0-19 15-35 34-35l317 0c19 0 35 16 35 35 0 18-16 34-35 34z m451 243l-290 0c-6 0-11 5-11 11 0 5 5 10 11 10l290 0c6 0 11-5 11-10 0-6-5-11-11-11z m-196 0c-4 0-7 1-9 4l-59 80c-3 5-2 11 2 15 5 3 12 2 15-2l59-80c4-5 3-12-2-15-2-1-4-2-6-2z"/>
<glyph unicode="&#69;" d="M79 0c-6 0-11 5-11 11l0 304c0 6 5 10 11 10 6 0 11-4 11-10l0-304c0-6-5-11-11-11z m-62 366c-6 0-11 5-11 11l0 124c0 6 5 11 11 11 6 0 10-5 10-11l0-124c0-6-4-11-10-11z m62 0c-6 0-11 5-11 11l0 124c0 6 5 11 11 11 6 0 11-5 11-11l0-124c0-6-5-11-11-11z m62 0c-5 0-10 5-10 11l0 124c0 6 5 11 10 11 6 0 11-5 11-11l0-124c0-6-5-11-11-11z m-62-62c-40 0-73 33-73 73 0 5 5 10 11 10 6 0 10-5 10-10 0-29 24-52 52-52 29 0 52 23 52 52 0 5 5 10 10 10 6 0 11-5 11-10 0-40-33-73-73-73z m207-304c-6 0-11 5-11 11l0 304c0 6 5 10 11 10 6 0 11-4 11-10l0-304c0-6-5-11-11-11z m-62 366c-6 0-11 5-11 11l0 67c0 6 5 11 11 11 6 0 10-5 10-11l0-67c0-6-4-11-10-11z m125 0c-6 0-11 5-11 11l0 67c0 6 5 11 11 11 5 0 10-5 10-11l0-67c0-6-5-11-10-11z m-63-62c-40 0-73 33-73 73 0 5 5 10 11 10 6 0 10-5 10-10 0-29 24-52 52-52 29 0 52 23 52 52 0 5 5 10 11 10 5 0 10-5 10-10 0-40-33-73-73-73z m63 125c-6 0-11 5-11 11 0 28-23 51-52 51-28 0-52-23-52-51 0-6-4-11-10-11-6 0-11 5-11 11 0 39 33 72 73 72 40 0 73-33 73-72 0-6-5-11-10-11z m146-429l-61 0c-3 0-6 1-8 3-2 3-3 6-2 9l13 135c-8 2-20 7-28 18-10 13-12 30-6 51 3 15 7 40 10 69 15 115 32 212 79 227 3 1 7 0 10-2 2-2 4-5 4-9l0-490c0-6-5-11-11-11z m-49 21l39 0 0 460c-29-33-42-134-50-198-4-31-8-57-12-72-3-15-3-26 3-33 8-11 23-12 23-12 3 0 6-1 8-3 2-3 3-5 2-8z"/>
<glyph unicode="&#70;" d="M162 144c-69 0-126 63-126 140 0 5 0 10 1 15 0 5 5 9 10 9l230 0c6 0 10-4 11-9 0-5 1-10 1-15 0-77-57-140-127-140z m-105 143c0-1 0-2 0-3 0-65 47-119 105-119 58 0 105 54 105 119 0 1 0 2 0 3z m105-268c-6 0-10 5-10 11l0 119c0 6 4 10 10 10 6 0 11-4 11-10l0-119c0-6-5-11-11-11z m56 0l-111 0c-6 0-11 5-11 11 0 6 5 10 11 10l111 0c5 0 10-4 10-10 0-6-5-11-10-11z m-21 206c-6 0-11 1-17 3-3 2-6 4-10 5-7 4-13 8-20 9-11 2-23-1-31-3l-3-1c-11-3-23-7-36-7-9 1-17 3-24 8-1 1-2 2-4 3-1 1-2 2-3 2-5 1-9 7-8 13 2 5 8 9 13 8 5-2 9-4 12-7 0 0 1-1 2-1 4-3 8-4 13-4 9-1 19 2 29 5l3 1c10 3 25 7 41 4 10-2 18-7 26-11 3-1 6-3 9-4 7-4 15-1 26 3 6 2 12 4 19 5 11 2 26 2 41-9 5-4 5-10 2-15-4-5-11-5-15-2-7 5-14 7-25 5-4-1-9-2-15-4-7-3-16-6-25-6z m228-225l-76 0c-29 0-52 23-52 52l0 240c0 19 11 36 28 45 1 16 6 35 17 51 16 21 0 52 0 52-1 1-1 3-1 4l-4 57c0 3 1 5 3 8 2 2 5 3 8 3l78 0c3 0 5-1 7-3 3-3 4-5 3-8l-4-57c0-1 0-3-1-4 0 0-16-31 0-52 12-16 16-35 17-51 17-9 28-26 28-45l0-240c0-29-23-52-51-52z m-63 448c4-10 18-45-3-73-10-13-13-32-13-45 0-5-3-9-7-10-12-4-21-16-21-28l0-240c0-17 14-31 31-31l76 0c16 0 30 14 30 31l0 240c0 12-8 24-21 28-4 1-7 5-7 10 0 13-3 32-13 45-21 28-7 63-3 73l3 43-55 0z"/>
<glyph unicode="&#71;" d="M312 133l-112 0c-72 0-131 57-131 127l0 123c0 6 5 10 10 10l354 0c5 0 10-4 10-10l0-123c0-70-59-127-131-127z m-222 239l0-112c0-58 49-105 110-105l112 0c61 0 110 47 110 105l0 112z m372 0l-412 0c-5 0-10 5-10 11 0 6 5 10 10 10l412 0c5 0 10-4 10-10 0-6-5-11-10-11z m-151 45c-6 0-10 5-10 11l0 53c0 6 4 10 10 10 6 0 11-4 11-10l0-53c0-6-5-11-11-11z m-55 0c-6 0-11 5-11 11l0 73c0 6 5 11 11 11 6 0 11-5 11-11l0-73c0-6-5-11-11-11z m-55 0c-6 0-11 5-11 11l0 53c0 6 5 10 11 10 6 0 11-4 11-10l0-53c0-6-5-11-11-11z m-122-116c-4 0-8 3-10 7-4 15-11 24-20 27-15 6-32-6-32-6-5-3-12-2-15 3-3 5-2 11 3 15 1 0 26 17 51 9 15-6 27-20 34-41 1-6-2-12-7-14-1 0-2 0-4 0z m354 0c-1 0-3 0-4 0-5 2-8 8-7 14 7 21 19 35 34 41 25 8 50-9 51-9 5-4 6-10 3-15-3-5-10-6-15-3 0 0-17 12-32 6-9-3-16-12-20-27-2-4-6-7-10-7z m31-301l-416 0c-6 0-11 5-11 11 0 6 5 10 11 10l416 0c6 0 11-4 11-10 0-6-5-11-11-11z m-363 23c-6 0-10 5-11 11 0 15 9 32 20 42l3 2c8 6 11 9 11 15 0 4 3 7 6 9 4 1 8 1 11-1 4-3 8-6 12-9 9-5 18-11 25-20 1 1 2 2 4 3 8 7 23 15 35 16 6 1 12 2 18 2 12 0 23 1 32 8 3 1 6 2 9 2 2-1 5-3 7-5 4-7 11-12 18-18 3-2 5-4 8-6l2-1c0-1 0-1 0-1 3 6 7 11 13 16 3 2 7 4 12 6 4 3 13 8 14 10 1 4 4 7 8 7 4 1 8 0 10-3l5-6c8-9 15-17 25-25l2-1c9-7 23-17 21-33 0-6-5-11-11-10-6 0-10 5-10 11 0 5-8 11-13 15l-2 1c-10 8-18 16-25 24-4-3-9-6-14-8-4-2-7-4-9-5-8-6-8-13-8-26 0-1 0-2 0-3-1-5-5-10-11-10-6 1-11 5-11 11 0 0 0 1 0 1 0 4-4 7-10 12l-2 1c-2 2-4 4-7 6-6 5-12 9-17 15-12-5-24-6-35-6-6-1-11-1-16-2-7-1-19-7-25-12-2-1-2-2-4-7l0-2c-1-4-3-9-8-13-3-2-7-2-11-1-3 2-5 6-5 10-1 13-10 19-25 29-1 1-1 1-2 1-4-5-9-9-13-13l-3-3c-7-5-12-17-12-25 0-6-5-11-11-11 0 0 0 0 0 0z"/>
<glyph unicode="&#72;" d="M412 0l-312 0c-5 0-9 3-10 8l-49 221c-1 6 2 11 8 13 6 1 11-3 13-8l47-213 294 0 47 213c2 5 7 9 13 8 6-2 9-7 8-13l-49-221c-1-5-5-8-10-8z m-156 163c-33 0-64 14-85 38-13-4-27-6-41-6-72 0-130 55-130 122 0 68 58 123 130 123 7 0 14-1 22-2 13 44 55 74 104 74 49 0 91-30 104-74 8 1 15 2 22 2 72 0 130-55 130-123 0-67-58-122-130-122-14 0-28 2-41 6-21-24-52-38-85-38z m-81 62c3 0 6-2 8-5 17-22 44-36 73-36 29 0 56 14 73 36 2 4 7 6 12 4 13-5 27-8 41-8 60 0 109 46 109 101 0 56-49 102-109 102-9 0-18-2-27-4-3 0-6 0-8 2-3 1-4 4-5 7-7 38-44 67-86 67-42 0-79-29-86-67-1-3-2-6-5-7-2-2-5-2-8-2-9 2-18 4-27 4-60 0-109-46-109-102 0-55 49-101 109-101 14 0 28 3 41 8 1 0 3 1 4 1z"/>
<glyph unicode="&#73;" d="M256 204c-99 0-204 26-204 76 0 49 105 76 204 76 99 0 204-27 204-76 0-50-105-76-204-76z m0 131c-113 0-183-32-183-55 0-23 70-55 183-55 113 0 183 32 183 55 0 23-70 55-183 55z m0-255c-113 0-204 90-204 200 0 6 4 10 10 10 6 0 11-4 11-10 0-98 82-178 183-178 101 0 183 80 183 178 0 6 5 10 11 10 6 0 10-4 10-10 0-110-91-200-204-200z m-94-39c-2 0-3 1-5 1-5 3-7 9-5 14l17 39c2 4 6 7 10 7l88 0c6 0 11-5 11-11 0-6-5-11-11-11l-81 0-14-32c-2-4-6-7-10-7z m188 0c-4 0-8 3-9 7l-15 32-81 0c-6 0-11 5-11 11 0 6 5 11 11 11l88 0c4 0 8-3 10-7l17-39c2-5 0-11-5-14-2 0-3-1-5-1z m-94 200c-6 0-11 5-11 11l0 56c0 6 5 11 11 11 6 0 11-5 11-11l0-56c0-6-5-11-11-11z m-42 0c-5 0-10 5-10 11l0 56c0 6 5 11 10 11 6 0 11-5 11-11l0-56c0-6-5-11-11-11z m-41 5c-6 0-11 5-11 11l0 46c0 6 5 11 11 11 6 0 11-5 11-11l0-46c0-6-5-11-11-11z m-42 6c-6 0-10 5-10 11l0 34c0 6 4 10 10 10 6 0 11-4 11-10l0-34c0-6-5-11-11-11z m167-11c-6 0-11 5-11 11l0 56c0 6 5 11 11 11 6 0 10-5 10-11l0-56c0-6-4-11-10-11z m41 5c-6 0-10 5-10 11l0 46c0 6 4 11 10 11 6 0 11-5 11-11l0-46c0-6-5-11-11-11z m42 6c-6 0-11 5-11 11l0 34c0 6 5 10 11 10 6 0 11-4 11-10l0-34c0-6-5-11-11-11z m-84 123c-5 0-10 5-10 11l0 47c0 6 5 11 10 11 6 0 11-5 11-11l0-47c0-6-5-11-11-11z m-41 0c-6 0-11 5-11 11l0 74c0 6 5 11 11 11 6 0 11-5 11-11l0-74c0-6-5-11-11-11z m-41 0c-6 0-11 5-11 11l0 47c0 6 5 11 11 11 5 0 10-5 10-11l0-47c0-6-5-11-10-11z m-164-218c-19 0-38 20-47 49-4 15-5 30-2 43 3 14 11 24 22 28 3 0 5 1 8 1 19 0 39-21 47-50 10-34 2-64-20-70-2-1-5-1-8-1z m-19 99c-1 0-1 0-2 0-3-1-6-5-8-12-2-9-1-21 2-32 8-24 22-36 29-34 7 2 13 20 6 44-7 22-20 34-27 34z m429-99c-3 0-6 0-8 1-22 6-30 36-20 70 8 29 28 50 47 50 3 0 5-1 8-1 11-4 19-14 22-28 3-13 2-28-2-43-9-29-28-49-47-49z m19 99c-7 0-20-12-27-34-7-24-1-42 6-44 7-2 21 10 29 34 3 11 4 23 2 32-2 7-5 11-8 12-1 0-1 0-2 0z"/>
<glyph unicode="&#74;" d="M128 296c-44 0-80 35-80 79 0 44 36 80 80 80 44 0 79-36 79-80 0-44-35-79-79-79z m0 138c-32 0-58-27-58-59 0-32 26-58 58-58 32 0 58 26 58 58 0 32-26 59-58 59z m355-96l-170 0c-6 0-11 4-11 10 0 53 43 96 96 96 52 0 95-43 95-96 0-6-4-10-10-10z m-159 21l147 0c-5 36-36 64-73 64-38 0-69-28-74-64z m177-63l-207 0c-6 0-11 4-11 10 0 6 5 11 11 11l207 0c6 0 11-5 11-11 0-6-5-10-11-10z m-80 157c-6 0-10 4-10 10 0 7-6 13-13 13-8 0-13-6-13-13 0-6-5-10-11-10-6 0-11 4-11 10 0 19 16 35 35 35 19 0 34-16 34-35 0-6-5-10-11-10z m-176-439l-234 0c-6 0-11 5-11 11l0 165c0 52 43 95 96 95l64 0c14 0 47-10 53-15l101-77 59 80c7 9 18 15 29 15 8 0 15-3 22-7 7-6 13-14 14-24 2-10-1-19-7-27l-80-110c-6-8-15-13-24-14-10-1-20 1-27 7l-44 34 0-122c0 0 0 0 0-1-1-5-5-10-11-10z m-224 22l213 0 0 132c0 4 3 8 6 10 4 2 8 1 11-1l62-47c3-3 7-4 11-3 4 1 7 3 10 6l80 110c3 3 4 7 3 11-1 4-3 7-6 10-6 4-16 3-21-4l-65-89c-2-2-4-3-7-4-3 0-6 1-8 2l-110 84c-4 2-30 11-40 11l-64 0c-41 0-75-33-75-74z"/>
<glyph unicode="&#75;" d="M384 0l-256 0c-53 0-96 53-96 118l0 8c0 6 5 11 10 11l428 0c5 0 10-5 10-11l0-8c0-65-43-118-96-118z m-331 115c1-52 34-94 75-94l256 0c41 0 74 42 75 94z m323 51c-5 0-10 1-15 3-3 1-7 3-10 5-8 4-15 7-22 5-1-1-2-1-4-3-4-3-9-7-17-7l-2 0c-11 0-24 3-34 7-3 2-5 3-8 4-4 3-8 5-11 4-1 0-3-2-4-3-3-3-7-6-11-8-4-2-8-2-13-2-9 0-18 3-25 5-4 2-8 3-12 4-4 1-13 0-19 0-1 0-3-1-6-3-2-2-4-3-7-4-6-3-12-4-19-4-10 0-20 3-29 5-11 3-21 6-31 4-3 0-6-1-9-1-7-2-14-4-22-4-4 0-8 1-11 2-17 4-39 24-34 46 0 1 0 2 1 3 2 4 5 10 7 17 6 14 12 31 25 38 3 1 6 2 9 2 6 0 12-3 16-5 1 0 3-1 4-2 3 0 3-2 10 5 13 13 25 19 41 19 5 0 11-1 18-2l3-1c9-1 20-3 28-13 4-5 7-10 9-15 2-4 4-9 7-11 1-2 3-2 6-2 1 0 2 0 3 0 1 0 3 0 4 0 4 0 10 0 16-4 4-2 6-5 9-8 0 0 1-1 1-1 0 1 1 3 1 4 0 3 1 6 1 9 7 24 24 37 46 37 13 0 26-4 38-13 7-5 10-14 12-23 0-1 1-2 1-4 0 0 0 0 0 0 2 3 4 7 8 11 3 2 8 5 13 5 5 0 9-2 11-4 1 2 2 3 4 5 4 2 8 5 15 5 6 0 12-3 16-8 5-4 8-11 11-16 1-2 3-6 4-6 0 0 0 0 0 0 5 0 12 6 18 11 3 3 6 6 9 8 9 6 20 14 35 14 4 0 8-1 12-2 20-4 34-17 38-35 4-19-2-43-15-56-9-10-20-15-35-15-8 0-16 2-24 4-11 2-22 3-30 1-2 0-5-1-7-2-7-2-15-5-24-5z m-42 35c10 0 19-4 27-8 2-2 5-3 8-4 7-3 15-1 24 2 3 1 6 2 9 3 11 3 26 1 39-2 7-1 14-2 21-2 8 0 14 2 19 8 7 7 12 23 9 37-3 12-15 17-22 19-10 2-17 0-29-9-3-2-5-4-8-7-8-7-18-17-32-17-15 0-20 12-24 19-1 4-3 8-5 10-1 1-2 1-3 2 0-1 0-1-1-1-1-1-1-1-1-2-1-2-4-8-13-8-2 0-3 0-5 0-4 1-7 2-9 4-1-1-2-3-2-4-3-4-5-9-10-12-4-2-8-3-11-3l0 0c-14 0-17 14-20 24-1 3-2 10-4 11-7 6-17 9-25 9-12 0-21-8-25-22-1-2-1-4-1-6-1-8-2-18-10-23-3-2-6-3-10-3-8 0-15 7-19 12-1 1-3 3-4 4-2 1-5 1-8 1-2 0-3 0-4 0-6 0-14 0-21 8-5 5-8 11-11 17-2 4-4 8-6 10-3 4-8 5-16 6l-3 1c-5 1-10 2-14 2-8 0-16-2-26-12-6-7-16-15-30-11-3 0-6 2-9 3-2 1-5 3-6 3-5-3-10-17-14-27-2-7-5-13-8-18 0-8 12-18 19-19 1-1 4-1 6-1 5 0 11 1 17 2 4 1 7 2 11 3 3 0 6 0 9 0 10 0 20-2 30-5 13-3 26-6 35-2 1 0 2 1 4 2 3 2 8 5 15 6 8 1 18 1 25 0 5-1 10-3 15-4 8-3 17-6 23-4 1 0 3 2 5 3 3 3 7 7 13 9 2 0 4 0 6 0 8 0 15-3 21-6 1-1 3-2 5-3 8-4 18-6 26-6l1 0c1 0 2 1 4 3 3 2 6 4 11 6 4 1 8 2 12 2z m134 120l-424 0c-4 0-7 2-9 4-2 3-3 7-2 10 33 106 123 177 223 177 18 0 36-2 53-7 1 0 1 0 1 0l0 0c1 0 1 0 1 0 0 0 0 0 1 0 78-22 140-85 167-170 1-3 0-7-2-10-2-2-5-4-9-4z m-409 21l394 0c-26 71-82 125-148 142 0 0 0 0-1 0-16 5-32 7-48 7-86 0-164-59-197-149z"/>
<glyph unicode="&#76;" d="M337 269c0 0-1 0-1 0-6 1-10 6-9 12 2 15 3 31 3 47 0 88-38 163-84 163-45 0-84-75-84-163 0-6-4-11-10-11-6 0-11 5-11 11 0 103 46 184 105 184 59 0 106-81 106-184 0-17-2-34-4-50-1-5-6-9-11-9z m-71-269c-5 0-9 0-13 0-1 0-3 0-5 0-7 0-14 0-20 3 0 0-1 0-1 1-1 0-1 0-2 0-5 3-6 10-3 15 1 2 2 5 3 8-21 4-41 14-54 28-20 20-26 47-31 70-5 27-9 54-12 81-2 12-3 24-5 36 0 0 0 0 0 0-2-2-5-5-8-10-1-2-3-5-4-8-3-7-7-15-14-20-3-3-8-4-12-1-4 2-6 7-5 11 1 5 1 10 1 16 0 5 0 10 0 14 1 7 3 14 5 20 1 2 2 4 2 6l1 3c5 17 11 34 18 51 5 11 12 15 18 17 14 4 29-3 44-12 3-2 6-4 10-6 11-6 24-13 34-24 4-5 6-11 9-16 1-3 2-5 3-7 5-9 8-16 11-24 6-14 9-28 13-42l2-6c4-14 7-28 10-42 0-2 1-3 1-5 1 3 2 7 3 10 11 36 22 73 46 104 13 18 33 26 54 23 22-3 41-20 49-43 2-5 4-11 6-17 3-11 7-21 11-30 2-4 1-8-1-11-3-4-7-5-11-4-5 1-10 4-13 7-2 1-3 2-4 3-4 3-14 8-21 11-1-2-1-4-1-5-1-2-1-4-2-6-4-14-6-28-8-43-2-9-3-18-5-28-1-3-2-7-2-11-4-21-9-48-22-66-7-9-17-17-27-20-4-2-9-2-16-2-2 0-6-1-9-1 0-2 1-5 1-7 1-4 1-7 1-10 0-6-4-10-10-11-5 0-10 0-15 0z m-17 22c2 0 4 0 5 0 5-1 10-1 15-1-2 8-2 15 1 21 5 7 16 7 27 8 4 0 8 0 10 1 5 2 13 7 16 12 11 15 15 38 19 58 1 4 1 8 2 12 2 9 3 18 5 26 2 15 5 31 9 46 0 1 0 3 1 4 1 7 3 16 11 21 2 1 7 3 14 1 5-1 11-4 17-7-1 2-1 3-1 4-2 5-4 11-6 16-5 16-18 27-33 29-12 2-24-3-33-15-21-28-32-62-43-97-4-16-9-31-15-47-2-4-6-7-10-6-5 0-9 3-10 7-4 14-7 29-10 42-3 14-6 28-9 41l-2 6c-4 14-8 27-13 40-2 7-6 14-10 22-1 2-2 5-4 8-2 4-3 8-6 11-7 8-17 14-28 20-3 2-7 4-10 6-6 3-20 12-27 10-1-1-3-1-5-6-6-15-11-32-16-48l-1-3c-1-2-2-5-2-7-1-1-1-1-1-2 7 8 16 14 26 13 5 0 8-4 9-9l1-4c1-3 2-7 2-10 2-12 3-24 5-36 4-27 7-54 12-80 5-26 11-45 25-60 12-12 32-21 52-22 4 0 8-4 9-9 2-5 1-11-1-16 1 0 1 0 2 0 0 0 1 0 1 0z m71 391l-147 0c-6 0-11 5-11 11 0 6 5 11 11 11l147 0c5 0 10-5 10-11 0-6-5-11-10-11z m20-71l-187 0c-6 0-11 5-11 11 0 6 5 10 11 10l187 0c6 0 10-4 10-10 0-6-4-11-10-11z m-127-73c-6 0-11 5-11 11l0 209c0 6 5 11 11 11 6 0 10-5 10-11l0-209c0-6-4-11-10-11z m69-95c-6 0-11 5-11 11l0 304c0 6 5 11 11 11 5 0 10-5 10-11l0-304c0-6-5-11-10-11z m54 97l-125 0c-5 0-10 4-10 10 0 6 5 11 10 11l125 0c6 0 11-5 11-11 0-6-5-10-11-10z m-49-72l-49 0c-6 0-10 5-10 11 0 6 4 11 10 11l49 0c6 0 11-5 11-11 0-6-5-11-11-11z"/>
<glyph unicode="&#77;" d="M29 0c-2 0-4 1-6 2-3 2-4 5-4 8l-19 169c0 3 1 6 3 9l116 105c4 4 11 4 15-1 4-4 4-11-1-15l-111-101 17-153 395 56c5 0 16 2 19 2 18 5 36 26 38 46 1 18-8 31-28 39-3 2-6 5-6 10 0 4 2 8 6 9 0 1 13 7 19 21 8 17 12 41-16 59l-210 124-10-9c-4-4-11-4-15 1-4 4-4 11 1 15l15 14c4 3 9 4 13 1l217-128c32-20 40-53 24-87-3-8-9-14-14-19 18-12 27-30 25-51-3-30-27-59-54-65-6-2-20-3-22-3l-405-58c-1 0-1 0-2 0z m-8 84c-5 0-9 3-10 9-1 5 3 11 8 12l447 81c5 2 11-2 12-8 1-6-3-12-9-13l-446-81c-1 0-1 0-2 0z m-7 86c-5 0-10 4-11 9-1 6 3 11 9 13l458 92c6 1 11-3 12-8 2-6-2-12-8-13l-458-92c-1-1-1-1-2-1z m167 79c-2 0-5 0-8 1-47 5-82 48-77 97 5 48 46 84 94 79 23-2 43-13 57-31 15-19 22-42 20-66-5-45-41-80-86-80z m0 156c-33 0-60-26-64-60-3-37 23-70 58-74 36-4 67 23 70 60 2 18-3 36-14 50-11 14-26 22-43 24-2 0-5 0-7 0z m-5 1c-5 0-10 4-10 10-5 47-43 77-43 77-5 3-6 10-2 15 4 4 10 5 15 2 2-2 46-36 51-92 1-6-4-11-10-12 0 0 0 0-1 0z"/>
<glyph unicode="&#78;" d="M404 252c-63 0-125 66-147 157-1 3 0 6 1 8 2 2 4 4 7 5l228 52c2 1 5 0 8-1 2-2 4-4 4-7 23-103-13-196-82-212-6-2-13-2-19-2z m-124 151c22-75 73-130 124-130l0 0c5 0 10 1 15 2 53 12 83 90 68 176z m169-274c-4 0-9 4-10 9l-27 119c-2 6 2 11 8 13 5 1 11-3 12-8l28-120c1-5-2-11-8-12-1-1-2-1-3-1z m-44-12c-5 0-9 4-10 9-2 5 2 11 8 13l89 20c6 1 12-2 13-8 1-6-2-11-8-13l-90-20c0 0-1-1-2-1z m-73 231c-1 0-2 0-4 1-7 0-13 3-20 5-7 2-14 5-20 4-5-1-11 2-12 8-1 6 2 11 8 13 12 2 22-2 32-5 5-2 10-4 14-4 10-1 19 6 28 13l2 2c18 15 37 12 54 9 6-1 11-1 17-2 6 0 11 1 14 3 3 3 5 7 8 11 3 4 5 8 9 12 7 7 27 16 40 8 5-3 7-9 4-14-3-5-10-7-15-4-2 1-11-3-14-5-2-2-4-5-6-9-3-5-7-11-13-15-7-6-16-8-27-8-7 0-14 1-21 2-16 3-26 4-37-5l-2-1c-10-8-23-19-39-19z m-214-178c0 0 0 0 0 0-3 0-6 0-9 1-70 7-117 94-108 200 0 3 2 5 4 7 2 2 5 3 8 2l232-23c3 0 6-1 8-4 1-2 2-5 2-7-11-100-70-176-137-176z m-96 188c-5-87 35-161 90-166 55-6 107 59 120 145z m76-314c0 0-1 0-1 0-6 0-10 6-10 11l12 122c1 6 6 10 12 10 6-1 10-6 10-12l-12-122c-1-5-6-9-11-9z m46-6c-1 0-1 0-1 0l-92 9c-6 0-10 5-10 11 1 6 6 10 12 10l92-9c5-1 10-6 9-12 0-5-5-9-10-9z m27 238c-5 0-11 1-17 3-7 3-13 6-19 9-15 8-24 12-37 7l-2-1c-13-5-30-11-46-3-7 3-12 7-18 11-6 5-12 9-17 10-6 1-10 6-10 12 1 6 6 10 12 9 12-1 21-8 29-14 4-4 8-7 12-9 9-4 19 0 31 4l2 1c22 8 39 0 54-8 6-3 11-6 16-8 6-2 11-2 14-1 4 1 7 4 11 7 4 3 7 6 12 9 9 4 31 7 41-5 4-5 3-11-1-15-5-4-11-3-15 1-2 1-12 1-15 0-3-2-6-4-9-7-4-3-10-8-17-10-3-1-7-2-11-2z"/>
<glyph unicode="&#79;" d="M117 0c-29 0-54 22-59 50-32 1-58 28-58 61 0 33 27 60 61 60 9 0 17-2 26-6 27 3 41 55 41 55 6 21 12 41 17 61 10 36 20 72 32 107 15 44 38 92 93 112 21 8 43 12 66 12 80 0 148-46 169-114 21-69-7-144-72-187-30-21-76-37-123-45-33-5-76-21-102-36-28-16-31-59-31-59 0 0 0-1 0-1 1-3 1-6 1-9 0-34-27-61-61-61z m-39 60c1-21 18-39 39-39 22 0 40 18 40 40 0 2-1 5-2 9 0 3 0 5 2 8 1 14 9 52 40 70 29 17 74 33 110 39 33 6 81 19 114 42 56 37 82 104 64 162-22 69-90 100-149 100-20 0-40-4-58-11-47-17-66-58-80-99-12-34-22-70-32-105-6-21-11-41-17-61-1-3-18-72-64-72-2 0-4 1-6 2-6 3-12 5-18 5-22 0-40-18-40-39 0-22 18-40 40-40 1 0 3 1 5 1 3 0 6-1 9-3 2-2 3-5 3-8 0 0 0 0 0-1z"/>
<glyph unicode="&#80;" d="M445 284l-375 0c-2 0-3 0-4 0-18 7-30 18-35 33-12 38 22 88 23 90 68 87 145 105 199 105 104 0 195-67 220-129 13-36 15-63 3-81-9-14-23-18-31-18 0 0 0 0 0 0z m-374 21l373 0c2 0 10 2 14 9 7 12 5 33-5 61-22 56-108 116-200 116-49 0-120-17-182-97-7-11-27-47-19-70 2-9 9-15 19-19z m358-305l-346 0c-29 0-52 33-52 73l0 7c0 6 5 11 11 11l429 0c6 0 10-5 10-11l0-7c0-40-23-73-52-73z m-377 69c2-26 16-48 31-48l346 0c16 0 30 22 31 48z m209 117c-20 0-40 7-59 21-19 14-33 20-48 20l-1 0c-8 0-13 0-17-3-3-1-5-3-7-6-3-2-6-5-9-7-28-20-71-33-117 19-4 4-4 11 1 15 4 4 11 3 15-1 29-33 58-38 88-16 2 1 5 3 7 6 3 2 6 5 9 8 11 7 22 7 30 7l1 0c25-1 45-13 60-24 17-13 34-18 50-18 12 1 25 10 38 19 8 4 15 9 23 13 19 9 37 8 52-3 4-3 8-6 11-9 8-6 17-12 25-16 13-6 30-2 45 11 3 2 5 5 8 7 9 10 18 19 35 20 6 0 11-5 11-11 0-6-4-11-10-11-8 0-13-4-21-13-3-2-6-5-9-8-21-19-47-24-68-15-11 5-20 13-29 20-3 2-7 5-11 8-9 6-18 7-30 1-6-3-13-8-20-12-15-11-32-21-49-22-2 0-3 0-4 0z m233-54l-475 0c-6 0-11 5-11 11 0 6 5 10 11 10l475 0c6 0 10-4 10-10 0-6-4-11-10-11z"/>
<glyph unicode="&#81;" d="M256 400c-87 0-181 18-181 56 0 39 94 56 181 56 87 0 181-17 181-56 0-38-94-56-181-56z m0 91c-105 0-160-24-160-35 0-10 55-34 160-34 105 0 160 24 160 34 0 11-55 35-160 35z m0-168c-81 0-219 12-219 56 0 6 5 11 11 11 6 0 10-5 10-11 3-12 74-34 198-34 124 0 195 22 198 34 0 6 4 11 10 11 6 0 11-5 11-11 0-44-138-56-219-56z m-208 51c-1 0-3 0-4 1-6 3-8 9-5 14l36 72c3 5 9 7 15 5 5-3 7-9 4-15l-36-71c-2-4-6-6-10-6z m416 0c-4 0-8 2-10 6l-36 71c-3 6-1 12 4 15 6 2 12 0 15-5l36-72c3-5 1-11-5-14-1-1-3-1-4-1z m-150-374l-117 0c-53 0-96 34-97 75l-27 270c-1 5 3 11 9 11 6 1 11-3 12-9l28-270c0-1 0-1 0-1 0-30 34-55 75-55l117 0c42 0 76 24 76 54 0 0 0 1 0 1l28 272c1 6 6 11 12 10 6-1 10-6 9-12l-28-272c0-41-43-74-97-74z"/>
<glyph unicode="&#82;" d="M256 0c-129 0-234 96-234 213 0 69 37 134 99 174 5 4 12 2 15-3 3-5 1-11-4-15-56-36-89-94-89-156 0-106 95-192 213-192 118 0 213 86 213 192 0 71-43 136-113 170-6 2-8 9-5 14 2 5 8 8 14 5 77-37 125-109 125-189 0-117-105-213-234-213z m1 202c-1 0-3 1-4 1-2 1-47 19-58 58-12-5-31-11-51-11-9 0-17 1-24 3-5 2-9 7-8 12 0 2 5 42 33 74-10 7-25 22-32 47-2 4 0 9 4 12 4 2 42 24 82 24 14 0 26-2 37-8 10 6 29 15 56 15 27 0 55-8 83-26 4-2 6-7 5-11-1-5-5-8-10-8-1 0-18-2-32-17 14-8 37-25 60-60 3-4 3-9 0-12-2-4-7-5-11-5 0 0-31 7-58 7-11 0-19-1-23-3 0-16-4-52-42-89-2-2-4-3-7-3z m-53 84c2 0 4 0 6-1 3-2 5-6 5-9 0-27 27-44 40-50 35 37 29 72 29 73-1 4 1 8 5 11 8 6 22 8 40 8 13 0 25-1 36-2-25 30-46 37-46 37-3 1-5 3-7 6-1 3-1 6 1 9 8 15 19 23 29 29-17 7-33 11-50 11-30 0-48-14-48-14-4-3-9-4-12-1-10 5-21 8-33 8-26 0-51-11-63-17 11-25 30-33 31-34 3-1 6-4 6-8 1-3-1-7-3-9-22-20-31-47-35-61 3 0 6 0 9 0 27 0 55 13 55 13 2 1 3 1 5 1z m38 56c-5 0-9 3-10 8-23 97 33 156 35 159 5 4 11 4 16 0 4-4 4-11 0-15-2-2-51-54-31-139 2-6-2-11-8-13 0 0-1 0-2 0z"/>
<glyph unicode="&#83;" d="M306 280c5 0 9 4 9 9 0 5-4 9-9 9-5 0-9-4-9-9 0-5 4-9 9-9z m-35-17c0 4-3 8-8 8-5 0-8-4-8-8 0-5 3-8 8-8 5 0 8 3 8 8z m34-11c0-5-4-9-9-9-4 0-8 4-8 9 0 4 4 8 8 8 5 0 9-4 9-8z m-28 47c0-5-4-9-9-9-4 0-8 4-8 9 0 5 4 9 8 9 5 0 9-4 9-9z m-21-266c-116 0-210 84-210 188 0 6 5 10 11 10l398 0c6 0 11-4 11-10 0-104-94-188-210-188z m-188 177c6-87 88-156 188-156 100 0 182 69 188 156z m433 0l-490 0c-6 0-11 5-11 11 0 6 5 10 11 10l490 0c6 0 11-4 11-10 0-6-5-11-11-11z m-345-210c-3 0-6 1-8 3-4 4-4 11 0 15l26 26c2 2 5 3 8 3l74 0c6 0 11-4 11-10 0-6-5-11-11-11l-70 0-23-23c-2-2-5-3-7-3z m200 0c-2 0-5 1-7 3l-23 23-70 0c-6 0-11 5-11 11 0 6 5 10 11 10l74 0c3 0 6-1 8-3l26-26c4-4 4-11 0-15-2-2-5-3-8-3z m-139 294c-5 0-10 1-14 3l-159 73c-8 4-13 10-16 18-2 7 0 16 4 23l59 88c6 8 14 13 23 13 7 0 14-3 19-7l130-117c12-11 15-30 6-43l-24-36c-6-9-17-15-28-15z m-103 197c-2 0-4-1-5-3l-59-89c-1-2-2-4-1-5 0-2 2-3 4-4l159-73c5-3 12 0 15 4l24 36c3 4 2 12-2 15l-130 117c-2 1-3 2-5 2z"/>
<glyph unicode="&#84;" d="M180 100c-31 0-56 25-56 56 0 31 25 56 56 56 31 0 56-25 56-56 0-31-25-56-56-56z m0 90c-19 0-35-15-35-34 0-19 16-34 35-34 19 0 34 15 34 34 0 19-15 34-34 34z m91-16c-31 0-56 25-56 56 0 30 25 55 56 55 31 0 56-25 56-55 0-31-25-56-56-56z m0 90c-19 0-34-15-34-34 0-19 15-35 34-35 19 0 35 16 35 35 0 19-16 34-35 34z m91-16c-30 0-55 25-55 55 0 31 25 56 55 56 31 0 56-25 56-56 0-30-25-55-56-55z m0 90c-19 0-34-16-34-35 0-19 15-34 34-34 19 0 35 15 35 34 0 19-16 35-35 35z m-65-289c-31 0-56 25-56 56 0 31 25 56 56 56 30 0 55-25 55-56 0-31-25-56-55-56z m0 90c-19 0-35-15-35-34 0-19 16-35 35-35 19 0 34 16 34 35 0 19-15 34-34 34z m91-16c-4 0-7 0-11 1-30 6-50 35-44 65 5 26 28 45 55 45 3 0 7 0 10-1 15-3 28-11 36-23 8-13 11-28 8-42-5-26-28-45-54-45z m0 90c-17 0-31-12-34-28-4-19 9-37 27-40 19-4 37 9 41 27 1 9-1 18-6 26-5 7-13 12-22 14-2 1-4 1-6 1z m23-213c-30 0-55 25-55 56 0 30 25 56 55 56 31 0 56-26 56-56 0-31-25-56-56-56z m0 90c-19 0-34-15-34-34 0-19 15-35 34-35 19 0 35 16 35 35 0 19-16 34-35 34z m-176 225c-3 0-5 1-7 2l0 0c-2 2-42 33-39 81 4 40 38 78 102 113 3 2 7 1 11-1 3-2 5-6 4-10 0 0-3-45 8-89 5-18 0-36-13-52-20-27-58-44-66-44z m49 168c-46-28-71-58-73-87-3-28 17-50 26-58 11 4 39 19 51 39 6 10 8 19 5 28-7 30-9 59-9 78z m-64-207c-3 0-6 1-8 4-70 88-151 49-152 48-5-2-11 0-14 5-3 5-1 12 5 14 1 1 96 48 178-54 3-4 3-11-2-15-2-1-4-2-7-2z"/>
<glyph unicode="&#85;" d="M485 17c-11 0-20 5-21 5-4 3-286 193-339 232-14 11-22 24-23 40-1 40 42 81 47 85 5 6 44 47 83 47 17 0 32-8 43-23 39-53 229-334 231-337 5-10 11-29-2-42-5-5-12-7-19-7z m-253 388c-26 0-57-29-67-40-1 0-1-1-1-1-12-10-42-43-40-69 0-9 5-17 14-24 53-39 334-229 337-231 1 0 5-2 10-2 2 0 3 1 4 1 4 4 0 13-1 16-2 2-191 283-230 336-8 9-16 14-26 14z m-82-37c-3 0-6 1-8 4-53 64-134 94-135 95-6 2-8 8-6 13 2 6 8 9 13 7 3-1 57-21 107-64-5 21-5 46 7 67 4 5 10 7 15 4 5-3 7-10 4-15-23-38 12-94 12-95 3-5 2-11-3-14-1-2-4-2-6-2z m-7-7c-2 0-4 1-6 2-63 42-106 10-107 9-4-3-11-2-15 2-3 5-2 12 2 15 2 2 56 43 132-9 5-3 7-9 3-14-2-3-5-5-9-5z m74-80c-2 0-4 1-6 2-5 3-7 9-4 14 1 2 28 48 74 64 6 2 12-1 14-6 2-6-1-12-7-14-38-14-62-54-62-54-2-4-6-6-9-6z m55-45c-2 0-4 0-5 1-6 3-7 10-4 15 1 2 24 40 63 55 5 2 12-1 14-7 2-5-1-12-7-14-32-11-52-44-52-45-2-3-5-5-9-5z m61-51c-2 0-3 0-5 1-5 3-7 9-5 14 1 2 18 36 54 45 5 1 11-2 13-8 1-6-2-12-8-13-26-7-39-33-39-33-2-4-6-6-10-6z"/>
<glyph unicode="&#86;" d="M130 320c0-9-8-17-18-17-10 0-18 8-18 17 0 10 8 18 18 18 10 0 18-8 18-18m83-90c0-10-8-18-17-18-10 0-18 8-18 18 0 9 8 17 18 17 9 0 17-8 17-17m-89-65c0-9-8-17-18-17-9 0-17 8-17 17 0 10 8 18 17 18 10 0 18-8 18-18m131-106c-3 0-6 0-7 0-10 1-135 12-177 20-18 4-31 11-39 23-8 12-6 24-6 28l0 186c-21 20-29 39-25 59 6 28 36 43 43 46 2 0 4 1 7 2 22 8 69 24 128 24 31 0 62-4 92-13 33-10 52-26 58-48 9-38-28-80-40-93 2-25 7-140 7-183 0-19-5-33-15-42-9-7-19-9-26-9z m-76 367c-56 0-98-15-121-23-3-1-5-2-7-3-4-1-26-13-29-30-3-12 5-26 22-41l4-3-1-199c0 0-1-7 3-14 5-6 13-11 25-13 42-8 174-19 176-19l1 0c0 0 1-1 3-1 3 0 8 1 12 4 7 6 8 18 8 26 0 47-7 185-7 187l0 5 3 3c13 12 43 49 37 76-4 14-18 25-43 33-28 8-57 12-86 12z m85-367l0 21c48 0 147 15 180 21 7 1 28 6 28 31 0 46-7 184-7 185l-1 5 4 3c0 0 29 31 22 57-5 16-21 28-50 37-59 17-144 13-213 9-23-1-44-2-62-2l0 22c17 0 38 1 61 2 70 3 158 8 220-11 36-10 58-28 64-51 9-32-15-64-24-74 1-24 7-139 7-182 0-33-24-49-45-52-34-6-135-21-184-21z"/>
<glyph unicode="&#87;" d="M256 94c-141 0-256 111-256 246 0 6 5 11 11 11l490 0c6 0 11-5 11-11 0-135-115-246-256-246z m-234 235c5-118 108-213 234-213 126 0 229 95 234 213z m52-329c-2 0-3 0-5 1-5 3-7 9-4 15l50 94c2 4 5 6 9 6l149 0c6 0 11-5 11-11 0-6-5-11-11-11l-142 0-47-88c-2-4-6-6-10-6z m364 0c-4 0-8 2-10 6l-47 88-142 0c-6 0-11 5-11 11 0 6 5 11 11 11l149 0c4 0 7-2 9-6l50-94c3-6 1-12-4-15-2-1-3-1-5-1z m-110 372c-6 0-11 5-11 11l0 71c0 6 5 11 11 11 6 0 11-5 11-11l0-71c0-6-5-11-11-11z m-72 0c-6 0-11 5-11 11l0 118c0 6 5 11 11 11 6 0 11-5 11-11l0-118c0-6-5-11-11-11z m-72 0c-6 0-11 5-11 11l0 71c0 6 5 11 11 11 6 0 11-5 11-11l0-71c0-6-5-11-11-11z"/>
<glyph unicode="&#88;" d="M400 33c-25 0-50 7-70 21-32 22-46 43-57 60-11 15-18 25-34 31-14 6-45 2-74-1-49-6-104-12-134 10-26 20-30 66-31 112 0 6 4 11 10 11 6 1 11-4 11-10 1-30 3-81 22-95 24-18 75-12 119-7 36 4 66 8 85 0 22-8 32-23 43-39 11-16 24-34 53-55 28-19 68-22 102-7 24 11 40 30 42 53 2 14 5 41 3 72 0 6 4 11 10 11 6 1 11-4 11-10 2-28 0-53-2-75-4-30-24-56-56-71-17-7-35-11-53-11z m18 81c-23 0-43 5-60 15-31 20-45 38-57 52-12 17-26 34-54 43-9 3-20 5-36 5-18 0-40-2-63-5-25-2-51-5-74-5-26 0-44 4-55 10-11 8-17 21-19 40-3 40 17 90 47 116l3 3c0 0 78 91 190 91 32 0 65-7 97-22 195-87 178-229 171-290-4-29-44-53-90-53z m-207 136c18 0 32-2 43-6 34-11 51-32 64-49 12-15 23-30 51-47 14-9 30-13 49-13l0 0c37 0 67 18 68 34 7 57 23 188-158 269-29 13-59 20-88 20-102 0-174-83-175-84l-4-4c-24-22-42-66-39-99 0-12 4-20 9-24 3-2 13-6 43-6 22 0 47 2 72 5 23 2 46 4 65 4z m-47 28c-10 0-17 4-22 6-1 1-3 2-4 2-2 0-5 0-8 0-16 0-51 0-60 35-3 10-3 30 3 42 4 9 27 29 43 29 0 0 1 0 2 0l1 0c12 16 30 18 38 18 9 1 15 0 20-2l2 0c0 0 1 0 1 0 6-1 15-3 22-7 19-13 17-36 16-46 0-2-1-4-1-5l0-1c0-7 0-15-3-23 0-1-1-3-1-4-2-9-5-20-14-29-4-3-17-15-35-15z m-47 93l-1 0c-6 0-22-13-24-18-3-5-4-20-2-26 5-18 21-20 40-20 4 0 7 0 10 0 4 0 7-2 11-4 4-1 8-3 13-3 8 0 15 5 20 9 4 4 6 12 8 18 1 2 1 4 2 6 1 5 2 11 2 16l0 2c0 2 0 3 0 6 1 10 2 21-6 26-3 2-9 3-14 4 0 0-1 0-1 0-1 0-2 0-3 1-3 0-8 1-13 1-9-1-19-2-25-11-1-3-5-6-8-7-2 0-6 0-9 0z"/>
<glyph unicode="&#89;" d="M315 0c-4 0-8 2-10 6l-106 234c-2 5 0 11 5 14 6 2 12 0 14-5l107-234c2-5 0-12-5-14-2-1-3-1-5-1z m-176 259c-4 0-8 2-10 6l-43 96c-3 5 0 12 5 14 5 3 12 0 14-5l44-96c2-5 0-11-5-14-2-1-3-1-5-1z m48 22c-4 0-8 2-10 6l-43 96c-3 5 0 12 5 14 5 3 12 0 14-5l44-96c2-5 0-12-5-14-2-1-3-1-5-1z m48 22c-4 0-8 2-10 6l-43 96c-3 5 0 11 5 14 5 2 12 0 14-5l44-96c2-6 0-12-6-14-1-1-3-1-4-1z m-48-74c-8 0-15 1-22 4-16 5-29 17-36 32-2 6 0 12 6 14 5 3 11 1 14-5 4-10 13-18 23-21 11-4 22-4 32 1 21 9 31 34 21 55-2 5 0 12 6 14 5 3 11 0 14-5 14-32 0-69-32-84-8-3-17-5-26-5z m27-221c-2 0-3 1-5 1-5 3-7 9-5 15l107 233c2 5 8 8 14 5 5-2 7-8 5-14l-106-233c-2-4-6-7-10-7z m176 260c-2 0-3 0-5 1-5 2-7 8-5 14l24 52c2 5 9 7 14 5 5-2 8-9 5-14l-23-52c-2-4-6-6-10-6z m-96 43c-1 0-3 1-4 1-6 3-8 9-6 14l24 52c2 6 9 8 14 6 5-3 8-9 5-15l-23-51c-2-4-6-7-10-7z m48-74c-9 0-18 2-26 6-16 7-27 19-33 35-6 16-6 33 1 48 3 6 9 8 14 6 6-3 8-9 6-14-5-11-5-22-1-32 4-11 11-19 22-24 21-9 46 0 55 21 3 5 9 7 14 5 6-2 8-9 6-14-11-23-34-37-58-37z m70 79c-2 0-3 0-5 1-5 2-7 9-5 14 10 21 0 46-21 55-21 10-46 1-55-20-3-5-9-8-14-5-6 2-8 8-6 14 15 31 52 45 84 31 32-15 46-52 32-84-2-4-6-6-10-6z m-156-279c-131 0-238 106-238 237 0 131 107 238 238 238 131 0 238-107 238-238 0-131-107-237-238-237z m0 454c-119 0-216-97-216-217 0-119 97-216 216-216 119 0 216 97 216 216 0 120-97 217-216 217z"/>
<glyph unicode="&#90;" d="M354 149l-297 0c-1 0-2 0-3 0-19 6-26 18-29 27-10 29 15 66 18 70 54 67 116 81 159 81 83 0 156-52 175-100 12-27 13-48 3-63-9-14-24-15-26-15 0 0 0 0 0 0z m-295 21l294 0c1 0 7 1 10 6 2 5 6 16-5 43-17 42-84 87-156 87-38 0-93-13-142-73-6-8-20-34-15-50 2-6 6-10 14-13z m282-170l-273 0c-24 0-44 26-44 58l0 5c0 6 5 11 11 11l339 0c6 0 11-5 11-11l0-5c0-32-20-58-44-58z m-295 53c2-18 11-32 22-32l273 0c10 0 20 13 22 32z m162 35c-16 0-32 5-48 16-14 10-25 15-36 15-7 0-11 0-14-2-1-1-3-2-5-4-2-2-4-4-7-6-32-22-66-17-95 15-4 4-4 11 0 15 5 4 11 4 15-1 23-24 45-28 68-11 2 1 3 2 5 4 2 2 5 4 8 6 8 6 17 6 24 6 21-1 38-11 50-19 12-9 25-13 37-13 9 1 20 7 30 14 6 3 12 7 18 10 15 7 30 7 43-2 3-2 6-5 9-7 6-5 13-10 19-12 10-5 22-2 33 8 3 2 5 4 7 5 7 7 15 15 29 16 5-1 11-5 11-11 0-6-5-11-11-11-5 0-8-3-15-9-2-2-4-4-7-7-17-14-38-19-56-11-8 4-16 10-23 15-3 2-5 4-8 6-7 5-13 5-22 1-5-2-10-6-16-9-12-8-25-16-40-17-1 0-2 0-3 0z m224-87l-148 0c-5 0-10 4-10 10 0 6 5 11 10 11l139 0 31 335-192 0 5-48c1-5-4-11-10-11-6-1-11 4-11 9l-6 60c0 3 1 6 3 8 2 2 5 4 8 4l215 0c3 0 6-2 8-4 2-2 3-5 3-8l-34-357c-1-5-5-9-11-9z m-79 356c0 0 0 0 0 0-6 0-11 5-10 11 1 98 46 140 48 141 4 4 11 4 15-1 4-4 4-11-1-15 0 0-40-38-41-125 0-6-5-11-11-11z m148 0l-286 0c-5 0-10 5-10 11 0 6 5 11 10 11l286 0c6 0 11-5 11-11 0-6-5-11-11-11z m-368-140c0 6-5 11-12 11-6 0-12-5-12-11 0-6 6-11 12-11 7 0 12 5 12 11z m158 0c0 6-6 11-12 11-7 0-12-5-12-11 0-6 5-11 12-11 6 0 12 5 12 11z m-72 45c0 8-7 14-15 14-8 0-14-6-14-14 0-7 6-14 14-14 8 0 15 7 15 14z"/>
<glyph unicode="&#48;" d="M219 26c0 0 0 0 0 0-114 0-192 69-195 72-40 40-18 72-17 73 9 11 25 16 49 16 12 0 21-1 21-1 21-3 42-5 61-5 162 0 222 109 244 150 5 9 8 14 11 17 8 8 15 10 20 13 7 2 9 3 11 13 3 18-11 48-17 59 0 1-1 2-1 4l-1 29c-1 5 2 9 6 11l23 8c1 1 3 1 5 1l30-5c1 0 1 0 2-1l19-8c5-2 7-6 7-11l-2-18c0-1-5-28-17-51-4-7-4-11-4-12l32-24c3-2 4-5 5-7 0-2 24-200-158-290-43-22-88-33-134-33z m-195 132c0 0-12-19 14-45 0 0 75-65 181-65 0 0 0 0 0 0 42 0 84 10 125 30 154 76 148 235 146 263l-30 22c-2 1-5 4-7 9-2 8 0 18 6 30 11 20 15 44 15 44l1 10-11 4-26 4-12-5 1-18c5-10 22-45 18-71-3-20-13-25-24-29-4-2-8-4-13-8-1-1-4-7-7-13-24-43-88-160-263-160-20 0-42 2-64 5 0 0-8 1-18 1-16 0-28-3-32-8z"/>
<glyph unicode="&#49;" d="M321 0l-130 0c-34 0-62 28-62 62l0 244c0 26 48 151 87 151l80 0c39 0 87-125 87-151l0-244c0-34-28-62-62-62z m-105 435c-16 0-66-98-66-129l0-244c0-23 19-41 41-41l130 0c22 0 41 18 41 41l0 244c0 31-50 129-66 129z m94-1l-108 0 0 78 108 0z m-86 22l64 0 0 35-64 0z m74-352l-84 0c-17 0-30 14-30 30l0 116c0 17 13 30 30 30l84 0c17 0 30-13 30-30l0-116c0-16-13-30-30-30z m-84 155c-5 0-9-4-9-9l0-116c0-5 4-9 9-9l84 0c5 0 9 4 9 9l0 116c0 5-4 9-9 9z"/>
<glyph unicode="&#50;" d="M343 0l-158 0c-5 0-9 3-10 7-2 5 0 10 4 12 0 1 50 37 56 80 2 17-2 32-13 46-5 7-10 13-15 20-48 60-90 111-32 247 2 4 6 7 10 7l158 0c5 0 8-3 10-7 58-136 17-187-31-247-5-7-11-13-16-20-11-14-15-29-13-46 7-43 56-79 57-80 3-2 5-7 3-12-1-4-5-7-10-7z m-130 21l102 0c-17 17-38 44-43 75-3 22 3 43 17 62 6 7 11 13 16 20 46 58 80 100 31 219l-144 0c-49-119-15-161 31-219 5-7 11-13 16-20 15-19 20-40 17-62-4-31-26-58-43-75z m6 304c-1 0-3 0-5 0-8 0-21 1-33 5-4 1-7 3-9 4-2 1-5 3-6 3-6 1-10 6-9 12 0 6 5 10 11 9 5 0 10-3 14-5 2-1 4-2 5-3 10-3 20-3 27-3 13-1 22 0 32 2 8 2 16 6 25 9 12 5 23 10 36 12 12 2 29 2 41-4 1 0 2 0 3-1 11-4 21-8 24-16 2-6-1-12-7-14-5-2-10 0-13 5-2 2-9 4-12 5-1 1-2 1-3 2-7 3-19 3-30 2-10-2-20-6-31-10-9-4-18-8-28-10-11-3-22-4-32-4z m40 6c-5 0-8 3-10 7l-66 151-39-10c-6-2-11 2-13 7-1 6 2 12 8 13l48 13c5 1 10-2 12-6l69-160c3-5 0-12-5-14-2 0-3-1-4-1z"/>
<glyph unicode="&#51;" d="M341 303c-83 0-171 24-171 69 0 44 88 69 171 69 83 0 171-25 171-69 0-45-88-69-171-69z m0 116c-92 0-149-27-149-47 0-20 57-48 149-48 93 0 150 28 150 48 0 20-57 47-150 47z m0-224c-94 0-171 79-171 177l22 0c0-86 67-156 149-156 83 0 150 70 150 156l21 0c0-98-77-177-171-177z m-168-124c-45 0-89 18-121 50-33 33-52 76-52 123 0 46 17 90 50 123 4 4 11 4 15 0 4-4 4-11 0-15-28-29-44-68-44-108 1-41 17-79 46-107 28-29 66-44 106-44 1 0 1 0 2 0 40 0 78 16 107 45 4 4 11 4 15 0 4-4 4-11 0-15-33-33-76-51-122-52-1 0-1 0-2 0z m-112 49c-3 0-6 1-8 3-4 4-4 11 0 15l112 113c4 4 11 4 15 0 4-4 4-11 0-15l-112-113c-2-2-5-3-7-3z m227 1c-3 0-6 1-8 4l-228 225c-5 4-5 11-1 15 5 4 11 4 16 0l228-225c5-4 5-11 1-15-3-2-5-4-8-4z m-275 112c-6 0-11 5-11 11 0 6 5 10 11 10l159 2c0 0 0 0 0 0 6 0 11-5 11-11 0-6-5-11-11-11l-159-1c0 0 0 0 0 0z m162-159c-6 0-11 4-11 10l-1 160c0 6 5 10 10 10 0 0 0 0 0 0 6 0 11-4 11-10l1-160c0-6-4-10-10-10 0 0 0 0 0 0z m171 287c-2 0-3 0-4 1l-118 40c-6 2-9 8-7 14 2 6 8 9 14 7l110-38 27 49c3 5 9 7 15 4 5-3 7-10 4-15l-32-57c-2-3-6-5-9-5z m15-50c-4 0-9 2-10 7l-17 50c-2 4-1 7 1 10 2 3 5 4 9 4l151 0c6 0 11-4 11-10 0-6-5-11-11-11l-136 0 12-36c2-6-1-12-6-14-2 0-3 0-4 0z m-139 19c-5 0-10 3-11 8-1 6 2 11 8 13l122 31c6 2 12-2 13-8 1-5-2-11-8-13l-122-31c-1 0-2 0-2 0z"/>
<glyph unicode="&#52;" d="M357 390l-281 0c-4 0-7 2-9 5l-65 101c-3 4-3 9 1 12 3 4 8 5 12 3 1 0 102-45 241-45 42 0 84 4 124 12 4 1 8 0 10-3 3-3 4-7 2-11l-25-67c-1-5-5-7-10-7z m-275 21l268 0 16 43c-36-6-73-9-110-9-99 0-178 21-219 35z m292-367l-316 0c-5 0-8 3-10 6-2 4-1 9 1 12l17 20c-21 16-64 62-64 166 0 4 3 8 7 10 4 1 93 40 56 139-1 3 0 7 2 9 2 3 5 5 8 5l282 0c3 0 6-2 8-5 2-2 3-6 2-9-38-99 52-138 56-139 4-2 7-6 7-10 0-104-43-150-64-166l16-20c3-3 4-8 2-12-2-3-6-6-10-6z m-294 22l272 0-10 11c-2 3-3 6-2 9 0 4 2 6 5 8 3 1 61 32 63 147-22 12-92 58-66 149l-252 0c26-91-44-137-66-149 2-115 60-146 63-147 3-2 5-4 5-8 1-3 0-6-2-9z m314-66l-356 0c-6 0-11 5-11 11 0 6 5 10 11 10l356 0c6 0 10-4 10-10 0-6-4-11-10-11z m16 149c-5 0-10 3-11 9-1 5 3 11 9 12 30 6 54 28 66 60 19 47 22 82 9 106-9 17-26 28-52 34-23 5-52-4-78-23-5-3-11-2-15 2-3 5-2 12 2 15 32 24 67 33 96 27 32-8 54-23 66-45 16-30 13-70-8-124-15-39-45-66-82-73-1 0-2 0-2 0z"/>
<glyph unicode="&#53;" d="M262 0c-4 0-7 2-9 5-3 5-2 11 3 15l134 89c5 3 12 2 15-3 3-5 2-11-3-15l-134-89c-2-1-4-2-6-2z m143 135c-4 0-7 1-9 4-4 5-2 12 3 15l29 20c5 3 12 2 15-3 4-5 2-11-3-15l-30-20c-1-1-3-1-5-1z m37-54c-4 0-7 1-9 4-3 5-2 12 3 15l30 20c5 3 11 2 15-3 3-5 2-11-3-15l-30-20c-2-1-4-1-6-1z m-18-6c-15 0-28 7-37 19-7 10-9 21-7 33 2 11 9 21 19 27 4 3 11 2 14-3 4-5 2-11-3-15-4-3-8-8-9-13-1-6 0-12 4-17 7-10 21-13 31-6 5 3 11 2 15-3 3-5 2-11-3-15-8-5-16-7-24-7z m46 24c-4 0-7 2-9 5-4 5-2 11 3 15 5 3 8 8 9 14 1 5 0 11-4 16-7 10-21 13-31 6-5-3-11-2-15 3-3 5-2 11 3 15 20 13 47 8 61-12 7-10 9-21 7-33-2-11-9-21-18-27-2-1-4-2-6-2z m-239 30c-118 0-214 76-214 171 0 12 2 25 6 37 1 6 7 9 13 8 5-2 9-8 7-14-3-10-4-21-4-31 0-83 86-150 192-150 106 0 192 67 192 150 0 10-1 21-4 31-2 6 1 12 7 14 6 1 12-2 13-8 4-12 5-25 5-37 0-95-95-171-213-171z m-1 148c-77 0-208 11-208 54 0 43 131 54 208 54 77 0 208-11 208-54 0-43-131-54-208-54z m0 87c-117 0-184-22-187-33 3-11 70-33 187-33 117 0 184 22 187 33-3 11-70 33-187 33z m51 46c-5 0-10 5-10 11l0 49c0 6 5 10 10 10 6 0 11-4 11-10l0-49c0-6-5-11-11-11z m-51 0c-6 0-10 5-10 11l0 80c0 6 4 11 10 11 6 0 11-5 11-11l0-80c0-6-5-11-11-11z m-51 0c-6 0-11 5-11 11l0 49c0 6 5 10 11 10 6 0 11-4 11-10l0-49c0-6-5-11-11-11z"/>
<glyph unicode="&#54;" d="M402 146c-11 0-20 4-26 6-6-2-15-6-26-6-11 0-21 4-30 10-22 15-64 64-71 115-4 28 3 54 22 76 2 1 29 29 62 25 14-1 19-3 24-5 3-1 5-2 19-2 14 0 17 1 20 2 5 2 10 4 23 5 33 4 61-24 62-25 19-22 26-48 22-76-6-51-49-100-71-115-9-6-19-10-30-10z m-26 29c2 0 4-1 5-2 3-1 11-5 21-5 6 0 13 2 18 6 14 9 56 52 62 99 3 23-3 43-17 60 0 0 0 0 0 0 0 0-21 21-44 18-11-1-14-2-17-3-6-3-11-4-28-4-17 0-22 1-28 4-2 1-6 2-17 3-23 3-44-18-44-19-14-16-20-36-17-59 6-47 48-90 62-99 6-4 12-6 18-6 10 0 18 4 21 5 1 1 3 2 5 2z m0 172c-1 0-1 0-2 0-6 1-10 7-9 12 8 55-29 90-30 92-4 4-5 11-1 15 4 4 11 4 15 0 2-1 47-44 37-110 0-5-5-9-10-9z m59 36c-12 0-25 3-37 8-4 2-6 6-7 9 0 1-1 20 14 36 17 18 48 25 90 18 3-1 6-3 8-5 1-3 2-6 1-9-1-2-18-57-69-57z m-21 25c7-3 14-4 21-4 23 0 37 18 43 30-27 3-47-1-57-12-5-5-7-10-7-14z m-318-227c-27 0-48 22-48 48 0 27 21 49 48 49 27 0 49-22 49-49 0-26-22-48-49-48z m0 75c-15 0-27-12-27-27 0-15 12-27 27-27 15 0 27 12 27 27 0 15-12 27-27 27z m87-7c-27 0-48 22-48 48 0 27 21 49 48 49 27 0 49-22 49-49 0-26-22-48-49-48z m0 76c-15 0-27-13-27-28 0-15 12-27 27-27 15 0 27 12 27 27 0 15-12 28-27 28z m11-187c-27 0-48 21-48 48 0 27 21 49 48 49 27 0 49-22 49-49 0-27-22-48-49-48z m0 75c-15 0-27-12-27-27 0-15 12-27 27-27 15 0 27 12 27 27 0 15-12 27-27 27z m-82 120c-2 0-4 1-6 2-1 1-26 20-24 50 2 24 22 47 60 67 3 2 8 2 11 0 3-2 5-6 5-10 0 0-2-25 4-49 3-12 0-23-8-34-12-15-35-26-42-26z m24 91c-20-13-32-27-33-41-1-12 7-22 12-27 10 4 30 17 26 31-3 14-4 27-5 37z m-32-126c-3 0-6 1-8 4-37 47-79 27-81 26-5-3-11-1-14 5-2 5 0 11 5 14 0 0 58 29 107-32 3-5 2-11-2-15-2-2-4-2-7-2z m156-255c-142 0-252 46-252 104 0 24 17 46 50 64 5 3 12 1 15-4 2-5 1-12-5-14-25-14-39-30-39-46 0-39 95-83 231-83 136 0 231 44 231 83 0 15-13 30-36 44-5 2-7 9-4 14 3 5 9 7 14 4 39-22 47-46 47-62 0-58-111-104-252-104z"/>
<glyph unicode="&#55;" d="M146 3c-6 0-56 14-57 14-46 17-48 65-48 67l-5 246c-15 8-39 27-36 65 4 42 37 61 43 64 122 78 240 53 300 32l-8-20c-56 20-167 43-281-30l-1-1c-2 0-29-14-31-46-3-36 26-46 27-46l8-2 0-8 6-253c0-2 1-36 34-48 4-1 46-13 51-13z m34-3c-10 0-18 0-24 0-45 3-49 63-49 65l-5 247c-15 7-39 26-36 65 3 42 37 61 42 63 58 37 118 56 181 56 106 0 176-54 177-54 1-1 2-2 4-3 12-7 41-24 42-61 1-34-28-55-41-63 1-36 5-210 5-252-1-44-34-56-54-56-2 0-171-7-242-7z m109 474c-59 0-116-17-170-52l-1-1c-1 0-28-14-31-46-3-35 27-45 27-46l9-1 0-9 5-253c0 0 3-43 29-44 45-3 262 6 264 6 9 0 33 3 33 35 1 46-4 256-5 259l0 7 7 3c0 0 35 16 35 46-1 25-21 37-32 43-3 2-6 3-7 4 0 1-66 49-163 49z m-7-137c0 13-9 24-21 24-12 0-21-11-21-24 0-13 9-24 21-24 12 0 21 11 21 24z m122-143c0 22-15 40-35 40-19 0-35-18-35-40 0-22 16-40 35-40 20 0 35 18 35 40z m-152-55c0 22-16 39-35 39-19 0-35-17-35-39 0-21 16-39 35-39 19 0 35 18 35 39z"/>
<glyph unicode="&#56;" d="M171 129c-1 0-1 0-1 0-95 6-170 86-170 181 0 101 82 182 182 182 75 0 142-45 169-116 2-5 0-11-6-14-5-2-11 1-14 7-24 62-82 102-149 102-89 0-161-72-161-161 0-84 66-154 150-160 6 0 11-5 10-11 0-6-5-10-10-10z m159-109c-100 0-182 81-182 182 0 100 82 181 182 181 100 0 182-81 182-181 0-101-82-182-182-182z m0 342c-88 0-160-72-160-160 0-89 72-161 160-161 89 0 161 72 161 161 0 88-72 160-161 160z m84-184c0-13-11-24-24-24-13 0-24 11-24 24 0 13 11 24 24 24 13 0 24-11 24-24z m-95 109c0-13-11-24-24-24-13 0-24 11-24 24 0 13 11 24 24 24 13 0 24-11 24-24z m-16-119c0-13-10-23-23-23-13 0-24 10-24 23 0 14 11 24 24 24 13 0 23-10 23-24z m-175 143c0-14-10-24-24-24-13 0-23 10-23 24 0 13 10 23 23 23 14 0 24-10 24-23z m47 75c0-13-10-24-23-24-13 0-24 11-24 24 0 13 11 24 24 24 13 0 23-11 23-24z"/>
<glyph unicode="&#57;" d="M256 112c-96 0-174 78-174 174 0 6 5 11 11 11l327 0c5 0 10-5 10-11 0-96-78-174-174-174z m-152 164c5-80 71-143 152-143 81 0 147 63 152 143z m152-276c-6 0-11 5-11 11l0 112c0 6 5 10 11 10 6 0 11-4 11-10l0-112c0-6-5-11-11-11z m50 0l-100 0c-6 0-11 5-11 11 0 6 5 10 11 10l100 0c6 0 11-4 11-10 0-6-5-11-11-11z m-208 276c-4 0-9 2-10 7-4 10-6 22-6 33 0 54 43 97 97 97 53 0 96-43 96-97 0-11-2-23-6-33-2-6-8-9-13-7-6 2-9 8-7 14 3 8 5 17 5 26 0 42-34 76-75 76-42 0-76-34-76-76 0-9 2-18 5-26 2-6-1-12-6-14-2 0-3 0-4 0z m299 0c-2 0-5 1-7 2-4 4-5 11-1 15 13 15 20 34 20 53 0 44-36 81-81 81-34 0-65-23-76-56-2-5-8-9-13-7-6 2-9 8-7 14 13 42 52 70 96 70 57 0 102-46 102-102 0-24-9-48-25-67-2-2-5-3-8-3z m-234 114c-5 0-10 4-11 9-1 5-1 11-1 16 0 54 43 97 96 97 43 0 82-29 93-70 2-6-1-12-7-13-6-2-11 1-13 7-9 32-39 55-73 55-41 0-75-34-75-76 0-4 0-8 1-12 1-6-3-12-9-13 0 0-1 0-1 0z"/>
<glyph unicode="&#33;" d="M388 0l-264 0c-54 0-99 44-99 98l-26 228 514 0-26-228c-1-54-45-98-99-98z m-365 304l23-205c0-43 35-78 78-78l264 0c43 0 78 35 78 78l0 1 23 204z m299 11l-21 0c0 73-60 132-133 132-72 0-132-59-132-132l-21 0c0 85 69 154 153 154 85 0 154-69 154-154z m-43 0l-21 0c0 49-40 89-90 89-49 0-89-40-89-89l-21 0c0 61 50 111 110 111 61 0 111-50 111-111z m-46 0l-22 0c0 24-19 43-43 43-23 0-42-19-42-43l-22 0c0 35 29 64 64 64 36 0 65-29 65-64z m246-3l-21 7c4 13 6 26 6 39 0 73-59 133-132 133-40 0-78-18-103-49l-16 13c29 36 72 57 119 57 85 0 154-69 154-154 0-15-3-31-7-46z m-47-2l-20 10c6 12 9 25 9 38 0 49-40 89-89 89-25 0-49-10-65-28l-16 14c21 23 50 36 81 36 61 0 111-50 111-111 0-17-4-33-11-48z m-62-4l-13 18c11 8 18 21 18 34 0 24-19 43-43 43-14 0-28-7-35-19l-18 12c12 18 32 28 53 28 35 0 64-28 64-64 0-20-10-40-26-52z"/>
<glyph unicode="&#34;" d="M357 0l-202 0c-5 0-10 5-10 11l0 18c-88 38-145 120-145 210 0 2 0 4 0 7 0 5 5 11 11 11l490 0c6 0 11-5 11-11l0-1c0-2 0-4 0-6 0-90-57-172-145-210l0-18c0-6-5-11-10-11z m-191 21l180 0 0 15c0 4 3 8 7 9 82 34 136 109 138 190l-470 0c2-81 56-156 138-190 4-1 7-5 7-9z m16 289c-3 0-5 1-7 3-5 4-5 10-2 15l147 180c4 5 10 5 15 2 5-4 5-11 2-15l-147-181c-2-2-5-4-8-4z m-1-75c-2 0-4 1-6 3-5 3-6 10-2 15l5 6c4 4 10 5 15 1 4-3 5-10 1-15l-4-6c-3-2-6-4-9-4z m-96 31c-2 0-5 1-7 3-4 3-5 10-1 15l32 40c4 4 11 5 15 1 5-4 6-10 2-15l-33-40c-2-2-5-4-8-4z m101-25c-2 0-5 1-7 3-4 4-5 10-1 15 13 16 11 40-4 54-7 7-15 10-24 10-10-1-18-5-24-13-4-4-10-5-15-1-5 3-5 10-2 15 10 12 24 19 39 20 15 1 30-4 41-15 23-22 25-59 5-84-2-2-5-4-8-4z m-110-6c-6 0-10 5-10 11-1 15 4 29 13 40 4 5 11 6 15 2 5-4 5-11 2-15-6-7-9-17-9-27 0-6-5-10-10-11-1 0-1 0-1 0z m254 75c-3 0-6 2-8 4l-147 181c-3 4-3 11 2 15 5 3 11 3 15-2l147-180c3-5 3-11-2-15-2-2-4-3-7-3z m1-75c-3 0-6 2-9 4l-4 6c-4 5-3 12 1 15 5 4 11 3 15-1l5-6c4-5 3-12-2-15-2-2-4-3-6-3z m96 31c-3 0-6 2-8 4l-33 40c-4 5-3 11 2 15 4 4 11 3 15-1l32-40c4-5 3-12-1-15-2-2-5-3-7-3z m-101-25c-3 0-6 2-8 4-20 25-18 62 5 84 11 11 26 16 41 15 15-1 29-8 39-20 3-5 3-12-2-15-5-4-11-3-15 1-6 8-14 12-23 13-10 0-18-3-25-10-15-14-17-38-4-54 4-5 3-12-1-15-2-2-5-3-7-3z m110-6c0 0 0 0-1 0-5 1-10 5-10 11 0 10-3 20-9 27-3 4-3 11 2 15 5 4 11 3 15-2 9-11 14-25 13-40 0-6-5-11-10-11z"/>
<glyph unicode="&#35;" d="M11 11c-3 0-6 1-8 3-4 4-4 11 0 15l258 258c4 4 11 4 15 0 4-4 4-11 0-15l-258-258c-2-2-5-3-7-3z m257 363c-3 0-6 1-8 3-4 4-4 11 0 15l106 106c4 4 11 4 15 0 4-4 4-11 0-15l-106-106c-2-2-4-3-7-3z m-3-108c-2 0-5 1-7 3-4 4-4 11 0 15l161 161c4 4 11 4 15 0 4-4 4-11 0-15l-161-161c-2-2-5-3-8-3z m109 2c-3 0-6 1-8 3-4 5-4 11 0 15l106 106c4 4 11 4 15 0 4-4 4-11 0-15l-106-106c-2-2-5-3-7-3z m-52-21c-1 0-1 0-1 0-23 0-44 9-60 25-33 33-34 87-1 120 5 4 11 4 15 0 5-4 5-11 0-15-24-25-24-65 1-90 12-12 28-19 45-19 0 0 0 0 1 0 16 0 32 7 44 18 4 5 11 5 15 0 4-4 4-10 0-15-16-16-37-24-59-24z m87 25c0 0-1 0-1 0-107 5-181 112-184 116-4 5-2 12 3 15 4 3 11 2 14-3 1-1 71-102 168-106 6-1 11-6 10-11 0-6-5-11-10-11z m46 47c0 0 0 0 0 0-108 5-182 111-185 115-3 5-2 12 3 15 5 4 11 2 15-3 0-1 71-102 168-106 5 0 10-5 10-11-1-6-5-10-11-10z m46 46c0 0 0 0 0 0-108 5-182 111-185 116-3 5-2 11 3 15 5 3 12 2 15-3 1-1 71-102 168-107 6 0 10-5 10-11 0-6-5-10-11-10z m-98-196c0 0-1 0-1 0-6 1-10 6-10 12 6 42-25 80-25 80-4 5-3 11 1 15 5 4 11 3 15-1 2-2 37-45 31-97-1-5-6-9-11-9z"/>
<glyph unicode="&#36;" d="M421 0l-330 0c-5 0-10 3-11 8l-80 367c-1 5 1 9 5 11 3 3 8 3 11 1 55-36 145-57 240-57 95 0 185 21 240 57 3 2 8 2 11-1 4-2 6-6 5-11l-80-367c-1-5-6-8-11-8z m-322 21l314 0 73 335c-59-30-142-48-230-48-88 0-171 18-230 48z m42 305c-5 0-9 3-10 8l-46 138c-2 5 1 11 7 13 5 2 11-1 13-7l46-138c2-5-1-11-7-13-1 0-2-1-3-1z m68-12c0 0 0 0-1 0-5 0-10 5-10 11l12 177c0 6 5 10 11 10 6 0 11-5 10-11l-11-177c-1-6-5-10-11-10z m47-6c0 0-1 1-1 1-6 0-10 6-10 12l17 124c1 6 6 10 12 9 6-1 10-6 10-12l-17-124c-1-6-6-10-11-10z m78 18c-5 0-10 4-10 10l-18 164c-1 6 3 11 9 12 6 1 11-4 12-9l18-165c1-6-4-11-9-11-1-1-1-1-2-1z m52 6c-1 0-1 0-1 0-6 0-10 5-10 11l6 123c0 5 5 10 11 10 6-1 11-6 10-11l-6-123c0-6-5-10-10-10z m-210-6c-5 0-9 3-11 8l-35 120c-1 5 2 11 8 13 5 2 11-2 13-7l35-120c2-6-2-11-7-13-1 0-2-1-3-1z m80-246c-49 0-89 42-89 92 0 51 40 93 89 93 49 0 89-42 89-93 0-50-40-92-89-92z m0 163c-37 0-68-31-68-71 0-39 31-70 68-70 37 0 68 31 68 70 0 40-31 71-68 71z m-171 90c-4 0-8 2-10 6l-61 121c-3 6 0 12 5 15 5 2 11 0 14-5l61-121c3-6 1-12-4-15-2 0-4-1-5-1z m373 11c-1 0-1 0-2 0-6 1-10 6-9 12l13 110c1 6 6 10 12 10 6-1 10-6 9-12l-13-110c0-6-5-10-10-10z"/>
<glyph unicode="&#37;" d="M145 200c-13 0-25 5-34 14l-108 108c-2 2-3 5-3 8 0 3 1 5 3 7l131 131c4 4 11 4 15 0l108-108c19-18 19-48 0-67l-79-79c-9-9-21-14-33-14z m-119 130l100-101c10-10 27-10 37 0l79 79c10 10 10 27 0 37l-100 101z m323-219c-2 0-5 2-7 4l-139 139c-5 4-5 11 0 15 4 4 11 4 15 0l139-139c4-4 4-11 0-15-2-2-5-4-8-4z m71-76c-4 0-8 2-11 5l-60 60c-6 6-6 16 0 23 6 6 16 6 22 0l60-60c7-7 7-17 0-23-3-3-7-5-11-5z m-214 76c-2 0-5 2-7 4-4 4-4 11 0 15l139 139c4 4 11 4 15 0 4-4 4-11 0-15l-139-139c-2-2-5-4-8-4z m-70-76c-5 0-9 2-12 5-6 6-6 16 0 23l60 60c7 6 17 6 23 0 6-7 6-17 0-23l-60-60c-3-3-7-5-11-5z m264 194c-24 0-46 9-62 25-36 36-33 99 9 140 21 21 49 34 78 34 24 0 46-9 62-25 18-18 27-43 25-69-2-27-14-52-34-72-21-21-50-33-78-33z m25 177c-23 0-46-10-63-27-33-33-37-82-9-110 12-12 29-19 47-19 23 0 46 10 63 27 16 16 26 37 27 58 2 21-5 39-18 53-12 12-29 18-47 18z m-24-134c-3 0-6 1-8 3-4 5-4 11 0 16l57 56c4 5 11 5 15 0 4-4 4-10 0-15l-57-57c-2-2-4-3-7-3z m-34 34c-2 0-5 1-7 3-4 4-4 11 0 15l57 57c4 4 11 4 15 0 4-4 4-11 0-15l-57-57c-2-2-5-3-8-3z"/>
<glyph unicode="&#38;" d="M256 60c-141 0-256 115-256 256 0 6 5 11 11 11 6 0 10-5 10-11 0-130 106-235 235-235 129 0 235 105 235 235 0 6 4 11 10 11 6 0 11-5 11-11 0-141-115-256-256-256z m117 176c-2 0-4 0-6 2l-20 14c-5 3-6 10-3 14 3 5 10 7 15 3l20-14c5-3 6-10 3-15-2-3-5-4-9-4z m-75-61c-4 0-8 3-10 7l-8 23c-2 6 1 12 6 14 6 2 12-1 14-6l8-24c2-5-1-11-6-13-1-1-3-1-4-1z m-96 12c-2 0-3 0-4 0-6 3-8 9-6 14l9 23c2 5 8 8 13 6 6-2 9-9 6-14l-8-23c-2-4-6-6-10-6z m-86 42c-3 0-7 2-9 5-3 5-1 12 4 15l20 13c5 3 11 2 15-3 3-5 1-12-4-15l-20-13c-2-1-4-2-6-2z m140-129c-119 0-216 97-216 216 0 6 5 11 11 11l61 0c4 0 8-4 10-8 4-14 17-23 31-23 7 0 14 2 20 6 4 4 11 3 14-2 8-10 19-15 31-15 19 0 35 14 38 32 1 6 5 10 10 10l195 0c6 0 11-5 11-11 0-119-97-216-216-216z m-194 205c6-102 91-183 194-183 104 0 188 81 194 183l-175 0c-8-24-31-42-57-42-16 0-30 6-41 17-7-4-15-6-24-6-21 0-40 12-49 31z m236 86c-2 0-4 0-6 2-5 3-6 10-3 15l17 25c4 4 10 6 15 2 5-3 6-10 3-14l-17-25c-2-4-5-5-9-5z m-73 10c-1 0-2 0-2 0-6 1-10 7-9 13l5 29c1 6 7 10 13 9 6-1 9-7 8-12l-5-30c-1-5-5-9-10-9z m-90-12c-4 0-8 3-10 7l-12 28c-2 5 1 11 6 14 6 2 12-1 14-6l12-28c2-5-1-12-6-14-1 0-3-1-4-1z"/>
<glyph unicode="&#39;" d="M420 153c-3 0-7 1-9 4-3 5-2 12 3 15 1 1 25 18 16 32-9 12-31 26-39 30-3 2-5 5-6 9 0 3 1 7 4 9l26 21c0 1 0 2 1 2-1 0-1 0-2 1-12 3-31 2-37 2-3 0-7 1-9 4-2 3-3 7-1 10l5 17c0 0 0 0 0 0 0 0-1 1-2 2-13 7-34 15-34 15-5 2-8 8-6 14 0 0 4 12-3 16-7 5-33 8-52 9-9-6-21-9-30-1-12 10-22 15-31 12-19-5-29-33-29-34-2-5-8-8-14-6-5 2-8 8-6 13 0 2 14 40 43 48 16 4 33-1 50-16 2 0 5 2 8 3 2 2 4 3 7 3 8-1 50-3 66-13 12-8 15-21 13-31 8-4 20-9 28-14 8-4 13-10 14-16 1-5 0-9-2-13l0-1c8 0 18-1 27-3 11-2 15-8 17-13 4-10-2-21-4-23 0 0-1-1-2-2l-16-13c11-7 25-18 33-29 15-21 0-46-21-61-2-2-4-2-6-2z m-7-39c-8 0-15 1-21 3-30 8-160 15-254 19-40 2-74 4-98 5-13 1-23 3-32 13-11 12-8 25-7 33 29 160 146 169 196 166 87-6 138-89 172-143l1-1c21-35 45-36 47-36 0 0 0 0 0 0 6 0 11-4 11-10 0-6-5-11-10-11-2 0-38-1-66 45l-1 1c-34 54-80 129-156 134-54 3-148-11-173-148-1-8-2-12 2-17 3-3 5-4 18-4 24-2 58-4 97-6 101-4 226-11 259-20 23-6 53 4 73 26 20 22 25 51 14 79-29 73-105 127-167 119-5-1-11 3-12 9-1 5 4 11 9 12 71 10 157-51 190-133 14-35 7-72-19-101-19-22-47-34-73-34z m-305 113c0-5-4-10-10-10-5 0-10 5-10 10 0 6 5 11 10 11 6 0 10-5 10-11z m60 41c0-9-7-16-16-16-10 0-17 7-17 16 0 10 7 17 17 17 9 0 16-7 16-17z m8-65c0-13-11-24-24-24-14 0-24 11-24 24 0 13 10 24 24 24 13 0 24-11 24-24z"/>
<glyph unicode="&#40;" d="M390 0c-3 0-6 0-9 0-32 1-63 16-92 31-12 6-22 11-33 16-12 5-27 7-43 9-7 1-15 1-23 3-30 5-51 12-73 23-74 36-91 131-74 209 1 6 7 9 13 8 5-1 9-7 8-13-15-69-1-154 62-185 20-10 40-16 68-21 7-1 14-2 22-3 16-2 33-4 49-11 11-4 22-10 33-16 28-13 56-28 84-29 15 0 37 0 50 8 11 6 23 14 31 24 17 24 21 54 13 93-8 43-17 76-27 107-4 10-6 20-8 30 0 4-1 8-2 12-3 10-3 21-2 30 0 9 0 17-2 25-5 24-15 58-36 81-7 7-19 15-35 20-13 4-52 11-78 3-6-2-12 2-13 7-2 6 1 12 7 14 31 9 75 1 91-4 13-5 32-13 44-26 24-26 35-64 41-91 2-9 2-19 2-29 0-9 0-17 2-25 1-5 1-9 2-13 2-9 4-18 7-27 11-32 19-66 28-110 9-45 4-81-17-109-10-14-25-23-38-31-14-8-34-10-52-10z m-244 180c-4 0-7 2-9 6-4 6-8 12-12 18-8 12-16 24-22 38-7 17-10 36-7 54-4-2-8-4-11-5-2-1-4-2-6-3-17-8-37-17-56-20-3-1-7 0-9 3-2 2-4 6-3 9 1 5 3 10 6 14 0 2 1 3 2 5 1 2 2 4 2 6 2 3 3 7 5 10 6 14 13 29 26 43 6 7 14 13 22 18 3 1 6 3 8 5 11 8 21 13 36 13 0 0 0 0 0 0 6 0 11-5 11-11 0-5-5-10-11-10-9 0-15-3-24-9-2-2-5-4-8-6-7-5-14-9-18-15-10-10-16-22-23-37-1-3-2-6-4-9 0-1 0-1 0-2 9 4 20 8 28 12 3 2 5 3 7 3 6 3 12 5 16 9 2 1 4 3 6 5 4 4 8 8 14 11 4 2 9 2 13-2 3-3 4-9 1-13-12-20-13-47-3-70 4-9 10-19 16-28 1 4 3 8 5 13 4 7 8 13 12 19 5 6 9 12 12 19 6 12 6 24 6 37 0 6 0 11 1 16 0 4 3 8 7 10 3 1 8 0 11-3 1-1 3-3 4-4 1-1 2-2 3-2 5-4 12-6 18-8 13-3 26 1 38 7 8 3 15 8 23 13 10 6 21 13 33 18 6 2 12 2 17 2-2 3-5 7-10 12-6 7-18 14-31 19-11 4-24 6-39 6-3 0-6 0-9 0-8 0-19 1-24-2-5-2-10-1-13 3-3 4-4 9-1 13 4 6 10 8 15 9 1 0 2 1 3 1 5 3 10 6 15 11l3 2c10 8 18 16 27 25 7 8 13 17 17 25-1 0-2 0-3-1-2 0-3 0-5-1-6-1-13-2-20-3-8-1-15-2-22-4-11-3-23-10-36-19-13-9-23-24-30-46-1-5-7-8-13-7-6 2-9 8-7 14 8 26 20 44 38 57 14 10 28 17 42 22 9 2 17 3 26 4 6 1 12 2 17 3 2 1 4 1 6 1 4 1 13 3 15 5 3 4 8 5 12 3 5-2 7-6 7-11-3-23-17-43-29-56-9-10-18-19-28-27 16 0 31-3 44-7 5-3 26-11 39-24 16-16 22-30 19-41-1-4-5-7-10-8-3 0-6 0-10 0-6 1-11 1-15-1-10-3-19-9-29-15-8-5-16-11-25-15-15-7-33-13-53-8-5 2-11 4-17 7 0-13-1-27-8-42-4-8-8-15-13-21-4-6-8-11-11-17-5-10-7-20-7-34 1-5-3-9-7-10-1 0-2-1-3-1z m24 169c-2 0-5 1-7 3-70 60-80 132-80 135-1 6 3 11 9 12 6 1 11-4 12-9 0-1 10-67 73-122 5-4 5-11 1-15-2-3-5-4-8-4z m205-92c-5 0-10 3-11 8l-4 19c-1 6 3 11 9 12 10 2 11-1 16-27 1-5-3-11-8-12-1 0-2 0-2 0z m-100-35c-4 0-7 1-9 4 0 0-10 13-11 15 0 0 0 0 0 0-3 5-2 11 2 15 6 4 9 4 15-3l0 0c1 0 1-1 1-1 3-3 6-8 10-13 4-5 3-11-2-15-2-1-4-2-6-2z m-70-79c-2 0-4 1-6 2l-14 12c0 0-1 0-1 0-4 3-5 10-1 15 4 5 7 6 15 1l0 0c1 0 1-1 2-1 3-3 7-6 12-10 5-4 5-11 2-15-3-3-6-4-9-4z m64-43c-2 0-5 1-7 3-5 4-9 7-12 10 0 0-1 1-2 1l1 1c-7 6-7 9-2 14 3 5 10 6 15 2 0 0 0 0 0 0l14-12c4-3 5-10 1-15-2-2-5-4-8-4z m82-37c-2 0-5 1-7 3l-14 11 0 0c-4 4-5 11-1 15 4 6 7 6 14 1l1 1c0-1 1-1 1-2 3-2 7-6 13-10 4-4 5-10 1-15-2-2-5-4-8-4z m-21 91c-3 0-6 2-8 5 0 0-10 12-11 14 0 0 0 0 0 0-4 5-3 12 2 15 6 4 9 4 15-2l0 0c0-1 1-1 1-2 3-3 6-7 10-13 3-4 2-11-2-15-2-1-5-2-7-2z m68 26c-5 0-10 4-11 9 0 0-3 17-3 18 0 1 0 1 0 1-1 6 2 11 8 12 7 2 10 0 12-8l1 0c0-1 0-2 0-2 1-4 2-10 3-17 2-6-2-11-8-12-1 0-1-1-2-1z m14-84c-1 7-2 13-3 17 0 0 0 1 0 2l0 0c-1 9 1 11 8 12 6 2 11-2 13-8 0 0 0 0 0 0 0-2 3-19 3-19z"/>
<glyph unicode="&#41;" d="M256 0c-141 0-256 128-256 284 0 21 2 42 6 62 1 6 7 9 13 8 5-1 9-7 8-12-4-19-6-39-6-58 0-145 106-263 235-263 129 0 235 118 235 263 0 19-2 39-6 58-1 5 3 11 8 12 6 1 12-2 13-8 4-20 6-41 6-62 0-156-115-284-256-284z m-1 253c-121 0-249 30-249 85 0 55 128 85 249 85 121 0 249-30 249-85 0-55-128-85-249-85z m0 149c-141 0-228-37-228-64 0-27 87-64 228-64 141 0 228 37 228 64 0 27-87 64-228 64z m39-94c-1 0-3 0-4 1-6 2-8 8-6 14l62 154c2 3 5 6 8 7l138 28c5 1 11-3 12-9 1-5-2-11-8-12l-132-27-60-149c-2-4-6-7-10-7z"/>
<glyph unicode="&#42;" d="M256 0c-114 0-207 87-207 195 0 118 81 195 207 195 135 0 207-68 207-195 0-108-93-195-207-195z m0 368c-113 0-185-68-185-173 0-96 83-174 185-174 102 0 185 78 185 174 0 117-60 173-185 173z m92 36c0 0 0 0 0 0-11 0-23 2-35 5-3 1-5 3-6 5-2 3-2 6-1 9 0 0 27 79 109 79 12 0 25-1 38-5 3 0 5-2 7-5 1-3 1-6 0-9-1-3-33-79-112-79z m-17 23c6-1 12-2 17-2 48 0 75 35 86 54-6 1-13 2-19 2-50 0-74-36-84-54z m-144-23c0 0 0 0 0 0-77 0-112 78-112 83 0 5 3 9 8 10 13 4 26 5 37 5 83 0 110-79 110-79 1-3 1-6-1-9-1-2-3-4-6-5-12-3-24-5-36-5z m-85 75c11-19 38-54 85-54 0 0 0 0 0 0 6 0 12 1 18 2-9 18-34 54-85 54-6 0-12-1-18-2z m165-106c-1 0-1 0-2 0-6 1-10 6-9 12 12 70-13 110-13 111-3 5-2 11 3 14 5 3 12 2 15-3 1-2 29-47 16-125 0-5-5-9-10-9z"/>
<glyph unicode="&#43;" d="M141 301c-3 0-6 2-8 4-4 5-3 11 1 15 4 3 8 6 12 8-7 11-11 25-11 38 0 32 20 59 49 69-1 1-1 3-1 4 0 40 33 73 73 73 40 0 73-33 73-73 0-1 0-3-1-4 29-10 49-37 49-69 0-13-4-27-11-38 4-2 8-5 12-8 4-4 5-10 1-15-4-4-10-5-15-1-5 4-11 7-18 9-3 1-6 4-7 8-1 3 0 7 3 10 9 10 14 22 14 35 0 25-18 46-41 51-3 0-6 2-7 4-2 3-2 5-2 8 1 4 1 7 1 10 0 29-23 52-51 52-28 0-51-23-51-52 0-3 0-6 1-10 0-3 0-5-2-8-1-2-4-4-7-4-23-5-41-26-41-51 0-13 5-25 15-35 2-3 3-7 2-10-1-4-4-7-7-8-7-2-13-5-18-9-2-2-4-3-7-3z m138-235c-17 0-28 2-29 2-3 1-6 3-7 6-2 3-2 7 0 10l137 269c2 4 6 7 10 6 5 0 8-3 10-7 32-108 31-186-5-235-33-44-87-51-116-51z m-10 22c3-1 6-1 10-1 31 0 73 8 99 43 29 39 32 102 9 190z m-36-22c-29 0-83 7-116 51-36 49-37 127-5 235 2 4 5 7 10 7 4 1 8-2 10-6l136-268c2-2 3-4 3-6 0-6-5-10-10-11-3 0-14-2-28-2z m-108 254c-23-88-20-151 9-190 26-35 68-43 99-43 4 0 7 0 10 1z m131-320c-6 0-11 5-11 11l0 57c0 6 5 11 11 11 6 0 11-5 11-11l0-57c0-6-5-11-11-11z m13 394c0-8-6-14-13-14-7 0-13 6-13 14 0 7 6 13 13 13 7 0 13-6 13-13z m-38-72c0-7-6-13-13-13-7 0-13 6-13 13 0 8 6 14 13 14 7 0 13-6 13-14z m71-29c0-7-6-13-13-13-7 0-13 6-13 13 0 7 6 13 13 13 7 0 13-6 13-13z m-39-58c0-7-6-13-13-13-7 0-13 6-13 13 0 8 6 13 13 13 7 0 13-5 13-13z"/>
<glyph unicode="&#44;" d="M433 29l-74 0c-3 0-6 1-8 4-19 22-30 58-30 96 0 11 1 23 3 33 1 5 5 9 11 9l123 0c5 0 9-4 10-9 2-11 3-22 3-33 0-38-11-74-30-96-2-3-5-4-8-4z m-69 21l64 0c14 19 22 48 22 79 0 7-1 14-2 21l-104 0c-1-7-1-14-1-21 0-31 8-60 21-79z m86 9c-3 0-7 2-9 5-3 5-2 11 3 15 17 11 52 53 46 63-2 3-4 3-5 4-6 1-15-5-18-7-5-4-12-3-15 2-4 4-3 11 2 15 1 1 18 14 34 11 9-2 16-7 20-14 21-33-51-91-52-92-2-1-4-2-6-2z m-289 133c0 0-1 0-1 0-2 0-5 1-7 3l-148 112c-2 2-3 4-4 7 0 1 0 2 0 2-2 9-1 20 3 32 7 31 81 111 100 119 6 3 10 4 15 5 19 2 44-6 72-21 1 3 3 6 5 9 7 9 16 14 27 14 8 0 15-3 21-7 14-12 17-33 6-48-2-3-5-5-7-7 17-16 38-41 38-66 1-14-5-34-15-55 20 22 40 26 53 26 19 0 32-8 33-9 4-2 5-6 5-10-1-4-3-7-7-9l-4-1c2-2 3-4 3-7 0-6-5-10-11-11 0 0 0 0 0 0-2 0-4 1-5 2-1 0-2 1-4 1-12 0-36-20-57-49-10-13-24-20-40-20-12 0-22 3-29 6-15-11-28-17-41-18 0 0-1 0-1 0z m-140 130l142-108c9 1 20 7 32 17 3 3 8 4 12 1 0 0 1 0 1 0 2-2 13-7 24-7 9 0 17 4 22 12 12 15 39 49 66 56 0 1 0 2 0 3-14 0-27-6-39-19-13-15-22-21-31-21-9 0-14 6-16 9-3 4-3 8-1 12 17 26 28 53 27 69 0 16-18 40-45 62-4 3-5 8-3 12 1 5 6 8 10 7 5 0 9 2 11 5 4 6 3 13-2 18-6 4-14 3-18-3-2-3-3-8-2-12 2-4 1-9-3-12-4-3-9-3-12 0-29 19-57 30-74 27-3 0-6-1-9-2-13-6-83-82-88-105-3-9-4-16-4-21z m3 32c-6 0-11 4-11 10l-1 8c-4 41-11 111 32 132 16 8 28 5 35 1 21-13 25-48 25-52 0-5-4-11-10-11-6 0-11 4-11 10-1 9-5 29-15 34-1 1-5 3-14-1-31-15-24-75-21-111l1-8c1-6-4-11-9-12-1 0-1 0-1 0z m386-181c-1 0-1 0-1 0-6 0-11 5-10 11 3 50-40 72-40 73-5 2-8 9-5 14 3 5 9 7 14 5 3-2 56-30 52-93 0-6-5-10-10-10z m91-170l-490 0c-6 0-11 5-11 11 0 6 5 11 11 11l490 0c6 0 11-5 11-11 0-6-5-11-11-11z"/>
<glyph unicode="&#45;" d="M256 117c-70 0-128 57-128 127 0 23 15 58 16 62 1 1 35 75-12 111-3 3-5 7-3 12 1 4 5 7 10 7l234 0c5 0 9-3 10-7 2-5 0-9-3-12-47-36-13-110-12-110 10-19 16-41 16-63 0-70-58-127-128-127z m-92 298c32-48 1-114 0-118-4-9-14-37-14-53 0-58 47-106 106-106 59 0 106 48 106 106 0 19-4 37-13 53-2 3-33 70-1 118l-184 0z m92-415c-6 0-11 5-11 11l0 111c0 6 5 11 11 11 6 0 11-5 11-11l0-111c0-6-5-11-11-11z m41 0l-82 0c-6 0-11 5-11 11 0 6 5 10 11 10l82 0c6 0 11-4 11-10 0-6-5-11-11-11z m-25 327c-4 0-7 2-9 6-1 1-51 109-66 141-5 9-10 15-15 16-4 1-7 0-7 0l-31-16c-5-3-12 0-15 5-2 5 0 11 5 14l31 16c0 0 10 5 23 2 11-4 20-13 28-27 16-32 66-141 66-142 3-5 0-12-5-14-1-1-3-1-5-1z m75-1l-182 0c-6 0-11 5-11 11 0 5 5 10 11 10l182 0c6 0 11-5 11-10 0-6-5-11-11-11z m-113-88c-6 0-11 2-16 5l-16 10c-13 9-17 27-8 40l10 16c5 9 15 14 25 14 5 0 11-2 15-5l16-10c7-5 11-11 13-19 2-7 0-15-4-22l-10-16c-6-8-15-13-25-13z m-5 63c-3 0-6-1-7-3l-10-16c-3-4-2-9 2-11l16-10c3-3 9-2 11 2l10 16c1 1 2 4 1 6 0 2-2 4-3 5l-16 10c-1 1-3 1-4 1z m46-141c-11 0-22 6-26 17l-8 17c-4 7-4 15-1 22 2 7 8 13 15 17l17 8c4 1 8 2 12 2 11 0 22-6 27-16l8-17c3-8 3-16 1-23-3-7-8-13-15-16l-17-8c-4-2-8-3-13-3z m9 62c-1 0-2 0-3-1l-17-8c-2-1-4-2-4-4-1-2-1-4 0-6l8-17c2-4 7-6 10-4l17 8c2 1 4 2 5 4 0 2 0 5-1 6l-8 17c-1 3-4 5-7 5z"/>
<glyph unicode="&#46;" d="M297 70c0 0 0 0 0 0-47 0-105 47-107 49-4 3-5 9-3 13 2 5 8 7 13 6 7-3 14-4 20-4 11 0 20 4 31 9 12 5 25 11 44 14 6 1 11 2 16 2 33 0 45-22 46-33 4-34-22-49-39-52-6-3-13-4-21-4z m-63 44c19-11 43-23 63-23l0 0c5 0 10 1 14 3l0 0c1 0 2 0 2 0 5 1 25 7 23 30-1 2-4 13-25 13-3 0-8 0-13-1-16-3-27-8-38-13-8-3-16-7-26-9z m-29 54c-48 0-107 56-109 58-4 4-4 9-2 14 3 4 9 6 13 4 21-9 34-6 52 1 12 4 26 9 45 10 3 1 6 1 9 1 39 0 50-24 50-37 1-34-26-47-42-49-5-1-11-2-16-2z m-65 49c20-14 45-28 65-28 3 0 7 1 10 2 1 0 2 0 2 0 5 1 26 4 25 27 0 3-3 16-29 16-2 0-5 0-7 0-17-1-28-5-40-9-8-3-17-6-26-8z m-28 46c0 0 0 0 0 0-48 0-106 58-109 61-4 3-4 9-1 13 3 4 8 6 13 4 9-4 17-6 25-6 9 0 17 3 27 6 12 4 25 8 45 10 2 0 5 0 7 0 40 0 51-25 51-38 1-34-27-46-43-48-5-1-10-2-15-2z m-65 51c20-15 45-29 65-29 3 0 7 0 10 1 0 0 1 0 2 1 4 0 25 3 25 26 0 3-2 17-30 17-2 0-4 0-6-1-16-1-28-5-39-8-9-3-17-6-27-7z m337-167c-2 0-4 1-6 1-1 0-14 2-23 14-8 12-11 28-7 49 3 19 8 33 13 44 8 18 13 30 6 54-2 4 0 10 5 12 5 2 10 1 13-3 7-8 63-82 45-131-3-14-16-40-46-40z m6 125c-2-9-5-17-9-25-5-11-10-23-12-39-6-35 10-39 12-39 1 0 2 0 3 0 21 0 25 22 25 23 0 1 0 1 0 2 9 21-4 53-19 78z m-101-28l-2 0c-2 0-14 1-24 12-10 11-14 27-12 48 2 19 7 33 11 45 6 19 10 31 1 54-2 5 0 10 4 13 4 2 10 2 13-2 8-8 70-77 55-127-1-4-2-12-7-21-8-14-22-22-39-22z m0 125c-1-10-4-18-7-27-4-11-8-23-9-40-3-34 13-37 15-37l1 0c22 0 25 22 25 25 0 1 0 2 0 2 7 22-9 53-25 77z m-93-31c-1 0-1 0-1 0-2 1-14 1-25 12-9 11-14 27-12 48 1 20 6 33 9 46 6 18 10 30 0 53-2 5 0 10 4 13 5 3 10 2 14-1 7-8 71-76 57-126-2-16-13-45-46-45z m-2 126c-1-10-3-18-6-27-4-11-8-23-9-40-1-15 2-26 7-32 4-5 9-5 9-5l1-11 0 11c22 0 25 23 25 26 0 0 0 1 0 2 6 21-10 52-27 76z m180-393c0 0-1 1-2 1-6 1-9 7-8 12 0 2 10 46 64 66 5 2 11 0 13-6 2-5 0-11-6-14-43-16-50-50-50-50-1-5-6-9-11-9z m127-71c-2 0-5 1-7 3l-79 80c-4 5-4 11 0 16 5 4 11 4 15-1l79-80c4-4 4-11 0-15-2-2-5-3-8-3z m-416 373c-3 0-6 1-9 4-5 7-56 70-51 112 0 5 6 10 12 9 5-1 10-6 9-12-3-28 33-78 47-95 4-5 3-12-2-16-2-1-4-2-6-2z m51 52c-2 0-5 1-7 3-17 14-66 51-93 48-6-1-11 3-12 9-1 6 3 11 9 12 41 5 103-47 110-53 4-4 5-10 1-15-2-2-5-4-8-4z"/>
<glyph unicode="&#47;" d="M501 267c0 0-1 0-1 0l-203 14c-4 0-8 3-9 7-2 3-1 7 1 10l127 160c2 2 4 4 7 4 3 0 6-1 8-2 51-41 81-102 81-168 0-5 0-10-1-16 0-5-5-9-10-9z m-183 34l173-12c0 1 0 2 0 3 0 55-24 107-65 144z m-104-259c-118 0-214 96-214 214 0 118 96 214 214 214 49 0 96-16 134-46 4-4 5-11 2-15l-115-144 183-13c6 0 11-6 10-11-8-112-102-199-214-199z m0 407c-106 0-193-87-193-193 0-106 87-193 193-193 98 0 180 73 192 169l-192 13c-4 1-8 3-9 7-2 3-1 8 1 11l120 151c-33 23-71 35-112 35z m53-312c0-17-14-30-31-30-16 0-30 13-30 30 0 17 14 30 30 30 17 0 31-13 31-30z m-118 174c0-6-6-11-12-11-7 0-12 5-12 11 0 7 5 12 12 12 6 0 12-5 12-12z m262 41c0-6-5-12-12-12-6 0-12 6-12 12 0 7 6 12 12 12 7 0 12-5 12-12z m-286-149c0-6-6-12-12-12-7 0-12 6-12 12 0 7 5 12 12 12 6 0 12-5 12-12z m344 120c0-6-5-12-12-12-6 0-12 6-12 12 0 7 6 12 12 12 7 0 12-5 12-12z m-231 75c0-11-9-20-20-20-11 0-20 9-20 20 0 11 9 20 20 20 11 0 20-9 20-20z"/>
<glyph unicode="&#58;" d="M327 303c-54 0-90 28-104 82l-7 19c-2 5 0 10 4 13 2 1 32 19 74 19 39 0 96-15 148-88 2-2 3-5 2-8-1-3-3-6-5-7-3-1-57-30-112-30z m-88 100l4-12c12-45 40-67 84-67 36 0 72 14 90 22-36 45-77 68-123 68-25 0-45-7-55-11z m-87-238c-5 0-10 3-11 9-1 7-32 191 96 334 4 5 10 5 15 1 4-4 5-10 1-15-121-136-91-315-91-317 1-6-3-11-9-12 0 0-1 0-1 0z m172-28c-2 0-3 0-5 1-109 68-146 253-148 261-1 6 3 12 8 13 6 1 12-3 13-9 0-2 37-184 138-246 5-4 7-10 3-15-2-3-5-5-9-5z m-184-137c-60 0-108 48-108 108 0 59 48 107 108 107 59 0 107-48 107-107 0-60-48-108-107-108z m0 194c-48 0-87-39-87-86 0-48 39-87 87-87 47 0 86 39 86 87 0 47-39 86-86 86z m232-183c-59 0-107 48-107 108 0 59 48 108 107 108 60 0 108-49 108-108 0-60-48-108-108-108z m0 194c-47 0-86-39-86-86 0-48 39-87 86-87 48 0 87 39 87 87 0 47-39 86-87 86z"/>
<glyph unicode="&#59;" d="M211 335c-1 0-2 0-3 1l-188 43c-6 1-9 7-8 13 1 6 7 9 13 8l188-44c6-1 9-7 8-12-1-5-5-9-10-9z m87 23c0 0-1 0-2 0l-42 10c-6 1-9 7-8 13 2 5 7 9 13 8l42-10c6-1 9-7 8-13-1-5-6-8-11-8z m-15-82c-1 0-1 0-2 0l-42 10c-6 1-9 7-8 13 1 5 7 9 13 8l42-10c5-1 9-7 8-13-2-5-6-8-11-8z m-42 10c-1 0-1 0-2 0-27 6-44 34-39 62 3 14 11 26 22 34 11 7 24 9 37 7 6-2 9-8 8-13-1-6-7-10-13-8-7 1-14 0-20-4-7-4-11-11-13-20-3-17 7-34 23-37 5-2 9-7 8-13-1-5-6-8-11-8z m48-10c-4 0-8 0-11 1-6 1-9 7-8 13 1 5 7 9 13 8 7-2 14-1 20 3 6 5 11 12 13 20 3 17-7 34-23 38-6 1-9 7-8 13 1 5 7 9 13 8 27-7 44-34 39-63-3-14-11-26-23-34-7-5-16-7-25-7z m-33-28c-85 0-229 12-229 56 0 44 141 54 184 56 6 0 11-5 11-10 0-6-4-11-10-12-109-4-161-25-163-34 3-12 77-35 207-35 130 0 204 23 207 35-2 8-46 27-142 33-6 1-10 6-10 12 1 6 6 10 12 10 48-4 162-16 162-55 0-44-144-56-229-56z m0-167c-66 0-192 12-194 55l-34 167c-1 6 2 11 8 12 6 2 11-2 13-8l34-167c0-1 0-2 0-3 0-10 59-35 173-35 114 0 173 25 173 35 0 1 0 2 0 3l34 167c2 6 7 10 13 8 6-1 10-6 8-12l-34-167c-2-43-128-55-194-55z m0-81c-144 0-256 53-256 121 0 28 20 55 57 76 5 3 12 2 14-3 3-6 2-12-3-15-30-17-47-38-47-58 0-54 108-100 235-100 127 0 235 46 235 100 0 20-17 41-47 58-5 3-6 9-3 15 3 5 9 6 14 3 37-21 57-48 57-76 0-68-112-121-256-121z m-34 404c-6 0-11 5-11 11l0 62c0 5 5 10 11 10 6 0 10-5 10-10l0-62c0-6-4-11-10-11z m49 0c-6 0-11 5-11 11l0 86c0 6 5 11 11 11 6 0 11-5 11-11l0-86c0-6-5-11-11-11z m49 0c-6 0-11 5-11 11l0 62c0 5 5 10 11 10 6 0 11-5 11-10l0-62c0-6-5-11-11-11z"/>
<glyph unicode="&#60;" d="M441 134c-34 0-62 23-69 55l-189 0c-8-32-36-55-70-55-39 0-71 32-71 72 0 8 1 16 4 23-28 13-46 40-46 71 0 43 35 78 77 78 36 0 67-25 75-59l178 0c8 34 39 59 75 59 43 0 77-35 77-78 0-11-2-22-7-32 23-12 37-36 37-62 0-40-32-72-71-72z m-277 76l226 0 1-9c3-26 24-45 50-45 27 0 50 22 50 50 0 21-14 40-34 47l-13 4 7 12c7 9 10 20 10 31 0 31-25 56-56 56-28 0-52-21-56-49l-1-9-214 0-1 9c-3 28-27 49-56 49-15 0-29-6-39-16-11-11-17-25-17-40 0-25 18-48 42-54l14-4-7-12c-4-7-7-16-7-24 0-28 23-50 50-50 26 0 47 19 50 45z"/>
<glyph unicode="&#61;" d="M408 0l-288 0c-6 0-11 5-11 11l0 191c-64 18-109 81-109 152 0 87 66 158 147 158 42 0 81-19 109-52 28 33 67 52 109 52 81 0 147-71 147-158 0-65-37-123-94-147l0-196c0-6-5-11-10-11z m-277 21l266 0 0 194c0 4 3 8 7 10 52 18 87 70 87 129 0 75-57 137-126 137-40 0-76-20-100-54-4-6-14-6-18 0-24 34-60 54-100 54-69 0-126-62-126-137 0-64 43-121 101-133 5-2 9-6 9-11z"/>
<glyph unicode="&#62;" d="M501 293l-490 0c-6 0-11 5-11 11 0 6 5 11 11 11l490 0c6 0 11-5 11-11 0-6-5-11-11-11z m-75-213l-201 0c-34 0-61 27-61 61l0 160c0 1 0 2 0 3 0 5 5 11 11 11l301 0c5 0 10-5 10-10 0-2 0-3 0-4l0-160c0-34-27-61-60-61z m-241 213l0-152c0-22 18-40 40-40l201 0c21 0 39 18 39 40l0 152z m201 43c-6 0-11 5-11 11l0 50c0 6 5 11 11 11 6 0 11-5 11-11l0-50c0-6-5-11-11-11z m-61 0c-6 0-10 5-10 11l0 74c0 6 4 11 10 11 6 0 11-5 11-11l0-74c0-6-5-11-11-11z m-60 0c-6 0-11 5-11 11l0 50c0 6 5 11 11 11 5 0 10-5 10-11l0-50c0-6-5-11-10-11z"/>
<glyph unicode="&#63;" d="M346 22l-180 0c-28 0-52 24-52 52l0 386c0 29 24 52 52 52l180 0c28 0 52-23 52-52l0-386c0-28-24-52-52-52z m-180 469c-17 0-30-14-30-31l0-386c0-17 13-30 30-30l180 0c17 0 30 13 30 30l0 386c0 17-13 31-30 31z m221-182l-262 0c-6 0-11 5-11 11 0 6 5 10 11 10l262 0c6 0 11-4 11-10 0-6-5-11-11-11z m-42 58c-6 0-11 5-11 10l0 59c0 6 5 10 11 10 6 0 11-4 11-10l0-59c0-5-5-10-11-10z m0-172c-6 0-11 5-11 10l0 59c0 6 5 10 11 10 6 0 11-4 11-10l0-59c0-5-5-10-11-10z m-165-195c-6 0-11 5-11 11l0 22c0 6 5 11 11 11 5 0 10-5 10-11l0-22c0-6-5-11-10-11z m152 0c-5 0-10 5-10 11l0 22c0 6 5 11 10 11 6 0 11-5 11-11l0-22c0-6-5-11-11-11z"/>
<glyph unicode="&#64;" d="M172 269c-95 0-172 54-172 121 0 67 77 122 172 122 94 0 171-55 171-122 0-67-77-121-171-121z m0 222c-83 0-150-45-150-101 0-55 67-100 150-100 82 0 149 45 149 100 0 56-67 101-149 101z m100-141c-34 0-75 12-117 37-75 43-138 1-138 0-5-3-12-2-15 3-3 5-2 12 3 15 3 2 74 51 160 0 71-40 133-45 159-13 4 5 11 5 15 2 5-4 5-11 2-15-16-20-40-29-69-29z m37-350c-30 0-55 10-72 30-43 49-22 144 47 210 40 39 90 62 133 62 30 0 55-11 72-30 44-50 22-144-47-211-40-38-90-61-133-61z m108 280c-38 0-82-20-118-55-61-59-82-140-46-181 13-15 32-23 56-23 38 0 82 21 118 56 61 59 82 140 46 181-13 15-32 22-56 22z m-176-250c-1 0-2 1-3 1-5 1-9 7-8 13 1 3 22 89 118 113 79 20 128 61 126 104 0 6 4 11 10 11 6 0 11-4 11-10 3-53-53-103-142-125-83-22-102-98-102-98-1-5-5-9-10-9z"/>
<glyph unicode="&#91;" d="M355 0l-198 0c-5 0-10 4-10 10l-45 409c0 3 0 6 3 8 2 2 4 3 7 3l288 0c3 0 5-1 7-3 3-2 3-5 3-8l-45-409c0-6-5-10-10-10z m-188 21l178 0 43 388-264 0z m285 388l-392 0c-6 0-11 5-11 11 0 6 5 10 11 10l392 0c6 0 11-4 11-10 0-6-5-11-11-11z m-53 0c-5 0-9 3-11 7l-24 75-216 0-24-75c-2-5-8-8-14-6-6 2-9 8-7 13l27 82c2 4 6 7 10 7l232 0c4 0 8-3 10-7l27-82c2-5-1-11-7-13-1-1-2-1-3-1z m-143-283c-3 0-5 1-8 4l-95 95c-4 4-4 11 0 15l95 95c5 4 11 4 16 0l95-95c2-2 3-5 3-8 0-3-1-5-3-7l-95-95c-3-3-5-4-8-4z m-80 106l80-80 80 80-80 80z"/>
<glyph unicode="&#93;" d="M501 192l-490 0c-6 0-11 5-11 11 0 6 5 11 11 11l490 0c6 0 11-5 11-11 0-6-5-11-11-11z m-245-115c-105 0-195 52-214 123 0 3 0 7 2 9 2 3 5 5 9 5l406 0c4 0 7-2 9-5 2-2 2-6 2-9-19-71-109-123-214-123z m-188 115c23-55 99-94 188-94 87 0 165 40 188 94z m281 65c-6 0-10 5-10 10l0 105c0 6 4 11 10 11 6 0 11-5 11-11l0-105c0-5-5-10-11-10z m-93 0c-6 0-11 5-11 10l0 158c0 6 5 10 11 10 6 0 11-4 11-10l0-158c0-5-5-10-11-10z m-93 0c-6 0-11 5-11 10l0 105c0 6 5 11 11 11 6 0 10-5 10-11l0-105c0-5-4-10-10-10z"/>
<glyph unicode="&#94;" d="M304 0l-215 0c-3 0-6 1-9 4-50 62-80 162-80 267 0 32 3 63 8 93 1 5 5 9 10 9l356 0c6 0 10-4 11-9 5-30 8-61 8-93 0-105-30-205-81-267-2-3-5-4-8-4z m-210 21l205 0c45 59 72 152 72 250 0 27-2 54-6 80l-338 0c-4-26-6-53-6-80 0-98 27-191 73-250z m259 68c-3 0-7 1-9 4-3 5-2 12 3 15 39 27 170 161 139 210-7 12-17 19-29 21-26 4-58-16-68-24-5-4-12-3-15 2-4 4-3 11 1 15 2 1 45 35 86 28 18-3 32-14 43-31 43-69-115-217-145-238-2-2-4-2-6-2z m-93 306c-6 0-11 4-11 10l0 58c0 6 5 10 11 10 6 0 11-4 11-10l0-58c0-6-5-10-11-10z m-64 0c-6 0-10 4-10 10l0 96c0 6 4 11 10 11 6 0 11-5 11-11l0-96c0-6-5-10-11-10z m-63 0c-6 0-11 4-11 10l0 58c0 6 5 10 11 10 6 0 10-4 10-10l0-58c0-6-4-10-10-10z"/>
<glyph unicode="&#95;" d="M36 0c-12 0-21 3-27 9-54 55 171 344 197 370 19 20 46 30 74 30 33 0 66-14 91-38 47-48 51-122 8-165-34-34-263-206-343-206z m244 388c-23 0-44-9-59-24-52-52-229-307-197-340 3-2 8-3 12-3 69 0 290 162 328 200 35 35 31 95-8 135-21 20-48 32-76 32z m86-32c-3 0-6 1-8 3-4 4-4 10-1 14 32 41 28 127 28 128 0 6 4 11 10 11 6 0 11-4 11-10 0-3 3-61-14-108 28 13 72 27 113 12 6-2 8-9 6-14-2-6-8-8-13-6-59 21-125-28-126-28-2-1-4-2-6-2z m29 28c-3 0-6 1-8 3-4 4-4 11 0 15l54 54c4 4 11 4 15 0 4-4 4-11 0-15l-54-54c-2-2-4-3-7-3z m-47-189c-2 0-5 1-7 3l-61 61c-4 4-4 11 0 15 4 4 11 4 15 0l61-61c4-4 4-11 0-15-2-2-5-3-8-3z m-160-120c-2 0-5 1-7 4l-37 36c-4 4-4 11 1 15 4 4 10 4 15 0l36-36c4-5 4-11 0-15-2-3-5-4-8-4z m10 131c-3 0-5 1-7 3l-54 54c-4 4-4 11 0 15 4 4 11 4 15 0l54-54c4-4 4-11 0-15-2-2-5-3-8-3z"/>
<glyph unicode="&#96;" d="M266 435c0 0-1 0-2 0l-256 56c-5 1-9 7-8 13 2 5 7 9 13 8l256-56c6-2 9-7 8-13-1-5-6-8-11-8z m120 29c-1 0-2 0-3 0l-56 12c-6 2-10 7-9 13 2 6 7 9 13 8l57-12c6-2 9-7 8-13-1-5-5-8-10-8z m-21-106c-1 0-2 0-2 0l-57 12c-6 2-10 7-8 13 1 6 7 10 12 8l57-12c6-1 10-7 8-13-1-5-5-8-10-8z m-57 12c-1 0-1 0-2 0-35 8-57 42-50 77 3 17 13 32 28 41 14 10 31 13 47 9 6-1 10-7 8-13-1-5-7-9-12-8-11 3-22 1-32-5-9-7-16-16-18-28-5-23 10-47 33-52 6-1 10-7 8-12-1-5-5-9-10-9z m64-13c-4 0-9 1-13 2-6 1-10 7-8 13 1 5 7 9 12 8 11-3 22-1 32 5 9 7 16 16 18 28 5 23-10 47-33 52-6 1-10 7-9 12 2 6 7 10 13 9 34-8 57-42 50-77-4-17-13-32-28-41-10-7-22-11-34-11z m-106-303c-136 0-247 112-247 249l0 14 493 0 0-14c0-137-111-249-246-249z m-225 242c4-122 103-221 225-221 121 0 221 99 225 221z m225-296c-84 0-147 29-147 68 0 9 4 24 23 37l13-17c-7-5-14-12-14-20 0-22 53-47 125-47 71 0 124 25 124 47 0 8-7 15-13 20l12 17c19-13 23-28 23-37 0-39-63-68-146-68z"/>
<glyph unicode="&#123;" d="M11 0c-3 0-6 1-7 3-3 2-4 5-4 8l0 393c0 3 1 6 3 8 2 2 5 3 8 3l491-23c6 0 10-5 10-10l0-323c0-5-4-10-10-10l-490-49c-1 0-1 0-1 0z m10 393l0-371 470 47 0 303z m480-22c-1 0-2 0-3 1l-352 118-129-87c-5-3-12-1-15 3-3 5-2 12 3 15l133 89c3 2 7 2 10 1l357-119c5-2 8-8 6-14-1-4-5-7-10-7z m-352-75c0 14-11 26-23 26-13 0-24-12-24-26 0-15 11-27 24-27 12 0 23 12 23 27z m107-162c0 27-19 48-43 48-23 0-42-21-42-48 0-26 19-47 42-47 24 0 43 21 43 47z m144 145c0 21-15 38-34 38-18 0-34-17-34-38 0-21 16-38 34-38 19 0 34 17 34 38z m-225 175c0 6-11 12-24 12-14 0-25-6-25-12 0-7 11-12 25-12 13 0 24 5 24 12z"/>
<glyph unicode="&#124;" d="M469 45l-426 0c-24 0-43 21-43 48l0 371c0 26 19 48 43 48l426 0c24 0 43-22 43-48l0-371c0-27-19-48-43-48z m-426 446c-12 0-22-13-22-27l0-371c0-15 10-27 22-27l426 0c12 0 22 12 22 27l0 371c0 14-10 27-22 27z m324-364l-222 0c-26 0-47 24-47 53l0 73c0 29 21 53 47 53l222 0c26 0 47-24 47-53l0-73c0-29-21-53-47-53z m-222 157c-14 0-25-14-25-31l0-73c0-17 11-32 25-32l222 0c14 0 25 15 25 32l0 73c0 17-11 31-25 31z m-59 138l-21 0c-6 0-11 5-11 10 0 6 5 11 11 11l21 0c6 0 11-5 11-11 0-5-5-10-11-10z m70 0l-22 0c-5 0-10 5-10 10 0 6 5 11 10 11l22 0c6 0 11-5 11-11 0-5-5-10-11-10z m70 0l-22 0c-6 0-11 5-11 10 0 6 5 11 11 11l22 0c6 0 10-5 10-11 0-5-4-10-10-10z m70 0l-22 0c-6 0-11 5-11 10 0 6 5 11 11 11l22 0c5 0 10-5 10-11 0-5-5-10-10-10z m205-53l-490 0c-6 0-11 5-11 11 0 6 5 10 11 10l490 0c6 0 11-4 11-10 0-6-5-11-11-11z m-415-369c-6 0-10 5-10 11l0 44c0 6 4 11 10 11 6 0 11-5 11-11l0-44c0-6-5-11-11-11z m340 0c-6 0-11 5-11 11l0 44c0 6 5 11 11 11 6 0 11-5 11-11l0-44c0-6-5-11-11-11z"/>
<glyph unicode="&#125;" d="M238 225c-3 1-5 1-8 0-4-2-8-6-11-12-4-5-5-13-6-22l1 0c1 10 3 18 6 23 4 5 7 8 10 10 3 1 5 1 7 0 2 0 3-2 5-4 1-3 1-7-1-12-1-5-4-9-7-14-4-4-8-8-13-10-3-1-6-1-9-1-3 1-5 3-6 5-1 2-1 5-1 8 0 4 1 8 2 12 1 5 2 11 4 17 9 7 17 14 25 22 7 8 12 15 16 22 3 7 4 12 3 15-2 3-4 4-8 3-4-2-8-5-12-10-4-5-8-10-12-17-4-6-7-13-11-20-3-6-5-13-7-18-8-4-13-5-18-4-4 1-7 3-9 7-1 2-2 5-2 8 0 3 1 7 3 11 2 4 6 8 12 13 5 5 13 9 23 14l-1 1c-9-4-17-9-22-13-6-5-9-9-12-13-2-5-3-9-4-12 0-4 1-6 2-9 2-4 5-7 9-8 5-2 11 0 18 4-2-8-4-14-4-18 0-5 1-9 2-13 2-4 5-7 8-8 4-1 8 0 12 2 3 1 7 3 10 6 3 3 5 7 7 10 2 4 4 8 4 11 1 4 1 7-1 9-1 3-2 5-4 5z m-16 26c4 9 8 16 12 22 5 7 9 11 14 13 3 1 5 0 6-2 1-2 0-6-1-10-2-4-4-9-8-14-4-6-9-11-15-17-5-6-12-11-18-16 3 8 6 16 10 24z m111 1c-2-4-3-7-5-10-1-2-2-4-4-6-1-2-2-3-3-3 0-1-1 0-1 0-1 2 1 8 4 18 1 1 1 3 2 4 0 2 1 3 1 6l1 3-5-3-3-7c0 0 0 1 0 1 0 0 0 1 0 1 0 0 0 0 0 0-1 2-1 2-2 2-1 1-2 0-3 0-3-1-5-3-8-5-2-3-4-5-6-8-1-2-2-4-2-7-1-1-2-4-3-6-2-5-4-8-5-10-2-3-3-4-5-5-1 0-1 0-2 1 0 1 1 5 4 13l21 66-5-2-2-5c-7-20-11-32-12-35l-11-23 0 1c-1-5-3-7-6-9-1 0-1 0-2 0 1 4 1 7 0 9-1 3-3 4-7 3-2-2-5-4-8-7-3-4-5-8-7-12-1-4-1-7 0-10 1-1 1-2 2-3 1-1 2-1 3-1 1 0 2 0 3 0 5 3 10 9 14 20 0 0 1 0 1 0 0 0 1 0 1 0 2 1 4 4 6 7 5 11 9 19 11 22-1-2-2-4-2-6-1-2-1-3-1-4-2-6-4-10-5-14-1-4-1-8 0-10 1-1 1-1 2-2 1 0 2 0 3 0 2 1 4 4 6 7 1 3 3 7 6 12 0-2 0-4 1-6 0-2 2-3 3-4 1 0 2 0 4 0 3 2 6 7 10 15 0-3 1-5 1-7 1-2 2-2 3-1 2 0 4 2 6 5 2 3 4 8 8 15l2 5-1 1c0-1-1-3-3-6z m-64-28c-1-4-3-8-5-12-2-4-5-7-7-8-1 0-2 0-3 0-1 0-1 1-1 1-1 1 0 4 1 8 1 5 2 9 4 14 2 4 4 7 7 8 1 0 2 0 3 0 1 0 1-1 2-2 1-2 0-5-1-9z m49 22c-1-4-3-8-6-13-2-4-4-6-6-7 0 0-1 0-2 0 0 0-1 1-1 1-1 2-1 5 0 9 1 5 3 9 5 13 2 4 5 7 7 8 2 1 3 0 4-1 1-2 0-5-1-10z m-62-246c-67 0-136 18-136 52l0 388c0 2 1 4 3 6l46 62c2 2 5 4 9 4l156 0c4 0 7-2 9-4l46-62c2-2 3-4 3-6l0-388c0-34-69-52-136-52z m-114 436l0-384c0-10 40-31 114-31 74 0 114 21 114 31l0 384-41 55-146 0z m221 55l-214 0c-6 0-11 4-11 10 0 6 5 11 11 11l214 0c6 0 11-5 11-11 0-6-5-10-11-10z"/>
<glyph unicode="&#126;" d="M213 243c-2 0-3 0-4 1l-202 77c-6 2-8 8-6 14 2 5 8 8 13 6l202-77c6-3 9-9 7-14-2-4-6-7-10-7z m101 10c-1 0-3 1-4 1l-45 17c-5 2-8 9-6 14 2 6 8 8 14 6l45-17c5-2 8-8 6-14-2-4-6-7-10-7z m-101-43c-4 0-9 3-10 7-5 13-5 27 0 40 5 15 15 26 29 33 13 6 27 6 41 1 5-2 8-8 6-13-2-6-8-9-14-7-8 3-16 3-24-1-9-3-15-11-18-20-3-8-3-17 0-25 2-6-1-12-6-14-2 0-3-1-4-1z m126-5c-1 0-1 0-2 0-5 1-10 6-9 12 3 17-6 33-21 38-6 2-8 9-6 14 2 6 8 8 13 6 24-9 39-35 35-61 0-5-5-9-10-9z m-45-1c-28 0-55 1-81 4-51 4-138 18-138 54 0 46 143 58 219 58 75 0 218-12 218-58 0-46-143-58-218-58z m0 95c-130 0-197-26-197-37 0-6 29-25 118-33 25-3 51-4 79-4 130 0 197 26 197 37 0 11-67 37-197 37z m0-264c-121 0-219 102-219 227 0 6 5 11 11 11 6 0 11-5 11-11 0-113 88-205 197-205 108 0 197 92 197 205 0 6 4 11 10 11 6 0 11-5 11-11 0-125-98-227-218-227z m96 212c-3 0-5 0-8 1-7 2-13 6-17 10-1 2-2 3-4 4-4 3-9 4-15 3-6-1-16-6-18-8-4-5-11-5-15-1-5 4-5 11-1 15 7 8 24 14 30 15 12 2 23 0 32-7 2-2 4-3 6-5 2-3 5-5 7-6 4 0 11 1 16 3 1 1 3 2 5 4 4 3 8 7 15 8 6 2 14 3 22 4 5 0 11-1 15-1 2-1 4-1 6-1 0 0 0 1 0 1 3 2 7 5 14 6 5 0 11-4 11-10 1-6-4-11-9-11-1 0-1-1-2-2-3-2-8-6-16-5-2 0-4 0-7 1-4 0-7 1-11 0-6 0-13-1-18-2-2-1-4-3-6-5-3-2-6-4-10-6-6-3-14-5-22-5z m-44 112c-6 0-11 4-11 10l0 61c0 5 5 10 11 10 5 0 10-5 10-10l0-61c0-6-5-10-10-10z m-52 0c-6 0-11 4-11 10l0 97c0 6 5 11 11 11 6 0 10-5 10-11l0-97c0-6-4-10-10-10z m-52 0c-6 0-11 4-11 10l0 61c0 5 5 10 11 10 6 0 10-5 10-10l0-61c0-6-4-10-10-10z"/>
<glyph unicode="&#92;" d="M256 0c-141 0-256 115-256 256 0 141 115 256 256 256 141 0 256-115 256-256 0-141-115-256-256-256z m0 491c-129 0-235-106-235-235 0-129 106-235 235-235 129 0 235 106 235 235 0 129-106 235-235 235z m0-340c-58 0-105 47-105 105 0 58 47 105 105 105 58 0 105-47 105-105 0-58-47-105-105-105z m0 188c-46 0-83-37-83-83 0-46 37-83 83-83 46 0 83 37 83 83 0 46-37 83-83 83z m-215-214c-5 0-10 4-10 10-1 6 4 11 10 11 14 1 28 11 35 25 15 30 14 65 11 91 0 4 0 8-1 12-2 16-4 35 2 50 6 13 17 22 27 30 6 5 12 10 15 15 3 3 6 7 9 11 9 12 19 26 34 34 30 16 65 18 92 18 8 0 16-1 25-1 17-1 34-2 49 1 36 5 50 14 55 21 4 5 10 6 15 3 5-4 6-10 2-15-11-15-33-25-69-30-17-3-35-2-53-1-8 0-16 0-24 0-25 0-56-1-83-15-10-5-18-17-26-28-3-4-6-8-9-12-5-7-12-12-19-17-9-7-17-14-20-22-4-10-2-26-1-40 1-4 1-8 2-12 2-29 3-68-14-102-10-21-32-36-53-37 0 0 0 0-1 0z"/>
</font>
</defs>
</svg>
