<?xml version="1.0" standalone="no"?>
<!DOCTYPE svg PUBLIC "-//W3C//DTD SVG 1.1//EN" "http://www.w3.org/Graphics/SVG/1.1/DTD/svg11.dtd">
<svg xmlns="http://www.w3.org/2000/svg">
<metadata>Generated by Fontastic.me</metadata>
<defs>
<font id="education-48" horiz-adv-x="512">
<font-face font-family="education-48" units-per-em="512" ascent="480" descent="-32"/>
<missing-glyph horiz-adv-x="512" />

<glyph unicode="&#97;" d="M247 259c-1 0-2 0-3 0l-236 72c-5 1-8 5-8 10 0 5 3 9 8 10l236 72c2 1 4 1 6 0l236-72c5-1 8-5 8-10 0-5-3-9-8-10l-236-72c-1 0-2 0-3 0z m-200 82l200-61 200 61-200 61z m345-248l-16 8c-126 68-257 1-258 0l-16-8 0 213c0 6 5 11 11 11 6 0 10-5 10-11l0-179c39 16 142 49 247 1l0 174c0 6 5 11 11 11 6 0 11-5 11-11l0-209z m70 93c-6 0-11 4-11 10l0 121-185 27c-6 1-10 7-9 12 1 6 6 10 12 9l203-29 0-140c0-6-5-10-10-10z m39-98c-6 0-10 5-10 11l0 64-29 13c-5 2-8 8-6 14 3 5 9 8 14 5l36-15c3-1 6-5 6-10l0-71c0-6-5-11-11-11z m-79 0c-6 0-11 5-11 11l0 71c0 5 3 9 7 10l35 15c5 3 12 0 14-5 2-6 0-12-6-14l-28-13 0-64c0-6-5-11-11-11z m40 12c-6 0-11 5-11 11l0 69c0 5 5 10 11 10 5 0 10-5 10-10l0-69c0-6-5-11-10-11z"/>
<glyph unicode="&#98;" d="M362 403c-2 0-4 1-5 2l-65 35c-3 2-5 4-6 7 0 3 0 6 2 9l34 51c4 5 10 6 14 4l66-36c2-2 4-4 5-7 1-3 0-6-2-8l-34-52c-2-3-6-5-9-5z m-50 51l47-26 22 34-46 25z m-48-254l-132 72 112 167c9 14 25 23 42 23 7 0 14-2 20-5l57-31c9-6 16-14 19-25 3-12 0-25-7-36z m-102 79l95-51 100 149c4 6 5 13 4 19-1 3-3 8-8 11l-57 31c-11 6-27 0-34-11z m102-279c-5 0-10 5-10 11 0 6 5 10 10 10 104 0 188 76 188 169 0 60-37 116-95 146-5 3-7 9-5 14 3 5 9 8 15 5 65-34 106-97 106-165 0-105-93-190-209-190z m179 0l-302 0c-6 0-11 5-11 11 0 6 5 10 11 10l302 0c5 0 10-4 10-10 0-6-5-11-10-11z m-144 6c-4 0-9 3-10 8 0 1-30 96-97 124-6 2-9 8-6 14 2 5 8 8 14 5 76-31 108-133 109-137 2-6-1-12-7-13-1-1-2-1-3-1z m43 131l-292 0c-6 0-11 5-11 11 0 5 5 10 11 10l292 0c5 0 10-5 10-10 0-6-5-11-10-11z"/>
<glyph unicode="&#99;" d="M90 0c-3 0-6 1-8 3l-79 79c-2 2-3 5-3 8 0 3 1 5 3 7l220 221-79 78c-7 8-12 19-12 30 0 11 5 21 12 29l45 45c16 15 43 16 59 0 0 0 1-1 1-1 17-22 49-53 65-53 5 0 9 2 14 4 7 2 14 5 22 5 24 0 56-24 77-47 11-13 30-37 28-59-1-7-3-13-5-19-2-6-4-11-4-15-2-15 31-48 53-66 0-1 1-1 1-1 16-16 16-43 0-59l-45-45c-8-7-18-12-29-12-11 0-22 5-30 12l-78 79-221-220c-2-2-4-3-7-3z m-64 90l64-64 220 220c4 4 11 4 15 0l86-87c4-3 9-5 15-5 5 0 10 2 14 5l45 45c8 8 8 21 0 28-12 10-63 54-60 85 0 7 2 13 5 19 1 6 3 11 3 15 1 10-7 26-22 43-21 22-47 39-61 39-4 0-10-2-15-4-6-2-12-4-18-4-31-4-75 48-84 60-8 7-21 7-29 0l-45-45c-3-4-5-9-5-14 0-6 2-11 5-15l87-86c4-4 4-11 0-15z"/>
<glyph unicode="&#100;" d="M501 0l-452 0c-4 0-8 3-10 7-1 4 0 9 3 12l453 363c3 3 7 3 11 2 4-2 6-6 6-10l0-363c0-6-5-11-11-11z m-422 21l412 0 0 331z m341 57l-149 0c-4 0-8 3-10 7-1 5 0 10 4 12l149 113c3 3 7 3 11 1 3-1 6-5 6-9l0-113c0-6-5-11-11-11z m-117 21l106 0 0 81z m-239 0c-4 0-7 1-9 4-42 52-61 118-53 185 7 67 40 127 93 169 45 36 100 55 157 55 78 0 150-35 198-95 2-2 2-5 2-8 0-2-2-5-4-7l-378-301c-2-2-4-2-6-2z m188 392c-53 0-102-18-144-51-48-38-78-93-85-154-7-58 8-115 42-162l361 288c-44 50-106 79-174 79z m-120-254c-3 0-6 1-8 4-16 19-22 43-19 69 3 30 19 58 45 79 22 17 48 27 75 27 30 0 57-13 75-35 2-2 2-5 2-8 0-2-2-5-4-7l-159-127c-2-2-5-2-7-2z m93 157c-22 0-44-8-62-22-21-17-35-40-37-65-2-16 1-31 8-44l142 113c-14 12-32 18-51 18z"/>
<glyph unicode="&#101;" d="M438 222c0 6-4 10-10 10-6 0-10-4-10-10 0-5 4-10 10-10 6 0 10 5 10 10z m-317-116l-12 0c-44 0-80 35-80 79l0 327 173 0 0-327c0-44-36-79-81-79z m-71 385l0-306c0-32 27-58 59-58l12 0c33 0 60 26 60 58l0 306z m353-385l-12 0c-45 0-81 35-81 79l0 327 173 0 0-327c0-44-36-79-80-79z m-72 385l0-306c0-32 27-58 60-58l12 0c32 0 59 26 59 58l0 306z m-75-491c-6 0-11 5-11 11l0 490c0 6 5 11 11 11 6 0 11-5 11-11l0-490c0-6-5-11-11-11z m147 0l-294 0c-6 0-10 5-10 11 0 6 4 10 10 10l294 0c6 0 11-4 11-10 0-6-5-11-11-11z m-335 350l-57 0c-6 0-11 5-11 10 0 6 5 11 11 11l57 0c6 0 11-5 11-11 0-5-5-10-11-10z m433 0l-57 0c-6 0-11 5-11 10 0 6 5 11 11 11l57 0c6 0 11-5 11-11 0-5-5-10-11-10z m-154 0l-182 0c-6 0-11 5-11 10 0 6 5 11 11 11l182 0c6 0 11-5 11-11 0-5-5-10-11-10z m-238-147c0 5-4 9-10 9-5 0-10-4-10-9 0-6 5-10 10-10 6 0 10 4 10 10z m34-36c0 6-5 10-10 10-6 0-10-4-10-10 0-5 4-9 10-9 5 0 10 4 10 9z m239 10c0 6-4 10-10 10-5 0-10-4-10-10 0-5 5-10 10-10 6 0 10 5 10 10z m0 69c0 6-4 10-10 10-5 0-10-4-10-10 0-5 5-10 10-10 6 0 10 5 10 10z m46 53c0 6-4 10-10 10-6 0-10-4-10-10 0-5 4-10 10-10 6 0 10 5 10 10z m-270-43c0 5-5 10-10 10-6 0-10-5-10-10 0-5 4-10 10-10 5 0 10 5 10 10z m-59 43c0 6-4 10-10 10-6 0-10-4-10-10 0-5 4-10 10-10 6 0 10 5 10 10z"/>
<glyph unicode="&#102;" d="M501 116l-490 0c-6 0-11 4-11 10l0 314c0 6 5 11 11 11l490 0c6 0 11-5 11-11l0-314c0-6-5-10-11-10z m-480 21l470 0 0 292-470 0z m39-137c-1 0-2 0-2 0-6 2-10 7-8 13l28 116c2 6 7 9 13 8 6-2 9-8 8-13l-28-116c-2-5-6-8-11-8z m106 429c-1 0-2 0-3 1-6 1-9 7-8 13l15 61c2 6 8 9 13 8 6-2 10-7 8-13l-15-62c-1-4-6-8-10-8z m286-429c-5 0-9 3-11 8l-28 116c-1 5 2 11 8 13 6 1 11-2 13-8l28-116c2-6-2-11-8-13 0 0-1 0-2 0z m-106 429c-4 0-9 4-10 8l-15 62c-1 6 2 11 8 13 5 1 11-2 13-8l15-61c1-6-2-12-8-13-1-1-2-1-3-1z m-90-429c-6 0-11 5-11 11l0 107c0 5 5 10 11 10 6 0 11-5 11-10l0-107c0-6-5-11-11-11z m0 429c-6 0-11 5-11 11l0 61c0 6 5 11 11 11 6 0 11-5 11-11l0-61c0-6-5-11-11-11z m-97-225c-4 0-8 3-10 8 0 3-2 9-2 66 0 12-3 20-9 24-12 8-36 1-44-2-5-2-12 1-14 7-2 5 1 11 6 13 4 2 41 16 64-1 13-8 19-22 19-41-1-51 1-59 1-60 1-6-2-12-8-13-1-1-2-1-3-1z m-38 6c-5 0-9 1-14 2-17 6-23 17-25 25-4 14 3 28 9 35 17 21 60 20 65 20 6 0 11-5 11-10 0-6-5-11-11-11-16 0-41-3-48-12-4-4-7-11-5-17 1-4 5-7 11-10 15-5 32 8 34 12 2 6 8 9 13 7 6-2 9-8 7-13-3-9-13-18-23-22-8-4-16-6-24-6z m92-4c-6 0-11 5-11 11l0 154c0 6 5 11 11 11 6 0 10-5 10-11l0-154c0-6-4-11-10-11z m44 2c-30 0-55 27-55 59 0 32 25 59 55 59 31 0 56-27 56-59 0-32-25-59-56-59z m0 96c-18 0-34-16-34-37 0-21 16-37 34-37 19 0 35 16 35 37 0 21-16 37-35 37z m128-96c-30 0-55 27-55 59 0 32 25 59 55 59 16 0 31-7 41-19 4-5 4-12-1-15-4-4-11-4-15 1-6 7-15 11-25 11-18 0-34-16-34-37 0-21 16-37 34-37 11 0 20 4 26 13 1 0 2 1 2 2 3 5 10 6 15 3 5-4 6-10 3-15-1-1-2-2-3-3-10-14-26-22-43-22z"/>
<glyph unicode="&#103;" d="M55 0c-11 0-22 4-31 12l-10 9c-8 8-14 19-14 30 0 12 4 23 12 32 12 12 31 17 47 12 14 34 31 95 15 173 0 4 2 9 6 11 1 1 133 77 180 101 4 2 9 2 12-1l107-96c3-3 4-8 2-13-23-47-93-178-94-179-2-4-6-7-10-6-15 2-30 3-44 3-61 0-108-16-135-29 6-15 2-33-10-45-9-9-21-14-33-14z m-10 75c-6 0-13-2-17-7-5-4-7-10-7-16 1-6 3-12 8-16l9-8c10-9 26-8 35 1 8 8 8 20 1 28-2 3-2 6-2 9 1 3 3 6 6 7 26 14 81 36 155 36 13 0 26-1 39-2 14 26 64 121 86 166l-94 85c-45-24-141-79-167-93 15-89-8-156-23-189-1-3-4-5-7-6-3 0-6 0-8 2-4 2-9 3-14 3z m344 176c-2 0-5 1-7 3l-138 125c-2 2-3 4-3 7 0 3 1 6 3 8l112 115c4 4 10 4 14 0l138-124c3-2 4-5 4-8 0-3-1-6-3-8l-112-114c-2-3-5-4-8-4z m-122 136l122-110 97 99-122 111z m-62-225c-29 0-52 22-52 50 0 28 23 50 52 50 28 0 51-22 51-50 0-28-23-50-51-50z m0 79c-17 0-31-13-31-29 0-16 14-29 31-29 16 0 30 13 30 29 0 16-14 29-30 29z"/>
<glyph unicode="&#104;" d="M429 43l-346 0c-26 0-46 20-46 45l0 332c0 25 20 45 46 45l346 0c26 0 46-20 46-45l0-332c0-25-20-45-46-45z m-346 401c-14 0-25-11-25-24l0-332c0-13 11-24 25-24l346 0c14 0 25 11 25 24l0 332c0 13-11 24-25 24z m184-222l-185 0 0 172 185 0z m-164 22l142 0 0 129-142 0z m327-22l-185 0 0 172 185 0z m-163 22l142 0 0 129-142 0z m-113-122c0 13-12 24-25 24-14 0-25-11-25-24 0-14 11-25 25-25 13 0 25 11 25 25z m254 0c0 13-11 24-25 24-13 0-24-11-24-24 0-14 11-25 24-25 14 0 25 11 25 25z m-287-122c-6 0-11 5-11 11l0 42c0 6 5 11 11 11 5 0 10-5 10-11l0-42c0-6-5-11-10-11z m270 0c-5 0-10 5-10 11l0 42c0 6 5 11 10 11 6 0 11-5 11-11l0-42c0-6-5-11-11-11z m-380 243c-6 0-11 5-11 11l0 115c0 6 5 10 11 10 6 0 10-4 10-10l0-115c0-6-4-11-10-11z m490 0c-6 0-10 5-10 11l0 115c0 6 4 10 10 10 6 0 11-4 11-10l0-115c0-6-5-11-11-11z m-143 248l-204 0c-6 0-11 4-11 10 0 6 5 11 11 11l204 0c6 0 11-5 11-11 0-6-5-10-11-10z m-157-397c-6 0-11 5-11 11l0 67c0 6 5 11 11 11 6 0 11-5 11-11l0-67c0-6-5-11-11-11z m55 0c-6 0-11 5-11 11l0 67c0 6 5 11 11 11 6 0 11-5 11-11l0-67c0-6-5-11-11-11z m55 0c-6 0-11 5-11 11l0 67c0 6 5 11 11 11 6 0 11-5 11-11l0-67c0-6-5-11-11-11z"/>
<glyph unicode="&#105;" d="M453 0l-394 0c-29 0-41 14-45 22-8 17-3 39 15 62l155 198 0 219c0 6 4 11 10 11l124 0c6 0 11-5 11-11l0-219 154-198c18-23 23-45 15-62-4-8-16-22-45-22z m-248 491l0-213c0-2-1-5-2-6l-157-201c-12-16-17-30-13-39 5-9 19-11 26-11l394 0c7 0 21 2 26 11 4 9-1 23-13 39l-157 201c-1 1-2 4-2 6l0 213z m150 0l-198 0c-6 0-11 4-11 10 0 6 5 11 11 11l198 0c6 0 11-5 11-11 0-6-5-10-11-10z m0-272l-198 0c-6 0-11 5-11 11 0 6 5 11 11 11l198 0c6 0 11-5 11-11 0-6-5-11-11-11z"/>
<glyph unicode="&#106;" d="M420 231l-323 0c-22 0-39 20-39 44l0 193c0 24 17 44 39 44l323 0c22 0 39-20 39-44l0-193c0-24-17-44-39-44z m-323 260c-10 0-18-11-18-23l0-193c0-12 8-22 18-22l323 0c10 0 18 10 18 22l0 193c0 12-8 23-18 23z m405-491c-1 0-1 0-1 0l-490 0c-4 0-7 2-9 4-2 3-3 7-2 10l71 231c1 5 6 8 10 8l350 0c4 0 9-3 10-8l70-229c1-2 1-4 1-5 0-6-5-11-10-11z m-477 21l462 0-64 210-334 0z m125 149l-23 0c-6 0-11 4-11 10 0 6 5 11 11 11l23 0c6 0 11-5 11-11 0-6-5-10-11-10z m78 0l-23 0c-6 0-10 4-10 10 0 6 4 11 10 11l23 0c6 0 11-5 11-11 0-6-5-10-11-10z m79 0l-23 0c-6 0-11 4-11 10 0 6 5 11 11 11l23 0c6 0 10-5 10-11 0-6-4-10-10-10z m78 0l-23 0c-6 0-11 4-11 10 0 6 5 11 11 11l23 0c6 0 11-5 11-11 0-6-5-10-11-10z m-251-54l-27 0c-6 0-11 5-11 10 0 6 5 11 11 11l27 0c6 0 11-5 11-11 0-5-5-10-11-10z m90 0l-27 0c-6 0-10 5-10 10 0 6 4 11 10 11l27 0c6 0 11-5 11-11 0-5-5-10-11-10z m91 0l-27 0c-6 0-11 5-11 10 0 6 5 11 11 11l27 0c6 0 10-5 10-11 0-5-4-10-10-10z m90 0l-27 0c-6 0-11 5-11 10 0 6 5 11 11 11l27 0c6 0 11-5 11-11 0-5-5-10-11-10z m-283-54l-30 0c-6 0-10 5-10 11 0 6 4 10 10 10l30 0c6 0 10-4 10-10 0-6-4-11-10-11z m99 0l-29 0c-6 0-11 5-11 11 0 6 5 10 11 10l29 0c6 0 11-4 11-10 0-6-5-11-11-11z m99 0l-29 0c-6 0-11 5-11 11 0 6 5 10 11 10l29 0c6 0 11-4 11-10 0-6-5-11-11-11z m100 0l-30 0c-6 0-10 5-10 11 0 6 4 10 10 10l30 0c6 0 10-4 10-10 0-6-4-11-10-11z"/>
<glyph unicode="&#107;" d="M256 0c-94 0-170 76-170 170 0 73 45 136 112 160l0 171c0 6 5 11 11 11l94 0c6 0 11-5 11-11l0-171c67-24 112-87 112-160 0-94-76-170-170-170z m-37 491l0-168c0-5-3-9-7-11-63-19-105-76-105-142 0-82 67-149 149-149 82 0 149 67 149 149 0 66-42 123-105 142-4 2-7 6-7 11l0 168z m171-246l-268 0c-6 0-11 5-11 11 0 6 5 11 11 11l268 0c6 0 11-5 11-11 0-6-5-11-11-11z m-49 246l-170 0c-6 0-11 4-11 10 0 6 5 11 11 11l170 0c6 0 11-5 11-11 0-6-5-10-11-10z"/>
<glyph unicode="&#108;" d="M380 308c0 0 0 0 0 0-29 0-52 14-62 40-1 3-16 46 14 86 4 5 7 9 11 13 20 26 26 35 22 52-1 4 1 9 5 12 4 2 9 1 13-2 3-3 72-69 75-130 1-17-5-33-18-46-15-16-37-25-60-25z m5 167c-4-13-13-25-26-41-3-4-6-8-10-13-23-30-12-64-11-65 9-24 30-27 42-27 17 0 34 7 45 19 6 6 12 16 12 30-2 35-32 74-52 97z m44-459c-4 0-8 0-12 1-1 0-5 1-11 3-6 2-13 5-19 11-6 5-10 13-10 23l-4 21c-6 43-11 82-14 117-1 8-1 15-2 22-1 14-2 28-3 42-1 18-2 37-2 55l0 7c0 6 5 11 11 11 0 0 0 0 0 0 6 0 10-4 10-10l0-7c1-19 1-37 3-55 0-13 1-27 2-41 1-8 2-15 2-22 3-34 8-74 14-116l4-22c0-6 2-8 4-9 3-4 8-6 12-7 4-2 7-2 7-2 10-2 19-1 27 4 1 0 3 1 7 4 1 1 6 5 9 9 1 2 2 5 1 10l-4 22c-8 43-16 82-24 116-1 6-3 13-5 20-3 14-6 27-10 40-5 18-10 36-16 53l-2 7c-2 6 1 12 7 13 6 2 12-1 13-7l3-6c5-18 11-36 15-54 4-13 8-27 11-41 2-7 3-14 5-20 8-35 16-74 24-117l3-22c3-8 2-17-3-24-4-7-10-12-14-16-5-4-9-6-9-6-10-5-19-7-30-7z m-144-16c-20 0-40 2-60 5-81 12-153 52-192 106-27 37-38 77-31 116 16 102 143 168 283 147 15-2 31-6 46-10 5-2 9-8 7-14-2-5-8-9-13-7-14 4-29 8-43 10-128 19-244-39-259-129-6-34 4-68 27-100 36-50 103-86 178-98 50-7 104-11 128 19 3 4 4 5-8 18-1 2-2 3-4 5-18 23-47 57-20 93 12 17 29 24 49 22 6-1 10-6 9-12-1-6-6-10-12-9-12 1-22-3-29-13-16-21-2-41 20-67l4-5c9-11 22-27 7-45-19-25-52-32-87-32z m177 128c-5 0-10 4-11 10 0 5 4 11 10 11 5 0 9 2 14 4 5 2 12 6 13 12 12 42-17 94-74 135-5 3-6 10-3 15 3 5 10 6 15 2 65-46 97-106 83-157-3-11-11-20-25-27-7-3-14-5-21-5 0 0-1 0-1 0z m-347 64c-32 0-57 19-57 44 0 25 25 45 57 45 32 0 57-20 57-45 0-25-25-44-57-44z m0 67c-19 0-36-10-36-23 0-12 17-23 36-23 20 0 36 11 36 23 0 13-16 23-36 23z m64-177c-32 0-57 20-57 45 0 25 25 44 57 44 32 0 58-19 58-44 0-25-26-45-58-45z m0 68c-19 0-35-10-35-23 0-13 16-23 35-23 20 0 36 10 36 23 0 13-16 23-36 23z m56 103c-32 0-57 20-57 45 0 25 25 44 57 44 32 0 57-19 57-44 0-25-25-45-57-45z m0 68c-20 0-36-11-36-23 0-13 16-24 36-24 19 0 36 11 36 24 0 12-17 23-36 23z"/>
<glyph unicode="&#109;" d="M290 135c-2 0-3 0-4 1l-255 112c-3 2-6 5-6 8-1 4 0 8 3 10l222 190c3 3 7 3 10 2l245-89c3-1 6-4 7-7 1-4-1-8-3-10l-212-214c-2-2-4-3-7-3z m-235 126l232-103 195 197-223 81z m237-208c-1 0-3 1-4 1 0 0-173 75-246 106-38 16-43 43-42 58 1 24 17 45 32 50 6 2 12-1 13-7 2-5-1-11-7-13-5-2-16-15-17-31 0-16 10-29 30-38 64-27 206-88 238-102l186 189c4 4 11 4 15 0 5-4 5-11 1-15l-191-194c-2-3-5-4-8-4z m180 183c-3 0-7 2-9 5-28 40-3 89-2 91 3 5 10 7 15 5 5-3 7-10 4-15 0 0-20-39 1-69 3-5 2-11-3-15-2-1-4-2-6-2z m-182-178c-3 0-6 2-8 4-30 37-4 81-2 83 3 5 9 6 14 3 5-3 7-9 4-14-1-2-20-33 0-58 4-5 3-12-1-15-2-2-5-3-7-3z"/>
<glyph unicode="&#110;" d="M256 57c-110 0-199 91-199 201 0 111 89 201 199 201 110 0 199-90 199-201 0-110-89-201-199-201z m0 381c-98 0-178-81-178-180 0-99 80-179 178-179 98 0 178 80 178 179 0 99-80 180-178 180z m-150-438c-2 0-4 1-5 2-5 3-7 9-4 14l37 58c2 3 5 5 9 5l115 0c6 0 11-5 11-11 0-6-5-11-11-11l-109 0-34-52c-2-3-5-5-9-5z m300 0c-4 0-7 2-9 5l-34 52-109 0c-6 0-11 5-11 11 0 6 5 11 11 11l115 0c4 0 7-2 9-5l37-58c3-5 1-11-4-14-1-1-3-2-5-2z m-379 365c-3 0-6 1-8 4-12 15-19 34-19 54 0 49 39 89 88 89 28 0 54-13 70-36 4-4 3-11-2-14l-122-95c-2-2-4-2-7-2z m61 126c-37 0-67-30-67-68 0-11 3-22 9-32l104 81c-12 12-28 19-46 19z m397-126c-3 0-5 0-7 2l-122 95c-5 3-6 10-2 14 16 23 42 36 70 36 49 0 88-40 88-89 0-20-7-39-19-54-2-3-5-4-8-4z m-107 107l104-81c6 10 9 21 9 32 0 38-30 68-67 68-18 0-34-7-46-19z m-48-224l-72 0c-6 0-10 5-10 10l0 137c0 6 4 11 10 11 6 0 11-5 11-11l0-126 61 0c6 0 10-5 10-11 0-5-4-10-10-10z"/>
<glyph unicode="&#111;" d="M356 0c0 0 0 0-1 0-4 0-8 3-9 8l-50 167 21 6 41-138 32 81c2 4 7 7 12 6l75-13-92 123 17 13 108-144c2-4 3-9 0-12-2-4-6-6-10-5l-93 16-41-101c-2-4-6-7-10-7z m-213 18c0 0 0 0-1 0-4 1-8 4-9 9l-22 98-101 3c-4 0-8 3-9 7-2 4-1 9 3 12l120 107 14-16-100-90 82-2c5 0 9-4 11-9l17-77 61 120 19-10-75-146c-2-3-6-6-10-6z m156 150c-7 0-14 1-22 3-5 1-10 2-13 2-3 0-9-1-14-2-10-2-21-4-29-2-8 2-16 8-24 15-4 3-9 7-11 8-3 1-8 3-14 4-10 3-20 6-26 11-6 6-10 15-14 25-2 5-5 10-6 12-2 3-6 6-10 10-8 7-15 14-18 22-3 8-2 18-1 28 0 5 1 11 0 14 0 3-2 8-4 13-3 10-7 20-6 28 1 8 7 17 13 25 3 5 6 9 7 12 1 3 2 8 3 14 1 10 3 20 7 27 5 6 14 11 23 16 5 2 10 5 12 7 2 2 5 6 8 10 7 9 13 18 21 22 8 4 19 4 30 5 5 0 10 0 13 1 3 0 9 3 14 5 8 5 18 9 26 9 8 0 18-5 27-9 5-2 10-5 13-6 3 0 8 0 14-1 10 0 21 0 28-4 8-4 14-12 20-20 3-5 7-9 9-11 2-2 7-5 12-7 9-5 18-10 23-17 5-7 6-17 8-28 0-5 1-10 2-13 1-3 4-7 7-12 6-8 12-17 13-25 1-9-3-18-6-28-2-5-4-10-4-13 0-3 0-9 1-14 1-10 2-20-1-28-3-8-11-15-19-22-4-4-8-7-9-10-2-2-4-7-6-12-4-10-8-19-15-25-6-5-16-8-26-11-5-1-11-3-14-4-2-1-7-5-11-8-8-7-16-13-24-15-2-1-4-1-7-1z m-35 27c5 0 11-2 18-3 6-1 13-3 17-3 1 0 2 0 2 0 3 1 11 7 16 11 5 5 10 9 15 11 4 2 11 4 17 6 6 2 16 4 18 6 3 3 7 11 9 17 3 6 5 12 8 17 3 4 8 8 13 13 5 4 12 10 13 14 1 3 0 12-1 18 0 7-1 13 0 19 1 5 3 11 5 17 2 6 5 15 5 18-1 3-6 11-9 17-4 5-8 11-10 15-1 5-2 12-3 18-1 6-3 16-5 19-2 2-10 7-16 10-6 3-11 6-15 10-4 3-8 8-12 14-4 5-10 13-13 14-3 2-12 2-19 2-7 0-13 0-18 2-5 1-11 4-17 7-6 2-15 7-18 7-4 0-12-4-17-7-7-3-13-6-19-7-4-1-10-1-16-2-7 0-18 0-21-2-4-2-10-10-14-15-3-5-7-10-10-13-4-4-11-7-17-11-5-3-13-7-15-9-2-3-3-12-4-19-1-6-2-13-4-18-2-4-6-10-9-15-4-6-9-14-10-17 0-3 3-12 5-18 3-6 5-12 5-17 1-6 0-12 0-19-1-6-2-15-1-18 2-4 9-10 13-14 5-5 10-9 13-13 3-5 6-11 8-17 3-6 6-14 9-17 2-2 12-4 18-6 7-2 13-4 18-6 4-2 9-6 14-11 5-4 13-10 16-11 0 0 1 0 2 0 5 0 11 2 17 3 7 1 13 3 19 3z m0 37c-61 0-110 49-110 108 0 59 49 107 110 107 60 0 109-48 109-107 0-59-49-108-109-108z m0 194c-49 0-88-39-88-86 0-48 39-86 88-86 48 0 88 38 88 86 0 47-40 86-88 86z"/>
<glyph unicode="&#112;" d="M213 84c-118 0-213 95-213 213 0 117 95 212 213 212 117 0 212-95 212-212 0-118-95-213-212-213z m0 404c-106 0-192-86-192-191 0-106 86-192 192-192 105 0 191 86 191 192 0 105-86 191-191 191z m4-462c-6 0-11 4-11 10 0 6 5 11 11 11 135 0 246 110 246 246 0 6 5 11 10 11 6 0 11-5 11-11 0-147-120-267-267-267z m-139 202c-4 0-8 3-10 7-8 19-12 40-12 62 0 86 70 156 157 156 21 0 41-4 61-12 5-2 8-8 5-14-2-5-8-8-14-6-16 8-34 11-52 11-75 0-136-61-136-135 0-19 4-37 11-54 2-5 0-11-6-14-1 0-2-1-4-1z m135-2c-39 0-71 32-71 71 0 38 32 70 71 70 38 0 70-32 70-70 0-39-32-71-70-71z m0 120c-27 0-49-22-49-49 0-27 22-49 49-49 27 0 49 22 49 49 0 27-22 49-49 49z m4-343l-64 0c-6 0-11 5-11 11l0 38c0 6 5 11 11 11l64 0c6 0 10-5 10-11l0-38c0-6-4-11-10-11z m-53 21l42 0 0 18-42 0z m309 258c-21 0-38 18-38 39 0 21 17 38 38 38 22 0 39-17 39-38 0-21-17-39-39-39z m0 56c-9 0-17-8-17-17 0-10 8-17 17-17 10 0 18 7 18 17 0 9-8 17-18 17z"/>
<glyph unicode="&#113;" d="M427 0l-342 0c-6 0-11 5-11 11l0 317c0 5 5 10 11 10l342 0c6 0 11-5 11-10l0-317c0-6-5-11-11-11z m-331 21l320 0 0 296-320 0z m405 296l-490 0c-5 0-9 3-10 7-2 5 0 10 4 12l245 174c4 3 8 3 12 0l246-174c3-2 5-7 4-12-2-4-6-7-11-7z m-457 21l424 0-212 150z m259-338l-94 0c-6 0-10 5-10 11l0 139c0 6 4 11 10 11l94 0c6 0 10-5 10-11l0-139c0-6-4-11-10-11z m-83 21l72 0 0 119-72 0z m-84 168c-6 0-10 4-10 10l0 76c0 5 4 10 10 10 6 0 11-5 11-10l0-76c0-6-5-10-11-10z m80 0c-6 0-11 4-11 10l0 76c0 5 5 10 11 10 6 0 11-5 11-10l0-76c0-6-5-10-11-10z m80 0c-6 0-11 4-11 10l0 76c0 5 5 10 11 10 6 0 11-5 11-10l0-76c0-6-5-10-11-10z m80 0c-6 0-11 4-11 10l0 76c0 5 5 10 11 10 6 0 10-5 10-10l0-76c0-6-4-10-10-10z m-240-132c-6 0-10 5-10 11l0 75c0 6 4 11 10 11 6 0 11-5 11-11l0-75c0-6-5-11-11-11z m240 0c-6 0-11 5-11 11l0 75c0 6 5 11 11 11 6 0 10-5 10-11l0-75c0-6-4-11-10-11z"/>
<glyph unicode="&#114;" d="M102 11c-56 0-102 46-102 102 0 57 46 103 102 103 57 0 103-46 103-103 0-56-46-102-103-102z m0 183c-44 0-81-36-81-81 0-44 37-81 81-81 45 0 82 37 82 81 0 45-37 81-82 81z m308-183c-57 0-103 46-103 102 0 57 46 103 103 103 56 0 102-46 102-103 0-56-46-102-102-102z m0 183c-45 0-82-36-82-81 0-44 37-81 82-81 44 0 81 37 81 81 0 45-37 81-81 81z m-144-115c-14 0-27 9-32 22l-44 105-84 36c-14 6-23 20-21 36 0 16 9 32 10 34l1 1 75 85c3 4 16 9 21 9 0 0 0 0 0 0 29 0 160-60 186-72 8-3 14-9 17-17 3-7 3-16 0-23-7-16-25-24-41-17l-111 46-41-47 43-18 54-131c4-9 4-18 0-27-4-9-10-16-19-19-4-2-9-3-14-3z m-153 221c-2-4-7-14-7-23-1-7 3-13 8-16l93-39 47-113c2-7 10-11 18-8 3 2 6 5 7 8 2 3 2 7 0 11l-51 123-62 26 71 81 125-52c5-3 11 0 13 5 1 2 1 5 0 7-1 3-3 5-5 6-59 27-159 70-177 70-1 0-5-2-7-3z m172 91c-30 0-55 25-55 55 0 30 25 55 55 55 31 0 55-25 55-55 0-30-24-55-55-55z m0 89c-18 0-33-15-33-34 0-19 15-34 33-34 19 0 34 15 34 34 0 19-15 34-34 34z m-191-191c-12 6-51 28-53 51-2 22 40 53 58 65l2 1c1 1 41 17 74-18l-16-14c-20 22-44 14-49 12-25-16-47-37-48-44 1-7 21-23 42-34z"/>
<glyph unicode="&#115;" d="M256 0c-2 0-4 1-6 2-3 2-5 5-5 9l0 262c0 4 3 8 7 10l195 79c3 2 7 1 10-1 3-2 5-5 5-9l0-87c0-6-5-11-11-11-6 0-11 5-11 11l0 72-173-71 0-240 173 63 0 32c0 5 5 10 11 10 6 0 11-5 11-10l0-39c0-5-3-9-7-10l-195-71c-2-1-3-1-4-1z m0 316c-53 0-96 44-96 98 0 54 43 98 96 98 53 0 96-44 96-98 0-54-43-98-96-98z m0 175c-41 0-75-35-75-77 0-42 34-77 75-77 41 0 75 35 75 77 0 42-34 77-75 77z m0-491c-1 0-2 0-4 1l-195 71c-4 1-7 5-7 10l0 39c0 5 5 10 11 10 6 0 11-5 11-10l0-32 173-63 0 240-173 71 0-72c0-6-5-11-11-11-6 0-11 5-11 11l0 87c0 4 2 7 5 9 3 2 7 3 10 1l195-79c4-2 7-6 7-10l0-262c0-4-2-7-5-9-2-1-4-2-6-2z m197 110c-11 0-22 3-31 10-10 8-21 24-24 36-2 6-3 22 5 32-1 4-2 9-1 13 1 10 6 14 12 16-1 8 0 16 7 24 5 4 10 6 15 7 0 12 4 23 12 31 2 4 7 6 12 5 15-2 28-22 32-27 9-14 14-26 18-40 7-31-4-59-17-83-6-12-17-20-30-23-3-1-7-1-10-1z m-34 63c-1-3-1-9 0-12 2-7 9-19 16-24 7-5 16-7 24-5 5 1 11 4 15 12 11 21 21 44 15 69-3 11-7 20-15 32-4 7-9 12-13 15-4-6-4-15-1-21 2-4 1-9-3-12-3-3-8-4-12-2-3 2-7 2-9 1-2-2-2-4 1-14 1-3 1-7-1-9-2-3-5-5-8-5l-3 0c0 0-1 0-2 0 0-3 1-5 1-6 5-3 6-8 4-12-1-4-5-7-9-7z m-360-63c-3 0-7 0-10 1-13 3-24 11-30 23-13 24-24 52-17 83 4 14 9 26 18 40 4 5 17 25 32 27 5 1 9-1 12-5 8-8 12-19 12-31 5-1 10-3 15-7 7-8 8-16 7-24 6-2 11-6 12-16 1-4 0-9-1-13 8-10 7-26 5-32-3-12-14-28-24-36-9-7-20-10-31-10z m-8 150c-4-3-9-8-13-15-8-12-12-21-15-32-6-25 4-48 15-69 4-8 10-11 15-12 8-2 17 0 24 5 7 5 14 17 16 24 1 3 1 9 0 12-4 0-8 3-9 7-2 4-1 9 4 12 0 1 1 3 1 6-1 0-2 0-2 0l-3 0c-3 0-6 2-8 5-2 2-2 6-1 9 3 9 3 11 1 14-2 1-6 1-9-1-4-2-9-1-12 2-4 3-5 8-3 12 3 6 3 15-1 21z"/>
<glyph unicode="&#116;" d="M411 0l-310 0c-23 0-41 17-41 38l0 436c0 21 18 38 41 38l310 0c23 0 41-17 41-38l0-436c0-10-4-20-12-27-8-7-18-11-29-11z m-310 491c-11 0-20-8-20-17l0-436c0-9 9-17 20-17l310 0c11 0 20 8 20 17l0 436c0 9-9 17-20 17z m278-161l-246 0c-5 0-10 5-10 11l0 94c0 6 5 10 10 10l246 0c5 0 10-4 10-10l0-94c0-6-5-11-10-11z m-235 21l224 0 0 73-224 0z m31-100l-33 0c-6 0-10 4-10 10 0 6 4 11 10 11l33 0c6 0 10-5 10-11 0-6-4-10-10-10z m97 0l-32 0c-6 0-11 4-11 10 0 6 5 11 11 11l32 0c6 0 11-5 11-11 0-6-5-10-11-10z m98 0l-33 0c-6 0-10 4-10 10 0 6 4 11 10 11l33 0c6 0 10-5 10-11 0-6-4-10-10-10z m-195-81l-33 0c-6 0-10 5-10 11 0 6 4 11 10 11l33 0c6 0 10-5 10-11 0-6-4-11-10-11z m97 0l-32 0c-6 0-11 5-11 11 0 6 5 11 11 11l32 0c6 0 11-5 11-11 0-6-5-11-11-11z m98 0l-33 0c-6 0-10 5-10 11 0 6 4 11 10 11l33 0c6 0 10-5 10-11 0-6-4-11-10-11z m-195-80l-33 0c-6 0-10 5-10 11 0 6 4 10 10 10l33 0c6 0 10-4 10-10 0-6-4-11-10-11z m97 0l-32 0c-6 0-11 5-11 11 0 6 5 10 11 10l32 0c6 0 11-4 11-10 0-6-5-11-11-11z m98 0l-33 0c-6 0-10 5-10 11 0 6 4 10 10 10l33 0c6 0 10-4 10-10 0-6-4-11-10-11z"/>
<glyph unicode="&#117;" d="M309 0c-18 0-44 11-78 33-5 3-6 10-3 15 3 5 10 6 15 3 50-33 70-31 73-28 4 4 5 21-19 60-21 36-55 78-96 118-94 95-167 126-178 115-11-10 20-83 115-178 4-3 7-7 10-10 5-4 5-11 1-15-4-4-11-4-15 0-4 3-7 7-11 10-80 80-146 178-115 208 31 31 128-34 208-115 42-41 77-85 100-122 25-42 30-71 15-86-5-5-12-8-22-8z m20 18c-3 0-5 1-8 3l0 1c-2 2-3 4-3 7 1 26-40 96-117 172-76 77-144 117-171 117-3 0-7 1-9 3-2 3-4 8-2 11 1 4 4 7 8 8 120 16 220 113 238 133 22 21 50 33 80 33 38 0 77-18 110-51 30-30 47-65 50-100 3-34-8-65-31-89 0 0-1-1-1-1-20-19-117-119-133-238-1-4-4-7-8-8-1-1-2-1-3-1z m-257 309c40-19 92-59 144-111 53-52 92-104 111-144 31 107 113 191 131 209 19 19 28 45 26 72-3 30-18 60-44 87-29 28-63 44-95 44-25 0-47-9-64-26-18-18-102-100-209-131z m126-306c-19 0-37 8-50 21-27 27-27 72 0 99 13 13 31 20 50 20 18 0 36-7 49-20 13-13 21-31 21-50 0-18-8-36-21-49-1-2-3-3-4-4l-2-2c-13-10-28-15-43-15z m0 119c-13 0-26-5-35-14-19-19-19-50 0-69 9-9 22-14 35-14 10 0 21 3 29 10l2 1c1 1 2 2 3 3 9 9 14 21 14 34 0 13-5 26-14 35-9 9-21 14-34 14z m280 258c-3 0-5 1-8 3-4 4-4 11 0 15 22 21 27 51 12 66-15 15-45 10-66-11-4-5-11-5-15 0-4 4-4 10 0 15 30 29 73 35 96 11 24-23 18-66-11-96-2-2-5-3-8-3z m-280-86c-4 0-8 2-10 6-3 6 0 12 5 14 1 1 62 29 95 64 38 41 79 41 96 32 5-3 7-9 4-14-3-6-9-8-15-5-9 5-39 5-69-27-37-39-99-68-102-69-1-1-3-1-4-1z"/>
<glyph unicode="&#118;" d="M407 0c-9 0-17 1-24 3-42 10-72 45-81 67-2 5-4 10-6 15 0 0 0 0 0 0-91 217-290 308-292 309-5 2-7 7-6 12 19 99 124 106 125 106 6 0 11-4 11-10 0-1 21-157 282-266 5-2 7-7 6-12-1-5-5-8-10-8 0 0-39-2-67-31-20-22-29-53-28-94 2-4 3-9 5-14 7-16 32-45 66-53 29-7 56 1 82 24 13 11 22 32 23 53 1 13-2 33-18 49 0 0-37 36-68 7-10-10-16-21-16-32 0-15 9-28 16-35 4-4 5-10 1-15-4-4-11-4-15 0-11 10-23 28-23 50 0 17 8 34 23 48 39 36 85 5 98-8 16-17 24-40 23-65-1-27-12-53-30-68-28-25-55-32-77-32z m-386 410c36-19 188-104 277-278 5 27 15 50 32 67 15 16 32 26 47 31-210 97-254 222-262 260-22-4-78-20-94-80z m166-259c-4 0-7 2-9 5-2 4-4 7-6 11-9 17-20 36-21 57 0 9 2 16 4 23-10-9-23-16-34-13-7 2-17 9-14 33 4 27 25 39 43 36 5 0 9-2 13-5 1 2 1 3 1 4 8 20 15 40 32 56 13 11 37 20 56 14 13-5 21-15 24-30 1-5-3-11-9-12-6-1-12 3-12 9-2 9-7 11-10 12-10 4-27-2-35-9-13-12-19-29-25-47-2-6-4-11-6-17 1-6 2-12 1-20-1-6-2-12-4-17-2-6-4-11-3-16 0-17 9-32 18-48 2-3 4-7 6-11 2-5 0-11-5-14-1-1-3-1-5-1z m-42 131c-7 0-15-5-17-18 0-5 0-8 0-9 7 1 22 13 27 23-2 2-5 4-8 4 0 0-1 0-2 0z"/>
<glyph unicode="&#119;" d="M271 245c-82 0-142 45-175 130-24 62-24 124-24 126 0 6 5 11 11 11 6 0 10-5 10-11 0-9 3-234 178-234 5 0 10-5 10-11 0-6-5-11-10-11z m-28 0c-5 0-10 5-10 11 0 6 5 11 10 11 74 0 125 39 155 115 22 59 23 119 23 119 0 6 4 11 10 11 6 0 11-5 11-11 0-2 0-64-24-126-33-85-93-130-175-130z m186-245c0 0 0 0 0 0-6 0-10 5-10 11 0 1 1 125-65 192-28 29-65 44-109 44-5 0-10 5-10 11 0 6 5 10 11 10 0 0 0 0 0 0 50 0 91-17 123-50 72-74 71-202 71-208 0-5-5-10-11-10z m-348 3c0 0 0 0-1 0-5 0-10 5-10 11 0 3 6 254 201 254 0 0 1 0 2 0 6 0 10-5 10-11 0-5-5-10-10-10-1 0-2 0-2 0-174 0-180-224-180-233 0-6-5-11-10-11z m273 477l-196 0c-6 0-11 5-11 11 0 6 5 10 11 10l196 0c6 0 11-4 11-10 0-6-5-11-11-11z m0-72l-196 0c-6 0-11 5-11 11 0 6 5 11 11 11l196 0c6 0 11-5 11-11 0-6-5-11-11-11z m-35-72l-126 0c-6 0-10 5-10 11 0 6 4 11 10 11l126 0c6 0 10-5 10-11 0-6-4-11-10-11z m35-325l-196 0c-6 0-11 4-11 10 0 6 5 11 11 11l196 0c6 0 11-5 11-11 0-6-5-10-11-10z m0 71l-196 0c-6 0-11 5-11 11 0 6 5 11 11 11l196 0c6 0 11-5 11-11 0-6-5-11-11-11z m-35 72l-126 0c-6 0-10 5-10 11 0 6 4 11 10 11l126 0c6 0 10-5 10-11 0-6-4-11-10-11z"/>
<glyph unicode="&#120;" d="M359 0l-285 0c-23 0-41 20-41 45l0 422c0 25 18 45 41 45l285 0c22 0 41-20 41-45l0-115c0-5-5-10-11-10-6 0-11 5-11 10l0 115c0 13-9 24-19 24l-285 0c-11 0-20-11-20-24l0-422c0-13 9-24 20-24l285 0c10 0 19 11 19 24l0 140c0 5 5 10 11 10 6 0 11-5 11-10l0-140c0-25-19-45-41-45z m-276 415l-72 0c-6 0-11 4-11 10 0 6 5 11 11 11l72 0c6 0 10-5 10-11 0-6-4-10-10-10z m0-85l-72 0c-6 0-11 5-11 11 0 5 5 10 11 10l72 0c6 0 10-5 10-10 0-6-4-11-10-11z m0-85l-72 0c-6 0-11 5-11 11 0 6 5 11 11 11l72 0c6 0 10-5 10-11 0-6-4-11-10-11z m0-84l-72 0c-6 0-11 4-11 10 0 6 5 11 11 11l72 0c6 0 10-5 10-11 0-6-4-10-10-10z m0-85l-72 0c-6 0-11 5-11 11 0 6 5 10 11 10l72 0c6 0 10-4 10-10 0-6-4-11-10-11z m170-21c-3 0-5 0-6 2-4 2-6 7-5 11l26 110c0 1 1 2 2 3l156 236c2 2 4 4 7 4 3 1 6 0 8-1l66-44c3-2 4-4 5-7 0-3 0-6-2-8l-157-235c0-2-1-2-2-3l-92-66c-2-2-4-2-6-2z m35 116l-19-80 68 48 150 225-49 32z m55-51c-4 0-8 2-10 6-13 31-54 39-54 39-6 1-10 6-9 12 1 6 6 10 12 9 2-1 53-10 71-52 2-5-1-11-6-14-1 0-3 0-4 0z m-24 34c-2 0-5 0-6 1-5 4-7 10-3 15l118 177c3 5 9 6 14 3 5-3 7-10 3-15l-118-177c-2-3-5-4-8-4z m152 160c-2 0-4 1-6 2l-63 42c-5 3-6 10-3 15 4 4 10 6 15 3l63-42c5-4 6-10 3-15-2-3-6-5-9-5z m-170 74l-133 0c-5 0-10 5-10 11 0 6 5 11 10 11l133 0c6 0 11-5 11-11 0-6-5-11-11-11z m0-87l-133 0c-5 0-10 5-10 11 0 6 5 10 10 10l133 0c6 0 11-4 11-10 0-6-5-11-11-11z m-48-87l-85 0c-5 0-10 5-10 10 0 6 5 11 10 11l85 0c5 0 10-5 10-11 0-5-5-10-10-10z"/>
<glyph unicode="&#121;" d="M484 0l-456 0c-6 0-11 5-11 11l0 204c0 6 5 11 11 11 5 0 10-5 10-11l0-194 436 0 0 194c0 6 5 11 10 11 6 0 11-5 11-11l0-204c0-6-5-11-11-11z m17 213l-490 0c-6 0-11 5-11 11l0 189c0 6 5 11 11 11l490 0c6 0 11-5 11-11l0-189c0-6-5-11-11-11z m-480 21l470 0 0 169-470 0z m293-157l-116 0c-6 0-11 5-11 11l0 136c0 6 5 10 11 10l116 0c6 0 11-4 11-10l0-136c0-6-5-11-11-11z m-105 21l94 0 0 115-94 0z m160 307c-6 0-10 5-10 11 0 41-46 75-103 75-57 0-103-34-103-75 0-6-4-11-10-11-6 0-11 5-11 11 0 53 56 96 124 96 68 0 124-43 124-96 0-6-5-11-11-11z m-55-93l-116 0c-6 0-11 4-11 10 0 6 5 11 11 11l116 0c6 0 11-5 11-11 0-6-5-10-11-10z"/>
<glyph unicode="&#122;" d="M432 146l-240 0c-20 0-28 10-31 16-6 12-2 26 10 42l93 119 0 132c0 6 4 11 10 11l75 0c6 0 11-5 11-11l0-132 93-119c12-16 15-30 10-42-3-6-11-16-31-16z m-147 298l0-125c0-2-1-4-2-6l-96-122c-7-9-8-17-7-20 1-2 6-4 12-4l240 0c6 0 10 2 12 4 1 3-1 11-8 20l-95 122c-1 2-2 4-2 6l0 125z m87 0l-121 0c-6 0-10 5-10 11 0 6 4 11 10 11l121 0c6 0 11-5 11-11 0-6-5-11-11-11z m0-165l-121 0c-6 0-10 5-10 11 0 6 4 11 10 11l121 0c6 0 11-5 11-11 0-6-5-11-11-11z m129-279l-490 0c-6 0-11 5-11 11 0 6 5 10 11 10l490 0c6 0 11-4 11-10 0-6-5-11-11-11z m-476 0c-6 0-11 5-11 11l0 490c0 6 5 11 11 11 6 0 11-5 11-11l0-490c0-6-5-11-11-11z m377 359l-391 0c-6 0-11 5-11 11 0 6 5 11 11 11l391 0c6 0 10-5 10-11 0-6-4-11-10-11z m-239-356c-1 0-2 0-3 1-5 1-8 7-7 13l44 137c1 5 8 8 13 7 6-2 9-8 7-14l-43-136c-2-5-6-8-11-8z m297 0c-4 0-8 3-10 8l-43 136c-2 6 1 12 7 14 5 1 11-2 13-7l43-137c2-6-1-12-7-13-1-1-2-1-3-1z"/>
<glyph unicode="&#65;" d="M240 170c-3 0-6 1-8 3l-210 210c-2 2-3 5-3 8 0 2 1 5 3 7 30 30 70 47 112 47 43 0 83-17 113-47 62-62 62-163 0-225-2-2-5-3-7-3z m-195 220l194-194c47 54 44 136-7 187-26 26-61 40-98 40-33 0-64-11-89-33z m232-52l-15 15 66 66c15 15 15 40 0 55l-5 5c-15 15-41 15-55 0l-66-66-15 15 66 67c11 11 26 17 42 17 16 0 31-6 43-17l5-6c24-24 24-62 0-85z m-162-147c-19 0-38 7-53 22-29 29-29 77 0 107 8 8 17 13 27 17l8-20c-8-3-14-7-20-12-21-21-21-56 0-77 21-21 55-21 77 0 5 6 9 12 12 20l20-8c-4-10-10-19-17-27-15-15-34-22-54-22z m144-191c-3 0-6 1-8 4-4 5-3 11 2 15l214 168-170 185c-4 4-4 11 0 15 5 4 11 4 15 0l178-194c2-2 3-5 3-8 0-3-1-6-4-8l-223-175c-2-1-5-2-7-2z m180 0l-410 0c-5 0-10 5-10 11 0 6 5 10 10 10l410 0c6 0 11-4 11-10 0-6-5-11-11-11z"/>
<glyph unicode="&#66;" d="M323 262l-134 0c-31 0-56 25-56 57l0 136c0 31 25 57 56 57l134 0c31 0 56-26 56-57l0-136c0-32-25-57-56-57z m-134 229c-19 0-35-16-35-36l0-136c0-20 16-36 35-36l134 0c19 0 35 16 35 36l0 136c0 20-16 36-35 36z m117-172c-4 0-8 2-10 6l-40 93-40-93c-3-5-9-8-14-5-6 2-8 8-6 14l50 115c2 4 6 6 10 6 4 0 8-2 10-6l50-115c2-6 0-12-6-14-1-1-2-1-4-1z m-16 34l-68 0c-6 0-11 4-11 10 0 6 5 11 11 11l68 0c6 0 11-5 11-11 0-6-5-10-11-10z m-100-353l-134 0c-31 0-56 26-56 57l0 136c0 32 25 57 56 57l134 0c31 0 56-25 56-57l0-136c0-31-25-57-56-57z m-134 229c-19 0-35-16-35-36l0-136c0-20 16-36 35-36l134 0c19 0 35 16 35 36l0 136c0 20-16 36-35 36z m400-229l-134 0c-31 0-56 26-56 57l0 136c0 32 25 57 56 57l134 0c31 0 56-25 56-57l0-136c0-31-25-57-56-57z m-134 229c-19 0-35-16-35-36l0-136c0-20 16-36 35-36l134 0c19 0 35 16 35 36l0 136c0 20-16 36-35 36z m72-179c-35 0-63 34-63 75 0 41 28 75 63 75 20 0 40-12 51-32 3-5 2-12-4-15-5-3-11-1-14 4-8 14-20 22-33 22-23 0-42-24-42-54 0-29 19-53 42-53 12 0 24 7 32 19 3 5 10 7 15 3 4-3 6-9 3-14-12-19-30-30-50-30z m-268 2l-47 0c-6 0-10 5-10 11l0 67c0 5 4 10 10 10l47 0c28 0 52-20 52-44 0-24-24-44-52-44z m-36 22l36 0c16 0 31 10 31 22 0 13-15 23-31 23l-36 0z m30 45l-41 0c-6 0-10 5-10 11l0 57c0 6 4 11 10 11l41 0c25 0 46-18 46-40 0-21-21-39-46-39z m-30 21l30 0c13 0 25 9 25 18 0 10-12 19-25 19l-30 0z"/>
<glyph unicode="&#67;" d="M234 129c-1 0-3 1-4 1l-152 66c-4 2-6 4-7 8 0 3 0 6 3 9l248 295c2 4 7 5 11 3l139-47c3-1 6-3 7-7 1-3 0-6-2-9l-234-314c-2-3-6-5-9-5z m-135 81l132-57 220 296-118 40z m97-210c-2 0-5 1-7 2-4 4-5 10-2 15l234 313c3 5 10 6 14 2 5-3 6-10 3-15l-234-313c-2-3-5-4-8-4z m0 0c-2 0-3 0-4 1l-153 66c-5 2-7 8-6 13l39 129c0 3 3 5 5 7 3 1 6 1 9 0l152-66c5-2 8-8 6-13l-38-129c-1-3-3-6-6-7-1-1-3-1-4-1z m-140 83l133-58 32 109-132 57z m373 230c-1 0-2 0-3 0-6 2-9 8-7 14l39 130c2 6 8 9 14 7 5-1 8-7 7-13l-40-131c-1-4-5-7-10-7z m-103-138c0 0-1 0-2 0-6 2-9 7-8 13l24 116-125 56c-5 3-7 9-5 15 2 5 9 7 14 5l133-60c4-2 7-7 6-12l-26-124c-1-5-6-9-11-9z"/>
<glyph unicode="&#68;" d="M471 0c-23 0-42 22-42 49l0 414c0 27 19 49 42 49 23 0 41-22 41-49l0-414c0-27-18-49-41-49z m0 491c-11 0-20-13-20-28l0-414c0-15 9-28 20-28 11 0 20 13 20 28l0 414c0 15-9 28-20 28z m-430-491c-22 0-41 22-41 49l0 414c0 27 19 49 41 49 23 0 42-22 42-49l0-414c0-27-19-49-42-49z m0 491c-11 0-20-13-20-28l0-414c0-15 9-28 20-28 11 0 20 13 20 28l0 414c0 15-9 28-20 28z m96-122l-61 0c-6 0-10 4-10 10 0 6 4 11 10 11l61 0c6 0 11-5 11-11 0-6-5-10-11-10z m103 0l-68 0c-6 0-11 4-11 10 0 6 5 11 11 11l68 0c6 0 11-5 11-11 0-6-5-10-11-10z m110 0l-71 0c-6 0-11 4-11 10 0 6 5 11 11 11l71 0c6 0 11-5 11-11 0-6-5-10-11-10z m90 0l-48 0c-6 0-11 4-11 10 0 6 5 11 11 11l48 0c6 0 11-5 11-11 0-6-5-10-11-10z m-303-46c-25 0-46 25-46 56 0 31 21 56 46 56 25 0 46-25 46-56 0-31-21-56-46-56z m0 91c-13 0-25-16-25-35 0-19 12-35 25-35 13 0 24 16 24 35 0 19-11 35-24 35z m107-91c-25 0-46 25-46 56 0 31 21 56 46 56 25 0 46-25 46-56 0-31-21-56-46-56z m0 91c-13 0-25-16-25-35 0-19 12-35 25-35 13 0 24 16 24 35 0 19-11 35-24 35z m112-91c-25 0-46 25-46 56 0 31 21 56 46 56 25 0 46-25 46-56 0-31-21-56-46-56z m0 91c-13 0-25-16-25-35 0-19 12-35 25-35 13 0 24 16 24 35 0 19-11 35-24 35z m-212-178l-68 0c-6 0-10 5-10 10 0 6 4 11 10 11l68 0c6 0 10-5 10-11 0-5-4-10-10-10z m113 0l-85 0c-6 0-11 5-11 10 0 6 5 11 11 11l85 0c5 0 10-5 10-11 0-5-5-10-10-10z m183 0l-136 0c-6 0-11 5-11 10 0 6 5 11 11 11l136 0c6 0 11-5 11-11 0-5-5-10-11-10z m-303-46c-25 0-46 25-46 56 0 31 21 57 46 57 25 0 46-26 46-57 0-31-21-56-46-56z m0 91c-13 0-25-16-25-35 0-18 12-34 25-34 13 0 24 16 24 34 0 19-11 35-24 35z m127-91c-25 0-46 25-46 56 0 31 21 57 46 57 26 0 46-26 46-57 0-31-20-56-46-56z m0 91c-13 0-24-16-24-35 0-18 11-34 24-34 14 0 25 16 25 34 0 19-11 35-25 35z m-58-178l-130 0c-6 0-10 5-10 11 0 6 4 10 10 10l130 0c6 0 11-4 11-10 0-6-5-11-11-11z m234 0l-190 0c-6 0-11 5-11 11 0 6 5 10 11 10l190 0c6 0 11-4 11-10 0-6-5-11-11-11z m-231-45c-26 0-46 25-46 56 0 31 20 56 46 56 25 0 46-25 46-56 0-31-21-56-46-56z m0 90c-14 0-25-16-25-34 0-19 11-35 25-35 13 0 24 16 24 35 0 18-11 34-24 34z"/>
<glyph unicode="&#69;" d="M501 132l-33 0c-6 0-11 5-11 11 0 6 5 11 11 11l23 0 0 208-291 0c-2-25-8-78-23-95-15-16-43-20-74-24-23-3-47-7-57-15-9-8-18-45-23-74l32 0c6 0 10-5 10-11 0-6-4-11-10-11l-44 0c-3 0-6 2-8 4-2 2-3 5-3 8 2 14 12 83 33 100 14 12 40 16 67 20 24 3 52 7 61 17 10 11 16 61 18 92 0 6 5 10 10 10l312 0c6 0 11-4 11-10l0-230c0-6-5-11-11-11z m-149 0l-182 0c-5 0-10 5-10 11 0 6 5 11 10 11l182 0c6 0 11-5 11-11 0-6-5-11-11-11z m58-58c-38 0-69 31-69 69 0 38 31 68 69 68 38 0 68-30 68-68 0-38-30-69-68-69z m0 116c-26 0-47-21-47-47 0-26 21-47 47-47 26 0 47 21 47 47 0 26-21 47-47 47z m-297-116c-38 0-69 31-69 69 0 38 31 68 69 68 37 0 68-30 68-68 0-38-31-69-68-69z m0 116c-26 0-48-21-48-47 0-26 22-47 48-47 26 0 47 21 47 47 0 26-21 47-47 47z m191 57l-78 0c-6 0-11 5-11 11l0 76c0 5 5 10 11 10l78 0c6 0 11-5 11-10l0-76c0-6-5-11-11-11z m-67 21l56 0 0 55-56 0z m145-21l-78 0c-6 0-11 5-11 11l0 76c0 5 5 10 11 10l78 0c6 0 11-5 11-10l0-76c0-6-5-11-11-11z m-67 21l56 0 0 55-56 0z m145-21l-78 0c-6 0-11 5-11 11l0 76c0 5 5 10 11 10l78 0c6 0 11-5 11-10l0-76c0-6-5-11-11-11z m-67 21l57 0 0 55-57 0z m-159 94c-6 0-11 5-11 11l0 54c0 6 5 11 11 11 6 0 11-5 11-11l0-54c0-6-5-11-11-11z"/>
<glyph unicode="&#70;" d="M391 160c-39 0-71 32-71 71 0 39 32 71 71 71 39 0 71-32 71-71 0-39-32-71-71-71z m0 121c-28 0-50-23-50-50 0-27 22-50 50-50 27 0 49 23 49 50 0 27-22 50-49 50z m110-218l-221 0c-6 0-10 5-10 11 0 5 0 9 0 14l-7-3c-13-5-28 0-36 11l-54 83c-4 7-6 15-4 23 2 8 6 14 13 18 14 9 32 6 41-8l41-63 52 20c11 9 25 16 39 21 5 2 11-2 13-7 2-6-1-12-7-14-12-3-23-10-33-18-1 0-2-1-3-1l-62-24c-4-2-10 0-12 4l-46 70c-2 4-8 5-12 3-1-2-3-4-3-6-1-2 0-4 1-6l54-83c2-3 6-5 10-3l26 10c4 1 8 0 11-2 3-3 4-7 3-11-2-6-3-12-3-17l198 0c-4 39-31 72-70 84-5 2-8 8-7 14 2 5 8 8 14 7 51-16 85-63 85-116 0-6-5-11-11-11z m-299 82l-165 0c-6 0-11 4-11 10l0 283c0 6 5 11 11 11l363 0c6 0 10-5 10-11l0-147c0-6-4-11-10-11-6 0-11 5-11 11l0 136-341 0 0-261 154 0c5 0 10-5 10-11 0-6-5-10-10-10z m-23 59c-3 0-7 2-9 5l-63 95c-3 5-2 11 3 15 5 3 12 1 15-3l63-96c3-4 2-11-3-14-2-1-4-2-6-2z m151 169l-144 0c-6 0-10 5-10 11 0 6 4 11 10 11l144 0c6 0 11-5 11-11 0-6-5-11-11-11z m0-50l-144 0c-6 0-10 4-10 10 0 6 4 11 10 11l144 0c6 0 11-5 11-11 0-6-5-10-11-10z m-30-51l-114 0c-6 0-10 5-10 10 0 6 4 11 10 11l114 0c6 0 11-5 11-11 0-5-5-10-11-10z m-73-179l-216 0c-6 0-11 5-11 11 0 6 5 11 11 11l216 0c6 0 11-5 11-11 0-6-5-11-11-11z"/>
<glyph unicode="&#71;" d="M177 229c-1 0-1 0-2 0l-83 9c-4 1-8 4-9 8-1 4 0 8 3 11l115 99c2 2 5 3 9 3l46-7c6-1 10-6 9-12-1-6-6-10-12-9l-42 6-92-80 59-7c6 0 10-5 9-11 0-6-5-10-10-10z m80-146c-1 0-3 0-4 1-4 1-7 5-7 9l-3 82c0 6 5 11 11 11 6 1 10-4 11-10l2-58 84 84-3 41c0 6 4 11 10 11 6 1 11-4 12-10l3-45c0-3-1-6-3-9l-106-104c-2-2-4-3-7-3z m-13 79c-3 0-6 1-8 3l-67 65c-4 3-4 9-2 13 6 10 145 240 333 269 3 0 7-1 9-3 2-3 3-6 3-10-1-2-50-233-264-336-1 0-3-1-4-1z m-54 77l56-53c167 84 226 250 241 302-152-35-273-211-297-249z m79 25c-2 0-5 1-7 3-4 4-5 10-1 15l103 111c4 4 11 4 15 0 4-4 5-11 1-15l-103-111c-2-2-5-3-8-3z m-258-131c-4 0-8 2-10 6-3 5 0 11 5 14l140 71c5 2 11 0 14-5 3-5 0-12-5-14l-140-71c-1-1-3-1-4-1z m133-133c-2 0-4 0-6 1-5 3-7 10-4 15l75 133c3 5 9 7 14 4 5-3 7-10 4-15l-74-133c-2-3-6-5-9-5z m-59 10c-2 0-4 1-6 2-5 4-6 10-2 15l69 96c3 5 10 6 15 3 5-4 6-10 2-15l-69-96c-2-3-5-5-9-5z m-16 88c-3 0-7 1-9 4-3 5-2 12 3 15l81 60c5 4 12 3 15-2 3-5 2-11-2-15l-82-60c-2-1-4-2-6-2z"/>
<glyph unicode="&#72;" d="M278 128c-24 0-56 9-98 28l-12 6c-62 29-126 73-153 92-4 3-8 6-10 7-5 4-6 10-3 15 3 5 10 6 15 3 2-2 6-4 10-7 27-19 90-63 150-91l12-6c60-27 89-28 102-24 19 5 45 24 76 54l10 10c44 46 86 102 98 118 1 5 5 9 10 10l1 0c5 1 9-1 11-5 2-4 2-8 0-12-1 0-51-70-105-126l-10-10c-34-34-62-53-85-60-6-1-12-2-19-2z m-60 212c-27 0-49 5-63 9-5 1-8 5-8 9 0 3 0 6 0 8 0 53 42 96 95 96 46 0 85-33 94-78 0-4-1-8-5-11-34-22-72-33-113-33z m-50 28c13-3 30-6 50-6 34 0 66 8 95 25-9 32-38 53-71 53-40 0-73-32-74-72z m44-143c-114 0-204 35-205 35-4 2-7 5-7 9 0 4 2 8 5 10l148 89c3 2 7 3 11 1 3-2 5-5 5-8l-10-2 5-9-128-77c66-20 274-68 431 55l-146 44 3 10-11-2c0 3 1 8 4 10 3 2 6 4 10 3l165-51c4-1 7-4 8-8 1-3-1-7-4-10-88-77-194-99-284-99z m-142-175c-1 0-3 1-4 1-5 3-8 9-5 14l62 131c3 5 9 8 15 5 5-2 7-9 5-14l-63-131c-2-4-6-6-10-6z m431 0c-4 0-7 2-9 6l-87 179c-3 5-1 12 4 14 6 3 12 1 15-5l87-178c3-6 0-12-5-15-1 0-3-1-5-1z"/>
<glyph unicode="&#73;" d="M257 165c-8 0-15 3-21 8l-5 5c-6 5-9 12-9 20-1 8 2 15 8 21 7 7 16 10 26 8 7 19 14 50 7 89-1 4 1 9 5 11 3 2 73 42 99 56 4 2 9 1 12-2l58-52c4-3 5-9 3-13-13-26-50-96-52-99-2-3-6-6-10-5-8 1-16 1-24 1-30 0-53-7-68-13 2-9-1-19-8-26-5-6-13-9-21-9z m-6 41c-2 0-4 0-6-2-1-2-2-3-2-5 0-2 1-4 2-6l6-4c3-3 9-3 12 0 2 3 3 7 0 9-1 2-1 4-2 6-2 0-3 0-5 1-1 1-3 1-5 1z m34 106c6-41-2-74-10-94 17 8 44 17 79 17 6 0 13-1 19-1 9 16 32 60 44 84l-47 42c-24-12-68-38-85-48z m155-9c-3 0-5 1-7 3l-76 68c-2 2-3 5-3 8-1 3 1 5 3 7l61 63c4 4 11 5 15 1l75-69c3-2 4-4 4-7 0-3-1-6-3-8l-61-63c-2-2-5-3-8-3z m-60 79l60-54 46 48-60 54z m-41-128c-19 0-34 14-34 32 0 18 15 33 34 33 18 0 33-15 33-33 0-18-15-32-33-32z m0 43c-7 0-12-5-12-11 0-6 5-11 12-11 6 0 11 5 11 11 0 6-5 11-11 11z m64-241l-352 0c-28 1-51 23-51 52l0 276c0 28 23 51 51 51l352 0c6 0 10-5 10-11 0-6-4-10-10-10l-352 0c-16 0-30-14-30-30l0-276c0-17 14-30 30-30l352 0c16 0 29 13 29 30l0 209c0 6 5 10 11 10 6 0 11-4 11-10l0-209c0-29-23-52-51-52z m-134 294l-194 0c-6 0-11 5-11 11 0 6 5 11 11 11l194 0c6 0 11-5 11-11 0-6-5-11-11-11z m-33-59l-161 0c-6 0-11 4-11 10 0 6 5 11 11 11l161 0c6 0 11-5 11-11 0-6-5-10-11-10z m0-60l-161 0c-6 0-11 5-11 11 0 5 5 10 11 10l161 0c6 0 11-5 11-10 0-6-5-11-11-11z m-36-60l-125 0c-6 0-11 5-11 11 0 6 5 11 11 11l125 0c6 0 10-5 10-11 0-6-4-11-10-11z m177-59l-302 0c-6 0-11 4-11 10 0 6 5 11 11 11l302 0c5 0 10-5 10-11 0-6-5-10-10-10z"/>
<glyph unicode="&#74;" d="M234 114c-108 0-196 88-196 196 0 109 88 197 196 197 108 0 196-88 196-197 0-108-88-196-196-196z m0 371c-96 0-175-78-175-175 0-96 79-175 175-175 97 0 175 79 175 175 0 97-78 175-175 175z m0-371c-70 0-127 88-127 196 0 109 57 197 127 197 70 0 127-88 127-197 0-108-57-196-127-196z m0 371c-58 0-106-78-106-175 0-96 48-175 106-175 59 0 106 79 106 175 0 97-47 175-106 175z m0-371c-44 0-56 128-56 196 0 68 12 197 56 197 44 0 56-129 56-197 0-68-12-196-56-196z m0 371c-10 0-35-59-35-175 0-115 25-175 35-175 10 0 35 60 35 175 0 116-25 175-35 175z m0-415c-63 0-122 24-167 68-5 4-5 11-1 15 5 4 11 5 16 0 41-39 95-61 152-61 121 0 219 98 219 218 0 74-36 142-97 182-5 4-7 10-3 15 3 5 10 6 14 3 67-45 107-119 107-200 0-132-107-240-240-240z m0-70c-6 0-11 5-11 11l0 70c0 6 5 11 11 11 6 0 11-5 11-11l0-70c0-6-5-11-11-11z m93 0l-186 0c-6 0-10 5-10 11 0 6 4 10 10 10l186 0c6 0 11-4 11-10 0-6-5-11-11-11z m90 300l-366 0c-6 0-11 4-11 10 0 6 5 11 11 11l366 0c6 0 11-5 11-11 0-6-5-10-11-10z m-17 83l-332 0c-6 0-11 4-11 10 0 6 5 11 11 11l332 0c6 0 11-5 11-11 0-6-5-10-11-10z m0-166l-332 0c-6 0-11 5-11 10 0 6 5 11 11 11l332 0c6 0 11-5 11-11 0-5-5-10-11-10z"/>
<glyph unicode="&#75;" d="M256 0c-64 0-114 112-114 256 0 144 50 256 114 256 64 0 114-112 114-256 0-144-50-256-114-256z m0 491c-45 0-92-95-92-235 0-140 47-235 92-235 45 0 92 95 92 235 0 140-47 235-92 235z m142-397c-56 0-129 23-199 64-58 33-107 74-138 115-33 44-43 83-27 111 13 22 41 34 80 34 56 0 128-23 199-64 124-71 197-171 165-226-13-22-41-34-80-34z m-284 303c-31 0-52-8-61-24-12-19-2-51 25-87 29-39 76-78 132-110 66-38 136-61 188-61 31 0 52 8 61 24 23 38-35 127-157 197-66 38-136 61-188 61z m0-303c-39 0-67 12-80 34-16 28-6 67 27 111 31 41 80 82 138 115 71 41 143 64 199 64 39 0 67-12 80-34 32-55-41-155-165-226-71-41-143-64-199-64z m284 303c-52 0-122-23-188-61-56-32-103-71-132-110-27-36-37-68-25-87 9-16 30-24 61-24 52 0 122 23 188 61 122 70 180 159 157 197-9 16-30 24-61 24z"/>
<glyph unicode="&#76;" d="M183 290c-3 0-7 2-9 5-7 13-10 28-10 42 0 51 41 92 92 92 51 0 92-41 92-92 0-14-3-28-10-41-2-5-9-7-14-5-5 3-7 9-5 15 5 9 8 20 8 31 0 39-32 71-71 71-39 0-71-32-71-71 0-11 3-22 8-32 3-5 1-12-5-14-1-1-3-1-5-1z m-123-290c-1 0-3 0-4 1-5 3-8 9-5 14l150 318c2 5 9 7 14 5 5-3 8-9 5-15l-150-317c-2-4-6-6-10-6z m392 0c-4 0-8 2-10 6l-150 317c-3 6 0 12 5 15 5 2 12 0 14-5l150-318c3-5 0-11-5-14-1-1-3-1-4-1z m-196 408c-6 0-11 5-11 11l0 82c0 6 5 11 11 11 6 0 11-5 11-11l0-82c0-6-5-11-11-11z m170-276l-340 0c-6 0-11 5-11 10 0 6 5 11 11 11l340 0c6 0 11-5 11-11 0-5-5-10-11-10z"/>
<glyph unicode="&#77;" d="M198 101c-2 0-4 1-6 2-45 29-102 29-148 0-3-2-7-2-10 0-4 2-6 5-6 9l0 251c0 3 2 7 5 9 52 32 118 32 170 0 3-2 5-6 5-9l0-251c0-4-2-7-5-9-2-1-4-2-5-2z m-80 45c24 0 47-5 69-16l0 226c-43 25-95 25-138 0l0-226c22 11 46 16 69 16z m80-45c-2 0-4 1-5 2-4 2-6 5-6 9l0 251c0 3 2 7 5 9 18 11 38 19 58 22 6 1 12-3 13-8 1-6-3-12-9-13-16-3-31-8-46-16l0-227c44 22 94 22 138 0l0 53c0 6 5 11 11 11 6 0 10-5 10-11l0-71c0-4-2-7-5-9-4-2-8-2-11 0-46 29-101 29-148 0-1-1-3-2-5-2z m0-50c-1 0-2 0-2 1l-187 33c-5 1-9 5-9 10l0 243c0 5 3 9 7 10l28 11c6 2 12-1 14-7 2-5-1-11-7-13l-21-8 0-227 179-31c5-1 9-7 8-13-1-5-5-9-10-9z m0 0c-5 0-10 4-11 9-1 6 3 12 9 13l178 31 0 80c0 6 5 10 11 10 6 0 10-4 10-10l0-89c0-5-3-9-8-10l-187-33c-1-1-2-1-2-1z m170 121c-80 0-145 65-145 144 0 80 65 145 145 145 79 0 144-65 144-145 0-79-65-144-144-144z m0 267c-68 0-123-55-123-123 0-68 55-123 123-123 68 0 123 55 123 123 0 68-55 123-123 123z m0-173c-28 0-50 23-50 50 0 28 22 50 50 50 27 0 50-22 50-50 0-27-23-50-50-50z m0 79c-16 0-29-13-29-29 0-16 13-28 29-28 15 0 28 12 28 28 0 16-13 29-28 29z m0 3c-6 0-11 5-11 11l0 91c0 6 5 11 11 11 6 0 10-5 10-11l0-91c0-6-4-11-10-11z m27-13c-3 0-7 2-9 5-3 5-2 11 3 15l73 52c5 4 12 3 15-2 4-5 3-11-2-15l-74-53c-2-1-4-2-6-2z m-14-160c-5 0-9 4-10 10l-10 90c-1 6 3 11 9 12 6 0 11-4 12-10l10-90c1-6-3-11-9-12-1 0-1 0-2 0z m-106 39c-3 0-5 1-8 4-4 4-3 11 1 15l67 61c5 4 11 3 15-1 4-4 4-11 0-15l-68-61c-2-2-4-3-7-3z"/>
<glyph unicode="&#78;" d="M446 0l-220 0c-4 0-8 2-10 6l-23 51c-4 0-7 0-10 0-5 0-11 0-17 0-11 0-20 0-29 1-1 0-4 0-6 1-15 1-37 3-46 21-4 9-2 18-1 26 2 7 3 11 1 13-1 2-2 3-3 4-6 7-7 12-3 21-3 2-5 5-6 8-2 5-1 10 0 14 0 0 0 1 0 2-1 1-3 2-5 2-4 1-9 2-13 5-6 4-8 9-9 13-2 9 4 18 8 25 2 2 4 5 4 7 4 10 8 20 11 29l4 9c5 15 6 28 4 39 0 2-1 5-2 7-1 5-3 10-3 16 0 6 0 11 0 17 0 2 0 5 0 8 0 4 0 8 1 12 0 13 14 52 24 67 1 2 2 3 3 5 1 1 2 3 4 4 39 50 97 79 158 79 113 0 205-96 205-214 0-50-17-98-47-136-3-5-5-8-7-12-2-3-5-6-7-9-4-63 48-123 48-123 3-3 4-8 2-12-2-4-6-6-10-6z m-213 21l192 0c-18 25-45 73-40 125 0 2 1 4 2 6 3 3 6 6 8 10 2 3 5 7 7 11 0 0 1 1 1 1 27 35 42 79 42 124 0 106-82 193-183 193-55 0-107-26-142-71 0-1 0-1-1-1 0-1-1-2-2-3 0-1-1-2-2-3 0 0 0 0 0-1-9-13-20-45-21-53 0-1 0-2 0-3 0-4-1-8-1-11 0-3 0-6 0-9 0-5 0-10 0-15 0-3 1-7 3-10 0-4 1-7 2-10 3-15 1-31-5-50l-4-9c-3-10-7-20-11-30-1-4-4-7-6-11-2-2-4-6-5-8 2-1 4-2 6-2 6-2 14-4 18-11 5-6 4-14 3-18 2-1 3-2 5-4 6-6 7-14 0-20 0 0 0 0 0 0 0-1 0-1 0-2 0 0 0 0 0 0 1-1 2-3 3-5 8-10 5-21 3-30-1-5-2-9-1-12 4-7 18-8 29-9 2 0 5 0 7-1 7 0 15-1 26-1 6 0 11 0 17 0 5 0 11 1 16 1 0 0 0 0 0 0 4 0 8-3 10-7z m17 192c-5 0-9 3-10 9 0 1-3 18 11 43 3 6 10 14 22 25 9 8 19 18 22 23 15 26 12 48-8 60-17 11-44 9-59-13-3-5-9-7-14-3-5 3-7 9-3 14 21 33 61 36 88 20 22-14 39-45 15-88-5-8-15-18-26-29-7-6-17-15-18-19-11-18-9-29-9-30 1-5-3-11-9-12 0 0-1 0-2 0z m1-64c-6 0-11 4-11 10l0 19c0 6 5 11 11 11 5 0 10-5 10-11l0-19c0-6-5-10-10-10z"/>
<glyph unicode="&#79;" d="M116 114c-31 0-56 27-56 61l0 337 112 0 0-337c0-34-25-61-56-61z m-35 377l0-316c0-22 16-40 35-40 19 0 34 18 34 40l0 316z m175-377c-31 0-56 27-56 61l0 337 112 0 0-337c0-34-25-61-56-61z m-35 377l0-316c0-22 16-40 35-40 19 0 35 18 35 40l0 316z m175-377c-31 0-56 27-56 61l0 337 112 0 0-337c0-34-25-61-56-61z m-34 377l0-316c0-22 15-40 34-40 19 0 35 18 35 40l0 316z m150-491l-512 0 0 87 512 0z m-491 21l470 0 0 45-470 0z m50 388l-38 0c-6 0-11 5-11 11 0 6 5 11 11 11l38 0c5 0 10-5 10-11 0-6-5-11-10-11z m408 0l-38 0c-5 0-10 5-10 11 0 6 5 11 10 11l38 0c6 0 11-5 11-11 0-6-5-11-11-11z m-128 0l-50 0c-6 0-10 5-10 11 0 6 4 11 10 11l50 0c6 0 11-5 11-11 0-6-5-11-11-11z m-140 0l-50 0c-6 0-11 5-11 11 0 6 5 11 11 11l50 0c6 0 10-5 10-11 0-6-4-11-10-11z m-178-339c-6 0-11 4-11 10l0 385c0 5 5 10 11 10 6 0 11-5 11-10l0-385c0-6-5-10-11-10z m446 0c-6 0-11 4-11 10l0 385c0 5 5 10 11 10 6 0 11-5 11-10l0-385c0-6-5-10-11-10z"/>
<glyph unicode="&#80;" d="M256 0c-15 0-29 6-39 16l-31 25-130 0c-31 0-56 25-56 56l0 177c0 30 25 55 56 55l247 0c31 0 55-25 55-55l0-177c0-19-40-59-63-81-11-10-25-16-39-16z m-200 308c-19 0-35-15-35-34l0-177c0-19 16-35 35-35l137 0 38-31c13-13 36-13 49 0 27 25 56 57 57 66l0 177c0 19-15 34-34 34z m219-143c-25 0-46 20-46 45 0 25 21 46 46 46 25 0 45-21 45-46 0-25-20-45-45-45z m0 70c-14 0-24-11-24-25 0-13 10-24 24-24 13 0 24 11 24 24 0 14-11 25-24 25z m-96-70c-25 0-45 20-45 45 0 25 20 46 45 46 25 0 46-21 46-46 0-25-21-45-46-45z m0 70c-13 0-24-11-24-25 0-13 11-24 24-24 13 0 24 11 24 24 0 14-11 25-24 25z m-95-70c-25 0-45 20-45 45 0 25 20 46 45 46 25 0 45-21 45-46 0-25-20-45-45-45z m0 70c-13 0-24-11-24-25 0-13 11-24 24-24 13 0 24 11 24 24 0 14-11 25-24 25z m266 35c-1 0-2 0-3 1-6 1-9 8-7 13 1 5 2 9 2 14 0 24-19 43-43 43-15 0-30-8-38-22-2-5-9-7-14-4-5 3-7 10-4 15 11 20 33 33 56 33 36 0 65-29 65-65 0-7-2-14-4-21-1-4-5-7-10-7z m8-92c-4 0-8 2-10 5-3 5-1 12 5 15 36 20 59 58 59 100 0 63-51 114-113 114-53 0-99-38-111-90-1-6-6-9-12-8-6 1-10 7-8 13 13 61 68 106 131 106 74 0 135-61 135-135 0-50-28-95-71-119-2-1-4-1-5-1z m0-85c-5 0-9 2-11 7-1 6 2 12 8 13 80 25 136 101 136 185 0 106-86 193-192 193-96 0-177-72-190-168-1-6-6-10-12-9-6 1-10 6-9 12 14 106 105 186 211 186 117 0 213-96 213-214 0-94-62-178-151-205-1 0-2 0-3 0z"/>
<glyph unicode="&#81;" d="M292 262l0 0-12-6-2 7 15 8 8 0 0-68-9 0 0 59z m34-59l0 6 7 7c17 16 25 25 25 35 0 7-3 13-13 13-7 0-12-3-15-5l-3 6c5 4 12 7 19 7 15 0 21-10 21-20 0-12-9-22-23-36l-6-5 0 0 31 0 0-8z m55 11c3-2 9-5 15-5 12 0 15 8 15 13 0 10-8 14-17 14l-5 0 0 7 5 0c7 0 15 3 15 11 0 6-3 10-12 10-5 0-10-2-13-4l-3 7c4 2 11 5 18 5 13 0 19-8 19-16 0-7-4-13-12-16l0 0c8-2 15-8 15-18 0-11-9-20-25-20-7 0-14 2-17 5z m-273 134l-7-22-10 0 24 70 11 0 24-70-10 0-7 22z m23 7l-7 20c-2 5-3 9-4 13l0 0c-1-4-2-8-3-13l-7-20z m29 40c4 1 10 1 17 1 9 0 14-1 19-5 3-2 6-6 6-12 0-7-5-13-12-15l0-1c6-1 14-7 14-17 0-6-2-11-6-14-5-5-12-7-24-7-6 0-11 1-14 1z m9-29l8 0c10 0 15 5 15 12 0 8-6 12-15 12-4 0-6-1-8-1z m0-33c2-1 4-1 8-1 9 0 18 4 18 14 0 10-9 13-18 13l-8 0z m96-5c-3-1-10-3-18-3-20 0-35 12-35 35 0 22 15 37 37 37 9 0 14-2 16-3l-2-7c-3 1-8 2-14 2-16 0-27-10-27-28 0-18 10-29 27-29 5 0 11 2 14 3z m158-328l-37 0c-6 0-11 5-11 11l0 24-238 0 0-24c0-6-5-11-11-11l-37 0c-5 0-10 5-10 11l0 24-44 0c-19 0-35 16-35 37l0 403c0 20 16 37 35 37l442 0c19 0 35-17 35-37l0-403c0-21-16-37-35-37l-44 0 0-24c0-6-5-11-10-11z m-26 21l15 0 0 24c0 6 5 11 11 11l54 0c8 0 14 7 14 16l0 403c0 8-6 16-14 16l-442 0c-8 0-14-8-14-16l0-403c0-9 6-16 14-16l54 0c6 0 11-5 11-11l0-24 15 0 0 24c0 6 5 11 11 11l260 0c6 0 11-5 11-11z m56 121l-394 0c-6 0-10 5-10 11l0 293c0 6 4 11 10 11l394 0c6 0 10-5 10-11l0-293c0-6-4-11-10-11z m-383 21l372 0 0 273-372 0z"/>
<glyph unicode="&#82;" d="M501 0l-490 0c-6 0-11 5-11 11 0 6 5 10 11 10l490 0c6 0 11-4 11-10 0-6-5-11-11-11z m-415 348c-5 0-10 5-10 11l0 142c0 6 5 11 10 11 6 0 11-5 11-11l0-142c0-6-5-11-11-11z m170-98c-6 0-11 5-11 10l0 241c0 6 5 11 11 11 6 0 11-5 11-11l0-241c0-5-5-10-11-10z m170-99c-6 0-11 5-11 11l0 339c0 6 5 11 11 11 5 0 10-5 10-11l0-339c0-6-5-11-10-11z m-340-151c-5 0-10 5-10 11l0 53c0 6 5 10 10 10 6 0 11-4 11-10l0-53c0-6-5-11-11-11z m170 0c-6 0-11 5-11 11l0 53c0 6 5 10 11 10 6 0 11-4 11-10l0-53c0-6-5-11-11-11z m170 0c-6 0-11 5-11 11l0 53c0 6 5 10 11 10 5 0 10-4 10-10l0-53c0-6-5-11-10-11z m-170 53c-33 0-60 27-60 60 0 33 27 60 60 60 33 0 60-27 60-60 0-33-27-60-60-60z m0 98c-21 0-39-17-39-38 0-21 18-39 39-39 21 0 39 18 39 39 0 21-18 38-39 38z m170-98c-33 0-60 27-60 60 0 33 27 60 60 60 33 0 59-27 59-60 0-33-26-60-59-60z m0 98c-22 0-39-17-39-38 0-21 17-39 39-39 21 0 38 18 38 39 0 21-17 38-38 38z m-170 0c-33 0-60 27-60 60 0 33 27 60 60 60 33 0 60-27 60-60 0-33-27-60-60-60z m0 99c-21 0-39-17-39-39 0-21 18-38 39-38 21 0 39 17 39 38 0 22-18 39-39 39z m-170-197c-33 0-59 27-59 60 0 33 26 60 59 60 33 0 60-27 60-60 0-33-27-60-60-60z m0 98c-21 0-38-17-38-38 0-21 17-39 38-39 22 0 39 18 39 39 0 21-17 38-39 38z m0 0c-33 0-59 27-59 60 0 33 26 60 59 60 33 0 60-27 60-60 0-33-27-60-60-60z m0 99c-21 0-38-17-38-39 0-21 17-38 38-38 22 0 39 17 39 38 0 22-17 39-39 39z m0 0c-33 0-59 27-59 60 0 33 26 60 59 60 33 0 60-27 60-60 0-33-27-60-60-60z m0 98c-21 0-38-17-38-38 0-22 17-39 38-39 22 0 39 17 39 39 0 21-17 38-39 38z"/>
<glyph unicode="&#83;" d="M457 0l-420 0c-20 0-37 18-37 40l0 341c0 22 17 41 37 41l358 0 0-22-358 0c-9 0-16-9-16-19l0-341c0-10 7-19 16-19l420 0c8 0 15 9 15 19l0 341c0 6-2 12-6 15l14 16c9-8 14-19 14-31l0-341c0-22-17-40-37-40z m-55 310c-8 0-16 2-23 7-20 14-25 44-11 67l62 104c8 15 24 24 40 24 8 0 16-2 23-7 20-14 25-44 11-67l-62-104c-9-15-24-24-40-24z m68 181c-9 0-17-6-22-14l-62-104c-8-14-6-31 5-39 10-7 26-2 33 11l62 104c8 13 5 31-5 38-4 3-7 4-11 4z m-415-333l0 105 61 0 0-13-48 0 0-28 45 0 0-13-45 0 0-39 48 0 0-12z m151 55l-73 0 0 11 73 0z m0-30l-73 0 0 12 73 0z m105-25l0 45c0 4-1 7-1 10 0 3-1 6-1 8-1 1-3 3-4 4-2 1-4 1-7 1-2 0-5-1-8-2-3-2-6-4-9-8 0 0 0-1 0-2 0-2 0-3 0-4l0-52-12 0 0 45c0 4 0 7 0 10-1 3-1 6-2 8-1 2-2 3-4 4-1 1-4 1-6 1-3 0-6-1-9-3-3-1-5-4-8-6l0-59-13 0 0 78 13 0 0-8c3 3 6 6 9 8 4 2 7 3 11 3 4 0 8-1 11-3 4-3 6-6 8-11 4 5 7 8 11 10 3 3 7 4 11 4 4 0 6-1 9-2 3-1 5-3 7-5 2-2 3-5 4-9 1-4 2-8 2-13l0-52-12 0z m58-2c-5 0-9 1-14 3-4 1-7 4-10 7-3 4-6 8-7 13-2 5-3 11-3 18 0 7 1 13 3 18 1 5 4 9 7 13 3 3 6 6 10 8 5 1 9 2 14 2 4 0 8 0 12-2 4-1 7-2 10-4l0-15-1 0c-1 1-2 2-3 3-2 1-3 2-5 3-2 1-4 2-6 3-3 0-5 1-7 1-6 0-11-3-15-8-4-5-6-12-6-22 0-9 2-16 6-22 3-5 8-7 15-7 4 0 8 0 12 2 3 2 6 4 9 7l1 0 0-15c-1 0-3-1-5-2-1-1-3-1-5-2-2-1-4-1-5-1-2-1-4-1-7-1z m69 51l-33 0 0 8c3 2 5 4 7 7 2 2 4 4 6 7 4 4 7 8 8 11 2 3 3 6 3 9 0 2-1 3-1 4-1 2-1 3-2 3-1 1-2 2-3 2-1 0-2 1-4 1-1 0-2 0-3-1-2 0-3-1-4-1-1-1-2-1-3-2-1 0-2-1-2-1l-1 0 0 8c2 1 4 1 6 2 3 1 6 1 8 1 5 0 9-1 12-4 3-3 4-7 4-11 0-3 0-5-1-7 0-2-1-3-2-5-1-2-2-3-3-5-1-2-3-3-4-5-2-2-5-5-7-8-3-3-5-5-7-7l26 0z"/>
<glyph unicode="&#84;" d="M258 76c-3 0-6 1-8 3-4 4-4 11 0 15l201 201c45 45 46 118 1 163-44 44-117 44-163-2l-265-265c-4-5-11-5-15 0-5 4-5 11 0 15l265 265c54 54 141 55 193 2 53-53 53-140-1-193l-201-201c-2-2-5-3-7-3z m-115-76c-26 0-52 10-72 29-39 40-39 105 2 146l146 146c4 5 11 5 15 0 4-4 4-11 0-15l-146-146c-32-32-33-84-2-116 32-31 84-30 116 2l146 146c4 4 11 4 15 0 5-4 5-11 0-15l-146-146c-21-21-48-31-74-31z m51 125c-3 0-5 1-7 4-5 4-5 10 0 15l202 202c16 17 17 43 1 58-16 16-42 16-58 0l-153-153c-4-4-11-4-15 0-4 4-4 11 0 15l153 153c24 24 64 25 88 1 24-25 24-64-1-89l-202-202c-2-3-5-4-8-4z"/>
<glyph unicode="&#85;" d="M125 370c-40 0-71 32-71 71 0 39 31 71 71 71 39 0 71-32 71-71 0-39-32-71-71-71z m0 121c-28 0-50-23-50-50 0-28 22-50 50-50 27 0 49 22 49 50 0 27-22 50-49 50z m0-227l-125 0 0 10c0 84 65 131 68 133 5 4 11 2 15-2 3-5 2-12-3-15 0-1-53-39-58-105l103 0c6 0 10-5 10-11 0-6-4-10-10-10z m124 0l-124 0c-6 0-11 4-11 10 0 6 5 11 11 11l103 0c-6 66-58 104-59 105-5 3-6 10-2 15 3 4 10 6 15 2 2-2 67-49 67-133z m138-158c-39 0-71 32-71 71 0 39 32 71 71 71 40 0 71-32 71-71 0-39-31-71-71-71z m0 121c-27 0-49-22-49-50 0-27 22-49 49-49 28 0 50 22 50 49 0 28-22 50-50 50z m0-227l-124 0 0 11c0 83 65 131 67 133 5 3 12 2 15-3 4-5 3-11-2-15-1 0-53-39-59-105l103 0c6 0 11-4 11-10 0-6-5-11-11-11z m125 0l-125 0c-6 0-10 5-10 11 0 6 4 10 10 10l103 0c-5 66-58 105-58 105-5 4-6 10-3 15 4 5 10 6 15 3 3-2 68-50 68-133z m-86 272c-6 0-11 5-11 11 0 88-71 160-159 160-6 0-11 4-11 10 0 6 5 11 11 11 100 0 181-81 181-181 0-6-5-11-11-11z m2-10l-52 40c-4 4-5 10-2 15 4 5 11 5 15 2l35-27 31 36c3 5 10 5 15 2 4-4 5-11 1-15z m-189-224c-100 0-181 81-181 181 0 6 5 10 11 10 5 0 10-4 10-10 0-88 72-160 160-160 6 0 10-5 10-10 0-6-4-11-10-11z m-208 132c-2 0-5 1-7 2-4 4-5 11-1 15l43 53 51-40c5-4 6-10 2-15-3-5-10-5-15-2l-35 27-30-36c-2-3-5-4-8-4z"/>
<glyph unicode="&#86;" d="M258 393c-30 0-55 23-55 52 0 28 25 52 55 52 30 0 55-24 55-52 0-29-25-52-55-52z m0 83c-19 0-34-14-34-31 0-17 15-31 34-31 19 0 34 14 34 31 0 17-15 31-34 31z m0-156l-94 0 0 11c0 59 49 92 51 94 5 3 11 1 15-3 3-5 2-12-3-15-1 0-36-25-41-66l72 0c6 0 11-5 11-10 0-6-5-11-11-11z m94 0l-94 0c-6 0-11 5-11 11 0 5 5 10 11 10l72 0c-5 41-40 66-41 66-5 3-6 10-3 15 4 4 10 6 15 3 2-2 51-35 51-94l0-11z m-258-234c-30 0-55 23-55 52 0 28 25 51 55 51 31 0 55-23 55-51 0-29-24-52-55-52z m0 82c-18 0-33-14-33-30 0-17 15-30 33-30 19 0 34 13 34 30 0 16-15 30-34 30z m0-153l-94 0 0 11c0 58 49 91 51 92 5 3 12 2 15-3 3-5 2-11-3-15 0 0-35-24-41-64l72 0c6 0 11-4 11-10 0-6-5-11-11-11z m95 0l-95 0c-5 0-10 5-10 11 0 6 5 10 10 10l73 0c-6 40-41 64-41 64-5 4-6 10-3 15 3 5 10 6 14 3 3-1 52-34 52-92l0-11z m229 71c-31 0-55 23-55 52 0 28 24 51 55 51 30 0 55-23 55-51 0-29-25-52-55-52z m0 82c-19 0-34-14-34-30 0-17 15-30 34-30 18 0 33 13 33 30 0 16-15 30-33 30z m0-153l-95 0 0 11c0 58 49 91 52 92 4 3 11 2 14-3 4-5 2-11-3-15 0 0-35-24-41-64l73 0c6 0 10-4 10-10 0-6-4-11-10-11z m94 0l-94 0c-6 0-11 5-11 11 0 6 5 10 11 10l72 0c-6 40-41 64-41 64-5 4-6 10-3 15 3 5 10 6 15 3 2-1 51-34 51-92z m-92 195c-6 0-11 4-11 10l0 26-302 0 0-26c0-6-5-10-11-10-6 0-10 4-10 10l0 47 344 0 0-47c0-6-5-10-10-10z m-162 36c-6 0-11 5-11 11l0 36c0 6 5 11 11 11 6 0 11-5 11-11l0-36c0-6-5-11-11-11z"/>
<glyph unicode="&#87;" d="M256 357c-43 0-77 35-77 78 0 42 34 77 77 77 43 0 77-35 77-77 0-43-34-78-77-78z m0 134c-31 0-56-25-56-56 0-31 25-56 56-56 31 0 56 25 56 56 0 31-25 56-56 56z m90-491l-180 0c-6 0-11 5-11 11l0 177-70-103c-9-13-23-20-39-20-8 0-16 2-23 6-11 5-19 15-22 26-3 11-1 21 6 31l129 188c6 9 18 17 28 19 23 5 58 8 96 8 21 0 61-1 89-8 8-2 20-9 27-19l129-188c7-10 9-20 6-31-3-11-11-21-22-26-7-4-15-6-23-6-16 0-30 8-39 20l-70 103 0-177c0-6-5-11-11-11z m-169 21l158 0 0 201c0 5 3 9 8 10 4 2 9 0 12-4l90-131c6-10 23-13 34-7 6 3 10 7 11 12 1 5 0 9-2 14l-130 188c-3 5-10 9-15 11-18 4-49 7-83 7-36 0-71-3-92-7-4-1-11-6-14-11l-130-188c-2-5-3-9-2-14 1-5 5-9 11-12 11-6 28-3 34 7l90 131c3 4 8 6 12 4 5-1 8-5 8-10z"/>
<glyph unicode="&#88;" d="M76 28c-9 0-18 2-26 6-19 10-29 25-29 43l0 307c0 6 4 11 10 11 6 0 11-5 11-11l0-307c0-5 0-15 18-24 16-8 39 1 42 2l100 61c5 3 12 1 15-4 3-5 2-11-4-14l-101-61c0-1 0-1-1-1-1 0-17-8-35-8z m6 325c-10 0-21 2-34 5-15 5-24 11-26 20-4 11 3 20 9 25 0 1 1 1 1 1l184 107c5 2 12 1 15-4 3-5 1-12-4-15l-183-106c-1 0-1-1-2-2 1-1 4-3 12-5 34-10 60 0 66 5 11 7 172 102 179 106 3 2 7 2 10 0 4-2 6-5 6-9l0-62c0-6-5-11-11-11-6 0-11 5-11 11l0 43c-53-32-153-91-161-96-8-5-26-13-50-13z m181 109c-27 0-45 6-53 16-6 7-6 16-4 21 1 5 7 8 13 6 5-1 8-7 7-12 0-1 0-1 1-2 3-3 16-11 66-5 6 0 11-4 11-10 1-6-3-11-9-12-12-1-23-2-32-2z m-11-462c-8 0-17 2-25 6-20 10-30 24-30 42l0 307c0 8 5 16 11 20 0 0 0 1 1 1l184 106c5 3 11 1 14-4 3-5 1-11-4-14l-183-106c0-1-1-1-1-2 1-1 4-3 12-5 33-10 59 0 66 5 11 7 171 102 178 106 4 2 8 2 11 0 3-2 5-5 5-9l0-318c0-4-2-7-5-9l-197-118c0 0-1 0-1 0-1-1-17-8-36-8z m-33 332l0-284c0-4 0-14 17-23 16-8 39 1 43 2l191 114 0 293c-54-32-153-91-161-96-12-8-44-20-84-8-2 1-4 1-6 2z m221 102c-27 0-45 5-53 16-6 7-7 15-5 20 2 6 8 9 14 7 5-2 8-7 7-13 0 0 0 0 1-1 2-3 15-11 65-6 6 1 11-3 12-9 1-6-4-11-9-12-12-1-23-2-32-2z m-146-381c-6 0-11 5-11 11l0 239c0 6 5 11 11 11 6 0 10-5 10-11l0-239c0-6-4-11-10-11z m-174 23c-6 0-11 5-11 11l0 234c0 6 5 10 11 10 6 0 10-4 10-10l0-234c0-6-4-11-10-11z"/>
<glyph unicode="&#89;" d="M198 385c0 0 0 0 0 0l-188 6c-4 0-8 3-10 8-1 4 1 9 5 12l159 99c2 1 4 2 6 2l187-6c5 0 9-3 10-7 2-5 0-10-4-12l-159-100c-2-1-4-2-6-2z m-152 26l149-4 127 79-150 5z m80-178l-44 161c-1 5 2 11 8 13 5 1 11-2 13-8l34-127c28 20 93 60 176 48l-33 124c-2 6 1 12 7 13 6 2 12-1 13-7l43-158-17 4c-105 24-186-50-187-51z m225 136c-5 0-9 4-11 8l-23 87-120-12c-6 0-11 4-11 10-1 6 3 11 9 12l138 13 28-104c2-6-2-12-8-13 0 0-1-1-2-1z m43-47c-5 0-9 3-10 7-3 10-8 17-15 26l-1 1c-3 4-5 7-8 9-1 0-3 1-4 1-5 2-10 4-13 8-4 5-3 12 1 15 5 4 11 3 15-1 1 0 3-1 5-2 2-1 5-2 8-4 5-4 9-8 12-12l1-1c9-11 15-21 19-34 2-6-2-11-7-13-1 0-2 0-3 0z m-38-15c-3 0-6 1-8 3-4 4-7 9-10 17-1 2-2 4-2 5-2 4-4 8-5 12-2 8-2 15-1 22 1 4 5 23 18 26 6 1 12-3 13-9 1-5-2-9-6-11-2-2-3-7-4-10-1-4-1-8 0-12 1-3 2-6 4-9 1-2 2-4 2-6 3-7 5-10 6-11 4-4 4-11 0-15-2-2-5-2-7-2z m19 3c-5 0-9 3-10 8 0 2-2 5-4 8-1 1-2 3-3 5-1 2-1 3-2 5-2 3-4 6-6 10-1 3-2 5-3 8-3 8-6 16-8 24-2 6 1 12 7 13 6 2 12-1 13-7 2-7 5-15 8-22 1-3 2-5 3-8 1-3 3-5 4-8 1-2 2-3 3-5 1-2 2-3 3-4 2-4 5-9 6-15 1-5-3-11-9-12 0 0-1 0-2 0z m37-153l-308 0c-20 0-37 19-37 42l0 184c0 6 5 11 11 11 6 0 10-5 10-11l0-184c0-12 8-21 16-21l308 0c9 0 16 9 16 21l0 184c0 11-7 21-16 21l-44 0c-6 0-11 5-11 11 0 6 5 10 11 10l44 0c21 0 38-19 38-42l0-184c0-23-17-42-38-42z m90-157c-1 0-1 0-1 0l-490 0c-4 0-7 2-9 5-2 3-3 7-1 10l70 157c2 3 6 6 10 6l350 0c4 0 8-3 10-6l69-155c1-2 2-4 2-6 0-6-5-11-10-11z m-475 21l458 0-61 136-336 0z m128 83l-22 0c-6 0-10 5-10 11 0 6 4 10 10 10l22 0c6 0 11-4 11-10 0-6-5-11-11-11z m75 0l-22 0c-6 0-11 5-11 11 0 6 5 10 11 10l22 0c6 0 11-4 11-10 0-6-5-11-11-11z m74 0l-22 0c-6 0-11 5-11 11 0 6 5 10 11 10l22 0c6 0 11-4 11-10 0-6-5-11-11-11z m75 0l-22 0c-6 0-11 5-11 11 0 6 5 10 11 10l22 0c6 0 10-4 10-10 0-6-4-11-10-11z m-239-51l-26 0c-6 0-10 4-10 10 0 6 4 11 10 11l26 0c6 0 11-5 11-11 0-6-5-10-11-10z m86 0l-26 0c-6 0-10 4-10 10 0 6 4 11 10 11l26 0c6 0 10-5 10-11 0-6-4-10-10-10z m86 0l-26 0c-6 0-10 4-10 10 0 6 4 11 10 11l26 0c6 0 10-5 10-11 0-6-4-10-10-10z m86 0l-26 0c-6 0-11 4-11 10 0 6 5 11 11 11l26 0c6 0 10-5 10-11 0-6-4-10-10-10z"/>
<glyph unicode="&#90;" d="M446 0l-220 0c-4 0-8 2-10 6l-23 51c-4 0-7 0-10 0-6 0-11 0-17 0-11 0-20 0-29 1-1 0-4 0-6 1-15 1-37 3-46 21-4 9-2 18-1 26 2 7 3 11 1 13-1 2-2 3-3 4-6 7-7 12-3 21-3 2-5 5-6 8-2 5-1 10 0 14 0 0 0 1 0 2-1 1-3 2-5 2-4 1-9 2-13 5-6 4-8 9-9 13-2 9 4 18 8 25 2 2 4 5 4 7 4 10 8 20 11 29l4 9c5 15 6 28 4 39 0 2-1 5-2 7-1 5-3 10-3 16 0 6 0 11 0 17 0 2 0 5 0 8 0 4 0 8 1 12 0 13 14 52 24 67 1 2 2 3 3 4 1 2 2 4 4 5 39 50 97 79 158 79 113 0 205-96 205-214 0-50-17-98-47-136-2-4-5-8-7-12-2-3-5-6-7-9-4-63 48-123 48-123 3-3 4-8 2-12-2-4-6-6-10-6z m-213 21l192 0c-18 25-45 73-40 125 0 2 1 4 2 6 3 3 6 6 8 10 2 3 5 7 7 11 0 1 1 1 1 1 27 35 42 79 42 124 0 106-82 193-183 193-55 0-107-26-142-71 0-1 0-1-1-1 0-1-1-2-2-3 0-1-1-2-2-3 0 0 0 0 0-1-9-13-20-45-21-53 0-1 0-2 0-3 0-4-1-8-1-11 0-3 0-6 0-9 0-5 0-10 0-15 0-3 1-7 3-10 0-3 1-7 2-10 3-15 1-31-5-50l-4-9c-3-10-7-20-11-30-1-4-4-7-6-11-2-2-4-6-5-8 2-1 4-2 6-2 6-2 14-4 18-11 5-6 4-14 3-18 2-1 3-2 5-4 6-6 6-14 0-20 0 0 0 0 0 0 0-1 0-1 0-2 0 0 0 0 0 0 1-1 2-3 3-5 8-10 5-21 3-30-1-5-2-9-1-12 4-7 18-8 29-9 2 0 5 0 7-1 7 0 15-1 26-1 5 0 11 0 17 0 5 1 11 1 16 1 0 0 0 0 0 0 4 0 8-3 10-7z m31 149c-75 0-135 60-135 134 0 75 60 135 135 135 74 0 134-60 134-135 0-74-60-134-134-134z m0 248c-63 0-114-51-114-114 0-62 51-113 114-113 62 0 113 51 113 113 0 63-51 114-113 114z m-51-114c0-11-9-20-20-20-12 0-21 9-21 20 0 12 9 21 21 21 11 0 20-9 20-21z m71 0c0-11-9-20-20-20-12 0-21 9-21 20 0 12 9 21 21 21 11 0 20-9 20-21z m71 0c0-11-9-20-20-20-12 0-21 9-21 20 0 12 9 21 21 21 11 0 20-9 20-21z"/>
<glyph unicode="&#48;" d="M441 38l-207 0-17 202 241 0z m-187 21l168 0 13 160-194 0z m-28 164c-1 0-2 1-3 1-6 2-9 7-7 13 13 44 49 78 93 88 5 11 16 19 29 19 12 0 23-8 28-19 44-10 80-44 93-88 2-6-1-12-7-13-6-2-12 1-13 7-12 38-44 67-84 74l-8 1-1 8c0 5-4 9-8 9-5 0-9-4-9-9l-1-8-8-1c-39-7-72-36-84-74-1-5-5-8-10-8z m-95-223c-5 0-8 2-11 3-1 0-2 1-2 1 0 0-1-1-2-1-3-1-7-3-12-3 0 0 0 0 0 0-6 0-10 2-13 4-2-2-4-3-8-3l-7-1-3 7c-1 3-3 5-4 8-5 8-9 16-12 26-4 16-5 33-5 49 0 15 0 32 5 49 2 7 6 12 9 16 2 2 3 4 5 7 1 2 2 5 4 8-12 5-19 13-19 24 0 14 15 26 34 26l59 0c19 0 34-12 34-26 0-10-7-19-17-23 1-7 1-13 1-19 0-3 0-7 0-10 1-12 5-24 9-35 1-4 2-7 3-11 4-13 9-26 20-32 12-7 26-14 37-21 4-2 10-6 12-13 1-3 0-7-2-10-2-3-6-6-13-6-1 0-2 0-4 0 0 0-1 0-1 0-2 0-5-1-8-2-6-1-12-3-19-3 0 0 0 0 0 0-3 0-5 0-7 1-8-3-11-3-20-2 0 0 0 0 0 0-2-2-4-4-7-5-6-3-14-2-19 0-1 0-2 1-3 1-1 0-1-1-2-1-2-1-5-2-9-3-1 0-2 0-3 0z m-13 25c5 0 9-2 11-3 1 0 2 0 2-1 1 1 2 1 3 2 4 1 9 3 15 2 2-1 3-1 5-2 1 0 3 0 4-1 2 3 5 7 11 8l3 0c3 0 5 0 6-1 3 0 3-1 9 1 5 2 10 1 12 1 1-1 1-1 2-1 4 0 8 1 12 2-8 5-16 9-24 13-18 10-26 28-31 45-1 4-2 7-3 10-4 13-8 26-9 40 0 4 0 8 0 12 0 6 0 11-2 16 0 2-1 4-2 5l-9 15 17 1c7 1 11 4 12 5-1 1-5 4-13 4l-59 0c-8 0-13-3-13-4 0-1 5-5 12-5l15 0-5-15c-1-2-2-4-3-7-2-5-4-11-7-16-2-3-4-6-6-8-2-4-4-7-5-10-4-14-4-30-4-43 0-15 0-29 4-43 2-7 5-13 8-19l1 1 7-2c2-2 4-3 6-4 3-1 3-1 4-1 1 0 2 0 4 1 3 1 6 2 9 2z m20 182l-38 0c-19 0-34 12-34 27 0 13 11 24 27 26l0 218c0 19 12 34 26 34 15 0 26-15 26-34l0-218c16-2 27-13 27-26 0-15-15-27-34-27z m-38 33c-8 0-13-4-13-6 0-2 5-6 13-6l38 0c8 0 13 4 13 6 0 2-5 6-13 6l-15 0 1 13 0 225c0 8-4 12-5 13-1-1-5-5-5-13l1-227 1-11-16 0z"/>
<glyph unicode="&#49;" d="M448 163l-172 0 0 21 172 0c23 0 43 18 43 40l0 226c0 23-20 41-43 41l-384 0c-23 0-43-18-43-41l0-226c0-22 20-40 43-40l9 0 0-21-9 0c-35 0-64 27-64 61l0 226c0 34 29 62 64 62l384 0c35 0 64-28 64-62l0-226c0-34-29-61-64-61z m-247 174c-25 0-45 20-45 45 0 24 20 45 45 45 24 0 45-21 45-45 0-25-21-45-45-45z m0 68c-13 0-24-10-24-23 0-13 11-24 24-24 13 0 23 11 23 24 0 13-10 23-23 23z m58-405l-16 0c-15 0-27 12-27 28l0 114-14 0 0-114c0-16-12-28-27-28l-16 0c-15 0-28 12-28 28l0 161-15-23c-8-12-26-16-38-7l-5 3c-13 8-16 25-8 38l74 110c12 21 44 26 68 26 9 0 17-1 19-1 9 0 18-3 26-6l55 82c8 12 26 16 38 8l5-3c6-4 10-11 12-18 1-7 0-14-4-21l-71-106 0-243c0-16-13-28-28-28z m-78 163l56 0 0-135c0-4 3-7 6-7l16 0c4 0 6 3 6 7l0 249 2 3 73 109c1 2 1 3 1 5-1 2-2 3-3 4l-5 3c-1 1-2 1-3 1-2 0-4-1-5-3l-67-100-9 7c-7 5-15 7-24 7l-1 0c0 0-7 1-17 1-26 0-44-5-50-15l-74-111c-2-3-1-7 2-9l4-3c2 0 3-1 4-1 2 0 4 1 5 3l55 82 0-232c0-4 3-7 6-7l16 0c3 0 6 3 6 7z m206 285l-262 0c-6 0-11 5-11 11 0 6 5 10 11 10l262 0c6 0 11-4 11-10 0-6-5-11-11-11z"/>
<glyph unicode="&#50;" d="M79 0c-1 0-3 0-4 1-3 1-5 4-6 6-2 6 1 9 3 12 55 72 84 113 91 125-7 16-26 72 17 132 2 3 5 4 9 4 3 1 6-1 8-4 1 0 3-4 7-10 8 31 24 77 47 102 2 3 6 4 9 4 3 0 6-2 8-5 0 0 3-5 6-12 13 29 35 66 70 92 4 3 8 3 12 1 1-1 2-2 3-3 17 25 41 55 67 66 4 2 9 1 12-3 2-3 26-38 13-95 1 1 4 2 6 1 5 0 9-5 9-10 0-1 2-57-32-102 2-2 4-6 3-10 0-2-8-44-67-71 0 0 0 0 1 0 3-4 3-9 1-13-1-2-24-42-68-60 2-1 3-2 4-3 2-5 2-10-2-14-2-2-38-36-101-37l-42-63c-2-2-3-4-6-5l-74-25c-1-1-3-1-4-1z m105 150c1-1 1-2 2-4 0-5 1-10-77-114l38 13 44 66c2 3 5 5 9 5l4 0c26 0 46 7 61 14-13 4-24 12-24 12-4 3-6 8-4 13 2 4 6 7 11 6 5 0 9 0 13 0 36 0 62 20 77 37-1 0-2 0-4 0-20 0-40 5-41 5-5 1-8 6-8 11 0 5 4 9 9 10 50 5 79 20 97 35-16-5-28-6-29-6-5 0-10 3-11 9-1 5 2 10 7 12 48 15 69 50 79 79-17-19-35-30-37-31-4-3-10-2-13 2-4 3-4 9-1 13 62 76 48 130 39 150-29-19-58-69-68-88-2-5-8-7-12-5-5 1-9 6-8 11l1 8c-38-38-53-88-57-105 0-1 0-3-1-5-2-5-7-8-13-7-5 1-9 7-8 12 0 0 1 2 1 5 2 10 0 20-3 28-26-40-39-109-39-110-1-5-5-8-10-9-5 0-10 3-11 8-2 8-5 15-8 20-30-53-6-98-5-100z m-128-129l305 0 0-21-305 0z"/>
<glyph unicode="&#51;" d="M108 313c-6 0-11 4-11 10l0 118c0 6 5 11 11 11 6 0 11-5 11-11l0-118c0-6-5-10-11-10z m393-313l-338 0c-3 0-32 1-48 17-6 6-10 12-13 20-2 6 0 12 6 14 5 2 12 0 14-6 2-5 4-9 8-13 9-8 28-11 34-11l327 0 0 378-341 0c-29 0-53 23-53 51l0 11c0 28 24 51 53 51l333 0c6 0 11-5 11-11 0-6-5-10-11-10l-333 0c-17 0-31-14-31-30l0-11c0-16 14-30 31-30l351 0c6 0 11-5 11-11l0-398c0-6-5-11-11-11z m-18 399c-2 0-4 0-6 2-22 15-35 34-37 54-4 30 15 52 15 53 4 5 11 5 15 1 5-3 6-10 2-15-1 0-14-16-11-36 2-15 11-28 28-40 5-3 6-10 3-15-2-3-6-4-9-4z m-330-369c-6 0-12 1-18 2-2 1-4 2-7 3-2-1-4-2-7-3-5-1-11-2-17-2-42 0-83 38-98 91-10 35-7 71 8 98 10 18 26 31 44 36 23 6 49-1 70-18 22 17 48 24 70 18 19-5 34-18 45-36 15-27 18-63 8-98-15-53-57-91-98-91z m-25 27c2 0 3 0 5-1 3-1 5-2 8-3 4-1 8-2 12-2 32 0 65 32 77 76 9 29 6 60-6 81-8 14-18 23-31 26-19 5-40-2-57-19-5-3-11-3-15 0-18 17-39 24-57 19-13-3-24-12-32-26-12-21-14-52-6-81 13-44 45-76 78-76 4 0 8 1 12 2 2 1 5 2 8 3 1 1 3 1 4 1z m2 162c-5 0-10 3-11 8-1 4-20 93 47 124 5 3 11 1 14-5 2-5 0-11-5-14-52-24-35-99-35-100 1-6-2-12-8-13-1 0-2 0-2 0z m-42 35c-48 0-73 59-76 66-1 3-1 6 0 9 1 2 4 4 7 5 16 6 31 9 45 9 51 0 70-40 73-62 1-3-1-7-4-10-15-11-30-17-45-17z m-51 64c8-16 26-43 51-43 9 0 17 3 27 9-4 13-15 37-51 37-8 0-17-1-27-3z"/>
<glyph unicode="&#52;" d="M127 13l-37 0c-3 0-7 2-9 5-2 3-2 7-1 10l18 39c3 6 9 8 14 6 6-3 8-9 6-15l-11-24 15 0 17 21c3 5 10 6 15 2 4-3 5-10 1-15l-19-25c-2-2-5-4-9-4z m114 90c-1 0-3 0-5 1-5 3-7 10-4 15 32 55 102 289 117 339l-80 31c-25-36-111-205-165-317-3-5-9-7-14-5-5 3-8 9-5 14 15 31 146 301 173 328 3 3 8 4 12 2l96-36c5-2 8-8 6-13-3-12-84-290-121-354-2-3-6-5-10-5z m-89-60c-1 0-2 1-4 1l-43 16c-3 1-6 4-7 7-2 8-23 80-17 106 0 3 2 6 5 7 3 2 7 2 10 0 32-16 120-58 144-61 4 0 8-4 9-8 1-4-1-9-5-11l-86-55c-2-1-4-2-6-2z m-35 35l34-12 62 39c-34 12-86 36-112 49 2-21 10-53 16-76z m384-78l-490 0c-6 0-11 5-11 11 0 6 5 10 11 10l490 0c6 0 11-4 11-10 0-6-5-11-11-11z"/>
<glyph unicode="&#53;" d="M482 124l-257 0c-16 0-29 13-29 29l0 161c0 16 13 29 29 29l257 0c17 0 30-13 30-29l0-161c0-16-13-29-30-29z m-257 198c-4 0-8-4-8-8l0-161c0-4 4-8 8-8l257 0c5 0 9 4 9 8l0 161c0 4-4 8-9 8z m129-254c-6 0-11 5-11 11l0 55c0 6 5 11 11 11 6 0 11-5 11-11l0-55c0-6-5-11-11-11z m92-5l-184 0c-6 0-11 5-11 11 0 5 5 10 11 10l184 0c6 0 10-5 10-10 0-6-4-11-10-11z m-270 0l-176 0 0 386 176 0z m-155 21l134 0 0 344-134 0z m107 295l-83 0c-6 0-11 5-11 11 0 5 5 10 11 10l83 0c6 0 11-5 11-10 0-6-5-11-11-11z m0-171l-83 0c-6 0-11 5-11 11 0 6 5 11 11 11l83 0c6 0 11-5 11-11 0-6-5-11-11-11z m0-42l-83 0c-6 0-11 5-11 11 0 6 5 10 11 10l83 0c6 0 11-4 11-10 0-6-5-11-11-11z m0-42l-83 0c-6 0-11 4-11 10 0 6 5 11 11 11l83 0c6 0 11-5 11-11 0-6-5-10-11-10z"/>
<glyph unicode="&#54;" d="M111 358c-2 0-3 1-5 2-3 2-5 5-5 9l0 80c0 4 2 8 6 10 3 2 7 2 10 0l70-40c3-2 5-6 5-10 0-3-2-7-5-9l-70-40c-2-1-4-2-6-2z m11 73l0-44 38 22z m45-169c-4 0-8 2-10 5l-55 96c-3 5-1 12 4 15 5 3 12 1 15-4l55-96c3-5 1-12-4-15-2-1-4-1-5-1z m93 0c-3 0-7 2-9 5l-78 137c-3 5-2 11 3 14 6 3 12 2 15-4l79-136c3-5 1-12-4-15-2-1-4-1-6-1z m17 0c0 0 0 0-1 0-6 0-10 6-9 12l16 176c1 18 8 33 19 45 11 12 26 18 41 17 12-1 24-8 32-18 12-14 18-33 16-53l-16-169c0-6-5-11-11-10-6 0-10 6-10 12l15 169c2 14-2 28-10 37-4 5-10 10-18 11-8 0-17-3-24-11-7-8-12-19-13-32l-16-176c-1-6-5-10-11-10z m80-262l-202 0c-20 0-45 5-49 21-1 6 0 12 4 17 4 5 11 8 18 9 1 1 3 7 1 16l-24 129c-2 13-11 21-16 21-16 0-32 15-37 33-2 8 0 16 5 23 8 9 20 14 35 14l328 0c15 0 27-5 35-14 5-7 7-15 5-23-5-18-21-33-37-33-5 0-14-8-16-21l-24-129c-2-9 0-15 1-16 7-1 14-4 18-9 4-5 5-11 4-17-4-16-29-21-49-21z m-226 25c5-2 13-4 24-4l202 0c11 0 20 2 24 4-5 1-10 3-13 7-7 8-9 21-6 35l24 129c4 22 20 39 37 39 6 0 14 7 16 16 0 2 0 3-1 5-2 3-9 6-18 6l-328 0c-9 0-16-3-18-6-1-2-1-3-1-5 2-10 10-16 16-16 17 0 33-17 37-39l24-129c3-14 1-27-6-35-3-4-8-6-13-7z m191 243c0 0-1 0-1 0-6 0-10 5-10 11l14 171c1 6 6 10 12 10 6 0 10-6 10-12l-15-170c0-6-5-10-10-10z"/>
<glyph unicode="&#55;" d="M396 94c-64 0-116 52-116 116 0 64 52 116 116 116 64 0 116-52 116-116 0-64-52-116-116-116z m0 211c-52 0-95-43-95-95 0-52 43-94 95-94 52 0 95 42 95 94 0 52-43 95-95 95z m-248-305c-35 0-64 29-64 65 0 35 29 64 64 64 36 0 65-29 65-64 0-36-29-65-65-65z m0 108c-23 0-43-20-43-43 0-24 19-44 43-44 24 0 44 20 44 44 0 23-20 43-44 43z m-60 117c-48 0-88 40-88 89 0 49 40 88 88 88 49 0 89-39 89-88 0-49-40-89-89-89z m0 156c-37 0-67-30-67-67 0-37 30-67 67-67 37 0 68 30 68 67 0 37-31 67-68 67z m213 15c-19 0-37 10-48 27-6 9-10 20-10 31 0 32 26 58 58 58 32 0 58-26 58-58 0-32-26-58-58-58z m0 95c-20 0-36-17-36-37 0-7 2-14 6-20 6-10 18-16 30-16 20 0 37 16 37 36 0 20-17 37-37 37z m-145-140c-4 0-8 2-10 6-2 5 0 11 5 14l112 59c6 3 12 1 15-5 3-5 1-11-5-14l-112-59c-2-1-4-1-5-1z m135-126c-1 0-2 1-3 1l-135 30c-5 1-9 7-8 12 2 6 7 10 13 8l135-29c6-2 9-7 8-13-1-5-6-9-10-9z m-89-147c-4 0-7 2-9 5-3 5-1 12 4 15l101 55c6 3 12 1 15-4 3-5 1-12-4-15l-102-55c-1-1-3-1-5-1z"/>
<glyph unicode="&#56;" d="M400 0l-288 0 0 11c0 66 49 122 117 134l0 20c-63 12-108 65-108 126-1 6-21 128-35 209l-2 12 344 0-2-12c-14-81-34-203-35-210 0-60-45-113-108-125l0-20c68-12 117-68 117-134z m-266 21l244 0c-5 54-49 98-107 105l-9 1 0 57 9 1c57 7 99 53 99 106 0 1 0 5 32 200l-292 0c32-195 32-199 32-200 0-53 42-99 99-106l9-1 0-57-9-1c-58-7-102-51-107-105z m-24 248c-34 0-72 31-94 79-17 36-21 73-10 100 6 15 16 26 29 31 23 10 52 1 77-23l-14-16c-20 19-40 26-55 20-8-4-13-10-17-20-9-21-5-53 9-83 21-46 60-75 86-65 2 1 3 2 5 3l12-18c-3-1-6-3-9-4-6-3-12-4-19-4z m292 0c-7 0-13 1-19 4-3 1-6 2-9 4l12 18c2-1 3-2 5-3 26-10 65 19 86 65 14 30 18 62 9 83-4 10-9 16-17 20-15 6-35-1-55-20l-14 16c25 24 54 33 77 23 13-5 23-16 29-31 11-27 7-64-9-100-23-48-61-79-95-79z"/>
<glyph unicode="&#57;" d="M343 384l-15 15 64 66c1 3-1 11-17 22l-70-77-16 14 82 91 8-5c19-11 31-23 34-37 2-11-2-19-3-20l-1-2z m-174 0l-67 69c-1 1-5 9-3 20 3 14 15 26 34 38l8 4 82-91-16-14-70 77c-16-10-18-19-17-22l64-66z m122-76l-73 0-53 80 52 41 80 0 50-38z m-61 21l50 0 38 57-28 22-66 0-30-24z m25-332l-103 88 65 244 77 0 66-245z m-79 96l79-68 81 67-58 215-45 0z"/>
<glyph unicode="&#33;" d="M256 3c-135 0-246 69-255 157l-1 0 0 180c0 93 115 169 256 169 141 0 256-76 256-169l0-180-1 0c-9-88-120-157-255-157z m-235 170l0-2c1-81 106-147 235-147 129 0 234 66 235 147l0 3 0 166c0 82-106 148-235 148-129 0-235-66-235-148z m267-123c-45 0-81 28-81 62 0 33 36 61 81 61 45 0 82-28 82-61 0-34-37-62-82-62z m0 102c-32 0-60-19-60-40 0-22 28-40 60-40 33 0 61 18 61 40 0 21-28 40-61 40z m-22 82c-24 0-46 2-66 8l-6 2-47 207 6 4c1 2 44 36 81 33l8-1 67-250-13-2c0 0-12-1-30-1z m-54 27c20-5 40-6 54-6 6 0 11 0 16 0l-57 211c-21-1-44-16-54-23z m44-56c-141 0-256 67-256 150l22 0c0-71 105-129 234-129 129 0 234 58 234 129l22 0c0-83-115-150-256-150z m18 297l87-273-20-6-87 272z"/>
<glyph unicode="&#34;" d="M232 45c-36 0-71 8-103 24-56 28-97 76-117 135-20 59-15 122 13 177 39 80 119 129 208 129 36 0 71-8 104-24 87-44 138-138 127-235-1-6-6-10-12-9l-198 19 20-202c1-6-3-11-9-12-11-1-22-2-33-2z m1 444c-81 0-153-45-189-117-26-51-30-108-12-161 18-54 56-97 106-122 36-18 74-26 114-22l-21 205c0 3 1 6 3 9 2 2 5 3 9 3l201-20c5 84-41 165-117 202-30 15-61 23-94 23z m79-487c-3 0-5 1-7 2-2 2-4 5-4 7l-22 216c0 3 1 6 3 8 2 3 6 4 9 3l211-20c3-1 6-2 8-4 1-3 2-5 2-8-3-27-11-53-23-78-34-68-100-115-176-126 0 0-1 0-1 0z m-10 214l19-191c64 12 119 54 149 113 9 19 16 39 19 59z"/>
<glyph unicode="&#35;" d="M258 177c-91 0-166 75-166 167 0 93 75 168 166 168 92 0 166-75 166-168 0-92-74-167-166-167z m0 314c-80 0-145-66-145-147 0-80 65-146 145-146 80 0 145 66 145 146 0 81-65 147-145 147z m0-314c-60 0-108 75-108 167 0 93 48 168 108 168 60 0 109-75 109-168 0-92-49-167-109-167z m0 314c-48 0-87-66-87-147 0-80 39-146 87-146 48 0 87 66 87 146 0 81-39 147-87 147z m0-314c-38 0-48 105-48 167 0 63 10 168 48 168 39 0 49-105 49-168 0-62-10-167-49-167z m0 314c-9-3-27-56-27-147 0-89 18-142 27-146 10 4 28 57 28 146 0 91-18 144-28 147z m154-157l-307 0c-6 0-11 5-11 10 0 6 5 11 11 11l307 0c6 0 10-5 10-11 0-5-4-10-10-10z m-14 70l-279 0c-6 0-11 5-11 10 0 6 5 11 11 11l279 0c5 0 10-5 10-11 0-5-5-10-10-10z m0-140l-279 0c-6 0-11 5-11 11 0 5 5 10 11 10l279 0c5 0 10-5 10-10 0-6-5-11-10-11z m14-107l-308 0c-20 0-37 19-37 42l0 184c0 23 17 42 37 42l308 0c21 0 38-19 38-42l0-184c0-23-17-42-38-42z m-308 247c-8 0-16-10-16-21l0-184c0-12 8-21 16-21l308 0c9 0 16 9 16 21l0 184c0 11-7 21-16 21z m398-404c-1 0-1 0-1 0l-490 0c-4 0-7 2-9 5-2 3-3 7-1 10l70 157c2 3 6 6 10 6l350 0c4 0 8-3 10-6l69-155c1-2 2-4 2-6 0-6-5-11-10-11z m-475 21l458 0-61 136-336 0z m128 83l-22 0c-6 0-10 5-10 11 0 6 4 10 10 10l22 0c6 0 11-4 11-10 0-6-5-11-11-11z m75 0l-22 0c-6 0-11 5-11 11 0 6 5 10 11 10l22 0c6 0 11-4 11-10 0-6-5-11-11-11z m74 0l-22 0c-6 0-11 5-11 11 0 6 5 10 11 10l22 0c6 0 11-4 11-10 0-6-5-11-11-11z m75 0l-22 0c-6 0-11 5-11 11 0 6 5 10 11 10l22 0c6 0 10-4 10-10 0-6-4-11-10-11z m-239-51l-26 0c-6 0-10 4-10 10 0 6 4 11 10 11l26 0c6 0 11-5 11-11 0-6-5-10-11-10z m86 0l-26 0c-6 0-10 4-10 10 0 6 4 11 10 11l26 0c6 0 10-5 10-11 0-6-4-10-10-10z m86 0l-26 0c-6 0-10 4-10 10 0 6 4 11 10 11l26 0c6 0 10-5 10-11 0-6-4-10-10-10z m86 0l-26 0c-6 0-11 4-11 10 0 6 5 11 11 11l26 0c6 0 10-5 10-11 0-6-4-10-10-10z"/>
<glyph unicode="&#36;" d="M166 79l-76 0 0 261 76 0z m-55 22l33 0 0 217-33 0z m183-22l-76 0 0 261 76 0z m-55 22l34 0 0 217-34 0z m183-22l-76 0 0 261 76 0z m-54 22l33 0 0 217-33 0z m85-58l-394 0c-6 0-11 5-11 11 0 6 5 11 11 11l394 0c6 0 11-5 11-11 0-6-5-11-11-11z m46-43l-486 0c-6 0-10 5-10 11 0 6 4 10 10 10l486 0c6 0 10-4 10-10 0-6-4-11-10-11z m2 359l-490 0c-5 0-9 3-11 8-1 4 1 9 6 12l245 132c3 1 7 1 10 0l245-132c5-3 7-8 6-12-2-5-6-8-11-8z m-448 21l406 0-203 109z"/>
<glyph unicode="&#37;" d="M465 0l-418 0c-26 0-47 18-47 41l0 273c0 22 21 41 47 41l153 0c26 0 42-17 56-35l18-21 191 0c26 0 47-18 47-41l0-217c0-23-21-41-47-41z m-418 334c-14 0-26-9-26-20l0-273c0-11 12-20 26-20l418 0c14 0 26 9 26 20l0 217c0 11-12 20-26 20l-196 0c-4 0-7 1-9 4l-21 25c-15 19-25 27-39 27z m403-56c-1 0-3 0-4 1-5 2-8 8-6 13l30 81-325 115-54-148c-2-5-8-8-14-6-6 2-8 8-6 14l57 157c2 5 8 8 14 6l345-121c3-1 5-3 6-6 1-2 1-5 0-8l-33-91c-2-4-6-7-10-7z m-57 56c-1 0-3 0-4 0l-209 75c-6 2-9 8-7 13 2 6 8 9 14 7l209-75c6-2 9-8 7-13-2-5-6-7-10-7z"/>
<glyph unicode="&#38;" d="M59 33c-6 0-10 5-10 11l0 397c0 6 4 11 10 11 6 0 11-5 11-11l0-397c0-6-5-11-11-11z m394-33l-338 0c-4 0-32 1-49 17-5 6-10 12-13 20-2 6 1 12 6 14 6 2 12 0 14-6 2-5 5-9 8-13 9-8 28-11 34-11l327 0 0 378-341 0c-29 0-52 23-52 51l0 11c0 28 23 51 52 51l333 0c6 0 11-5 11-11 0-6-5-10-11-10l-333 0c-17 0-31-14-31-30l0-11c0-16 14-30 31-30l352 0c6 0 10-5 10-11l0-398c0-6-4-11-10-11z m-19 399c-2 0-4 0-6 2-22 15-35 34-37 54-4 30 15 52 16 53 4 5 10 5 15 1 4-3 5-10 1-15 0 0-14-16-11-36 2-15 12-28 29-40 4-3 6-10 2-15-2-3-5-4-9-4z m-301-228c-1 0-2 0-4 1-4 1-7 5-7 10l0 227c0 6 5 11 11 11l107 0c6 0 11-5 11-11l0-227c0-4-3-8-7-10-4-2-9 0-12 3l-47 54-44-54c-2-2-5-4-8-4z m51 85c3 0 6-1 8-4l38-42 0 189-86 0 0-187 32 40c2 2 5 4 8 4 0 0 0 0 0 0z"/>
<glyph unicode="&#39;" d="M171 44c-92 0-166 76-166 168 0 92 74 167 166 167 91 0 166-75 166-167 0-92-75-168-166-168z m0 314c-80 0-145-65-145-146 0-81 65-146 145-146 80 0 145 65 145 146 0 81-65 146-145 146z m0-314c-60 0-109 76-109 168 0 92 49 167 109 167 60 0 108-75 108-167 0-92-48-168-108-168z m0 314c-48 0-87-65-87-146 0-81 39-146 87-146 48 0 87 65 87 146 0 81-39 146-87 146z m0-314c-39 0-49 106-49 168 0 62 10 167 49 167 38 0 48-105 48-167 0-62-10-168-48-168z m0 314c-9-3-27-56-27-146 0-89 17-142 27-146 10 4 27 57 27 146 0 90-18 143-27 146z m153-157l-307 0c-6 0-10 5-10 11 0 6 4 11 10 11l307 0c6 0 11-5 11-11 0-6-5-11-11-11z m-14 70l-278 0c-6 0-11 5-11 11 0 6 5 11 11 11l278 0c6 0 11-5 11-11 0-6-5-11-11-11z m0-140l-278 0c-6 0-11 5-11 11 0 6 5 11 11 11l278 0c6 0 11-5 11-11 0-6-5-11-11-11z m-207 214c-5 0-10 5-10 11l0 85c0 6 5 11 10 11 6 0 11-5 11-11l0-85c0-6-5-11-11-11z m394-345l-338 0c-4 0-32 1-49 17-5 6-10 12-13 20 0 2-1 3-1 4l0 29c0 6 5 10 11 10 6 0 11-4 11-10l0-27c2-4 4-8 7-11 9-8 28-11 34-11l327 0 0 378-341 0c-29 0-52 23-52 51l0 11c0 28 23 51 52 51l333 0c6 0 11-5 11-11 0-6-5-10-11-10l-333 0c-17 0-31-14-31-30l0-11c0-16 14-30 31-30l352 0c6 0 10-5 10-11l0-398c0-6-4-11-10-11z m-19 399c-2 0-4 0-6 2-22 15-35 34-37 54-4 30 15 52 16 53 4 5 10 5 15 1 4-3 5-10 1-15 0 0-14-16-11-36 2-15 12-28 29-40 4-3 6-10 2-15-2-3-5-4-9-4z"/>
<glyph unicode="&#40;" d="M47 107c-1 0-3 1-5 2-3 1-5 5-5 9l0 328c0 4 2 7 5 9 69 44 151 44 220 0 3-2 5-5 5-9l0-41c0-6-5-10-11-10-6 0-11 4-11 10l0 35c-59 35-128 35-187 0l0-304c60 31 128 31 187 0l0 29c0 6 5 11 11 11 6 0 11-5 11-11l0-47c0-4-2-8-6-9-3-2-7-2-11 0-61 39-135 39-197 0-2-1-4-2-6-2z m418 0c-2 0-4 1-6 2-62 39-136 39-197 0-4-2-8-2-11 0-4 1-6 5-6 9l0 54c0 6 5 10 11 10 6 0 11-4 11-10l0-36c59 31 127 31 187 0l0 304c-59 35-128 35-187 0l0-39c0-6-5-11-11-11-6 0-11 5-11 11l0 45c0 4 2 7 5 9 69 44 151 44 220 0 3-2 5-5 5-9l0-328c0-4-2-8-5-9-2-1-4-2-5-2z m-209-65c-1 0-1 0-2 0l-245 43c-5 1-9 6-9 11l0 319c0 4 3 8 7 10l37 13c5 2 11-1 13-6 2-6 0-12-6-14l-30-11 0-302 237-42c6-1 10-7 8-13 0-5-5-8-10-8z m0 0c-5 0-10 3-10 8-2 6 2 12 8 13l237 42 0 302-30 11c-6 2-8 8-6 14 2 5 8 8 13 6l37-13c4-2 7-6 7-10l0-319c0-5-4-10-9-11l-245-43c-1 0-1 0-2 0z m-8 119c-69 0-125 56-125 125 0 69 56 126 125 126 69 0 126-57 126-126 0-69-57-125-126-125z m0 229c-57 0-104-46-104-104 0-57 47-104 104-104 58 0 104 47 104 104 0 58-46 104-104 104z m-75-104c0 0-1 0-1 0-6 1-10 7-9 13 3 18 11 35 24 48 34 34 88 34 122 0 4-4 4-11 0-15-4-4-11-4-15 0-25 25-66 25-92 0-10-10-16-23-18-36-1-6-5-10-11-10z m326-262c-2 0-5 1-7 3l-170 170c-4 5-4 11 0 16 4 4 11 4 15 0l170-171c4-4 4-10 0-15-2-2-5-3-8-3z"/>
<glyph unicode="&#41;" d="M430 0l-348 0c-6 0-11 5-11 11l0 48c0 6 5 10 11 10l16 0c9 89 52 162 110 188-58 26-101 97-110 186l-16 0c-6 0-11 4-11 10l0 48c0 6 5 11 11 11l348 0c6 0 11-5 11-11l0-48c0-6-5-10-11-10l-16 0c-9-89-52-160-110-186 58-26 101-99 110-188l16 0c6 0 11-4 11-10l0-48c0-6-5-11-11-11z m-338 21l328 0 0 27-15 0c-6 0-11 4-11 10-7 93-54 169-115 185-5 1-8 6-8 10l0 7c0 5 3 9 8 11 60 15 107 91 115 183 0 6 5 10 10 10l16 0 0 27-328 0 0-27 16 0c5 0 10-4 10-10 8-92 55-168 115-183 5-2 8-6 8-11l0-7c0-4-3-9-8-10-61-16-108-92-115-185 0-6-5-10-11-10l-15 0z"/>
<glyph unicode="&#42;" d="M97 398l-77 75c-2 2-3 6-2 10 1 4 4 7 7 8l88 21c3 1 7 0 9-3l48-44-15-16-43 41-63-16 63-61z m281-398c0 0 0 0 0 0-27 0-61 13-73 75-21 101-207 305-209 307-2 2-3 4-3 7-1 22 5 41 18 55 27 27 70 28 72 28 3 0 5-1 7-3 2-1 142-124 253-249 61-68 57-119 43-151-15-33-47-54-58-57l0 0c-1 0-2 0-4-1-9-4-27-11-46-11z m-264 394c24-27 191-214 211-315 8-39 25-58 53-58 0 0 0 0 0 0 15 0 30 6 38 10 3 1 6 2 8 2 6 3 38 22 47 58 9 34-6 72-44 115-101 113-226 225-248 244-10 0-36-4-52-21-9-9-13-21-13-35z m257-294c-1 0-3 0-4 0-3 2-6 4-6 8-5 19-114 155-214 273-2 3-3 6-2 9 0 3 2 6 5 7l34 22c4 3 8 2 12 0 43-29 243-252 251-261 2-3 3-6 3-9-1-3-3-6-5-8l-69-40c-1-1-3-1-5-1z m-200 286c44-52 175-209 205-261l46 28c-69 78-193 213-233 244z"/>
<glyph unicode="&#43;" d="M449 0l-386 0c-3 0-6 1-8 4-2 2-3 5-2 9 8 47 28 93 58 134l17-12c-25-35-43-74-52-114l360 0c-9 40-27 79-52 114l17 12c30-41 50-87 59-134 0-4-1-7-3-9-2-3-5-4-8-4z m-193 81c-119 0-216 97-216 215 0 119 97 216 216 216 119 0 216-97 216-216 0-118-97-215-216-215z m0 410c-107 0-194-87-194-195 0-107 87-194 194-194 107 0 194 87 194 194 0 108-87 195-194 195z m0-321c-70 0-126 57-126 126 0 70 56 127 126 127 70 0 126-57 126-127 0-69-56-126-126-126z m0 231c-58 0-105-47-105-105 0-57 47-104 105-104 58 0 105 47 105 104 0 58-47 105-105 105z"/>
<glyph unicode="&#44;" d="M501 0l-490 0c-6 0-11 5-11 11l0 490c0 6 5 11 11 11 6 0 10-5 10-11l0-480 480 0c6 0 11-4 11-10 0-6-5-11-11-11z m-145 175c-2 0-4 0-6 2l-187 132-92-120c-3-5-10-6-15-3-4 4-5 11-2 15l98 129c4 5 10 6 15 3l185-131 119 258c2 5 9 7 14 5 5-3 8-9 5-14l-124-270c-1-3-4-5-7-6-1 0-2 0-3 0z m145 204c-5 0-9 3-10 8l-13 59-61-20c-6-2-12 1-13 7-2 6 1 12 6 13l73 24c3 1 6 0 9-1 2-2 4-4 5-7l15-70c1-6-3-12-8-13-1 0-2 0-3 0z"/>
<glyph unicode="&#45;" d="M501 76l-490 0c-6 0-11 5-11 11l0 177c0 6 5 11 11 11l128 0 0 71-9 0c-5 0-9 3-10 8-1 5 1 10 6 12l126 58c2 1 6 1 8 0l125-57c5-2 8-6 8-10 0-6-5-11-11-11 0 0 0 0 0 0l-9 0 0-71 128 0c6 0 11-5 11-11l0-177c0-6-5-11-11-11z m-480 22l470 0 0 155-128 0c-6 0-11 5-11 11l0 93c0 0 0 1 0 1l-96 44-96-44c0 0 0-1 0-1l0-93c0-6-5-11-11-11l-128 0z m480-58l-490 0c-6 0-11 5-11 11 0 6 5 11 11 11l490 0c6 0 11-5 11-11 0-6-5-11-11-11z m0-40l-490 0c-6 0-11 5-11 11 0 6 5 10 11 10l490 0c6 0 11-4 11-10 0-6-5-11-11-11z m-205 76l-80 0c-6 0-11 5-11 11l0 106c0 6 5 11 11 11l80 0c6 0 11-5 11-11l0-106c0-6-5-11-11-11z m-69 22l58 0 0 85-58 0z m-168 79c-6 0-11 4-11 10l0 30c0 6 5 11 11 11 6 0 11-5 11-11l0-30c0-6-5-10-11-10z m46 0c-6 0-10 4-10 10l0 30c0 6 4 11 10 11 6 0 11-5 11-11l0-30c0-6-5-10-11-10z m46 0c-5 0-10 4-10 10l0 30c0 6 5 11 10 11 6 0 11-5 11-11l0-30c0-6-5-10-11-10z m-92-71c-6 0-11 5-11 11l0 30c0 6 5 11 11 11 6 0 11-5 11-11l0-30c0-6-5-11-11-11z m46 0c-6 0-10 5-10 11l0 30c0 6 4 11 10 11 6 0 11-5 11-11l0-30c0-6-5-11-11-11z m46 0c-5 0-10 5-10 11l0 30c0 6 5 11 10 11 6 0 11-5 11-11l0-30c0-6-5-11-11-11z m59 198c-6 0-11 5-11 11l0 30c0 6 5 11 11 11 6 0 10-5 10-11l0-30c0-6-4-11-10-11z m46 0c-6 0-11 5-11 11l0 30c0 6 5 11 11 11 6 0 11-5 11-11l0-30c0-6-5-11-11-11z m46 0c-6 0-10 5-10 11l0 30c0 6 4 11 10 11 6 0 11-5 11-11l0-30c0-6-5-11-11-11z m-92-70c-6 0-11 5-11 11l0 30c0 6 5 11 11 11 6 0 10-5 10-11l0-30c0-6-4-11-10-11z m46 0c-6 0-11 5-11 11l0 30c0 6 5 11 11 11 6 0 11-5 11-11l0-30c0-6-5-11-11-11z m46 0c-6 0-10 5-10 11l0 30c0 6 4 11 10 11 6 0 11-5 11-11l0-30c0-6-5-11-11-11z m59-57c-6 0-11 4-11 10l0 30c0 6 5 11 11 11 5 0 10-5 10-11l0-30c0-6-5-10-10-10z m46 0c-6 0-11 4-11 10l0 30c0 6 5 11 11 11 6 0 10-5 10-11l0-30c0-6-4-10-10-10z m46 0c-6 0-11 4-11 10l0 30c0 6 5 11 11 11 6 0 11-5 11-11l0-30c0-6-5-10-11-10z m-92-71c-6 0-11 5-11 11l0 30c0 6 5 11 11 11 5 0 10-5 10-11l0-30c0-6-5-11-10-11z m46 0c-6 0-11 5-11 11l0 30c0 6 5 11 11 11 6 0 10-5 10-11l0-30c0-6-4-11-10-11z m46 0c-6 0-11 5-11 11l0 30c0 6 5 11 11 11 6 0 11-5 11-11l0-30c0-6-5-11-11-11z m-197 297c-6 0-11 5-11 11l0 87c0 6 5 11 11 11 6 0 11-5 11-11l0-87c0-6-5-11-11-11z m0 44l-53 0c-6 0-10 5-10 11l0 40c0 6 4 11 10 11l53 0c6 0 11-5 11-11 0-6-5-11-11-11l-42 0 0-19 42 0c6 0 11-5 11-10 0-6-5-11-11-11z"/>
<glyph unicode="&#46;" d="M501 327l-490 0c-6 0-11 5-11 11l0 163c0 6 5 11 11 11l490 0c6 0 11-5 11-11l0-163c0-6-5-11-11-11z m-480 21l470 0 0 143-470 0z m298 61l-126 0c-5 0-10 5-10 11 0 5 5 10 10 10l126 0c5 0 10-5 10-10 0-6-5-11-10-11z m182-245l-490 0c-6 0-11 4-11 10l0 164c0 6 5 10 11 10l490 0c6 0 11-4 11-10l0-164c0-6-5-10-11-10z m-480 21l470 0 0 142-470 0z m298 60l-126 0c-5 0-10 5-10 11 0 6 5 11 10 11l126 0c5 0 10-5 10-11 0-6-5-11-10-11z m182-245l-490 0c-6 0-11 5-11 11l0 163c0 6 5 11 11 11l490 0c6 0 11-5 11-11l0-163c0-6-5-11-11-11z m-480 21l470 0 0 143-470 0z m298 61l-126 0c-5 0-10 5-10 10 0 6 5 11 10 11l126 0c5 0 10-5 10-11 0-5-5-10-10-10z"/>
<glyph unicode="&#47;" d="M159 169c-88 0-159 72-159 161 0 88 71 160 159 160 55 0 106-29 135-76 3-5 2-12-3-15-5-3-12-1-15 4-25 41-69 65-117 65-76 0-138-62-138-138 0-77 62-139 138-139 13 0 26 1 38 5 5 1 11-2 13-7 1-6-2-12-7-14-14-4-29-6-44-6z m-57 115c-4 0-7 2-9 5-3 5-2 11 3 14l54 33 0 101c0 6 5 11 11 11 6 0 10-5 10-11l0-107c0-4-2-8-5-10l-59-35c-2-1-3-1-5-1z m275-227c-6 0-11 5-11 10 0 6 4 11 10 11l17 1c20 2 31 2 43 4 39 4 54 17 55 21 0 10-54 35-160 39-44 2-87-1-118-8-35-7-43-17-43-19-1-7 32-26 114-36 6 0 10-5 9-11-1-6-6-10-12-10-31 4-134 18-133 58 1 18 21 31 60 39 34 7 78 10 124 8 63-2 182-18 180-61-1-20-28-36-73-41-13-2-25-3-45-4l-17-1c0 0 0 0 0 0z m120 46c0 0 0 0 0 0l-1 0c-2 0-5 1-7 4-13 15-73 33-158 36-8 0-17 0-25 0-76 0-122-12-134-24-3-2-5-3-8-3-4 0-8 3-10 6-1 4-1 8 1 12 60 72 66 181 66 202 3 57 53 96 122 93 34-2 62-12 83-31 21-19 31-44 30-70-1-22-4-130 49-207 2-2 3-4 3-7 0-6-4-11-10-11 0 0-1 0-1 0z m-191 62c8 0 17-1 26-1 48-2 101-9 136-22-35 74-34 159-33 186 1 21-7 40-23 54-17 15-41 24-70 25-57 2-98-27-99-71-1-20-5-109-48-183 31 8 73 12 111 12z m25-143l-3 0c-15 1-29 7-40 19-10 11-15 26-15 41 1 31 27 55 58 55l2 0c15-1 29-7 40-18 10-12 15-26 15-42 0-1 0-3-1-4 0-1 0-2 0-3-5-28-29-48-56-48z m0 94c-20 0-36-16-36-35-1-10 3-19 9-26 7-7 16-11 25-11l2 0c17 0 32 12 35 29l0 2c0 1 0 2 1 3 0 10-3 19-10 26-7 7-15 11-25 12z m50 285c0 0-1 0-1 0-6 1-10 6-10 12 1 22-11 41-26 42-7 0-14-4-20-11-6-7-10-18-10-29 0-6-5-11-11-11-6 1-11 6-10 12 0 16 6 31 15 42 10 12 23 18 37 18 27-1 48-30 46-64 0-6-5-11-10-11z"/>
<glyph unicode="&#58;" d="M172 69l-71 0c-6 0-11 5-11 11 0 6 5 11 11 11l71 0c6 0 11-5 11-11 0-6-5-11-11-11z m120 0l-72 0c-6 0-10 5-10 11 0 6 4 11 10 11l72 0c6 0 10-5 10-11 0-6-4-11-10-11z m146-38l-364 0c-41 0-74 30-74 67 0 37 33 66 74 66l364 0c41 0 74-29 74-66 0-37-33-67-74-67z m-364 112c-29 0-53-20-53-45 0-25 24-46 53-46l364 0c29 0 53 21 53 46 0 25-24 45-53 45z m387 0l-410 0c-6 0-11 5-11 11l0 316c0 6 5 11 11 11l410 0c6 0 11-5 11-11l0-316c0-6-5-11-11-11z m-399 21l388 0 0 296-388 0z m178 35c-3 0-6 1-8 3-61 61-61 159 0 220 4 4 11 4 15 0 4-4 4-11 0-15-52-52-52-138 0-190 4-4 4-11 0-15-2-2-5-3-7-3z m42 42c-2 0-5 1-7 4-38 37-37 97 0 135 4 4 11 4 15 0 4-5 4-11 0-16-29-28-29-75 0-104 4-5 4-11 0-15-2-3-5-4-8-4z m36 36c-3 0-5 1-8 3-17 18-17 46 0 64 5 4 11 4 16 0 4-4 4-11 0-15-10-9-10-24 0-34 4-4 4-11 0-15-3-2-5-3-8-3z"/>
<glyph unicode="&#59;" d="M440 0c-5 0-9 0-152 115l-215 0c-40 0-73 33-73 75l0 247c0 41 33 75 73 75l366 0c20 0 38-8 52-22 13-14 21-33 21-53l0-247c0-42-33-75-73-75l-41 0c53-98 53-101 53-104 0-6-5-11-11-11z m-367 491c-29 0-52-24-52-54l0-247c0-30 23-54 52-54l219 0c2 0 5-1 6-2 58-46 93-74 114-90-9 17-22 41-41 76-2 3-2 7 0 11 2 3 5 5 9 5l59 0c29 0 52 24 52 54l0 247c0 14-6 28-16 38-9 10-22 16-36 16z m332-89l-298 0c-6 0-11 5-11 10 0 6 5 11 11 11l298 0c6 0 11-5 11-11 0-5-5-10-11-10z m0-98l-298 0c-6 0-11 5-11 11 0 5 5 10 11 10l298 0c6 0 11-5 11-10 0-6-5-11-11-11z m0-98l-298 0c-6 0-11 5-11 11 0 6 5 10 11 10l298 0c6 0 11-4 11-10 0-6-5-11-11-11z"/>
<glyph unicode="&#60;" d="M239 35c-2 0-4 0-5 1l-217 135c-1 0-2 1-2 2-2 1-15 16-15 53 0 13 4 18 10 22 0 0 1 0 1 1 16 13 42 0 56-9 9-5 142-82 170-98l259 141c5 3 12 1 15-4 3-5 1-12-5-14l-264-145c-4-2-7-2-11 0-6 4-165 96-176 102-15 10-27 13-30 10-1-1-2-1-3-2l0 0c-1-1-1-2-1-4 0-23 7-35 9-38l209-130 257 149c5 3 12 1 15-4 3-5 1-11-4-14l-262-153c-2-1-4-1-6-1z m243 145c-3 0-6 1-8 3-27 33-11 78-10 80 2 5 8 8 13 6 6-2 9-8 7-14 0 0-12-35 7-58 3-5 3-11-2-15-2-2-4-2-7-2z m-243-65c-2 0-4 0-5 1l-217 135c-1 0-2 1-2 2-2 1-15 16-15 53 0 13 4 18 10 22 0 0 1 0 1 1 0 0 0 0 0 0 3 2 5 3 7 4l275 143c3 2 7 2 10 0l203-113c4-1 6-5 6-9 0-4-2-7-6-9l-264-145c-4-2-7-2-11 0-6 4-165 96-176 102-13 9-24 12-29 11l-2-2c-1 0-2 0-2-1 0 0 0 0 0 0-1-1-1-2-1-4 0-23 7-35 9-38l209-130 257 149c5 3 12 1 15-4 3-5 1-11-4-14l-262-153c-2-1-4-1-6-1z m-185 212c5-2 9-4 13-6 9-6 142-83 170-99l242 132-181 100z m428-67c-3 0-6 1-8 4-27 33-11 77-10 79 2 5 8 8 13 6 6-2 9-8 7-14 0 0-12-35 7-58 3-5 3-11-2-15-2-2-4-2-7-2z"/>
<glyph unicode="&#61;" d="M328 128l-3 21c1 0 1 0 2 0 6 3 13 19 19 32 5 12 10 24 18 31 7 7 19 13 31 18 12 5 29 13 31 19 3 6-3 23-8 36-5 12-10 25-10 35 0 10 5 22 10 35 5 12 11 29 8 35-2 7-19 14-31 19-12 6-24 11-32 18-7 7-12 19-17 32-6 12-13 29-19 31-7 3-24-4-36-9-13-5-25-9-35-9-10 0-22 4-35 9-12 5-29 12-36 9-6-2-13-19-19-31-5-13-10-25-17-32-8-7-20-12-32-18-12-5-29-12-31-19-3-6 3-23 8-35 5-13 10-25 10-35 0-10-5-23-10-35-5-13-11-30-8-36 2-6 19-14 31-19 12-6 24-11 32-18 7-7 12-19 17-31 6-13 13-29 19-32 1 0 1 0 2 0l-3-21c-2 0-4 0-7 1-14 6-22 25-30 43-5 10-9 21-14 25-4 4-14 9-25 14-18 7-36 16-42 30-6 14 1 33 8 51 4 11 9 22 9 28 0 6-5 16-9 27-7 18-14 37-8 51 6 15 24 23 42 31 11 4 21 9 25 13 5 4 9 15 14 25 8 18 16 37 30 43 14 6 33-2 52-9 10-4 21-8 27-8 6 0 17 4 27 8 19 7 38 15 52 9 14-6 22-25 30-43 5-10 9-21 14-25 4-4 14-9 25-13 18-8 36-16 42-31 6-14-1-33-8-51-4-11-9-21-9-27 0-6 5-17 9-28 7-18 14-37 8-51-6-14-24-23-42-30-11-5-21-10-25-14-5-4-9-15-14-25-8-18-16-37-30-43-2 0-4-1-7-1z m-135-128c-1 0-2 0-4 1-4 1-6 5-6 10l0 224c-29 20-46 52-46 85 0 61 54 110 120 110 66 0 119-49 119-110 0-33-16-65-45-85l0-224c0-5-3-9-7-10-4-2-8-1-11 2l-58 57-54-57c-2-2-5-3-8-3z m62 86c3 0 6-1 8-3l47-47 0 204c0 4 1 7 4 9 26 17 41 43 41 71 0 49-44 88-98 88-55 0-99-39-99-88 0-28 16-54 41-71 3-2 5-5 5-9l0-203 43 46c2 2 5 3 8 3 0 0 0 0 0 0z"/>
<glyph unicode="&#62;" d="M464-8l-416 0c-27 0-48 22-48 48l0 369c0 27 21 48 48 48l416 0c27 0 48-21 48-48l0-369c0-26-21-48-48-48z m-416 444c-15 0-27-12-27-27l0-369c0-15 12-27 27-27l416 0c15 0 27 12 27 27l0 369c0 15-12 27-27 27z m397-386l-375 0c-6 0-10 5-10 10l0 258c0 6 4 11 10 11l375 0c6 0 11-5 11-11l0-258c0-5-5-10-11-10z m-364 21l353 0 0 237-353 0z m24 339c-6 0-11 5-11 11l0 72c0 6 5 11 11 11 6 0 10-5 10-11l0-72c0-6-4-11-10-11z m75 0c-5 0-10 5-10 11l0 72c0 6 5 11 10 11 6 0 11-5 11-11l0-72c0-6-5-11-11-11z m76 0c-6 0-11 5-11 11l0 72c0 6 5 11 11 11 6 0 11-5 11-11l0-72c0-6-5-11-11-11z m76 0c-6 0-11 5-11 11l0 72c0 6 5 11 11 11 6 0 10-5 10-11l0-72c0-6-4-11-10-11z m75 0c-6 0-10 5-10 11l0 72c0 6 4 11 10 11 6 0 11-5 11-11l0-72c0-6-5-11-11-11z m-237-171l-33 0c-6 0-11 5-11 11 0 6 5 11 11 11l33 0c5 0 10-5 10-11 0-6-5-11-10-11z m104 0l-33 0c-6 0-11 5-11 11 0 6 5 11 11 11l33 0c6 0 11-5 11-11 0-6-5-11-11-11z m105 0l-33 0c-6 0-11 5-11 11 0 6 5 11 11 11l33 0c5 0 10-5 10-11 0-6-5-11-10-11z m-209-60l-33 0c-6 0-11 4-11 10 0 6 5 11 11 11l33 0c5 0 10-5 10-11 0-6-5-10-10-10z m104 0l-33 0c-6 0-11 4-11 10 0 6 5 11 11 11l33 0c6 0 11-5 11-11 0-6-5-10-11-10z m105 0l-33 0c-6 0-11 4-11 10 0 6 5 11 11 11l33 0c5 0 10-5 10-11 0-6-5-10-10-10z m-209-61l-33 0c-6 0-11 5-11 11 0 6 5 10 11 10l33 0c5 0 10-4 10-10 0-6-5-11-10-11z m104 0l-33 0c-6 0-11 5-11 11 0 6 5 10 11 10l33 0c6 0 11-4 11-10 0-6-5-11-11-11z m105 0l-33 0c-6 0-11 5-11 11 0 6 5 10 11 10l33 0c5 0 10-4 10-10 0-6-5-11-10-11z"/>
<glyph unicode="&#63;" d="M47 99c-1 0-3 0-5 1-3 2-5 5-5 9l0 329c0 3 2 7 5 9 33 21 72 32 110 32 38 0 76-11 110-32 3-2 5-6 5-9l0-329c0-4-2-7-6-9-3-2-7-2-11 0-30 19-64 29-98 29-34 0-69-10-99-29-2-1-4-1-6-1z m105 52c32 0 64-8 93-23l0 304c-58 34-129 34-187 0l0-304c30 15 62 23 94 23z m313-52c-2 0-4 0-6 1-30 19-65 29-99 29-34 0-68-10-98-29-4-2-8-2-11 0-4 2-6 5-6 9l0 329c0 3 2 7 5 9 34 21 72 32 110 32 38 0 77-11 110-32 3-2 5-6 5-9l0-329c0-4-2-7-5-9-2-1-4-1-5-1z m-105 52c32 0 64-8 94-23l0 304c-58 34-129 34-187 0l0-304c29 15 61 23 93 23z m-104-118c-1 0-1 0-2 0l-245 44c-5 1-9 5-9 10l0 319c0 4 3 8 7 10l37 13c5 2 11 0 13-6 2-5 0-12-6-14l-30-11 0-302 237-42c6-1 10-6 8-12 0-5-5-9-10-9z m0 0c-5 0-10 4-10 9-2 6 2 11 8 12l237 42 0 302-30 11c-6 2-8 9-6 14 2 6 8 8 13 6l37-13c4-2 7-6 7-10l0-319c0-5-4-9-9-10l-245-44c-1 0-1 0-2 0z m-81 232c-3 0-5 1-7 3l-35 30-35-30c-4-3-8-3-12-2-4 2-6 6-6 10l0 182c0 6 5 11 11 11 6 0 10-5 10-11l0-159 25 21c4 4 10 4 14 0l24-20 0 167c0 6 5 11 11 11 6 0 10-5 10-11l0-191c0-4-2-8-6-10-1 0-3-1-4-1z m241 113c-1 0-2 1-3 1-58 18-96 1-97 0-5-2-11 0-14 6-2 5 0 11 5 14 2 1 46 21 112 0 6-1 9-7 7-13-1-5-5-8-10-8z m0-62c-1 0-2 0-3 1-58 18-96 0-97 0-5-2-11 0-14 5-2 6 0 12 5 14 2 1 46 22 112 1 6-2 9-8 7-13-1-5-5-8-10-8z m0-62c-1 0-2 0-3 0-58 19-96 1-97 1-5-3-11 0-14 5-2 5 0 12 5 14 2 1 46 22 112 1 6-2 9-8 7-14-1-4-5-7-10-7z m0-62c-1 0-2 0-3 0-58 18-96 1-97 1-5-3-11-1-14 5-2 5 0 11 5 14 2 1 46 21 112 0 6-1 9-7 7-13-1-5-5-7-10-7z"/>
<glyph unicode="&#64;" d="M443 0l-374 0c-6 0-11 5-11 11l0 490c0 6 5 11 11 11l374 0c6 0 11-5 11-11l0-490c0-6-5-11-11-11z m-363 21l352 0 0 470-352 0z m303 191l-254 0c-6 0-11 5-11 11 0 6 5 11 11 11l254 0c6 0 11-5 11-11 0-6-5-11-11-11z m0-66l-254 0c-6 0-11 5-11 11 0 6 5 11 11 11l254 0c6 0 11-5 11-11 0-6-5-11-11-11z m0-65l-85 0c-6 0-11 4-11 10 0 6 5 11 11 11l85 0c6 0 11-5 11-11 0-6-5-10-11-10z m-127 200c-29 0-53 24-53 53 0 29 24 52 53 52 29 0 53-23 53-52 0-29-24-53-53-53z m0 84c-17 0-31-14-31-31 0-18 14-32 31-32 17 0 31 14 31 32 0 17-14 31-31 31z m136-52c-6 0-10 5-10 11 0 61-57 110-126 110-69 0-126-49-126-110 0-6-4-11-10-11-6 0-11 5-11 11 0 73 66 132 147 132 81 0 147-59 147-132 0-6-5-11-11-11z"/>
<glyph unicode="&#91;" d="M37 346c-2 0-5 0-7 0-9 2-16 8-21 17-11 17-12 47-3 77 12 42 39 72 63 72 3 0 5 0 7-1 9-2 16-7 22-16 10-18 11-47 3-77-12-42-39-72-64-72z m32 145c-13 0-33-23-43-57-7-24-6-48 1-60 2-4 5-6 8-7 12-3 35 21 45 56 7 25 7 48-1 61-2 4-5 6-8 6 0 1-1 1-2 1z m110-163c-2 0-4 0-5 1l4 20c9-1 26 15 35 45 6 22 4 39-1 47-1 3-3 4-5 5l5 21c8-2 14-7 19-15 8-15 9-39 2-64-10-36-32-60-54-60z m184-24c-1 0-3 0-5 1l5 20c3 0 16 10 21 30 5 15 3 28 0 33 0 1-1 1-1 2l4 20c7-1 12-5 16-11 7-12 7-30 2-49-8-28-25-46-42-46z m123-16l-10 1-445 57 3 21 443-56c2 2 7 9 11 21 3 12 3 20 2 23l-9 3-410 133 6 20 434-141-2-4c5-10 3-26-1-40-3-13-11-28-21-34z m-344-258c-1 0-3 0-5 1-5 2-7 9-5 14l132 279c2 4 6 6 10 6 4 0 8-2 10-6l131-279c3-5 0-12-5-14-5-3-12 0-14 5l-122 259-122-259c-2-4-6-6-10-6z m132-30c-6 0-11 5-11 11l0 289c0 6 5 10 11 10 6 0 10-4 10-10l0-289c0-6-4-11-10-11z"/>
<glyph unicode="&#93;" d="M449 0l-386 0c-35 0-63 28-63 63l0 386c0 35 28 63 63 63l386 0c35 0 63-28 63-63l0-386c0-35-28-63-63-63z m-386 491c-23 0-42-19-42-42l0-386c0-23 19-42 42-42l386 0c23 0 42 19 42 42l0 386c0 23-19 42-42 42z m14-403c-6 0-11 4-11 10l0 170c0 6 5 11 11 11 6 0 10-5 10-11l0-170c0-6-4-10-10-10z m74 0c-5 0-10 4-10 10l0 94c0 6 5 10 10 10 6 0 11-4 11-10l0-94c0-6-5-10-11-10z m75 0c-6 0-11 4-11 10l0 223c0 6 5 10 11 10 6 0 11-4 11-10l0-223c0-6-5-10-11-10z m75 0c-6 0-11 4-11 10l0 303c0 6 5 11 11 11 6 0 10-5 10-11l0-303c0-6-4-10-10-10z m75 0c-6 0-11 4-11 10l0 182c0 5 5 10 11 10 5 0 10-5 10-10l0-182c0-6-5-10-10-10z m69 0c-6 0-10 4-10 10l0 87c0 6 4 11 10 11 6 0 11-5 11-11l0-87c0-6-5-10-11-10z m0 136c-4 0-8 3-10 7l-55 135-79 77-90-89-66-92c-2-3-5-5-8-5-4 1-7 2-9 5l-70 93c-3 4-2 11 2 14 5 4 12 3 15-2l61-81 58 81c1 1 1 1 1 2l98 96c4 4 11 5 15 0l88-85c1-1 2-2 3-3l56-138c2-6 0-12-6-14-1-1-2-1-4-1z m19-168l-416 0c-6 0-11 5-11 11 0 6 5 11 11 11l416 0c6 0 11-5 11-11 0-6-5-11-11-11z"/>
<glyph unicode="&#94;" d="M205 79c-76 0-138 62-138 138 0 58 36 109 90 130l0 135c0 6 4 10 10 10l76 0c6 0 11-4 11-10l0-135c54-21 89-72 89-130 0-76-62-138-138-138z m-27 392l0-132c0-5-3-9-8-10-49-15-82-60-82-112 0-64 53-117 117-117 65 0 117 53 117 117 0 52-33 97-82 112-5 1-8 5-8 10l0 132z m135-196l-215 0c-6 0-11 5-11 11 0 6 5 10 11 10l215 0c5 0 10-4 10-10 0-6-5-11-10-11z m-40 196l-136 0c-6 0-11 5-11 11 0 6 5 10 11 10l136 0c6 0 11-4 11-10 0-6-5-11-11-11z m228-471l-490 0c-6 0-11 5-11 11 0 6 5 10 11 10l490 0c6 0 11-4 11-10 0-6-5-11-11-11z m-72 0c-6 0-11 5-11 11l0 490c0 6 5 11 11 11 6 0 11-5 11-11l0-490c0-6-5-11-11-11z m72 406l-415 0c-6 0-11 5-11 11 0 6 5 11 11 11l415 0c6 0 11-5 11-11 0-6-5-11-11-11z"/>
<glyph unicode="&#95;" d="M134 0c-2 0-3 0-5 1-5 3-7 9-5 14l245 491c2 5 9 7 14 5 5-3 7-9 5-14l-245-491c-1-4-5-6-9-6z m-16 273c-42 0-77 41-77 92 0 51 35 92 77 92 42 0 77-41 77-92 0-51-35-92-77-92z m0 163c-31 0-56-32-56-71 0-39 25-71 56-71 31 0 55 32 55 71 0 39-24 71-55 71z m276-381c-42 0-77 41-77 92 0 51 35 92 77 92 42 0 77-41 77-92 0-51-35-92-77-92z m0 163c-31 0-55-32-55-71 0-39 24-71 55-71 31 0 56 32 56 71 0 39-25 71-56 71z"/>
<glyph unicode="&#96;" d="M342 0c-33 0-60 23-66 55-6 37 18 72 54 78 4 1 8 1 12 1 33 0 60-23 66-55 3-18-1-36-11-50-10-15-26-25-43-28-4-1-8-1-12-1z m0 113c-3 0-5 0-8-1-25-4-41-28-37-53 4-22 23-38 45-38 3 0 5 1 8 1 12 2 23 9 30 19 7 10 9 22 7 34-4 22-23 38-45 38z m103-10c-4 0-8 0-12 1-17 3-33 13-43 27-10 15-14 33-11 51 6 32 33 55 66 55 4 0 8 0 12-1 36-6 60-41 54-78-6-32-33-55-66-55z m0 113c-22 0-41-16-45-38-2-12 0-24 7-34 7-10 18-17 30-19 25-4 49 12 53 37 4 25-12 49-37 53-3 0-5 1-8 1z m-71-78l-38 5-237 42c-16 3-37 15-48 27l-43 46c-9 10-9 18-7 23 2 3 7 12 25 9l238-42-12 71-30 167c-1 9 0 16 4 21 6 7 17 7 28-3l46-43c12-11 24-32 27-48l42-237z m-346 130l38-42c8-8 25-18 36-20l247-43-1 10-42 237c-2 11-12 28-20 36l-42 38 47-263z"/>
<glyph unicode="&#123;" d="M362 305l-11 18c51 33 115 84 127 96 8 8 13 19 13 30 0 11-5 22-13 29-16 17-42 17-59 0-12-12-63-76-95-127l-19 11c34 54 86 119 99 132 25 24 65 24 90 0 11-12 18-28 18-45 0-17-7-33-18-45-14-13-78-65-132-99z m-89-305c-9 0-19 4-27 12l-234 234c-14 14-16 35-4 47 11 11 32 9 46-4l0-1c21 6 64 22 117 64 29 24 57 35 84 35 37 0 65-22 87-45 25-24 82-81 10-171-42-52-58-96-64-117l0 0c14-14 16-35 5-46-5-5-12-8-20-8z m-246 279c-1 0-3 0-4-2-3-2-2-10 4-15l235-235c3-4 7-6 11-6 2 0 3 1 4 2 3 3 2 10-4 16l-8 8 1 6c5 19 20 70 70 132 55 68 24 109-9 142-20 20-43 39-72 39-22 0-45-10-70-30-62-50-113-65-132-70l-6-1-8 8c-4 4-8 6-12 6z m137-279c-58 0-105 47-105 105 0 29 13 57 34 77l14-16c-17-16-26-38-26-61 0-46 37-84 83-84 23 0 45 9 61 26l15-15c-20-21-47-32-76-32z"/>
<glyph unicode="&#124;" d="M256 0c-141 0-256 115-256 256 0 141 115 256 256 256 141 0 256-115 256-256 0-141-115-256-256-256z m0 491c-129 0-235-106-235-235 0-129 106-235 235-235 129 0 235 106 235 235 0 129-106 235-235 235z m0-87c-6 0-11 5-11 11l0 49c0 6 5 11 11 11 6 0 11-5 11-11l0-49c0-6-5-11-11-11z m0-367c-6 0-11 5-11 11l0 49c0 6 5 11 11 11 6 0 11-5 11-11l0-49c0-6-5-11-11-11z m208 208l-49 0c-6 0-11 5-11 11 0 6 5 11 11 11l49 0c6 0 11-5 11-11 0-6-5-11-11-11z m-367 0l-49 0c-6 0-11 5-11 11 0 6 5 11 11 11l49 0c6 0 11-5 11-11 0-6-5-11-11-11z m272-28c-1 0-1 0-2 1l-114 28c-5 1-9 7-7 12l37 168c2 6 7 10 13 8 6-1 10-7 8-12l-35-158 103-26c6-1 9-7 8-13-2-4-6-8-11-8z"/>
<glyph unicode="&#125;" d="M478 0l-444 0c-19 0-34 15-34 34l0 444c0 19 15 34 34 34l444 0c19 0 34-15 34-34l0-444c0-19-15-34-34-34z m-444 491c-7 0-13-6-13-13l0-444c0-7 6-13 13-13l444 0c7 0 13 6 13 13l0 444c0 7-6 13-13 13z m222-396c-68 0-123 55-123 123 0 67 55 123 123 123 68 0 123-56 123-123 0-68-55-123-123-123z m0 224c-56 0-102-45-102-101 0-56 46-102 102-102 56 0 102 46 102 102 0 56-46 101-102 101z m158 61l-316 0 0 121 21 0 0-99 274 0 0 99 21 0z"/>
<glyph unicode="&#126;" d="M256 0l-2 0c-10 2-252 53-231 206 9 59 1 110-22 150l-2 4 39 99 7-1c1 0 7 0 19 0 38 0 133 5 185 51l7 7 7-7c52-46 147-51 185-51 12 0 18 0 19 0l7 1 39-99-2-4c-23-40-31-90-22-150 21-153-221-204-231-206z m-234 362c24-43 31-97 22-159-17-126 189-176 212-181 23 5 229 55 212 181-9 62-2 116 22 159l-30 75c-3-1-7-1-12-1-39 0-134 6-192 51-58-45-153-51-192-51-5 0-9 0-12 1z m234-301l-3 0c-19 5-56 17-90 35-27 14-47 29-60 46-13 17-19 36-16 56 9 61 3 115-17 161l-1 4 14 36 7 0c44 2 108 11 161 39l5 2 5-2c53-28 117-37 161-39l7 0 14-36-1-4c-20-46-26-100-17-161 3-20-3-39-16-56-13-17-33-32-60-46-34-18-71-30-90-35z m-164 302c20-48 25-105 16-168-2-15 2-27 12-40 11-14 29-28 53-40 31-17 64-27 83-32 19 5 52 15 83 32 24 12 42 26 53 40 10 13 14 25 12 40-9 63-4 120 16 168l-6 15c-44 3-105 12-158 38-53-26-114-35-158-38z"/>
<glyph unicode="&#92;" d="M406 0l-300 0c-6 0-10 5-10 11l0 91c0 6 4 11 10 11l23 0 0 280c0 6 5 11 11 11l232 0c6 0 11-5 11-11l0-280 23 0c6 0 10-5 10-11l0-91c0-6-4-11-10-11z m-289 21l278 0 0 71-23 0c-5 0-10 4-10 10l0 281-212 0 0-281c0-6-5-10-10-10l-23 0z m139 76c-36 0-64 53-64 121 0 67 28 120 64 120 36 0 64-53 64-120 0-68-28-121-64-121z m0 220c-20 0-42-41-42-99 0-59 22-99 42-99 20 0 42 40 42 99 0 58-22 99-42 99z m-84 71c0 0 0 0 0 0-6 0-11 5-11 10 0 24 16 73 75 90 5 1 11-2 13-8 2-6-2-11-7-13-58-16-59-66-59-69-1-5-5-10-11-10z m101 66c-26 0-45 12-45 29 0 17 19 29 45 29 25 0 45-12 45-29 0-17-20-29-45-29z m0 37c-15 0-23-6-24-8 1-2 9-8 24-8 15 0 23 6 23 8 0 2-8 8-23 8z"/>
<glyph unicode="&#57344;" d="M276 23c-5 0-10 4-11 9l-31 161-190 0-23-161c-1-5-6-10-12-9-6 1-10 7-9 12l24 170c1 6 6 9 11 9l208 0c5 0 10-3 11-8l32-170c1-6-3-12-8-13-1 0-2 0-2 0z m225 118l-140 0c-6 0-11 5-11 11 0 6 5 10 11 10l130 0 0 208c0 6 4 10 10 10 6 0 11-4 11-10l0-218c0-6-5-11-11-11z m-70-107c-6 0-11 5-11 11l0 99c0 6 5 10 11 10 6 0 11-4 11-10l0-99c0-6-5-11-11-11z m49 0l-101 0c-6 0-11 5-11 11 0 6 5 11 11 11l101 0c6 0 11-5 11-11 0-6-5-11-11-11z m-181 349c-29 0-53 24-53 53 0 29 24 53 53 53 29 0 53-24 53-53 0-29-24-53-53-53z m0 84c-17 0-31-14-31-31 0-17 14-31 31-31 17 0 31 14 31 31 0 17-14 31-31 31z m31-433c-14 0-27 11-30 26l-28 144c-1 9 1 19 7 26 5 7 14 11 23 11l64 0-30 57-28-31c-4-5-11-9-17-10l-92-15c-1 0-3-1-5-1-15 0-27 11-30 27-2 17 9 33 25 35l81 14 62 69c7 8 19 11 29 9 21 3 42-7 52-26l61-115c12-23 5-53-18-68-4-4-10-6-15-7-7-1-13-1-21 0l-81 0 21-107c3-17-7-34-24-37-2 0-4-1-6-1z m-28 186c-2 0-5-1-7-3-1-3-2-6-2-9l28-144c1-5 6-9 11-8 5 1 8 6 7 12l-23 120c-1 3 0 6 2 9 2 2 5 3 8 3l95 0c1 0 2 0 2 0 6-1 9-1 13 0 1 1 1 1 2 1 2 0 4 1 5 2 0 0 1 1 1 1 14 8 18 26 11 40l-60 115c-6 11-19 17-32 15-2-1-4-1-6 0-3 1-7 0-9-3l-64-71c-2-2-4-3-6-4l-85-14c-5-1-9-6-8-11 1-5 6-9 11-8l91 15c2 0 4 1 5 3l39 43c2 2 5 4 9 3 3 0 6-2 8-5l45-86c2-4 2-7 0-11-2-3-5-5-9-5l-82 0z m-69-2l-96 0c-4 0-7 2-9 5l-64 123c-3 5-1 12 4 15 5 2 12 0 15-5l61-117 89 0c6 0 11-5 11-11 0-6-5-10-11-10z"/>
<glyph unicode="&#57345;" d="M501 0l-490 0c-6 0-11 5-11 11l0 452c0 6 5 10 11 10l490 0c6 0 11-4 11-10l0-452c0-6-5-11-11-11z m-480 21l470 0 0 431-470 0z m100 393c-6 0-10 4-10 10l0 77c0 6 4 11 10 11 6 0 11-5 11-11l0-77c0-6-5-10-11-10z m90 0c-6 0-11 4-11 10l0 77c0 6 5 11 11 11 6 0 11-5 11-11l0-77c0-6-5-10-11-10z m90 0c-6 0-11 4-11 10l0 77c0 6 5 11 11 11 6 0 11-5 11-11l0-77c0-6-5-10-11-10z m90 0c-6 0-11 4-11 10l0 77c0 6 5 11 11 11 6 0 10-5 10-11l0-77c0-6-4-10-10-10z m8-107l-286 0c-6 0-11 5-11 11 0 6 5 10 11 10l286 0c6 0 11-4 11-10 0-6-5-11-11-11z m0-76l-286 0c-6 0-11 4-11 10 0 6 5 11 11 11l286 0c6 0 11-5 11-11 0-6-5-10-11-10z m0-77l-286 0c-6 0-11 5-11 11 0 6 5 11 11 11l286 0c6 0 11-5 11-11 0-6-5-11-11-11z m0-76l-286 0c-6 0-11 5-11 11 0 5 5 10 11 10l286 0c6 0 11-5 11-10 0-6-5-11-11-11z"/>
</font>
</defs>
</svg>
