<?xml version="1.0" standalone="no"?>
<!DOCTYPE svg PUBLIC "-//W3C//DTD SVG 1.1//EN" "http://www.w3.org/Graphics/SVG/1.1/DTD/svg11.dtd">
<svg xmlns="http://www.w3.org/2000/svg">
<metadata>Generated by Fontastic.me</metadata>
<defs>
<font id="furniture" horiz-adv-x="512">
<font-face font-family="furniture" units-per-em="512" ascent="480" descent="-32"/>
<missing-glyph horiz-adv-x="512" />

<glyph unicode="&#97;" d="M424 328c-5 0-10 5-10 11l0 95c0 25-20 44-44 44l-228 0c-24 0-44-19-44-44l0-95c0-6-5-11-10-11-6 0-11 5-11 11l0 95c0 36 29 66 65 66l228 0c36 0 65-30 65-66l0-95c0-6-5-11-11-11z m78-100c-1 0-1 0-1 0l-490 0c-4 0-8 2-10 6-2 3-1 8 1 11l77 100c2 3 5 4 9 4l336 0c4 0 7-1 9-4l76-99c2-2 3-4 3-7 0-6-5-11-10-11z m-470 21l448 0-61 79-326 0z m-21-237c-6 0-11 5-11 11l0 216c0 5 5 10 11 10 6 0 10-5 10-10l0-216c0-6-4-11-10-11z m490 0c-6 0-10 5-10 11l0 216c0 5 4 10 10 10 6 0 11-5 11-10l0-216c0-6-5-11-11-11z m-6 82l-479 0c-6 0-11 4-11 10 0 6 5 11 11 11l479 0c6 0 11-5 11-11 0-6-5-10-11-10z"/>
<glyph unicode="&#98;" d="M501 0c-6 0-10 5-10 11l0 480-470 0 0-480c0-6-4-11-10-11-6 0-11 5-11 11l0 490c0 6 5 11 11 11l490 0c6 0 11-5 11-11l0-490c0-6-5-11-11-11z m0 338l-484 0c-5 0-10 5-10 11 0 6 5 10 10 10l484 0c6 0 11-4 11-10 0-6-5-11-11-11z m-242 0c-6 0-10 5-10 11l0 146c0 6 4 11 10 11 6 0 11-5 11-11l0-146c0-6-5-11-11-11z m-60 54c-6 0-10 5-10 11l0 44c0 6 4 11 10 11 6 0 11-5 11-11l0-44c0-6-5-11-11-11z m114 0c-6 0-11 5-11 11l0 44c0 6 5 11 11 11 6 0 10-5 10-11l0-44c0-6-4-11-10-11z"/>
<glyph unicode="&#99;" d="M457 0l-402 0c-31 0-55 24-55 53l0 406c0 29 24 53 55 53l402 0c31 0 55-24 55-53l0-406c0-29-24-53-55-53z m-402 491c-19 0-34-15-34-32l0-406c0-17 15-32 34-32l402 0c19 0 34 15 34 32l0 406c0 17-15 32-34 32z m201-491c-6 0-11 5-11 11l0 490c0 6 5 11 11 11 6 0 11-5 11-11l0-490c0-6-5-11-11-11z m0 366l-245 0c-6 0-11 5-11 11 0 5 5 10 11 10l245 0c6 0 11-5 11-10 0-6-5-11-11-11z m0-121l-245 0c-6 0-11 5-11 11 0 6 5 11 11 11l245 0c6 0 11-5 11-11 0-6-5-11-11-11z m0-120l-245 0c-6 0-11 5-11 10 0 6 5 11 11 11l245 0c6 0 11-5 11-11 0-5-5-10-11-10z m125 70c-32 0-57 25-57 56 0 31 25 56 57 56 31 0 57-25 57-56 0-31-26-56-57-56z m0 90c-20 0-36-15-36-34 0-19 16-35 36-35 20 0 36 16 36 35 0 19-16 34-36 34z m0 1c-6 0-11 4-11 10l0 205c0 6 5 11 11 11 6 0 11-5 11-11l0-205c0-6-5-10-11-10z"/>
<glyph unicode="&#100;" d="M501 0c-6 0-10 5-10 11l0 480-470 0 0-480c0-6-4-11-10-11-6 0-11 5-11 11l0 490c0 6 5 11 11 11l490 0c6 0 11-5 11-11l0-490c0-6-5-11-11-11z m0 43l-490 0c-6 0-11 5-11 11 0 5 5 10 11 10l490 0c6 0 11-5 11-10 0-6-5-11-11-11z m0 80l-490 0c-6 0-11 4-11 10 0 6 5 11 11 11l490 0c6 0 11-5 11-11 0-6-5-10-11-10z m0 94l-490 0c-6 0-11 4-11 10 0 6 5 11 11 11l490 0c6 0 11-5 11-11 0-6-5-10-11-10z m0 94l-490 0c-6 0-11 5-11 10 0 6 5 11 11 11l490 0c6 0 11-5 11-11 0-5-5-10-11-10z m0 94l-490 0c-6 0-11 5-11 10 0 6 5 11 11 11l490 0c6 0 11-5 11-11 0-5-5-10-11-10z m-245-282c-6 0-11 4-11 10l0 368c0 6 5 11 11 11 6 0 11-5 11-11l0-368c0-6-5-10-11-10z"/>
<glyph unicode="&#101;" d="M436 215l-360 0c-6 0-11 5-11 10 0 6 5 11 11 11l360 0c6 0 11-5 11-11 0-5-5-10-11-10z m-355-215c0 0-1 0-1 0-6 1-10 6-10 12l26 215c1 6 6 10 12 9 6-1 10-6 9-12l-25-215c-1-5-6-9-11-9z m350 0c-5 0-10 4-11 9l-25 215c-1 6 3 11 9 12 6 1 11-3 12-9l26-215c0-6-4-11-10-12 0 0-1 0-1 0z m-292 57c0 0-1 0-1 1-6 0-10 5-9 11l17 158c0 5 6 10 11 9 6-1 10-6 10-12l-17-157c-1-5-5-10-11-10z m234 0c-6 0-10 5-11 10l-17 157c0 6 4 11 10 12 5 1 11-4 11-9l17-158c1-6-3-11-9-11 0-1-1-1-1-1z m-42 264l-150 0c-6 0-10 5-10 10 0 47 38 86 85 86 47 0 85-39 85-86 0-5-4-10-10-10z m-138 21l126 0c-5 30-31 53-63 53-32 0-58-23-63-53z m63 59c-6 0-11 5-11 11l0 89c0 6 5 11 11 11 6 0 11-5 11-11l0-89c0-6-5-11-11-11z"/>
<glyph unicode="&#102;" d="M11 0c-6 0-11 5-11 11l0 490c0 6 5 11 11 11 6 0 10-5 10-11l0-490c0-6-4-11-10-11z m490 0c-6 0-10 5-10 11l0 490c0 6 4 11 10 11 6 0 11-5 11-11l0-490c0-6-5-11-11-11z m0 376l-490 0c-6 0-11 5-11 11 0 6 5 10 11 10l490 0c6 0 11-4 11-10 0-6-5-11-11-11z m0-259l-490 0c-6 0-11 5-11 10 0 6 5 11 11 11l490 0c6 0 11-5 11-11 0-5-5-10-11-10z m-127-117c-6 0-10 5-10 11l0 376c0 6 4 10 10 10 6 0 11-4 11-10l0-376c0-6-5-11-11-11z m127 296l-120 0c-6 0-10 5-10 11 0 6 4 10 10 10l120 0c6 0 11-4 11-10 0-6-5-11-11-11z m0-98l-120 0c-6 0-10 4-10 10 0 6 4 11 10 11l120 0c6 0 11-5 11-11 0-6-5-10-11-10z m0-151l-120 0c-6 0-10 5-10 11 0 6 4 11 10 11l120 0c6 0 11-5 11-11 0-6-5-11-11-11z"/>
<glyph unicode="&#103;" d="M109 0l-98 0c-6 0-11 5-11 11l0 490c0 6 5 11 11 11l98 0c6 0 11-5 11-11l0-490c0-6-5-11-11-11z m-88 21l78 0 0 470-78 0z m187-21l-99 0c-6 0-10 5-10 11l0 379c0 6 4 11 10 11l99 0c6 0 11-5 11-11l0-379c0-6-5-11-11-11z m-88 21l77 0 0 358-77 0z m186-21l-98 0c-6 0-11 5-11 11l0 283c0 6 5 11 11 11l98 0c6 0 11-5 11-11l0-283c0-6-5-11-11-11z m-87 21l77 0 0 263-77 0z m282-21l-195 0c-5 0-10 5-10 11l0 98c0 6 5 10 10 10l195 0c6 0 11-4 11-10l0-98c0-6-5-11-11-11z m-184 21l174 0 0 77-174 0z m184 72l-195 0c-5 0-10 5-10 10l0 99c0 5 5 10 10 10l195 0c6 0 11-5 11-10l0-99c0-5-5-10-11-10z m-184 21l174 0 0 77-174 0z"/>
<glyph unicode="&#104;" d="M467 159l-422 0c-25 0-45 20-45 45l0 88c0 25 20 45 45 45 24 0 44-20 44-45l0-43 334 0 0 43c0 25 20 45 44 45 25 0 45-20 45-45l0-88c0-25-20-45-45-45z m-422 156c-13 0-24-10-24-23l0-88c0-13 11-23 24-23l422 0c13 0 24 10 24 23l0 88c0 13-11 23-24 23-12 0-23-10-23-23l0-65-376 0 0 65c0 13-11 23-23 23z m399-20l-21 0 0 43c0 25-21 46-46 46l-242 0c-25 0-46-21-46-46l0-43-21 0 0 43c0 37 30 67 67 67l242 0c37 0 67-30 67-67l0-43z m-368-188c-6 0-11 5-11 11l0 44c0 6 5 11 11 11 6 0 11-5 11-11l0-44c0-6-5-11-11-11z m360 0c-6 0-11 5-11 11l0 44c0 6 5 11 11 11 6 0 11-5 11-11l0-44c0-6-5-11-11-11z"/>
<glyph unicode="&#105;" d="M467 159l-422 0c-25 0-45 20-45 45l0 88c0 25 20 45 45 45 24 0 44-20 44-45l0-43 334 0 0 43c0 25 20 45 44 45 25 0 45-20 45-45l0-88c0-25-20-45-45-45z m-422 156c-13 0-24-10-24-23l0-88c0-13 11-23 24-23l422 0c13 0 24 10 24 23l0 88c0 13-11 23-24 23-12 0-23-10-23-23l0-65-376 0 0 65c0 13-11 23-23 23z m399-20l-21 0 0 43c0 25-21 46-46 46l-242 0c-25 0-46-21-46-46l0-43-21 0 0 43c0 37 30 67 67 67l242 0c37 0 67-30 67-67l0-43z m-368-188c-6 0-11 5-11 11l0 44c0 6 5 11 11 11 6 0 11-5 11-11l0-44c0-6-5-11-11-11z m360 0c-6 0-11 5-11 11l0 44c0 6 5 11 11 11 6 0 11-5 11-11l0-44c0-6-5-11-11-11z m-180 128c-6 0-11 5-11 11l0 142c0 6 5 11 11 11 6 0 11-5 11-11l0-142c0-6-5-11-11-11z"/>
<glyph unicode="&#106;" d="M399 0l-286 0c-6 0-10 5-10 11l0 383c0 6 4 11 10 11l286 0c6 0 10-5 10-11l0-383c0-6-4-11-10-11z m-275 21l264 0 0 363-264 0z m132-17c-6 0-11 4-11 10l0 377c0 6 5 10 11 10 6 0 11-4 11-10l0-377c0-6-5-10-11-10z m143 376c-6 0-11 5-11 11 0 55-59 100-132 100-73 0-132-45-132-100 0-6-5-11-11-11-6 0-10 5-10 11 0 67 68 121 153 121 85 0 153-54 153-121 0-6-4-11-10-11z m-187-199c-6 0-11 5-11 11l0 49c0 6 5 11 11 11 5 0 10-5 10-11l0-49c0-6-5-11-10-11z m88 0c-5 0-10 5-10 11l0 49c0 6 5 11 10 11 6 0 11-5 11-11l0-49c0-6-5-11-11-11z m-44 207c-6 0-11 5-11 11l0 102c0 6 5 11 11 11 6 0 11-5 11-11l0-102c0-6-5-11-11-11z m-7 0c-2 0-4 1-6 2l-91 74c-4 3-5 10-1 15 3 4 10 5 15 1l90-73c5-4 5-10 2-15-3-3-6-4-9-4z m14 0c-3 0-6 1-9 4-3 5-3 11 2 15l90 73c5 4 12 3 15-1 4-5 3-12-1-15l-91-74c-2-1-4-2-6-2z m206-388l-426 0c-6 0-11 5-11 11 0 6 5 10 11 10l426 0c6 0 11-4 11-10 0-6-5-11-11-11z"/>
<glyph unicode="&#107;" d="M383 31l-254 0c-29 0-52 23-52 52l0 377c0 28 23 52 52 52l254 0c29 0 52-24 52-52l0-377c0-29-23-52-52-52z m-254 460c-17 0-31-14-31-31l0-377c0-17 14-31 31-31l254 0c17 0 31 14 31 31l0 377c0 17-14 31-31 31z m127-460c-6 0-11 5-11 11l0 454c0 6 5 11 11 11 6 0 11-5 11-11l0-454c0-6-5-11-11-11z m-44 219c-6 0-11 4-11 10l0 64c0 6 5 11 11 11 6 0 11-5 11-11l0-64c0-6-5-10-11-10z m88 0c-6 0-11 4-11 10l0 64c0 6 5 11 11 11 6 0 11-5 11-11l0-64c0-6-5-10-11-10z m-151-250c-6 0-11 5-11 11l0 25c0 6 5 11 11 11 6 0 11-5 11-11l0-25c0-6-5-11-11-11z m214 0c-6 0-11 5-11 11l0 25c0 6 5 11 11 11 6 0 11-5 11-11l0-25c0-6-5-11-11-11z"/>
<glyph unicode="&#108;" d="M501 0c-6 0-10 5-10 11l0 249-470 0 0-249c0-6-4-11-10-11-6 0-11 5-11 11l0 260c0 6 5 11 11 11l490 0c6 0 11-5 11-11l0-260c0-6-5-11-11-11z m-340 30l-150 0c-6 0-11 5-11 11l0 230c0 6 5 11 11 11l150 0c5 0 10-5 10-11l0-230c0-6-5-11-10-11z m-140 22l129 0 0 208-129 0z m94 78c-6 0-11 5-11 11l0 30c0 6 5 11 11 11 6 0 11-5 11-11l0-30c0-6-5-11-11-11z m-4 227c-3 0-5 0-7 2-16 14-25 33-26 53-1 20 6 40 20 55 15 16 36 25 58 25 19 0 37-7 51-19 2-2 4-5 4-7 0-3-1-6-3-8l-89-98c-2-2-5-3-8-3z m45 114c-16 0-32-7-42-18-10-11-15-25-14-40 0-11 4-21 11-30l73 80c-8 5-18 8-28 8z m-50-22c-3 0-5 1-7 3l-47 41c-5 4-5 11-1 15 4 5 10 5 15 1l47-41c4-4 5-11 1-15-2-3-5-4-8-4z m-7-169c-2 0-4 0-5 1-3 2-75 42-75 143 0 42 33 62 50 67 6 1 12-2 14-8 1-5-2-11-8-13-1 0-35-10-35-46 0-88 61-123 64-124 5-3 7-10 4-15-2-3-6-5-9-5z m51 0l-91 0c-6 0-11 5-11 10 0 6 5 11 11 11l91 0c6 0 11-5 11-11 0-5-5-10-11-10z"/>
<glyph unicode="&#109;" d="M371 320c0 0 0 0 0 0l-230 0c-3 0-6 1-8 4-2 3-3 6-2 9l44 171c1 5 5 8 10 8l142 0c5 0 9-3 10-8l44-169c0-1 1-3 1-4 0-6-5-11-11-11z m-216 21l202 0-38 150-126 0z m101-341c-6 0-11 5-11 11l0 320c0 5 5 10 11 10 6 0 11-5 11-10l0-320c0-6-5-11-11-11z m67 0l-134 0c-6 0-11 5-11 11 0 6 5 10 11 10l134 0c6 0 11-4 11-10 0-6-5-11-11-11z"/>
<glyph unicode="&#110;" d="M406 102l-300 0c-29 0-53 24-53 54l0 252c0 29 24 54 53 54l300 0c29 0 54-25 54-54l0-252c0-30-25-54-54-54z m-300 338c-18 0-32-14-32-32l0-252c0-18 14-33 32-33l300 0c18 0 32 15 32 33l0 252c0 18-14 32-32 32z m395 0l-490 0c-6 0-11 5-11 11 0 6 5 11 11 11l490 0c6 0 11-5 11-11 0-6-5-11-11-11z m-384-390c-6 0-11 5-11 11l0 48c0 6 5 10 11 10 6 0 10-4 10-10l0-48c0-6-4-11-10-11z m278 0c-6 0-10 5-10 11l0 48c0 6 4 10 10 10 6 0 11-4 11-10l0-48c0-6-5-11-11-11z m-139 52c-6 0-11 5-11 11l0 338c0 6 5 11 11 11 6 0 11-5 11-11l0-338c0-6-5-11-11-11z m-56 163c-6 0-10 5-10 11l0 54c0 6 4 11 10 11 6 0 11-5 11-11l0-54c0-6-5-11-11-11z m112 0c-6 0-11 5-11 11l0 54c0 6 5 11 11 11 6 0 10-5 10-11l0-54c0-6-4-11-10-11z"/>
<glyph unicode="&#111;" d="M451 41l-130 0c-33 0-61 27-61 61l0 344c0 34 28 61 61 61l130 0c34 0 61-27 61-61l0-344c0-34-27-61-61-61z m-130 445c-22 0-39-18-39-40l0-344c0-22 17-40 39-40l130 0c22 0 40 18 40 40l0 344c0 22-18 40-40 40z m65-352c-6 0-11 5-11 11l0 342c0 6 5 11 11 11 6 0 11-5 11-11l0-342c0-6-5-11-11-11z m112 0l-224 0c-6 0-11 5-11 11 0 6 5 11 11 11l224 0c6 0 11-5 11-11 0-6-5-11-11-11z m3-129c-6 0-10 4-10 10l0 89c0 6 4 10 10 10 6 0 11-4 11-10l0-89c0-6-5-10-11-10z m-230 0c-6 0-11 4-11 10l0 89c0 6 5 10 11 10 6 0 11-4 11-10l0-89c0-6-5-10-11-10z m-260 0c-6 0-11 4-11 10l0 220c0 6 5 11 11 11l254 0c6 0 11-5 11-11 0-6-5-11-11-11l-244 0 0-209c0-6-4-10-10-10z m192 0c-6 0-11 4-11 10l0 108-91 0 0-108c0-6-5-10-11-10-5 0-10 4-10 10l0 119c0 6 5 10 10 10l113 0c5 0 10-4 10-10l0-119c0-6-5-10-10-10z m-51 304l-113 0c-3 0-6 1-8 3-2 3-3 6-2 9l20 94c1 5 5 9 10 9l72 0c5 0 10-4 11-9l20-94c1-3 0-6-2-9-2-2-5-3-8-3z m-100 21l86 0-15 72-55 0z m43-82c-6 0-10 5-10 11l0 54c0 5 4 10 10 10 6 0 11-5 11-10l0-54c0-6-5-11-11-11z m35 0l-70 0c-6 0-10 5-10 11 0 6 4 10 10 10l70 0c6 0 11-4 11-10 0-6-5-11-11-11z m215 54c-6 0-11 5-11 11l0 36c0 6 5 11 11 11 5 0 10-5 10-11l0-36c0-6-5-11-10-11z m80 0c-6 0-11 5-11 11l0 36c0 6 5 11 11 11 6 0 11-5 11-11l0-36c0-6-5-11-11-11z m-6-214l-58 0c-6 0-10 5-10 11 0 6 4 10 10 10l58 0c6 0 11-4 11-10 0-6-5-11-11-11z"/>
<glyph unicode="&#112;" d="M381 0c-6 0-10 5-10 11l0 156c0 6 4 11 10 11 6 0 11-5 11-11l0-156c0-6-5-11-11-11z m-250 0c-6 0-11 5-11 11l0 156c0 6 5 11 11 11 6 0 10-5 10-11l0-156c0-6-4-11-10-11z m70 49c-6 0-11 5-11 11l0 70c0 6 5 10 11 10 6 0 10-4 10-10l0-70c0-6-4-11-10-11z m110 0c-6 0-10 5-10 11l0 70c0 6 4 10 10 10 6 0 11-4 11-10l0-70c0-6-5-11-11-11z m-141 144c-5 0-10 4-11 9-9 56-25 159-32 222-2 23 4 43 19 58 35 36 108 30 111 30 6-1 10-6 10-12-1-6-6-10-12-10-1 0-66 5-94-23-10-11-14-24-12-41 6-62 22-165 31-220 1-6-3-12-8-13-1 0-1 0-2 0z m170 1c0 0-1 0-1 0-6 1-10 6-9 12 1 9 3 21 5 33 10 57 23 135 28 187 2 17-2 30-12 41-28 28-93 23-94 23-6 0-11 4-12 10 0 6 4 11 10 12 3 0 76 6 111-30 15-15 21-35 19-58-6-53-19-131-29-189-2-12-4-23-5-33-1-5-6-8-11-8z m0-75l-168 0c-29 0-52 22-52 48 0 26 23 48 52 48l168 0c29 0 52-22 52-48 0-26-23-48-52-48z m-168 75c-17 0-31-12-31-27 0-14 14-26 31-26l168 0c17 0 31 12 31 26 0 15-14 27-31 27z"/>
<glyph unicode="&#113;" d="M268 41l-101 0c-6 0-10 5-10 11l0 318c0 71 50 128 111 128 9 0 17-1 25-3 6-1 9-7 7-13-1-6-7-9-13-8-6 2-12 3-19 3-49 0-90-48-90-107l0-307 90 0c6 0 11-5 11-11 0-6-5-11-11-11z m102 0c-6 0-11 5-11 11l0 318c0 6 5 11 11 11 5 0 10-5 10-11l0-318c0-6-5-11-10-11z m-102-41c-2 0-4 1-6 2-2 2-4 5-4 9l0 387c0 68 24 114 61 114 40 0 61-82 61-142l0-318c0-4-2-8-6-10l-102-41c-1-1-2-1-4-1z m51 491c-19 0-40-33-40-93l0-371 80 32 0 311c0 69-24 121-40 121z m-126-450l-182 0c-6 0-11 5-11 11 0 6 5 11 11 11l182 0c6 0 11-5 11-11 0-6-5-11-11-11z m308 0l-131 0c-6 0-11 5-11 11 0 6 5 11 11 11l131 0c6 0 11-5 11-11 0-6-5-11-11-11z m-204 173c-6 0-11 5-11 11l0 45c0 6 5 10 11 10 6 0 11-4 11-10l0-45c0-6-5-11-11-11z"/>
<glyph unicode="&#114;" d="M501 374l-490 0c-6 0-11 4-11 10 0 6 5 11 11 11l490 0c6 0 11-5 11-11 0-6-5-10-11-10z m-443-257c-6 0-11 5-11 11l0 256c0 6 5 11 11 11 6 0 11-5 11-11l0-256c0-6-5-11-11-11z m396 0c-6 0-11 5-11 11l0 256c0 6 5 11 11 11 6 0 11-5 11-11l0-256c0-6-5-11-11-11z m0 113l-167 0c-6 0-10 5-10 11l0 143c0 6 4 11 10 11 6 0 11-5 11-11l0-133 156 0c6 0 11-5 11-10 0-6-5-11-11-11z m0 72l-165 0c-5 0-10 5-10 10 0 6 5 11 10 11l165 0c6 0 11-5 11-11 0-5-5-10-11-10z m-71 37l-25 0c-6 0-11 5-11 11 0 6 5 11 11 11l25 0c6 0 11-5 11-11 0-6-5-11-11-11z m0-72l-25 0c-6 0-11 4-11 10 0 6 5 11 11 11l25 0c6 0 11-5 11-11 0-6-5-10-11-10z"/>
<glyph unicode="&#115;" d="M406 149l-300 0c-29 0-53 25-53 54l0 200c0 6 4 11 10 11 6 0 11-5 11-11l0-200c0-18 14-32 32-32l300 0c18 0 32 14 32 32l0 200c0 6 5 11 11 11 6 0 10-5 10-11l0-200c0-29-24-54-53-54z m95 244l-490 0c-6 0-11 5-11 10 0 6 5 11 11 11l490 0c6 0 11-5 11-11 0-5-5-10-11-10z m-438-295c-6 0-10 5-10 11l0 95c0 5 4 10 10 10 6 0 11-5 11-10l0-95c0-6-5-11-11-11z m386 0c-6 0-11 5-11 11l0 95c0 5 5 10 11 10 6 0 10-5 10-10l0-95c0-6-4-11-10-11z m0 174l-386 0c-6 0-10 5-10 11 0 6 4 10 10 10l386 0c6 0 10-4 10-10 0-6-4-11-10-11z m-166 73l-54 0c-6 0-11 5-11 11 0 5 5 10 11 10l54 0c6 0 11-5 11-10 0-6-5-11-11-11z m0-136l-54 0c-6 0-11 4-11 10 0 6 5 11 11 11l54 0c6 0 11-5 11-11 0-6-5-10-11-10z"/>
<glyph unicode="&#116;" d="M397 350l-265 0c-5 0-10 3-11 8-2 8-3 17-3 25 0 71 66 129 146 129 81 0 146-58 146-129 0-8 0-17-2-25-1-5-6-8-11-8z m-256 21l247 0c1 4 1 8 1 12 0 59-56 108-125 108-68 0-124-49-124-108 0-4 0-8 1-12z m123-245c-42 0-76 30-76 68 0 6 5 11 11 11 6 0 10-5 10-11 0-26 25-47 55-47 31 0 56 21 56 47 0 6 4 11 10 11 6 0 11-5 11-11 0-38-34-68-77-68z m0-126c-5 0-10 5-10 11l0 349c0 6 5 11 10 11 6 0 11-5 11-11l0-349c0-6-5-11-11-11z m84 0l-167 0c-6 0-11 5-11 11 0 6 5 10 11 10l167 0c6 0 11-4 11-10 0-6-5-11-11-11z m0 183l-167 0c-6 0-11 5-11 11 0 6 5 11 11 11l167 0c6 0 11-5 11-11 0-6-5-11-11-11z m-236 83c-3 0-6 2-8 5-4 5-3 11 2 15l49 35c2 1 4 2 6 2l103 0c6 0 11-5 11-11 0-6-5-11-11-11l-99 0-47-33c-1-1-4-2-6-2z"/>
<glyph unicode="&#117;" d="M437 29l-362 0c-42 0-75 25-75 54l0 375c0 30 33 54 75 54l362 0c41 0 75-24 75-54l0-375c0-29-34-54-75-54z m-362 462c-29 0-54-15-54-33l0-375c0-17 25-32 54-32l362 0c29 0 54 15 54 32l0 375c0 18-25 33-54 33z m-64-491c-6 0-11 5-11 11l0 58c0 6 5 11 11 11 6 0 10-5 10-11l0-58c0-6-4-11-10-11z m490 0c-6 0-10 5-10 11l0 58c0 6 4 11 10 11 6 0 11-5 11-11l0-58c0-6-5-11-11-11z m0 179l-490 0c-6 0-11 5-11 11 0 5 5 10 11 10l490 0c6 0 11-5 11-10 0-6-5-11-11-11z m0 105l-490 0c-6 0-11 4-11 10 0 6 5 11 11 11l490 0c6 0 11-5 11-11 0-6-5-10-11-10z m0 104l-490 0c-6 0-11 5-11 11 0 6 5 11 11 11l490 0c6 0 11-5 11-11 0-6-5-11-11-11z m-245-359c-6 0-11 5-11 11l0 150c0 5 5 10 11 10 6 0 11-5 11-10l0-150c0-6-5-11-11-11z m-60 101c-5 0-10 5-10 11l0 13c0 6 5 11 10 11 6 0 11-5 11-11l0-13c0-6-5-11-11-11z m120 0c-6 0-11 5-11 11l0 13c0 6 5 11 11 11 5 0 10-5 10-11l0-13c0-6-5-11-10-11z"/>
<glyph unicode="&#118;" d="M361 33l-210 0c-19 0-34 16-34 35l0 90c0 19 15 35 34 35l210 0c19 0 34-16 34-35l0-90c0-19-15-35-34-35z m-210 139c-7 0-12-6-12-14l0-90c0-7 5-13 12-13l210 0c7 0 12 6 12 13l0 90c0 8-5 14-12 14z m105-132c-6 0-11 4-11 10l0 126c0 6 5 11 11 11 6 0 11-5 11-11l0-126c0-6-5-10-11-10z m-128-40c-6 0-11 5-11 11l0 77c0 6 5 11 11 11 6 0 11-5 11-11l0-77c0-6-5-11-11-11z m256 0c-6 0-11 5-11 11l0 77c0 6 5 11 11 11 6 0 11-5 11-11l0-77c0-6-5-11-11-11z m-316 0l-57 0c-6 0-11 5-11 11l0 291c0 6 5 10 11 10l57 0c6 0 10-4 10-10l0-291c0-6-4-11-10-11z m-47 21l36 0 0 270-36 0z m480-21l-57 0c-6 0-10 5-10 11l0 291c0 6 4 10 10 10l57 0c6 0 11-4 11-10l0-291c0-6-5-11-11-11z m-46 21l36 0 0 270-36 0z m-56 282l-286 0c-6 0-11 5-11 11l0 187c0 6 5 11 11 11l286 0c6 0 11-5 11-11l0-187c0-6-5-11-11-11z m-276 21l266 0 0 167-266 0z m84-229c-6 0-11 5-11 11l0 14c0 6 5 10 11 10 6 0 11-4 11-10l0-14c0-6-5-11-11-11z m94 0c-6 0-11 5-11 11l0 14c0 6 5 10 11 10 6 0 10-4 10-10l0-14c0-6-4-11-10-11z"/>
<glyph unicode="&#119;" d="M256 0l-245 0c-6 0-11 5-11 11l0 116c0 6 5 11 11 11l245 0c6 0 11-5 11-11l0-116c0-6-5-11-11-11z m-235 21l224 0 0 95-224 0z m235 95l-245 0c-6 0-11 5-11 11l0 204c0 6 5 11 11 11l245 0c6 0 11-5 11-11l0-204c0-6-5-11-11-11z m-235 22l224 0 0 183-224 0z m235 183l-245 0c-6 0-11 4-11 10l0 170c0 6 5 11 11 11l245 0c6 0 11-5 11-11l0-170c0-6-5-10-11-10z m-235 21l224 0 0 149-224 0z m480-342l-245 0c-6 0-11 5-11 11l0 116c0 6 5 11 11 11l245 0c6 0 11-5 11-11l0-116c0-6-5-11-11-11z m-234 21l224 0 0 95-224 0z m-201 146l-55 0c-6 0-11 4-11 10 0 6 5 11 11 11l50 0 64 78c2 3 5 4 8 4l123 0c6 0 11-5 11-10 0-6-5-11-11-11l-118 0-64-79c-2-2-5-3-8-3z m114 162c-3 0-7 2-9 5l-67 96-93 0c-6 0-11 5-11 10 0 6 5 11 11 11l99 0c3 0 6-2 8-4l71-101c3-5 2-11-3-15-2-1-4-2-6-2z m321 101l-245 0c-6 0-11 5-11 10 0 6 5 11 11 11l245 0c6 0 11-5 11-11 0-5-5-10-11-10z m-344-372l-47 0c-6 0-11 5-11 11 0 6 5 11 11 11l47 0c5 0 10-5 10-11 0-6-5-11-10-11z m245 0l-47 0c-6 0-10 5-10 11 0 6 4 11 10 11l47 0c6 0 11-5 11-11 0-6-5-11-11-11z m-93 337c-6 0-11 4-11 10l0 28c0 6 5 11 11 11 6 0 10-5 10-11l0-28c0-6-4-10-10-10z m73 0c-6 0-11 4-11 10l0 28c0 6 5 11 11 11 5 0 10-5 10-11l0-28c0-6-5-10-10-10z m72 0c-6 0-10 4-10 10l0 28c0 6 4 11 10 11 6 0 11-5 11-11l0-28c0-6-5-10-11-10z"/>
<glyph unicode="&#120;" d="M468 0l-424 0c-6 0-11 5-11 11 0 6 5 10 11 10l424 0c6 0 11-4 11-10 0-6-5-11-11-11z m-52 0l-320 0c-6 0-11 5-11 11l0 490c0 6 5 11 11 11l320 0c6 0 11-5 11-11l0-490c0-6-5-11-11-11z m-309 21l298 0 0 470-298 0z m254 224l-210 0c-6 0-11 5-11 11l0 192c0 6 5 11 11 11l210 0c6 0 11-5 11-11l0-192c0-6-5-11-11-11z m-200 22l190 0 0 171-190 0z m198-99l-43 0c-6 0-11 5-11 11 0 5 5 10 11 10l43 0c5 0 10-5 10-10 0-6-5-11-10-11z"/>
<glyph unicode="&#121;" d="M256 286c-124 0-256 31-256 88 0 58 132 88 256 88 124 0 256-30 256-88 0-57-132-88-256-88z m0 155c-134 0-235-35-235-67 0-31 101-66 235-66 134 0 235 35 235 66 0 32-101 67-235 67z m0-316c-6 0-11 5-11 11l0 161c0 6 5 11 11 11 6 0 11-5 11-11l0-161c0-6-5-11-11-11z m-116-75c-5 0-10 3-10 9-1 6 3 11 9 12 78 10 93 55 93 57 2 6 8 9 14 7 5-1 8-7 7-13-1-2-19-61-111-72-1 0-1 0-2 0z m232 0c-1 0-1 0-2 0-92 11-110 70-111 72-1 6 2 12 8 13 5 2 11-1 13-7 0-2 15-48 93-57 6-1 10-6 9-12 0-6-5-9-10-9z m-153 61c-20 0-39 18-41 21-4 4-4 11 1 15 4 4 11 4 15-1 4-4 17-15 27-13 2 0 7 1 12 11 3 5 9 7 14 5 5-3 8-9 5-15-8-16-20-21-28-22-1-1-3-1-5-1z m74 0c-2 0-4 0-5 1-8 1-20 6-28 22-3 6 0 12 5 15 5 2 11 0 14-5 5-10 10-11 12-11 10-2 23 9 27 13 4 5 11 5 15 1 5-4 5-11 1-15-2-3-21-21-41-21z"/>
<glyph unicode="&#122;" d="M11 87c-6 0-11 5-11 11l0 316c0 6 5 11 11 11 6 0 10-5 10-11l0-316c0-6-4-11-10-11z m490 0c-6 0-10 5-10 11l0 124-480 0c-6 0-11 5-11 11 0 6 5 10 11 10l490 0c6 0 11-4 11-10l0-135c0-6-5-11-11-11z m-5 67l-480 0c-6 0-11 5-11 11 0 6 5 11 11 11l480 0c6 0 11-5 11-11 0-6-5-11-11-11z m-346 95l-96 0c-14 0-26 12-26 26l0 12c0 14 12 26 26 26l96 0c15 0 27-12 27-26l0-12c0-14-12-26-27-26z m-96 43c-2 0-5-3-5-5l0-12c0-2 3-5 5-5l96 0c3 0 5 3 5 5l0 12c0 2-2 5-5 5z"/>
<glyph unicode="&#65;" d="M441 31l-370 0c-39 0-71 23-71 52l0 377c0 28 32 52 71 52l370 0c39 0 71-24 71-52l0-377c0-29-32-52-71-52z m-370 460c-27 0-50-15-50-31l0-377c0-17 23-31 50-31l370 0c27 0 50 14 50 31l0 377c0 16-23 31-50 31z m185-460c-6 0-11 5-11 11l0 454c0 6 5 11 11 11 6 0 11-5 11-11l0-454c0-6-5-11-11-11z m-64 263c-6 0-11 5-11 11l0 63c0 6 5 11 11 11 6 0 11-5 11-11l0-63c0-6-5-11-11-11z m128-99c-6 0-11 4-11 10l0 64c0 6 5 11 11 11 6 0 11-5 11-11l0-64c0-6-5-10-11-10z m-220-195c-6 0-10 5-10 11l0 25c0 6 4 11 10 11 6 0 11-5 11-11l0-25c0-6-5-11-11-11z m312 0c-6 0-11 5-11 11l0 25c0 6 5 11 11 11 6 0 10-5 10-11l0-25c0-6-4-11-10-11z m-156 162l-237 0c-6 0-11 5-11 11 0 6 5 11 11 11l237 0c6 0 11-5 11-11 0-6-5-11-11-11z m237 223l-237 0c-6 0-11 5-11 11 0 6 5 11 11 11l237 0c6 0 11-5 11-11 0-6-5-11-11-11z m-341-285l-52 0c-6 0-10 5-10 11 0 6 4 11 10 11l52 0c6 0 11-5 11-11 0-6-5-11-11-11z m248 334l-51 0c-6 0-11 5-11 11 0 6 5 10 11 10l51 0c6 0 11-4 11-10 0-6-5-11-11-11z"/>
<glyph unicode="&#66;" d="M260 0c-6 0-11 5-11 11l0 490c0 6 5 11 11 11 6 0 11-5 11-11l0-490c0-6-5-11-11-11z m70 0l-140 0c-6 0-11 5-11 11 0 6 5 10 11 10l140 0c6 0 11-4 11-10 0-6-5-11-11-11z m-78 414c-2 0-5 1-7 3l-92 76c-4 4-5 11-1 15 3 5 10 5 15 2l92-77c4-3 5-10 1-15-2-2-5-4-8-4z m0-100c-2 0-5 1-7 3l-92 76c-4 3-5 10-1 15 3 4 10 5 15 1l92-76c4-4 5-11 1-15-2-3-5-4-8-4z m8 50c-3 0-6 2-8 4-4 5-3 11 1 15l92 76c5 4 12 3 15-1 4-5 3-11-1-15l-92-76c-2-2-5-3-7-3z m0-100c-3 0-6 1-8 4-4 4-3 11 1 15l92 76c5 4 12 3 15-1 4-5 3-12-1-15l-92-77c-2-1-5-2-7-2z"/>
<glyph unicode="&#67;" d="M416 215l-320 0c-6 0-11 5-11 11l0 275c0 6 5 11 11 11l320 0c6 0 11-5 11-11l0-275c0-6-5-11-11-11z m-310 21l300 0 0 255-300 0z m317-121l-334 0c-18 0-32 14-32 31l0 59c0 17 14 31 32 31l334 0c18 0 32-14 32-31l0-59c0-17-14-31-32-31z m-334 100c-6 0-11-5-11-10l0-59c0-5 5-10 11-10l334 0c6 0 11 5 11 10l0 59c0 5-5 10-11 10z m-78 90c-5 0-9 3-11 8-1 5 2 11 8 13l85 25c5 1 11-2 13-7 1-6-2-12-7-14l-85-25c-1 0-2 0-3 0z m20-305c-6 0-10 5-10 11l0 306c0 6 4 11 10 11 6 0 11-5 11-11l0-306c0-6-5-11-11-11z m470 305c-1 0-2 0-3 0l-85 25c-5 2-8 8-7 14 2 5 8 8 14 7l84-25c6-2 9-8 8-13-2-5-6-8-11-8z m-20-305c-6 0-11 5-11 11l0 306c0 6 5 11 11 11 6 0 10-5 10-11l0-306c0-6-4-11-10-11z m-417 171l-28 0c-6 0-11 5-11 11 0 5 5 10 11 10l28 0c6 0 11-5 11-10 0-6-5-11-11-11z m417 0l-28 0c-6 0-11 5-11 11 0 5 5 10 11 10l28 0c6 0 10-5 10-10 0-6-4-11-10-11z"/>
<glyph unicode="&#68;" d="M358 0c-2 0-4 1-6 2l-204 145c-3 2-5 5-5 8l0 202c0 3 2 6 5 8l204 145c3 2 7 3 11 1 3-2 6-6 6-10l0-490c0-4-3-8-6-10-2-1-3-1-5-1z m-193 161l182-130 0 450-182-130z m187 84l-192 0c-6 0-11 5-11 11 0 6 5 11 11 11l192 0c6 0 11-5 11-11 0-6-5-11-11-11z m-118-151c-6 0-11 5-11 11l0 308c0 6 5 11 11 11 6 0 11-5 11-11l0-308c0-6-5-11-11-11z"/>
<glyph unicode="&#69;" d="M434 149l-356 0c-43 0-78 35-78 78l0 77c0 20 16 36 36 36 19 0 35-16 35-36l0-77c0-3 4-7 7-7l356 0c3 0 7 4 7 7l0 77c0 20 16 36 35 36 20 0 36-16 36-36l0-77c0-43-35-78-78-78z m-398 170c-8 0-15-7-15-15l0-77c0-31 26-56 57-56l356 0c31 0 57 25 57 56l0 77c0 8-7 15-15 15-7 0-14-7-14-15l0-77c0-15-13-28-28-28l-356 0c-15 0-28 13-28 28l0 77c0 8-7 15-14 15z m4 0c-6 0-11 4-11 10l0 29c0 22 20 39 45 39l364 0c25 0 45-16 45-37l0-26c0-6-5-11-11-11-6 0-10 5-10 11l0 26c0 8-12 16-24 16l-364 0c-13 0-24-8-24-18l0-29c0-6-4-10-10-10z m48-204c-6 0-11 5-11 11l0 34c0 6 5 11 11 11 6 0 11-5 11-11l0-34c0-6-5-11-11-11z m336 0c-6 0-11 5-11 11l0 34c0 6 5 11 11 11 6 0 11-5 11-11l0-34c0-6-5-11-11-11z m-283 204l-9 0c-6 0-11 4-11 10 0 6 5 11 11 11l9 0c6 0 11-5 11-11 0-6-5-10-11-10z m120 0l-10 0c-5 0-10 4-10 10 0 6 5 11 10 11l10 0c5 0 10-5 10-11 0-6-5-10-10-10z m119 0l-9 0c-6 0-11 4-11 10 0 6 5 11 11 11l9 0c6 0 11-5 11-11 0-6-5-10-11-10z m-239-65l-9 0c-6 0-11 5-11 11 0 5 5 10 11 10l9 0c6 0 11-5 11-10 0-6-5-11-11-11z m120 0l-10 0c-5 0-10 5-10 11 0 5 5 10 10 10l10 0c5 0 10-5 10-10 0-6-5-11-10-11z m119 0l-9 0c-6 0-11 5-11 11 0 5 5 10 11 10l9 0c6 0 11-5 11-10 0-6-5-11-11-11z"/>
<glyph unicode="&#70;" d="M502 299c-1 0-1 0-1 0l-490 0c-4 0-8 2-10 6-2 3-1 8 2 11l76 90c2 2 5 4 8 4l338 0c3 0 6-2 8-4l75-89c3-2 4-5 4-8 0-6-5-10-10-10z m-468 21l444 0-58 68-328 0z m35-218c-5 0-10 5-10 11l0 189c0 6 5 10 10 10 6 0 11-4 11-10l0-189c0-6-5-11-11-11z m374 0c-6 0-11 5-11 11l0 189c0 6 5 10 11 10 5 0 10-4 10-10l0-189c0-6-5-11-10-11z m-311 95c-6 0-10 4-10 10l0 95c0 6 4 10 10 10 6 0 11-4 11-10l0-95c0-6-5-10-11-10z m248 0c-6 0-11 4-11 10l0 95c0 6 5 10 11 10 6 0 10-4 10-10l0-95c0-6-4-10-10-10z"/>
<glyph unicode="&#71;" d="M458 46l-404 0c-30 0-54 25-54 55l0 168c0 30 24 54 54 54l404 0c30 0 54-24 54-54l0-168c0-30-24-55-54-55z m-404 256c-18 0-33-15-33-33l0-168c0-18 15-33 33-33l404 0c18 0 33 15 33 33l0 168c0 18-15 33-33 33z m19-296c-6 0-11 5-11 11l0 35c0 6 5 11 11 11 6 0 11-5 11-11l0-35c0-6-5-11-11-11z m366 0c-6 0-11 5-11 11l0 35c0 6 5 11 11 11 6 0 11-5 11-11l0-35c0-6-5-11-11-11z m-251 40c-6 0-10 5-10 11l0 248c0 6 4 11 10 11 6 0 11-5 11-11l0-248c0-6-5-11-11-11z m308 128l-297 0c-6 0-11 5-11 11 0 6 5 11 11 11l297 0c6 0 11-5 11-11 0-6-5-11-11-11z m-358 0l-40 0c-6 0-10 5-10 11 0 6 4 11 10 11l40 0c6 0 11-5 11-11 0-6-5-11-11-11z m229 58l-40 0c-5 0-10 5-10 11 0 6 5 11 10 11l40 0c6 0 11-5 11-11 0-6-5-11-11-11z m0-121l-40 0c-5 0-10 5-10 10 0 6 5 11 10 11l40 0c6 0 11-5 11-11 0-5-5-10-11-10z m-111 195c-6 0-11 5-11 10l0 124c0 24-20 36-20 37-13 7-25 9-37 6-25-7-40-37-40-37-3-6-9-8-15-5-5 3-7 9-4 14 0 2 19 39 53 48 18 6 36 3 54-8 1-1 31-20 31-55l0-124c0-5-5-10-11-10z m-8 7c-2 0-5 1-7 3l-54 51c-4 4-4 11 0 15 4 4 11 4 15 0l54-51c4-4 4-11 0-15-2-2-5-3-8-3z m-76 30c-3 0-6 1-8 3-4 5-4 11 0 15l39 39c4 4 11 4 15 0 4-4 4-11 0-15l-39-39c-2-2-4-3-7-3z m93-30c-3 0-6 1-8 3-4 4-4 11 0 15l54 51c4 4 11 4 15 0 4-4 4-11-1-15l-53-51c-2-2-5-3-7-3z m76 30c-3 0-6 1-8 3l-37 39c-4 4-4 11 0 15 4 4 11 4 15 0l38-39c4-4 4-11-1-15-2-2-4-3-7-3z"/>
<glyph unicode="&#72;" d="M110 0l-99 0c-6 0-11 5-11 11l0 410c0 2 1 4 2 5l49 81c4 6 15 6 18 0l50-81c1-1 2-3 2-5l0-410c0-6-5-11-11-11z m-89 21l79 0 0 397-40 63-39-63z m285-21l-100 0c-6 0-10 5-10 11l0 410c0 2 0 4 1 5l50 81c4 6 14 6 18 0l50-81c1-1 1-3 1-5l0-410c0-6-4-11-10-11z m-89 21l78 0 0 397-39 63-39-63z m284-21l-99 0c-6 0-11 5-11 11l0 410c0 2 1 4 2 5l49 81c4 6 15 6 19 0l49-81c1-1 2-3 2-5l0-410c0-6-5-11-11-11z m-88 21l78 0 0 397-39 63-39-63z m-207 341l-96 0c-6 0-10 5-10 11 0 5 4 10 10 10l96 0c6 0 11-5 11-10 0-6-5-11-11-11z m0-96l-96 0c-6 0-10 5-10 10 0 6 4 11 10 11l96 0c6 0 11-5 11-11 0-5-5-10-11-10z m0-116l-96 0c-6 0-10 4-10 10 0 6 4 11 10 11l96 0c6 0 11-5 11-11 0-6-5-10-11-10z m0-97l-96 0c-6 0-10 5-10 11 0 6 4 11 10 11l96 0c6 0 11-5 11-11 0-6-5-11-11-11z m196 309l-96 0c-6 0-11 5-11 11 0 5 5 10 11 10l96 0c6 0 11-5 11-10 0-6-5-11-11-11z m0-96l-96 0c-6 0-11 5-11 10 0 6 5 11 11 11l96 0c6 0 11-5 11-11 0-5-5-10-11-10z m0-116l-96 0c-6 0-11 4-11 10 0 6 5 11 11 11l96 0c6 0 11-5 11-11 0-6-5-10-11-10z m0-97l-96 0c-6 0-11 5-11 11 0 6 5 11 11 11l96 0c6 0 11-5 11-11 0-6-5-11-11-11z"/>
<glyph unicode="&#73;" d="M80 0l-69 0c-6 0-11 5-11 11 0 6 5 10 11 10l58 0 0 480c0 6 5 11 11 11l350 0c6 0 11-5 11-11l0-472 60 0c6 0 11-5 11-11 0-6-5-11-11-11l-71 0c-6 0-11 5-11 11l0 473-328 0 0-480c0-6-5-11-11-11z m0 0c-5 0-10 4-11 9-1 5 3 11 9 12l248 48 0 366-248 45c-6 1-10 6-9 12 1 6 7 10 13 9l257-46c5-1 9-6 9-11l0-384c0-5-4-10-9-11l-257-49c-1 0-1 0-2 0z m197 221c-6 0-11 5-11 11l0 64c0 6 5 10 11 10 6 0 11-4 11-10l0-64c0-6-5-11-11-11z"/>
<glyph unicode="&#74;" d="M186 67l-148 0c-6 0-11 5-11 11l0 423c0 6 5 11 11 11l148 0c3 0 6-1 8-4 2-2 3-6 2-9-19-94-50-148-69-170 99-98 70-247 69-254-1-5-5-8-10-8z m-137 21l127 0c5 33 14 156-71 233-4 3-5 7-3 12 1 1 2 3 3 4 1 1 42 39 67 154l-123 0z m425 41l-274 0c-5 0-10 5-10 10 0 6 5 11 10 11l263 0 0 341-277 0c-6 0-11 4-11 10 0 6 5 11 11 11l288 0c6 0 11-5 11-11l0-362c0-5-5-10-11-10z m-362 192l-64 0c-6 0-11 5-11 11 0 6 5 10 11 10l64 0c6 0 10-4 10-10 0-6-4-11-10-11z m163-192c-6 0-11 5-11 10l0 354c0 6 5 11 11 11 6 0 11-5 11-11l0-354c0-5-5-10-11-10z m192 177l-326 0c-6 0-11 4-11 10 0 6 5 11 11 11l326 0c6 0 11-5 11-11 0-6-5-10-11-10z m34-306l-490 0c-6 0-11 5-11 11 0 6 5 10 11 10l490 0c6 0 11-4 11-10 0-6-5-11-11-11z"/>
<glyph unicode="&#75;" d="M481 57l-295 0c-17 0-31 14-31 31l0 179c0 17 14 31 31 31l295 0c17 0 31-14 31-31l0-179c0-17-14-31-31-31z m-295 220c-5 0-10-5-10-10l0-179c0-5 5-10 10-10l295 0c5 0 10 5 10 10l0 179c0 5-5 10-10 10z m315-254c-6 0-10 4-10 10l0 83c0 6 4 10 10 10 6 0 11-4 11-10l0-83c0-6-5-10-11-10z m-168 34c-5 0-10 5-10 11l0 131c0 6 5 11 10 11 6 0 11-5 11-11l0-131c0-6-5-11-11-11z m-167-34c-6 0-11 4-11 10l0 83c0 6 5 10 11 10 5 0 10-4 10-10l0-83c0-6-5-10-10-10z m331 166l-327 0c-6 0-11 5-11 10 0 6 5 11 11 11l327 0c6 0 11-5 11-11 0-5-5-10-11-10z m-154 40l-19 0c-6 0-10 5-10 11 0 5 4 10 10 10l19 0c6 0 10-5 10-10 0-6-4-11-10-11z m-191 112l-141 0c-3 0-6 1-8 4-2 2-3 5-3 8l21 127c1 6 5 9 10 9l101 0c5 0 9-3 10-9l21-127c0-3 0-6-2-8-2-3-5-4-9-4z m-129 21l117 0-17 106-82 0z m59-324c-6 0-11 5-11 11l0 298c0 6 5 10 11 10 5 0 10-4 10-10l0-298c0-6-5-11-10-11z m38-15l-77 0c-6 0-10 4-10 10 0 6 4 11 10 11l77 0c6 0 10-5 10-11 0-6-4-10-10-10z m168 254l-63 0c-6 0-11 5-11 10l0 83c0 6 5 11 11 11l63 0c6 0 11-5 11-11l0-83c0-5-5-10-11-10z m-53 21l43 0 0 62-43 0z"/>
<glyph unicode="&#76;" d="M392 250l-272 0c-6 0-11 4-11 10 0 6 5 11 11 11l272 0c6 0 11-5 11-11 0-6-5-10-11-10z m-23-98l-226 0c-6 0-11 5-11 11 0 6 5 11 11 11l226 0c6 0 11-5 11-11 0-6-5-11-11-11z m-9 238l-208 0c-6 0-11 5-11 11 0 6 5 11 11 11l208 0c6 0 11-5 11-11 0-6-5-11-11-11z m-217-390c-6 0-11 5-11 11l0 239c0 6 5 11 11 11 6 0 11-5 11-11l0-239c0-6-5-11-11-11z m226 0c-6 0-11 5-11 11l0 239c0 6 5 11 11 11 6 0 11-5 11-11l0-239c0-6-5-11-11-11z m-20 252c0 0-1 0-1 0-6 1-10 6-10 12l16 167c1 17-4 33-14 45-9 9-21 15-34 15l-100 0c-13 0-25-6-34-15-10-12-15-28-14-45l16-167c0-6-4-11-10-12-6 0-11 4-12 10l-15 167c-2 23 5 45 20 61 13 14 30 22 49 22l100 0c19 0 36-8 49-22 15-16 22-38 20-61l-15-167c-1-6-6-10-11-10z"/>
<glyph unicode="&#77;" d="M230 69l-151 0c-5 0-10 5-10 10l0 354c0 5 5 10 10 10l151 0c6 0 10-5 10-10l0-354c0-5-4-10-10-10z m-140 21l129 0 0 332-129 0z m65-21c-6 0-11 5-11 10l0 354c0 5 5 10 11 10 6 0 10-5 10-10l0-354c0-5-4-10-10-10z m70 176l-140 0c-6 0-11 5-11 11 0 6 5 11 11 11l140 0c6 0 10-5 10-11 0-6-4-11-10-11z m208-176l-151 0c-6 0-10 5-10 10l0 354c0 5 4 10 10 10l151 0c5 0 10-5 10-10l0-354c0-5-5-10-10-10z m-140 21l129 0 0 332-129 0z m64-21c-6 0-10 5-10 10l0 354c0 5 4 10 10 10 6 0 11-5 11-10l0-354c0-5-5-10-11-10z m70 176l-140 0c-6 0-10 5-10 11 0 6 4 11 10 11l140 0c6 0 11-5 11-11 0-6-5-11-11-11z m74-245l-490 0c-6 0-11 5-11 11l0 490c0 6 5 11 11 11l490 0c6 0 11-5 11-11l0-490c0-6-5-11-11-11z m-480 21l470 0 0 470-470 0z"/>
<glyph unicode="&#78;" d="M424 36l-336 0c-30 0-55 24-55 54l0 368c1 30 25 54 55 54l336 0c30 0 54-24 54-54l0-368c0-30-24-54-54-54z m-336 455c-18 0-33-15-33-33l0-368c0-18 15-33 33-33l336 0c18 0 33 15 33 33l0 368c0 18-15 33-33 33z m13-491c-6 0-10 5-10 11l0 28c0 6 4 10 10 10 6 0 11-4 11-10l0-28c0-6-5-11-11-11z m310 0c-6 0-11 5-11 11l0 28c0 6 5 10 11 10 6 0 10-4 10-10l0-28c0-6-4-11-10-11z m-155 41c-6 0-11 5-11 11l0 449c0 6 5 11 11 11 6 0 11-5 11-11l0-449c0-6-5-11-11-11z m212 125l-424 0c-6 0-10 5-10 11 0 6 4 10 10 10l424 0c6 0 10-4 10-10 0-6-4-11-10-11z m-302-57l-40 0c-6 0-11 5-11 11 0 6 5 10 11 10l40 0c6 0 10-4 10-10 0-6-4-11-10-11z m221 0l-40 0c-6 0-11 5-11 11 0 6 5 10 11 10l40 0c6 0 11-4 11-10 0-6-5-11-11-11z m-185 201c-6 0-11 5-11 11l0 40c0 6 5 10 11 10 5 0 10-4 10-10l0-40c0-6-5-11-10-11z m108 0c-5 0-10 5-10 11l0 40c0 6 5 10 10 10 6 0 11-4 11-10l0-40c0-6-5-11-11-11z"/>
<glyph unicode="&#79;" d="M394 54l-276 0c-30 0-54 24-54 54l0 350c0 30 24 54 54 54l276 0c30 0 54-24 54-54l0-350c0-30-24-54-54-54z m-276 437c-18 0-33-15-33-33l0-350c0-18 15-32 33-32l276 0c18 0 33 14 33 32l0 350c0 18-15 33-33 33z m138-357c-6 0-11 4-11 10l0 352c0 6 5 11 11 11 6 0 11-5 11-11l0-352c0-6-5-10-11-10z m181 0l-357 0c-6 0-10 4-10 10 0 6 4 11 10 11l357 0c6 0 11-5 11-11 0-6-5-10-11-10z m-166-37l-37 0c-6 0-11 5-11 11 0 6 5 11 11 11l37 0c6 0 11-5 11-11 0-6-5-11-11-11z m27 182c-5 0-10 5-10 11l0 55c0 6 5 11 10 11 6 0 11-5 11-11l0-55c0-6-5-11-11-11z m-91 0c-6 0-11 5-11 11l0 55c0 6 5 11 11 11 6 0 11-5 11-11l0-55c0-6-5-11-11-11z m197-279l-295 0c-6 0-11 5-11 11l0 54c0 6 5 11 11 11l295 0c5 0 10-5 10-11l0-54c0-6-5-11-10-11z m-285 21l274 0 0 33-274 0z"/>
<glyph unicode="&#80;" d="M405 260c-6 0-10 5-10 10l0 171c0 27-23 50-50 50l-178 0c-27 0-50-23-50-50l0-171c0-5-4-10-10-10-6 0-11 5-11 10l0 171c0 39 32 71 71 71l178 0c39 0 71-32 71-71l0-171c0-5-5-10-11-10z m71-77c0 0 0 0 0 0l-440 0c-4 0-8 3-9 6-2 4-1 9 1 12l71 77c2 2 5 3 8 3l298 0c3 0 6-1 8-3l69-76c3-2 5-5 5-8 0-6-5-11-11-11z m-415 21l390 0-50 56-290 0z m-25-204c-6 0-10 5-10 11l0 183c0 6 4 10 10 10 6 0 11-4 11-10l0-183c0-6-5-11-11-11z m440 0c-6 0-11 5-11 11l0 183c0 6 5 10 11 10 6 0 10-4 10-10l0-183c0-6-4-11-10-11z m-6 124l-428 0c-6 0-11 5-11 11 0 6 5 11 11 11l428 0c6 0 10-5 10-11 0-6-4-11-10-11z m-415 79c-5 0-9 3-11 8l-30 105c-1 5 0 9 4 12l82 61c5 4 12 3 15-2 4-5 3-11-2-15l-77-57 29-98c1-6-2-12-7-14-1 0-2 0-3 0z m402 0c-1 0-2 0-3 0-5 2-8 8-7 14l29 98-77 57c-5 4-6 10-2 15 3 5 10 6 15 2l82-61c4-3 5-7 4-12l-30-105c-2-5-6-8-11-8z"/>
<glyph unicode="&#81;" d="M202 88l-191 0c-6 0-11 5-11 11l0 216c0 6 5 11 11 11l191 0c5 0 10-5 10-11l0-216c0-6-5-11-10-11z m-181 21l170 0 0 195-170 0z m480-21l-191 0c-5 0-10 5-10 11l0 216c0 6 5 11 10 11l191 0c6 0 11-5 11-11l0-216c0-6-5-11-11-11z m-180 21l170 0 0 195-170 0z m-11-21l-108 0c-6 0-11 5-11 11l0 216c0 6 5 11 11 11l108 0c6 0 11-5 11-11l0-216c0-6-5-11-11-11z m-98 21l88 0 0 195-88 0z m-166-54c-6 0-10 5-10 11l0 28c0 6 4 11 10 11 6 0 11-5 11-11l0-28c0-6-5-11-11-11z m420 0c-6 0-11 5-11 11l0 28c0 6 5 11 11 11 6 0 10-5 10-11l0-28c0-6-4-11-10-11z m-314 130c-6 0-11 5-11 11l0 28c0 6 5 11 11 11 6 0 10-5 10-11l0-28c0-6-4-11-10-11z m208 0c-6 0-10 5-10 11l0 28c0 6 4 11 10 11 6 0 11-5 11-11l0-28c0-6-5-11-11-11z m141 119l-490 0c-6 0-11 5-11 11l0 131c0 6 5 11 11 11l490 0c6 0 11-5 11-11l0-131c0-6-5-11-11-11z m-480 21l470 0 0 110-470 0z m251 50l-32 0c-6 0-11 5-11 11 0 5 5 10 11 10l32 0c6 0 11-5 11-10 0-6-5-11-11-11z"/>
<glyph unicode="&#82;" d="M437 34l-362 0c-41 0-75 31-75 69l0 341c0 37 34 68 75 68l362 0c41 0 75-31 75-68l0-341c0-38-34-69-75-69z m-362 457c-30 0-54-21-54-47l0-341c0-26 24-47 54-47l362 0c30 0 54 21 54 47l0 341c0 26-24 47-54 47z m-64-491c-6 0-11 5-11 11l0 76c0 6 5 11 11 11 6 0 10-5 10-11l0-76c0-6-4-11-10-11z m490 0c-6 0-10 5-10 11l0 76c0 6 4 11 10 11 6 0 11-5 11-11l0-76c0-6-5-11-11-11z m0 391l-484 0c-6 0-10 5-10 11 0 5 4 10 10 10l484 0c6 0 11-5 11-10 0-6-5-11-11-11z m0-88l-484 0c-6 0-10 5-10 11 0 5 4 10 10 10l484 0c6 0 11-5 11-10 0-6-5-11-11-11z m0-88l-484 0c-6 0-10 5-10 11 0 5 4 10 10 10l484 0c6 0 11-5 11-10 0-6-5-11-11-11z m-245-177c-6 0-11 5-11 11l0 177c0 5 5 10 11 10 6 0 11-5 11-10l0-177c0-6-5-11-11-11z m0 265c-6 0-11 4-11 10l0 89c0 6 5 11 11 11 6 0 11-5 11-11l0-89c0-6-5-10-11-10z m-66-194c-6 0-11 5-11 11l0 25c0 6 5 11 11 11 5 0 10-5 10-11l0-25c0-6-5-11-10-11z m137 0c-6 0-10 5-10 11l0 25c0 6 4 11 10 11 6 0 11-5 11-11l0-25c0-6-5-11-11-11z m-162 238l-64 0c-6 0-11 5-11 11 0 5 5 10 11 10l64 0c6 0 11-5 11-10 0-6-5-11-11-11z m251 0l-64 0c-6 0-11 5-11 11 0 5 5 10 11 10l64 0c6 0 11-5 11-10 0-6-5-11-11-11z"/>
<glyph unicode="&#83;" d="M455 269l-398 0c-6 0-11 5-11 11l0 221c0 6 5 11 11 11l398 0c6 0 11-5 11-11l0-221c0-6-5-11-11-11z m-387 21l376 0 0 201-376 0z m234 90l-92 0c-6 0-11 5-11 11 0 5 5 10 11 10l92 0c6 0 11-5 11-10 0-6-5-11-11-11z m153-332l-398 0c-6 0-11 4-11 10l0 222c0 6 5 10 11 10l398 0c6 0 11-4 11-10l0-222c0-6-5-10-11-10z m-387 21l376 0 0 200-376 0z m234 89l-92 0c-6 0-11 5-11 11 0 6 5 11 11 11l92 0c6 0 11-5 11-11 0-6-5-11-11-11z m195 333l-482 0c-6 0-11 4-11 10 0 6 5 11 11 11l482 0c6 0 11-5 11-11 0-6-5-10-11-10z m-395-491c-6 0-11 5-11 11l0 40c0 6 5 11 11 11 6 0 11-5 11-11l0-40c0-6-5-11-11-11z m295 0c-6 0-11 5-11 11l0 40c0 6 5 11 11 11 5 0 10-5 10-11l0-40c0-6-5-11-10-11z"/>
<glyph unicode="&#84;" d="M486 404l-460 0c-6 0-10 5-10 11 0 6 4 11 10 11l460 0c6 0 10-5 10-11 0-6-4-11-10-11z m-475-318c-1 0-2 0-3 1-6 1-9 7-8 13l81 318c1 5 7 9 13 7 6-1 9-7 8-13l-81-318c-1-5-6-8-10-8z m490 0c-4 0-9 3-10 8l-81 318c-1 6 2 12 8 13 6 2 12-2 13-7l81-318c1-6-2-12-8-13-1-1-2-1-3-1z m-66 260l-358 0c-6 0-11 5-11 11 0 6 5 11 11 11l358 0c6 0 11-5 11-11 0-6-5-11-11-11z"/>
<glyph unicode="&#85;" d="M437 208c-1 0-1 0-1 0l-360 0c-4 0-7 1-9 4-2 2-2 6-2 9l76 283c1 5 5 8 10 8l210 0c4 0 9-3 10-8l75-281c1-1 1-3 1-5 0-6-5-10-10-10z m-347 21l332 0-70 262-192 0z m166-229c-6 0-11 5-11 11l0 207c0 6 5 11 11 11 6 0 11-5 11-11l0-207c0-6-5-11-11-11z m122 0l-244 0c-6 0-11 5-11 11 0 6 5 10 11 10l244 0c6 0 11-4 11-10 0-6-5-11-11-11z"/>
<glyph unicode="&#86;" d="M434 297c-5 0-9 3-10 8-18 68-87 115-168 115-78 0-147-46-166-111-2-6-8-9-14-8-5 2-9 8-7 14 22 74 99 126 187 126 90 0 168-54 188-131 2-5-2-11-7-13-1 0-2 0-3 0z m-23-187l-310 0c-11 0-21 4-29 12-7 8-11 19-10 30 2 41-4 66-10 81-1 0-2 0-3 0-27 0-49 21-49 48 0 27 22 49 49 49 1 0 3 0 4 0 1 0 3 0 4-1 2 0 5-1 10-3l2-1c4-2 8-4 12-7 26-16 56-52 60-129l230 0c5 96 52 127 73 136 0 1 1 1 1 1 5 2 8 3 10 3 1 1 3 1 4 1 2 0 3 0 4 0 27 0 49-22 49-49 0-27-22-48-49-48-1 0-2 0-3 0-6-15-12-40-10-81 1-11-3-22-10-30-8-8-18-12-29-12z m-353 145c3 0 7-2 9-5 13-23 19-56 16-99 0-5 1-10 5-14 3-4 8-6 13-6l310 0c5 0 10 2 13 6 4 4 5 9 5 14-3 43 3 76 16 99 2 4 7 6 12 5 2-1 5-1 6-1 15 0 28 12 28 27 0 15-13 27-28 27-1 0-2 0-4 0-1 0-1 0-2 0-1 0-2-1-4-1l-1 3c-1 0-1 0-2 1l2-5c-17-8-58-36-60-128 0-6-5-10-11-10l-250 0c-6 0-11 4-11 10-1 79-32 110-50 122-4 3-7 5-10 6 0 0-1 1-1 1-2 0-3 1-4 1-1 0-1 0-2 0-2 0-3 0-4 0-15 0-28-12-28-27 0-15 13-27 28-27 2 0 4 0 6 1 1 0 2 0 3 0z m58-184c-6 0-11 4-11 10l0 36c0 6 5 10 11 10 6 0 10-4 10-10l0-36c0-6-4-10-10-10z m280 0c-6 0-10 4-10 10l0 36c0 6 4 10 10 10 6 0 11-4 11-10l0-36c0-6-5-10-11-10z"/>
<glyph unicode="&#87;" d="M256 61c-109 0-198 102-198 226 0 124 89 225 198 225 109 0 198-101 198-225 0-124-89-226-198-226z m0 430c-97 0-177-92-177-204 0-113 80-204 177-204 97 0 177 91 177 204 0 112-80 204-177 204z m0-375c-83 0-150 77-150 171 0 94 67 170 150 170 83 0 150-76 150-170 0-94-67-171-150-171z m0 320c-71 0-129-67-129-149 0-83 58-150 129-150 71 0 129 67 129 150 0 82-58 149-129 149z m-110-436c-5 0-10 5-10 11l0 99c0 6 5 11 10 11 6 0 11-5 11-11l0-99c0-6-5-11-11-11z m220 0c-6 0-11 5-11 11l0 99c0 6 5 11 11 11 5 0 10-5 10-11l0-99c0-6-5-11-10-11z m-168 276c-3 0-6 1-8 3-4 4-4 11 0 15l84 87c4 4 10 4 15 0 4-4 4-11 0-15l-84-87c-2-2-4-3-7-3z m0-66c-3 0-6 1-8 3-4 4-4 11 0 15l84 87c4 4 10 4 15 0 4-4 4-11 0-15l-84-87c-2-2-4-3-7-3z m58-21c-3 0-5 1-7 3-5 4-5 11-1 15l84 87c4 4 11 4 15 0 4-4 4-10 0-15l-83-86c-2-2-5-4-8-4z m217-189l-434 0c-6 0-10 5-10 11 0 6 4 10 10 10l434 0c6 0 10-4 10-10 0-6-4-11-10-11z"/>
<glyph unicode="&#88;" d="M379 37l-246 0c-75 0-133 46-133 104l0 58c0 26 21 47 48 47 26 0 48-21 48-47l0-56c2-4 15-13 37-13l246 0c22 0 35 9 37 13l0 56c0 26 22 47 48 47 27 0 48-21 48-47l0-58c0-58-58-104-133-104z m-331 188c-15 0-27-12-27-26l0-58c0-46 49-83 112-83l246 0c63 0 112 37 112 83l0 58c0 14-12 26-27 26-15 0-26-12-26-26l0-58c0-15-25-32-59-32l-246 0c-34 0-59 17-59 32l0 58c0 14-11 26-26 26z m415 0c-6 0-11 4-11 10l0 33c0 12-14 22-31 22l-330 0c-17 0-31-10-31-22l0-33c0-6-5-10-11-10-6 0-11 4-11 10l0 33c0 24 24 44 53 44l330 0c29 0 53-20 53-44l0-33c0-6-5-10-11-10z m-207-109c-6 0-11 5-11 11l0 170c0 6 5 10 11 10 6 0 11-4 11-10l0-170c0-6-5-11-11-11z m-141-116c-6 0-11 5-11 11l0 37c0 6 5 11 11 11 6 0 10-5 10-11l0-37c0-6-4-11-10-11z m282 0c-6 0-10 5-10 11l0 37c0 6 4 11 10 11 6 0 11-5 11-11l0-37c0-6-5-11-11-11z m26 348l-334 0c-5 0-10 5-10 11l0 142c0 6 5 11 10 11l334 0c5 0 10-5 10-11l0-142c0-6-5-11-10-11z m-323 21l312 0 0 122-312 0z"/>
<glyph unicode="&#89;" d="M501 232l-490 0c-6 0-11 5-11 11 0 6 5 11 11 11l490 0c6 0 11-5 11-11 0-6-5-11-11-11z m-225-199l-157 0c-4 0-8 3-10 7l-82 194c-2 6 0 12 6 14 5 3 11 0 14-5l79-188 150 0c6 0 11-5 11-11 0-6-5-11-11-11z m117 0l-157 0c-6 0-11 5-11 11 0 6 5 11 11 11l150 0 79 188c3 5 9 8 14 5 6-2 8-8 6-14l-82-194c-2-4-6-7-10-7z m-292-33c-1 0-1 0-1 0-6 0-11 6-10 11 3 35 38 43 39 43 6 2 12-2 13-8 1-5-2-11-8-12-1-1-21-6-23-24 0-6-5-10-10-10z m310 0c-5 0-10 4-10 10-2 18-22 23-23 24-6 1-9 7-8 12 2 6 7 10 13 8 1 0 36-8 39-43 1-5-4-11-10-11 0 0 0 0-1 0z m-347 232c-5 0-10 5-10 11l0 143c0 20 11 46 26 59l63 57c8 8 19 11 29 10 11-1 20-7 27-16l25-34c3-5 2-12-3-15-5-4-11-3-15 2l-24 34c-3 4-7 7-12 8-5 0-9-1-13-5l-63-57c-10-8-19-29-19-43l0-143c0-6-5-11-11-11z m217 150l-116 0c-5 0-10 5-10 11 0 40 31 73 68 73 38 0 69-33 69-73 0-6-5-11-11-11z m-104 22l93 0c-5 23-24 41-47 41-22 0-41-18-46-41z m-12-72c-5 0-10 5-10 10l0 30c0 6 5 11 10 11 6 0 11-5 11-11l0-30c0-5-5-10-11-10z m58 0c-6 0-10 5-10 10l0 30c0 6 4 11 10 11 6 0 11-5 11-11l0-30c0-5-5-10-11-10z m58 0c-6 0-10 5-10 10l0 30c0 6 4 11 10 11 6 0 11-5 11-11l0-30c0-5-5-10-11-10z m-87-42c-6 0-10 5-10 11l0 30c0 6 4 10 10 10 6 0 11-4 11-10l0-30c0-6-5-11-11-11z m58 0c-6 0-10 5-10 11l0 30c0 6 4 10 10 10 6 0 11-4 11-10l0-30c0-6-5-11-11-11z"/>
<glyph unicode="&#90;" d="M501 0c-6 0-10 5-10 11l0 198-470 0 0-198c0-6-4-11-10-11-6 0-11 5-11 11l0 209c0 6 5 10 11 10l490 0c6 0 11-4 11-10l0-209c0-6-5-11-11-11z m-119 105l-252 0c-6 0-11 4-11 10 0 6 5 11 11 11l252 0c6 0 11-5 11-11 0-6-5-10-11-10z m-247-55l-124 0c-6 0-11 5-11 10 0 6 5 11 11 11l119 0 36 44c4 5 11 6 16 2 4-4 5-11 1-15l-39-48c-2-3-5-4-9-4z m366 0l-124 0c-4 0-7 1-9 4l-39 48c-4 4-3 11 1 15 5 4 12 3 15-2l37-44 119 0c6 0 11-5 11-11 0-5-5-10-11-10z m0 223l-490 0c-6 0-11 4-11 10l0 218c0 6 5 11 11 11l490 0c6 0 11-5 11-11l0-218c0-6-5-10-11-10z m-480 21l470 0 0 197-470 0z m235-68c-6 0-11 5-11 11l0 46c0 6 5 11 11 11 6 0 11-5 11-11l0-46c0-6-5-11-11-11z m67 0l-134 0c-6 0-11 5-11 11 0 6 5 11 11 11l134 0c6 0 11-5 11-11 0-6-5-11-11-11z"/>
<glyph unicode="&#48;" d="M11 118c-6 0-11 5-11 11l0 254c0 6 5 11 11 11 6 0 10-5 10-11l0-254c0-6-4-11-10-11z m490 0c-6 0-10 5-10 11l0 173c0 6 4 11 10 11 6 0 11-5 11-11l0-173c0-6-5-11-11-11z m-381 53l-109 0c-6 0-11 5-11 10 0 6 5 11 11 11l109 0c6 0 10-5 10-11 0-5-4-10-10-10z m381 0l-65 0c-5 0-10 5-10 10 0 6 5 11 10 11l65 0c6 0 11-5 11-11 0-5-5-10-11-10z m0 91l-490 0c-6 0-11 5-11 11 0 6 5 10 11 10l490 0c6 0 11-4 11-10 0-6-5-11-11-11z m-359 29c-4 0-8 0-12 2l-64 16c-24 6-38 29-33 50 5 17 22 29 41 29 4 0 8 0 12-1l64-17c11-3 21-9 27-19 7-9 9-20 6-31-5-17-21-29-41-29z m-68 76c-10 0-18-5-20-13-3-10 5-21 17-24l64-17c2 0 5-1 7-1 10 0 18 6 20 14 1 4 0 9-3 14-3 4-8 8-14 10l-64 16c-2 1-5 1-7 1z m362-231l-316 0c-6 0-11 5-11 11l0 126c0 6 5 10 11 10l316 0c6 0 11-4 11-10l0-126c0-6-5-11-11-11z m-306 21l296 0 0 105-296 0z"/>
<glyph unicode="&#49;" d="M398 298c-5 0-10 5-10 11l0 3c0 68-48 124-106 124l-52 0c-58 0-106-56-106-124l0-3c0-6-5-11-10-11-6 0-11 5-11 11l0 3c0 80 57 145 127 145l52 0c70 0 127-65 127-145l0-3c0-6-5-11-11-11z m104-113c-1 0-1 0-1 0l-490 0c-5 0-8 3-10 7-2 4-1 8 2 11l103 113c2 3 5 4 8 4l284 0c3 0 6-1 8-4l102-111c3-2 4-5 4-9 0-6-5-11-10-11z m-467 22l442 0-83 91-276 0z m-24-152c-6 0-11 5-11 11l0 130c0 6 5 11 11 11 6 0 10-5 10-11l0-130c0-6-4-11-10-11z m490 0c-6 0-10 5-10 11l0 130c0 6 4 11 10 11 6 0 11-5 11-11l0-130c0-6-5-11-11-11z m0 40l-490 0c-6 0-11 5-11 11 0 6 5 11 11 11l490 0c6 0 11-5 11-11 0-6-5-11-11-11z m-222 203l-46 0c-33 0-59 24-59 52 0 29 26 53 59 53l46 0c33 0 59-24 59-53 0-28-26-52-59-52z m-46 83c-21 0-38-14-38-31 0-16 17-30 38-30l46 0c21 0 38 14 38 30 0 17-17 31-38 31z"/>
<glyph unicode="&#50;" d="M445 48l-320 0c-19 0-37 8-50 22-12 14-18 32-16 51 19 168-50 291-50 292-9 15-11 33-7 50 5 17 16 31 32 40 31 18 72 7 91-24 2-3 49-85 65-210 1-6-3-11-9-12-6-1-11 3-12 9-16 121-61 199-63 202-12 22-40 29-62 17-10-6-18-16-21-28-3-11-2-23 4-34 3-5 73-130 53-304-2-13 3-26 11-35 9-10 21-15 34-15l320 0c25 0 46 20 46 45 0 25-21 45-46 45l-226 0c-6 0-10 4-10 10 0 6 4 11 10 11l226 0c37 0 67-30 67-66 0-37-30-66-67-66z m-3 111l-239 0c-28 0-50 22-50 50l0 27c0 27 22 50 50 50l239 0c28 0 51-23 51-50l0-27c0-28-23-50-51-50z m-239 106c-16 0-29-13-29-29l0-27c0-16 13-29 29-29l239 0c16 0 29 13 29 29l0 27c0 16-13 29-29 29z m-52-265c-6 0-11 5-11 11l0 47c0 6 5 11 11 11 6 0 11-5 11-11l0-47c0-6-5-11-11-11z m268 0c-6 0-10 5-10 11l0 47c0 6 4 11 10 11 6 0 11-5 11-11l0-47c0-6-5-11-11-11z"/>
<glyph unicode="&#51;" d="M202 32l-191 0c-6 0-11 4-11 10l0 207c0 6 5 11 11 11l191 0c5 0 10-5 10-11l0-207c0-6-5-10-10-10z m-181 21l170 0 0 186-170 0z m480-21l-191 0c-5 0-10 4-10 10l0 207c0 6 5 11 10 11l191 0c6 0 11-5 11-11l0-207c0-6-5-10-11-10z m-180 21l170 0 0 186-170 0z m-11-21l-108 0c-6 0-11 4-11 10l0 207c0 6 5 11 11 11l108 0c6 0 11-5 11-11l0-207c0-6-5-10-11-10z m-98 21l88 0 0 186-88 0z m-166-53c-6 0-10 5-10 11l0 27c0 6 4 10 10 10 6 0 11-4 11-10l0-27c0-6-5-11-11-11z m420 0c-6 0-11 5-11 11l0 27c0 6 5 10 11 10 6 0 10-4 10-10l0-27c0-6-4-11-10-11z m-314 125c-6 0-11 4-11 10l0 27c0 6 5 11 11 11 6 0 10-5 10-11l0-27c0-5-4-10-10-10z m208 0c-6 0-10 4-10 10l0 27c0 6 4 11 10 11 6 0 11-5 11-11l0-27c0-5-5-10-11-10z m141 114l-490 0c-6 0-11 5-11 10l0 126c0 6 5 11 11 11l490 0c6 0 11-5 11-11l0-126c0-5-5-10-11-10z m-480 21l470 0 0 105-470 0z m251 47l-32 0c-6 0-11 4-11 10 0 6 5 11 11 11l32 0c6 0 11-5 11-11 0-6-5-10-11-10z m229 58l-490 0c-6 0-11 5-11 10l0 126c0 6 5 11 11 11l490 0c6 0 11-5 11-11l0-126c0-5-5-10-11-10z m-480 21l470 0 0 105-470 0z m251 47l-32 0c-6 0-11 4-11 10 0 6 5 11 11 11l32 0c6 0 11-5 11-11 0-6-5-10-11-10z"/>
<glyph unicode="&#52;" d="M111 0c0 0 0 0 0 0-6 0-11 5-10 11l29 491c1 6 6 11 12 10 5 0 10-5 10-11l-30-491c0-6-5-10-11-10z m200 0c-6 0-10 4-11 10l-29 491c-1 6 4 11 10 11 5 0 11-4 11-10l30-491c0-6-5-11-10-11-1 0-1 0-1 0z m-30 426l-137 0c-6 0-10 5-10 11 0 5 4 10 10 10l137 0c6 0 11-5 11-10 0-6-5-11-11-11z m6-113l-152 0c-6 0-11 5-11 11 0 5 5 10 11 10l152 0c6 0 11-5 11-10 0-6-5-11-11-11z m9-113l-170 0c-6 0-11 5-11 11 0 5 5 10 11 10l170 0c6 0 11-5 11-10 0-6-5-11-11-11z m8-113l-186 0c-6 0-11 5-11 11 0 5 5 10 11 10l186 0c6 0 11-5 11-10 0-6-5-11-11-11z m97 28c-4 0-7 2-9 6l-188 310c-3 5-2 12 3 15 5 3 12 1 15-4l188-310c3-5 1-12-4-15-2-1-3-2-5-2z"/>
<glyph unicode="&#53;" d="M228 77l-167 0c-6 0-11 5-11 10l0 246c0 5 5 10 11 10l167 0c6 0 11-5 11-10l0-246c0-5-5-10-11-10z m-157 21l147 0 0 224-147 0z m157-88l-167 0c-6 0-11 4-11 10l0 67c0 6 5 11 11 11l167 0c6 0 11-5 11-11l0-67c0-6-5-10-11-10z m-157 21l147 0 0 46-147 0z m157 291l-167 0c-6 0-11 5-11 11l0 168c0 6 5 11 11 11l167 0c6 0 11-5 11-11l0-168c0-6-5-11-11-11z m-157 21l147 0 0 148-147 0z m74-168c-6 0-11 5-11 11l0 139c0 6 5 11 11 11 5 0 10-5 10-11l0-139c0-6-5-11-10-11z m0-63c-24 0-43 19-43 42 0 24 19 43 43 43 23 0 42-19 42-43 0-23-19-42-42-42z m0 63c-12 0-21-9-21-21 0-11 9-21 21-21 11 0 21 10 21 21 0 12-10 21-21 21z m306-175c-6 0-10 5-10 11l0 109-105 0 0-109c0-6-4-11-10-11-6 0-11 5-11 11l0 120c0 6 5 11 11 11l125 0c6 0 11-5 11-11l0-120c0-6-5-11-11-11z m-20 130c-1 0-1 1-2 1-6 1-10 7-8 13l20 85c-1 16-14 29-30 29l-45 0c-16 0-29-13-30-29l20-85c1-6-2-12-8-13-6-2-11 2-13 8l-20 87c0 0 0 1 0 2 0 28 23 51 51 51l45 0c28 0 51-23 51-51 0-1 0-2 0-2l-20-87c-2-5-6-9-11-9z m18-62l-121 0c-6 0-10 5-10 11 0 5 4 10 10 10l121 0c6 0 10-5 10-10 0-6-4-11-10-11z"/>
<glyph unicode="&#54;" d="M463 0l-414 0c-6 0-11 5-11 11 0 6 5 10 11 10l414 0c6 0 11-4 11-10 0-6-5-11-11-11z m-65 0l-284 0c-6 0-11 5-11 11l0 490c0 6 5 11 11 11l284 0c6 0 11-5 11-11l0-490c0-6-5-11-11-11z m-273 21l262 0 0 470-262 0z m115 224l-59 0c-6 0-11 5-11 11 0 6 5 11 11 11l59 0c6 0 11-5 11-11 0-6-5-11-11-11z"/>
<glyph unicode="&#55;" d="M501 0l-490 0c-6 0-11 5-11 11l0 490c0 6 5 11 11 11l490 0c6 0 11-5 11-11l0-490c0-6-5-11-11-11z m-480 21l470 0 0 470-470 0z m474 224l-479 0c-6 0-11 5-11 11 0 6 5 11 11 11l479 0c6 0 11-5 11-11 0-6-5-11-11-11z m-348 5c-6 0-11 5-11 10l0 237c0 6 5 11 11 11 6 0 11-5 11-11l0-237c0-5-5-10-11-10z m218-246c-6 0-11 5-11 11l0 237c0 5 5 10 11 10 6 0 11-5 11-10l0-237c0-6-5-11-11-11z m-142 376l-25 0c-6 0-11 5-11 11 0 6 5 10 11 10l25 0c6 0 11-4 11-10 0-6-5-11-11-11z m87-257l-25 0c-6 0-11 4-11 10 0 6 5 11 11 11l25 0c5 0 10-5 10-11 0-6-5-10-10-10z"/>
<glyph unicode="&#56;" d="M155 0l-144 0c-6 0-11 5-11 11l0 190c0 6 5 10 11 10l144 0c6 0 11-4 11-10l0-190c0-6-5-11-11-11z m-134 21l123 0 0 169-123 0z m480-21l-144 0c-6 0-11 5-11 11l0 190c0 6 5 10 11 10l144 0c6 0 11-4 11-10l0-190c0-6-5-11-11-11z m-133 21l123 0 0 169-123 0z m-11-21l-202 0c-6 0-11 5-11 11l0 190c0 6 5 10 11 10l202 0c6 0 11-4 11-10l0-190c0-6-5-11-11-11z m-191 21l180 0 0 169-180 0z m183 120l-186 0c-6 0-11 4-11 10 0 6 5 11 11 11l186 0c6 0 11-5 11-11 0-6-5-10-11-10z m-52-90l-82 0c-6 0-10 5-10 11l0 44c0 6 4 11 10 11l82 0c6 0 10-5 10-11l0-44c0-6-4-11-10-11z m-71 21l60 0 0 24-60 0z m40 261l-183 0c-5 0-9 3-10 7-2 4 0 9 3 12l109 88 0 61c0 6 5 11 11 11 6 0 10-5 10-11l0-66c0-3-1-6-4-8l-89-73 153 0c6 0 11-5 11-10 0-6-5-11-11-11z m163 0l-183 0c-6 0-11 5-11 11 0 5 5 10 11 10l153 0-89 73c-3 2-4 5-4 8l0 66c0 6 4 11 10 11 6 0 11-5 11-11l0-61 109-88c3-3 5-8 3-12-1-4-5-7-10-7z"/>
<glyph unicode="&#57;" d="M501 400l-490 0c-6 0-11 5-11 11 0 6 5 11 11 11l490 0c6 0 11-5 11-11 0-6-5-11-11-11z m-36-263l-418 0c-6 0-11 5-11 11l0 263c0 6 5 11 11 11l418 0c6 0 11-5 11-11l0-263c0-6-5-11-11-11z m-407 22l396 0 0 241-396 0z m-11-69c-6 0-11 5-11 11l0 123c0 6 5 10 11 10 6 0 11-4 11-10l0-123c0-6-5-11-11-11z m418 0c-6 0-11 5-11 11l0 123c0 6 5 10 11 10 6 0 11-4 11-10l0-123c0-6-5-11-11-11z m-283 47c-6 0-11 5-11 11l0 263c0 6 5 11 11 11 6 0 11-5 11-11l0-263c0-6-5-11-11-11z m-55 112c-5 0-10 5-10 11l0 59c0 5 5 10 10 10 6 0 11-5 11-10l0-59c0-6-5-11-11-11z m237 99l-63 0c-6 0-11 4-11 10 0 6 5 11 11 11l63 0c6 0 11-5 11-11 0-6-5-10-11-10z"/>
<glyph unicode="&#33;" d="M11 0c-6 0-11 5-11 11l0 456c0 6 5 11 11 11 6 0 10-5 10-11l0-456c0-6-4-11-10-11z m249 0c-6 0-10 5-10 11l0 456c0 6 4 11 10 11 6 0 11-5 11-11l0-456c0-6-5-11-11-11z m-125 196c-74 0-135 71-135 158 0 87 61 158 135 158 75 0 136-71 136-158 0-87-61-158-136-158z m0 295c-62 0-114-62-114-137 0-75 52-136 114-136 63 0 115 61 115 136 0 75-52 137-115 137z m125-349l-249 0c-6 0-11 5-11 11 0 6 5 11 11 11l249 0c6 0 11-5 11-11 0-6-5-11-11-11z m0-112l-249 0c-6 0-11 5-11 11 0 6 5 11 11 11l249 0c6 0 11-5 11-11 0-6-5-11-11-11z m218 130l-143 0c-6 0-11 5-11 11 0 6 5 10 11 10l143 0c6 0 11-4 11-10 0-6-5-11-11-11z m-167-160c-1 0-2 0-3 0-5 2-8 8-7 14l44 151c2 6 8 9 13 8 6-2 9-8 7-13l-43-152c-2-5-6-8-11-8z m190 0c-4 0-9 3-10 8l-44 152c-1 5 2 11 8 13 5 1 11-2 13-8l44-151c1-6-2-12-8-14-1 0-2 0-3 0z"/>
<glyph unicode="&#34;" d="M462 0l-412 0c-6 0-11 5-11 11l0 182c0 6 5 10 11 10l412 0c6 0 11-4 11-10l0-182c0-6-5-11-11-11z m-401 21l390 0 0 161-390 0z m440 161l-490 0c-6 0-11 5-11 11 0 6 5 10 11 10l490 0c6 0 11-4 11-10 0-6-5-11-11-11z m-182-95l-126 0c-6 0-11 5-11 11 0 6 5 11 11 11l126 0c6 0 11-5 11-11 0-6-5-11-11-11z m-130-87c-6 0-10 5-10 11l0 175c0 5 4 10 10 10 6 0 11-5 11-10l0-175c0-6-5-11-11-11z m134 0c-6 0-11 5-11 11l0 175c0 5 5 10 11 10 6 0 10-5 10-10l0-175c0-6-4-11-10-11z m-175 82c-6 0-11 4-11 10l0 19c0 6 5 10 11 10 5 0 10-4 10-10l0-19c0-6-5-10-10-10z m217 0c-6 0-11 4-11 10l0 19c0 6 5 10 11 10 5 0 10-4 10-10l0-19c0-6-5-10-10-10z m-39 181l-140 0c-6 0-11 5-11 10l0 228c0 6 5 11 11 11l140 0c6 0 11-5 11-11l0-228c0-5-5-10-11-10z m-129 21l118 0 0 207-118 0z m129-21l-140 0c-6 0-11 5-11 10l0 228c0 6 5 11 11 11l140 0c6 0 11-5 11-11l0-228c0-5-5-10-11-10z m-129 21l118 0 0 207-118 0z m-11-21l-140 0c-6 0-11 5-11 10l0 188c0 5 3 9 8 10l140 41c3 1 7 0 9-2 3-2 5-5 5-9l0-228c0-5-5-10-11-10z m-130 21l119 0 0 203-119-34z m410-21l-140 0c-6 0-11 5-11 10l0 228c0 4 2 7 5 9 2 2 6 3 9 2l140-41c5-1 8-5 8-10l0-188c0-5-5-10-11-10z m-129 21l119 0 0 169-119 34z"/>
<glyph unicode="&#35;" d="M429 0l-346 0c-24 0-44 18-44 41l0 174c0 22 20 41 44 41l346 0c24 0 44-19 44-41l0-174c0-23-20-41-44-41z m-346 234c-12 0-23-9-23-19l0-174c0-11 11-20 23-20l346 0c12 0 23 9 23 20l0 174c0 10-11 19-23 19z m173-234c-6 0-11 5-11 11l0 234c0 6 5 11 11 11 6 0 11-5 11-11l0-234c0-6-5-11-11-11z m-71 113c-6 0-11 5-11 11l0 37c0 6 5 11 11 11 5 0 10-5 10-11l0-37c0-6-5-11-10-11z m142 0c-5 0-10 5-10 11l0 37c0 6 5 11 10 11 6 0 11-5 11-11l0-37c0-6-5-11-11-11z m90 121l-316 0c-6 0-10 5-10 11l0 256c0 6 4 11 10 11l316 0c6 0 11-5 11-11l0-256c0-6-5-11-11-11z m-305 22l295 0 0 235-295 0z m144-11c-1 0-3 0-4 1-6 2-8 8-6 14 6 13 17 50 2 68-17 19-54-2-54-2-5-3-12-2-15 3-3 5-1 12 4 15 2 1 52 31 81-2 28-31 3-88 2-91-2-4-6-6-10-6z m5 3c-2 0-4 1-6 2l-44 26c-5 3-7 10-4 15 3 5 10 6 15 3l39-23 35 23c5 3 12 2 15-3 3-5 2-12-3-15l-41-26c-2-1-4-2-6-2z"/>
<glyph unicode="&#36;" d="M459 0l-406 0c-29 0-53 22-53 50l0 412c0 28 24 50 53 50l406 0c29 0 53-22 53-50l0-412c0-28-24-50-53-50z m-406 491c-17 0-32-13-32-29l0-412c0-16 15-29 32-29l406 0c17 0 32 13 32 29l0 412c0 16-15 29-32 29z m203-491c-6 0-11 5-11 11l0 490c0 6 5 11 11 11 6 0 11-5 11-11l0-490c0-6-5-11-11-11z m245 245l-490 0c-6 0-11 5-11 11 0 6 5 11 11 11l490 0c6 0 11-5 11-11 0-6-5-11-11-11z m-290 124l-34 0c-6 0-11 5-11 11 0 6 5 10 11 10l34 0c6 0 11-4 11-10 0-6-5-11-11-11z m124 0l-34 0c-6 0-11 5-11 11 0 6 5 10 11 10l34 0c6 0 11-4 11-10 0-6-5-11-11-11z m-124-254l-34 0c-6 0-11 4-11 10 0 6 5 11 11 11l34 0c6 0 11-5 11-11 0-6-5-10-11-10z m124 0l-34 0c-6 0-11 4-11 10 0 6 5 11 11 11l34 0c6 0 11-5 11-11 0-6-5-10-11-10z"/>
<glyph unicode="&#37;" d="M280 213l-48 0c-6 0-11 5-11 10 0 6 5 11 11 11l48 0c6 0 11-5 11-11 0-5-5-10-11-10z m-186 0l-83 0c-6 0-11 5-11 10 0 6 5 11 11 11l83 0c6 0 11-5 11-11 0-5-5-10-11-10z m407 0l-83 0c-6 0-11 5-11 10 0 6 5 11 11 11l83 0c6 0 11-5 11-11 0-5-5-10-11-10z m-466-206c-5 0-10 5-10 11l0 205c0 6 5 11 10 11 6 0 11-5 11-11l0-205c0-6-5-11-11-11z m442 0c-6 0-11 5-11 11l0 205c0 6 5 11 11 11 5 0 10-5 10-11l0-205c0-6-5-11-10-11z m-352 116c-5 0-9 2-10 7-2 4-38 96-43 131-3 20 3 40 16 56 15 17 36 28 58 28l29 0c21 0 43-11 57-28 14-16 20-36 17-56-6-35-41-127-43-131-2-6-8-9-14-7-5 3-8 9-6 14 1 1 37 95 42 127 2 14-2 28-12 39-10 13-26 20-41 20l-29 0c-15 0-31-7-41-20-10-11-14-25-12-39 5-32 41-126 42-127 2-5-1-11-7-14-1 0-2 0-3 0z m191 0c-4 0-8 2-10 7-2 4-37 96-43 131-3 20 3 40 17 56 14 17 36 28 57 28l29 0c22 0 43-11 58-28 13-16 19-36 16-56-5-35-41-128-43-131-2-6-8-9-13-7-6 3-9 9-7 14 1 1 37 95 42 127 2 14-2 28-12 39-10 13-26 20-41 20l-29 0c-15 0-31-7-41-20-10-11-14-25-12-39 5-32 41-126 42-127 2-5-1-11-6-14-2 0-3 0-4 0z m-92-123c-6 0-11 5-11 11l0 112-105 0 0-112c0-6-5-11-11-11-6 0-11 5-11 11l0 122c0 6 5 11 11 11l127 0c6 0 10-5 10-11l0-122c0-6-4-11-10-11z m191 0c-6 0-11 5-11 11l0 112-105 0 0-112c0-6-5-11-11-11-6 0-10 5-10 11l0 122c0 6 4 11 10 11l127 0c6 0 11-5 11-11l0-122c0-6-5-11-11-11z m-159 357c-44 0-79 35-79 77 0 43 35 78 79 78 44 0 79-35 79-78 0-42-35-77-79-77z m0 134c-32 0-58-26-58-57 0-31 26-56 58-56 32 0 58 25 58 56 0 31-26 57-58 57z m-23-88c-3 0-6 1-8 4-4 5-3 11 2 15l18 15 0 41c0 6 5 11 11 11 6 0 11-5 11-11l0-46c0-4-2-7-4-9l-23-18c-2-1-4-2-7-2z"/>
<glyph unicode="&#38;" d="M256 79l-186 0c-6 0-11 5-11 11l0 103c0 6 5 10 11 10l186 0c6 0 11-4 11-10l0-103c0-6-5-11-11-11z m-176 22l165 0 0 81-165 0z m362-22l-186 0c-6 0-11 5-11 11l0 103c0 6 5 10 11 10l186 0c6 0 11-4 11-10l0-103c0-6-5-11-11-11z m-175 22l165 0 0 81-165 0z m175-101c-6 0-10 5-10 11l0 403-42 0c-4 0-8 2-9 6-19 42-69 71-126 71-57 0-107-29-125-71-2-4-6-6-10-6l-40 0 0-403c0-6-4-11-10-11-6 0-11 5-11 11l0 413c0 6 5 11 11 11l43 0c24 46 80 77 142 77 63 0 119-31 142-77l45 0c6 0 11-5 11-11l0-413c0-6-5-11-11-11z m-299 295c-3 0-6 1-8 3-4 4-4 11 0 15l91 92c4 5 11 5 15 1 4-5 4-11 0-16l-91-92c-2-2-5-3-7-3z m67 5c-2 0-5 1-7 3-4 4-4 11 0 15l91 93c4 4 11 4 15 0 4-4 4-11 0-15l-91-93c-2-2-5-3-8-3z m0-73c-2 0-5 1-7 3-4 4-4 11 0 15l91 92c4 5 11 5 15 1 4-5 4-11 0-15l-91-93c-2-2-5-3-8-3z"/>
<glyph unicode="&#39;" d="M123 33c-1 0-2 0-3 0-5 1-9 7-8 13l40 179-134 272c-3 5-1 11 5 14 5 3 11 0 14-5l136-275c1-2 1-4 1-7l-41-183c-1-5-5-8-10-8z m277 0c-4 0-9 3-10 8l-40 183c-2 6 2 12 8 13 5 1 11-2 12-8l41-183c1-6-2-12-8-13-1 0-2 0-3 0z m18 183l-255 0c-6 0-11 5-11 11 0 5 5 10 11 10l255 0c6 0 11-5 11-10 0-6-5-11-11-11z m-151-215c-148 0-261 76-262 77-5 4-6 10-3 15 3 5 10 6 15 3 2-2 244-166 478 0 5 3 12 2 15-3 3-5 2-11-2-15-83-58-166-77-241-77z"/>
<glyph unicode="&#40;" d="M11 42c-6 0-11 5-11 11l0 343c0 6 5 11 11 11 6 0 10-5 10-11l0-343c0-6-4-11-10-11z m65 50c-6 0-11 5-11 11l0 253c0 6 5 11 11 11 6 0 11-5 11-11l0-253c0-6-5-11-11-11z m72 0c-6 0-11 5-11 11l0 253c0 6 5 11 11 11 6 0 11-5 11-11l0-253c0-6-5-11-11-11z m72 0c-6 0-11 5-11 11l0 253c0 6 5 11 11 11 6 0 11-5 11-11l0-253c0-6-5-11-11-11z m72 0c-6 0-11 5-11 11l0 253c0 6 5 11 11 11 6 0 11-5 11-11l0-253c0-6-5-11-11-11z m72 0c-6 0-11 5-11 11l0 253c0 6 5 11 11 11 6 0 11-5 11-11l0-253c0-6-5-11-11-11z m72 0c-6 0-11 5-11 11l0 253c0 6 5 11 11 11 6 0 11-5 11-11l0-253c0-6-5-11-11-11z m-425 339c-6 0-11 5-11 11l0 17c0 6 5 11 11 11 6 0 10-5 10-11l0-17c0-6-4-11-10-11z m490-389c-6 0-10 5-10 11l0 343c0 6 4 11 10 11 6 0 11-5 11-11l0-343c0-6-5-11-11-11z m0 389c-6 0-10 5-10 11l0 17c0 6 4 11 10 11 6 0 11-5 11-11l0-17c0-6-5-11-11-11z m0-339l-490 0c-6 0-11 5-11 11 0 6 5 10 11 10l490 0c6 0 11-4 11-10 0-6-5-11-11-11z m0 253l-490 0c-6 0-11 5-11 11 0 6 5 11 11 11l490 0c6 0 11-5 11-11 0-6-5-11-11-11z"/>
<glyph unicode="&#41;" d="M373 215l-234 0c-33 0-59 27-59 59l0 179c0 33 26 59 59 59l234 0c33 0 59-26 59-59l0-179c0-32-26-59-59-59z m-234 276c-21 0-37-17-37-38l0-179c0-21 16-37 37-37l234 0c21 0 37 16 37 37l0 179c0 21-16 38-37 38z m282-343l-330 0c-6 0-11 5-11 10l0 68c0 6 5 11 11 11l330 0c6 0 11-5 11-11l0-68c0-5-5-10-11-10z m-319 21l308 0 0 46-308 0z m319-169l-330 0c-6 0-11 5-11 11 0 6 5 10 11 10l330 0c6 0 11-4 11-10 0-6-5-11-11-11z m-330 0c-6 0-11 5-11 11l0 147c0 6 5 11 11 11 6 0 11-5 11-11l0-147c0-6-5-11-11-11z m165 0c-6 0-11 5-11 11l0 147c0 6 5 11 11 11 6 0 11-5 11-11l0-147c0-6-5-11-11-11z m165 0c-6 0-11 5-11 11l0 147c0 6 5 11 11 11 6 0 11-5 11-11l0-147c0-6-5-11-11-11z m-152 182l-26 0c-5 0-10 4-10 10 0 6 5 11 10 11l26 0c6 0 10-5 10-11 0-6-5-10-10-10z m-54-121c-6 0-11 5-11 11l0 25c0 6 5 11 11 11 6 0 10-5 10-11l0-25c0-6-4-11-10-11z m82 0c-6 0-10 5-10 11l0 25c0 6 4 11 10 11 6 0 11-5 11-11l0-25c0-6-5-11-11-11z"/>
<glyph unicode="&#42;" d="M251 244c-3 0-8 1-14 7l-175 178c-6 6-8 13-6 20 3 6 9 10 17 11l93 11c6 1 16 6 20 10l21 20c9 10 26 10 36 0 1-1 3-2 6 1l2 3c10 9 27 9 37-1l28-29c5-5 8-11 8-18 0-7-3-13-8-18l-3-3c-2-2-2-4 0-6 4-5 7-11 7-18-1-7-3-13-8-18l-21-20c-4-4-9-14-10-20l-13-93c-2-12-10-17-17-17z m-169 196l166-170 12 87c1 11 8 25 16 32l21 20c1 2 1 3 1 4 0 0 0 1-1 2-9 10-9 26 1 36l3 3c1 1 1 3 1 3 0 1 0 2-1 3l-28 29c-3 3-4 3-7 0l-2-2c-10-10-27-10-37-1-1 2-3 2-5 0l-21-20c-8-8-22-15-32-16z m75-144c-13 0-26 5-37 16-19 20-19 52 1 72 4 4 11 4 15 0 4-4 4-11 0-15-12-12-12-31 0-42 11-12 30-12 42-1 4 4 11 4 15 0 4-4 4-11 0-15-10-10-23-15-36-15z m242-87c-32 0-58 26-58 58 0 32 26 58 58 58 32 0 58-26 58-58 0-32-26-58-58-58z m0 94c-20 0-37-16-37-36 0-21 17-37 37-37 20 0 36 16 36 37 0 20-16 36-36 36z m-32-12c-2 0-5 1-7 3l-84 79c-4 4-4 11 0 15 4 4 11 4 15 0l84-78c4-4 4-11 0-15-2-3-5-4-8-4z m-83-237c-2 0-4 1-6 2-5 3-7 9-4 14l90 155c2 5 9 7 14 4 5-3 7-10 4-15l-89-154c-2-4-6-6-9-6z m162-54l-339 0c-6 0-11 5-11 11 0 42 91 65 180 65 47 0 90-6 123-17 48-15 58-35 58-48 0-6-5-11-11-11z m-322 21l305 0c-7 6-18 12-36 18-31 10-72 15-117 15-78 0-134-17-152-33z"/>
<glyph unicode="&#43;" d="M54 82c-3 0-5 1-7 2-4 3-6 10-2 15 1 1 22 33 7 68-18 39 1 66 14 75 2 2 4 2 6 2l220 0c6 0 10-4 10-10 0-6-4-11-10-11l-216 0c-5-5-17-21-5-47 21-46-7-88-9-89-2-3-5-5-8-5z m447 0c-3 0-7 2-9 5-1 1-29 43-9 89 12 26 1 42-4 47l-216 0c-6 0-11 5-11 11 0 6 5 10 11 10l220 0c2 0 4 0 6-2 12-9 31-36 14-75-16-35 6-68 7-68 3-5 2-12-3-15-2-1-4-2-6-2z m-16 181l-413 0c-6 0-10 4-11 10-8 81-52 99-54 100-5 2-8 8-6 13 2 6 8 9 13 7 1-1 5-2 11-6 1 2 2 3 3 4 2 1 49 39 125 39 40 0 100-18 158-35 52-15 106-31 137-31 41 0 55-20 60-32 10-24 0-51-15-66-2-2-5-3-8-3z m-404 22l400 0c8 10 13 26 8 39-7 15-26 19-41 19-34 0-87 15-143 32-57 16-115 34-152 34-68 0-111-34-112-35 0 0 0 0 0 0 16-15 34-43 40-89z"/>
<glyph unicode="&#44;" d="M473 0l-451 0c-6 0-11 5-11 11l0 64c0 6 5 11 11 11l74 0 0 53c0 6 5 11 11 11l81 0 0 53c0 6 4 11 10 11l81 0 0 54c0 6 5 10 11 10l80 0 0 54c0 6 5 11 11 11l92 0c5 0 10-5 10-11l0-321c0-6-5-11-10-11z m-441 21l430 0 0 300-70 0 0-53c0-6-5-11-11-11l-81 0 0-53c0-6-4-11-10-11l-81 0 0-54c0-6-5-10-11-10l-81 0 0-54c0-6-4-11-10-11l-75 0z m282 240c-6 0-11 5-11 11l0 162c0 6 5 11 11 11 6 0 11-5 11-11l0-162c0-6-5-11-11-11z m-89-68c-6 0-11 5-11 11l0 164c0 6 5 11 11 11 6 0 10-5 10-11l0-164c0-6-4-11-10-11z m-89-64c-6 0-11 4-11 10l0 163c0 6 5 11 11 11 5 0 10-5 10-11l0-163c0-6-5-10-10-10z m-90-65c-6 0-10 5-10 11l0 161c0 6 4 11 10 11 6 0 11-5 11-11l0-161c0-6-5-11-11-11z m357 257c-6 0-10 5-10 11l0 169c0 6 4 11 10 11l98 0c6 0 11-5 11-11 0-6-5-10-11-10l-87 0 0-159c0-6-5-11-11-11z m-392-123c-4 0-7 1-9 4-3 4-2 11 2 15l387 293c4 3 11 2 15-2 3-5 2-12-2-15l-387-293c-2-2-4-2-6-2z"/>
<glyph unicode="&#45;" d="M104 53c-5 0-9 3-11 7-1 6 2 12 7 14 107 32 127 200 128 202 0 5 6 10 11 9 6-1 11-6 10-12-1-7-23-183-142-220-1 0-2 0-3 0z m304 0c-1 0-2 0-3 0-119 37-141 213-142 220-1 6 4 11 10 12 6 1 11-4 11-9 1-2 21-170 128-202 5-2 8-8 7-14-2-4-6-7-11-7z m93 385l-490 0c-6 0-11 5-11 11 0 6 5 10 11 10l490 0c6 0 11-4 11-10 0-6-5-11-11-11z m-245-164c-6 0-11 5-11 11l0 152c0 5 5 10 11 10 6 0 11-5 11-10l0-152c0-6-5-11-11-11z"/>
<glyph unicode="&#46;" d="M364 491l-216 0c-6 0-11 4-11 10 0 6 5 11 11 11l216 0c6 0 11-5 11-11 0-6-5-10-11-10z m-234-491c0 0-1 0-1 0-6 1-10 6-10 12l51 478c1 6 6 10 12 10 6-1 10-6 10-12l-51-478c-1-6-6-10-11-10z m252 0c-5 0-10 4-11 10l-51 478c0 6 4 11 10 12 6 0 11-4 12-10l51-478c0-6-4-11-10-12 0 0-1 0-1 0z m-19 117l-214 0c-6 0-11 4-11 10 0 6 5 11 11 11l214 0c6 0 11-5 11-11 0-6-5-10-11-10z"/>
<glyph unicode="&#47;" d="M402 284l-292 0c-6 0-11 5-11 11 0 6 5 11 11 11l292 0c6 0 11-5 11-11 0-6-5-11-11-11z m-146-160c-6 0-11 4-11 10l0 161c0 6 5 11 11 11 6 0 11-5 11-11l0-161c0-6-5-10-11-10z m-76-32c-4 0-8 2-10 6-2 6 1 12 6 14l76 32c5 2 12 0 14-6 2-5 0-11-6-14l-76-31c-1-1-2-1-4-1z m152 0c-2 0-3 0-4 1l-76 31c-6 3-8 9-6 14 2 6 9 8 14 6l76-32c5-2 8-8 6-14-2-4-6-6-10-6z m-76 0c-6 0-11 5-11 11l0 26c0 6 5 11 11 11 6 0 11-5 11-11l0-26c0-6-5-11-11-11z m-245 0c-6 0-11 5-11 11l0 306c0 6 5 11 11 11 6 0 10-5 10-11l0-306c0-6-4-11-10-11z m115 0c-6 0-10 5-10 11l0 113-101 0c-6 0-11 5-11 11 0 5 5 10 11 10l111 0c6 0 11-5 11-10l0-124c0-6-5-11-11-11z m0 62l-111 0c-6 0-11 5-11 11 0 5 5 10 11 10l111 0c6 0 11-5 11-10 0-6-5-11-11-11z m375-62c-6 0-10 5-10 11l0 306c0 6 4 11 10 11 6 0 11-5 11-11l0-306c0-6-5-11-11-11z m-115 0c-6 0-11 5-11 11l0 124c0 5 5 10 11 10l111 0c6 0 11-5 11-10 0-6-5-11-11-11l-100 0 0-113c0-6-5-11-11-11z m111 62l-111 0c-6 0-11 5-11 11 0 5 5 10 11 10l111 0c6 0 11-5 11-10 0-6-5-11-11-11z"/>
<glyph unicode="&#58;" d="M202 154l-191 0c-6 0-11 5-11 10l0 216c0 6 5 11 11 11l191 0c5 0 10-5 10-11l0-216c0-5-5-10-10-10z m-181 21l170 0 0 195-170 0z m480-21l-191 0c-5 0-10 5-10 10l0 216c0 6 5 11 10 11l191 0c6 0 11-5 11-11l0-216c0-5-5-10-11-10z m-180 21l170 0 0 195-170 0z m-11-21l-108 0c-6 0-11 5-11 10l0 216c0 6 5 11 11 11l108 0c6 0 11-5 11-11l0-216c0-5-5-10-11-10z m-98 21l88 0 0 195-88 0z m-166-54c-6 0-10 5-10 11l0 28c0 6 4 10 10 10 6 0 11-4 11-10l0-28c0-6-5-11-11-11z m420 0c-6 0-11 5-11 11l0 28c0 6 5 10 11 10 6 0 10-4 10-10l0-28c0-6-4-11-10-11z m-314 130c-6 0-11 5-11 11l0 28c0 6 5 10 11 10 6 0 10-4 10-10l0-28c0-6-4-11-10-11z m208 0c-6 0-10 5-10 11l0 28c0 6 4 10 10 10 6 0 11-4 11-10l0-28c0-6-5-11-11-11z"/>
<glyph unicode="&#59;" d="M501 415l-490 0c-6 0-11 4-11 10 0 6 5 11 11 11l490 0c6 0 11-5 11-11 0-6-5-10-11-10z m-419-339c-6 0-10 5-10 11 0 6 4 10 10 10 39 0 68 10 85 30 18 21 18 49 17 57-15 18-23 40-23 63 0 53 43 96 95 96 6 0 11-4 11-10 0-6-5-11-11-11-41 0-74-33-74-75 0-19 8-37 20-51 2-1 3-3 3-5 0-2 7-45-22-78-21-25-55-37-101-37z m348 0c-46 0-80 12-101 37-28 33-22 76-22 78 0 2 1 4 3 5 12 14 20 32 20 51 0 42-33 75-74 75-6 0-11 5-11 11 0 6 5 10 11 10 52 0 95-43 95-96 0-23-8-45-23-63-1-8-1-36 17-57 17-20 46-30 85-30 6 0 10-4 10-10 0-6-4-11-10-11z m-174 0c-6 0-11 5-11 11l0 338c0 6 5 11 11 11 6 0 11-5 11-11l0-338c0-6-5-11-11-11z"/>
<glyph unicode="&#60;" d="M349 149l-133 0c-81 0-146 61-146 136 0 6 5 10 11 10l403 0c6 0 11-4 11-10 0-75-66-136-146-136z m-257 125c6-58 59-103 124-103l133 0c65 0 118 45 124 103z m391 2c0 0-1 0-1 0-6 1-10 6-10 12 1 6 1 12 1 18 0 102-82 185-184 185-6 0-11 4-11 10 0 6 5 11 11 11 113 0 206-92 206-206 0-7-1-14-1-21-1-5-6-9-11-9z m-194-2c-1 0-2 0-3 1-5 1-8 5-8 10l0 216c0 6 5 11 11 11 6 0 11-5 11-11l0-187 115 140c4 5 11 5 15 2 5-4 6-11 2-15l-135-163c-2-3-5-4-8-4z m-208 11c-4 0-8 2-10 6l-53 124c-2 5 0 11 6 14 5 2 11-1 14-6l53-123c2-6-1-12-6-14-1-1-3-1-4-1z m114-285c-36 0-65 29-65 65 0 35 29 64 65 64 35 0 64-29 64-64 0-36-29-65-64-65z m0 108c-24 0-43-20-43-43 0-24 19-44 43-44 24 0 43 20 43 44 0 23-19 43-43 43z m161-108c-35 0-64 29-64 65 0 35 29 64 64 64 36 0 65-29 65-64 0-36-29-65-65-65z m0 108c-23 0-43-20-43-43 0-24 20-44 43-44 24 0 44 20 44 44 0 23-20 43-44 43z"/>
<glyph unicode="&#61;" d="M501 170l-490 0c-6 0-11 5-11 11 0 6 5 11 11 11l490 0c6 0 11-5 11-11 0-6-5-11-11-11z m-48-113l-394 0c-6 0-11 5-11 11 0 6 5 11 11 11l394 0c6 0 11-5 11-11 0-6-5-11-11-11z m-394-57c-6 0-11 5-11 11l0 170c0 6 5 11 11 11 6 0 10-5 10-11l0-170c0-6-4-11-10-11z m394 0c-6 0-10 5-10 11l0 170c0 6 4 11 10 11 6 0 11-5 11-11l0-170c0-6-5-11-11-11z m-197 218c-72 0-131 66-131 147 0 81 59 147 131 147 72 0 131-66 131-147 0-81-59-147-131-147z m0 273c-61 0-110-57-110-126 0-69 49-126 110-126 61 0 110 57 110 126 0 69-49 126-110 126z m-153-315c-6 0-11 5-11 11l0 314c0 6 5 11 11 11 5 0 10-5 10-11l0-314c0-6-5-11-10-11z m306 0c-5 0-10 5-10 11l0 314c0 6 5 11 10 11 6 0 11-5 11-11l0-314c0-6-5-11-11-11z m-189 178c-2 0-4 1-6 2-5 3-6 10-3 15l44 71c3 5 10 6 15 3 5-3 6-9 3-14l-44-72c-2-3-6-5-9-5z m14-56c-2 0-4 0-6 1-5 4-6 10-3 15l44 71c3 5 10 7 15 4 5-3 6-10 3-15l-44-71c-2-3-6-5-9-5z m22-241c-6 0-11 5-11 11l0 113c0 6 5 11 11 11 6 0 11-5 11-11l0-113c0-6-5-11-11-11z m-57 57l-14 0c-6 0-11 5-11 10 0 6 5 11 11 11l14 0c6 0 11-5 11-11 0-5-5-10-11-10z m131 0l-15 0c-6 0-11 5-11 10 0 6 5 11 11 11l15 0c6 0 11-5 11-11 0-5-5-10-11-10z"/>
<glyph unicode="&#62;" d="M156 389l-145 0c-6 0-11 5-11 11l0 101c0 6 5 11 11 11l145 0c6 0 11-5 11-11l0-101c0-6-5-11-11-11z m-135 21l124 0 0 81-124 0z m480-21l-145 0c-6 0-11 5-11 11l0 101c0 6 5 11 11 11l145 0c6 0 11-5 11-11l0-101c0-6-5-11-11-11z m-134 21l124 0 0 81-124 0z m-11-21l-200 0c-6 0-11 5-11 11l0 101c0 6 5 11 11 11l200 0c6 0 11-5 11-11l0-101c0-6-5-11-11-11z m-189 21l178 0 0 81-178 0z m189-410l-200 0c-6 0-11 5-11 11l0 226c0 6 5 11 11 11l200 0c6 0 11-5 11-11l0-226c0-6-5-11-11-11z m-189 21l178 0 0 206-178 0z m-11-21l-145 0c-6 0-11 5-11 11l0 226c0 6 5 11 11 11l145 0c6 0 11-5 11-11l0-226c0-6-5-11-11-11z m-135 21l124 0 0 206-124 0z m480-21l-145 0c-6 0-11 5-11 11l0 226c0 6 5 11 11 11l145 0c6 0 11-5 11-11l0-226c0-6-5-11-11-11z m-134 21l124 0 0 206-124 0z m-76 32l-76 0c-6 0-11 4-11 10l0 56c0 6 5 11 11 11l76 0c6 0 10-5 10-11l0-56c0-6-4-10-10-10z m-65 21l54 0 0 34-54 0z m120 86l-181 0c-6 0-10 5-10 11 0 6 4 11 10 11l181 0c6 0 11-5 11-11 0-6-5-11-11-11z"/>
<glyph unicode="&#63;" d="M455 0l-398 0c-31 0-57 20-57 45l0 422c0 25 26 45 57 45l398 0c31 0 57-20 57-45l0-422c0-25-26-45-57-45z m-398 491c-19 0-36-11-36-24l0-422c0-13 17-24 36-24l398 0c19 0 36 11 36 24l0 422c0 13-17 24-36 24z m441-407l-484 0c-6 0-11 4-11 10 0 6 5 11 11 11l484 0c6 0 11-5 11-11 0-6-5-10-11-10z m0 71l-484 0c-6 0-11 5-11 11 0 5 5 10 11 10l484 0c6 0 11-5 11-10 0-6-5-11-11-11z m-242 0c-6 0-11 5-11 11l0 335c0 6 5 11 11 11 6 0 11-5 11-11l0-335c0-6-5-11-11-11z m-67 155c-6 0-10 5-10 11l0 24c0 6 4 11 10 11 6 0 11-5 11-11l0-24c0-6-5-11-11-11z m133 0c-6 0-11 5-11 11l0 24c0 6 5 11 11 11 6 0 10-5 10-11l0-24c0-6-4-11-10-11z m-50-192l-32 0c-6 0-11 4-11 10 0 6 5 11 11 11l32 0c6 0 11-5 11-11 0-6-5-10-11-10z m0-76l-32 0c-6 0-11 4-11 10 0 6 5 11 11 11l32 0c6 0 11-5 11-11 0-6-5-10-11-10z"/>
<glyph unicode="&#64;" d="M495 375l-478 0c-6 0-11 5-11 11 0 6 5 10 11 10l478 0c6 0 11-4 11-10 0-6-5-11-11-11z m-484-259c-1 0-2 0-3 0-5 1-9 7-8 13l50 221c2 5 7 9 13 8 6-2 9-7 8-13l-50-221c-1-5-5-8-10-8z m490 0c-5 0-9 3-10 8l-57 250c-1 5 3 11 8 12 6 2 12-2 13-8l57-249c1-6-3-12-8-13-1 0-2 0-3 0z m-391 98c-1 0-2 0-4 1-2 1-5 3-6 6l-58 161c-2 6 1 12 6 14 6 2 12-1 14-7l55-150 345 156c5 3 11 0 14-5 2-5 0-12-6-14l-355-161c-2-1-3-1-5-1z"/>
<glyph unicode="&#91;" d="M501 0l-337 0c-5 0-10 5-10 11l0 490c0 6 5 11 10 11l337 0c6 0 11-5 11-11l0-490c0-6-5-11-11-11z m-326 21l316 0 0 470-316 0z m-11-21l-153 0c-6 0-11 5-11 11l0 490c0 6 5 11 11 11l153 0c6 0 11-5 11-11l0-490c0-6-5-11-11-11z m-143 21l133 0 0 470-133 0z m140 358l-147 0c-6 0-11 4-11 10 0 6 5 11 11 11l147 0c6 0 11-5 11-11 0-6-5-10-11-10z m0-115l-147 0c-6 0-11 4-11 10 0 6 5 11 11 11l147 0c6 0 11-5 11-11 0-6-5-10-11-10z m0-115l-147 0c-6 0-11 4-11 10 0 6 5 11 11 11l147 0c6 0 11-5 11-11 0-6-5-10-11-10z m336 230l-329 0c-6 0-10 4-10 10 0 6 4 11 10 11l329 0c6 0 11-5 11-11 0-6-5-10-11-10z m0-115l-329 0c-6 0-10 4-10 10 0 6 4 11 10 11l329 0c6 0 11-5 11-11 0-6-5-10-11-10z m0-115l-329 0c-6 0-10 4-10 10 0 6 4 11 10 11l329 0c6 0 11-5 11-11 0-6-5-10-11-10z m-164 0c-6 0-11 4-11 10l0 342c0 6 5 11 11 11 6 0 11-5 11-11l0-342c0-6-5-10-11-10z m24-72l-44 0c-5 0-10 4-10 10 0 6 5 11 10 11l44 0c6 0 11-5 11-11 0-6-5-10-11-10z"/>
<glyph unicode="&#93;" d="M415 60c-2 0-5 1-7 3l-319 313c-4 4-4 10 0 15 4 4 11 4 15 0l319-313c4-4 4-11 0-15-2-2-5-3-8-3z m-318 0c-3 0-6 1-8 3-4 4-4 11 0 15l319 313c4 4 11 4 15 0 4-5 4-11 0-15l-319-313c-2-2-5-3-7-3z m365 312l-412 0c-28 0-50 18-50 40 0 22 22 40 50 40l412 0c28 0 50-18 50-40 0-22-22-40-50-40z m-412 59c-15 0-29-9-29-19 0-10 14-18 29-18l412 0c15 0 29 8 29 18 0 10-14 19-29 19z"/>
<glyph unicode="&#94;" d="M108 10c-1 0-2 1-3 1-6 2-9 8-7 14l50 148-72 326c-2 6 2 11 8 13 6 1 11-3 13-8l73-329c0-2 0-4 0-6l-52-151c-1-5-5-8-10-8z m260 155l-200 0c-6 0-11 5-11 10 0 6 5 11 11 11l192 0 24 84c2 5 8 9 14 7 5-2 9-8 7-13l-27-92c-1-4-5-7-10-7z m58-165c-5 0-9 3-10 7l-55 159c-2 6 1 12 7 14 5 2 12-1 13-7l55-159c2-5-1-12-7-13-1-1-2-1-3-1z m-6 256l-308 0c-6 0-11 5-11 11 0 6 5 10 11 10l308 0c6 0 11-4 11-10 0-6-5-11-11-11z"/>
<glyph unicode="&#95;" d="M501 327l-490 0c-6 0-11 5-11 11l0 163c0 6 5 11 11 11l490 0c6 0 11-5 11-11l0-163c0-6-5-11-11-11z m-480 21l470 0 0 143-470 0z m480-184l-490 0c-6 0-11 4-11 10l0 164c0 6 5 10 11 10l490 0c6 0 11-4 11-10l0-164c0-6-5-10-11-10z m-480 21l470 0 0 142-470 0z m480-185l-490 0c-6 0-11 5-11 11l0 163c0 6 5 11 11 11l490 0c6 0 11-5 11-11l0-163c0-6-5-11-11-11z m-480 21l470 0 0 143-470 0z m35 456l47-126-20-8-47 127z m407-167l20-7-47-127-20 7z m-61 0l20-7-48-127-20 7z m-61 0l19-7-47-127-20 7z m-62 0l20-7-47-127-20 7z m-50-27l12-18-112-76-12 17z m-111 194l47-126-20-8-47 127z m62 0l47-126-20-8-47 127z m76-80l108 0 0-22-108 0z"/>
<glyph unicode="&#96;" d="M405 225l-298 0c-6 0-11 5-11 11 0 5 5 10 11 10l298 0c6 0 11-5 11-10 0-6-5-11-11-11z m-20-80l-258 0c-6 0-11 5-11 11 0 6 5 10 11 10l258 0c6 0 11-4 11-10 0-6-5-11-11-11z m-258-145c-6 0-11 5-11 11l0 225c0 5 5 10 11 10 6 0 11-5 11-10l0-225c0-6-5-11-11-11z m258 0c-6 0-11 5-11 11l0 225c0 5 5 10 11 10 6 0 11-5 11-10l0-225c0-6-5-11-11-11z m-117 183l-24 0c-6 0-10 5-10 11 0 6 4 11 10 11l24 0c6 0 10-5 10-11 0-6-4-11-10-11z m4 67l-32 0c-55 0-100 44-100 99l0 63c0 55 45 100 100 100l32 0c55 0 100-45 100-100l0-63c0-55-45-99-100-99z m-32 241c-44 0-79-35-79-79l0-63c0-43 35-78 79-78l32 0c44 0 79 35 79 78l0 63c0 44-35 79-79 79z m-29-121c-3 0-5 1-7 3-5 3-5 10-2 14l52 66c4 4 10 5 15 1 4-3 5-10 2-15l-52-65c-2-2-5-4-8-4z m38-7c-2 0-5 1-7 3-4 3-5 10-1 14l51 66c4 4 11 5 15 1 5-3 6-10 2-15l-52-65c-2-2-5-4-8-4z m0-58c-2 0-5 1-7 2-4 4-5 11-1 15l51 65c4 5 11 6 15 2 5-3 6-10 2-15l-52-65c-2-3-5-4-8-4z"/>
<glyph unicode="&#123;" d="M449 27l-386 0c-35 0-63 28-63 63l0 359c0 35 28 63 63 63l386 0c35 0 63-28 63-63l0-359c0-35-28-63-63-63z m-386 464c-23 0-42-19-42-42l0-359c0-23 19-42 42-42l386 0c23 0 42 19 42 42l0 359c0 23-19 42-42 42z m-2-491c-6 0-11 5-11 11l0 26c0 6 5 11 11 11 5 0 10-5 10-11l0-26c0-6-5-11-10-11z m390 0c-5 0-10 5-10 11l0 26c0 6 5 11 10 11 6 0 11-5 11-11l0-26c0-6-5-11-11-11z m46 181l-482 0c-6 0-11 5-11 11 0 6 5 10 11 10l482 0c6 0 11-4 11-10 0-6-5-11-11-11z m0-78l-482 0c-6 0-11 4-11 10 0 6 5 11 11 11l482 0c6 0 11-5 11-11 0-6-5-10-11-10z m-328 78c-6 0-11 5-11 11l0 309c0 6 5 11 11 11 6 0 11-5 11-11l0-309c0-6-5-11-11-11z m174 0c-6 0-11 5-11 11l0 309c0 6 5 11 11 11 6 0 11-5 11-11l0-309c0-6-5-11-11-11z m-235 118c-6 0-11 5-11 11l0 74c0 6 5 11 11 11 6 0 11-5 11-11l0-74c0-6-5-11-11-11z m112 0c-6 0-11 5-11 11l0 74c0 6 5 11 11 11 6 0 10-5 10-11l0-74c0-6-4-11-10-11z m177 0c-6 0-11 5-11 11l0 74c0 6 5 11 11 11 5 0 10-5 10-11l0-74c0-6-5-11-10-11z m-128-156l-26 0c-6 0-11 4-11 10 0 6 5 11 11 11l26 0c6 0 11-5 11-11 0-6-5-10-11-10z m0-79l-26 0c-6 0-11 5-11 11 0 6 5 11 11 11l26 0c6 0 11-5 11-11 0-6-5-11-11-11z"/>
<glyph unicode="&#124;" d="M406 42l-300 0c-29 0-54 21-54 46l0 164c0 6 5 11 11 11 6 0 11-5 11-11l0-164c0-13 15-24 32-24l300 0c17 0 32 11 32 24l0 164c0 6 5 11 11 11 6 0 11-5 11-11l0-164c0-25-25-46-54-46z m95 199l-490 0c-6 0-11 5-11 11 0 6 5 11 11 11l490 0c6 0 11-5 11-11 0-6-5-11-11-11z m-438-241c-6 0-11 5-11 11l0 77c0 6 5 11 11 11 6 0 11-5 11-11l0-77c0-6-5-11-11-11z m386 0c-6 0-11 5-11 11l0 77c0 6 5 11 11 11 6 0 11-5 11-11l0-77c0-6-5-11-11-11z m0 142l-386 0c-6 0-11 5-11 11 0 6 5 11 11 11l386 0c6 0 11-5 11-11 0-6-5-11-11-11z m-166 60l-54 0c-6 0-11 5-11 11 0 6 5 10 11 10l54 0c6 0 11-4 11-10 0-6-5-11-11-11z m0-111l-54 0c-6 0-11 4-11 10 0 6 5 11 11 11l54 0c6 0 11-5 11-11 0-6-5-10-11-10z m30 150l-114 0c-6 0-10 5-10 11l0 249c0 6 4 11 10 11l114 0c6 0 10-5 10-11l0-249c0-6-4-11-10-11z m-103 22l92 0 0 228-92 0z m-11-22l-102 0c-6 0-11 5-11 11l0 198c0 4 3 7 6 9l102 52c4 2 8 1 11-1 3-2 5-5 5-9l0-249c0-6-5-11-11-11z m-91 22l81 0 0 221-81-41z m307-22l-102 0c-6 0-11 5-11 11l0 249c0 4 2 7 5 9 3 2 7 3 11 1l102-52c3-2 6-5 6-9l0-198c0-6-5-11-11-11z m-92 22l81 0 0 180-81 41z"/>
<glyph unicode="&#125;" d="M376 397l-240 0c-23 0-42 19-42 43l0 29c0 24 19 43 42 43l240 0c23 0 42-19 42-43l0-29c0-24-19-43-42-43z m-240 94c-11 0-21-10-21-22l0-29c0-12 10-21 21-21l240 0c11 0 21 9 21 21l0 29c0 12-10 22-21 22z m-34-263c-6 0-11 4-11 10l0 122c0 6 5 10 11 10 5 0 10-4 10-10l0-122c0-6-5-10-10-10z m308 0c-5 0-10 4-10 10l0 122c0 6 5 10 10 10 6 0 11-4 11-10l0-122c0-6-5-10-11-10z m-1 20l-306 0c-6 0-11 5-11 11 0 5 5 10 11 10l306 0c6 0 11-5 11-10 0-6-5-11-11-11z m-24-248c-3 0-6 1-8 3l-257 248c-4 4-4 11 0 15 4 4 11 4 15 0l257-248c4-4 4-11 0-15-2-2-5-3-7-3z m-257 0c-3 0-6 1-8 3-4 4-4 11 0 15l257 248c4 4 11 4 15 0 4-4 4-11 0-15l-257-248c-2-2-5-3-7-3z m6 353l-58 0c-6 0-10 5-10 11 0 6 4 10 10 10l48 0 0 34c0 6 4 11 10 11 6 0 11-5 11-11l0-44c0-6-5-11-11-11z m302 0l-58 0c-6 0-11 5-11 11l0 44c0 6 5 11 11 11 6 0 10-5 10-11l0-34 48 0c6 0 10-4 10-10 0-6-4-11-10-11z"/>
<glyph unicode="&#126;" d="M363 231l-214 0c-33 0-60 28-60 61l0 159c0 34 27 61 60 61l214 0c33 0 60-27 60-61l0-159c0-33-27-61-60-61z m-214 260c-21 0-39-18-39-40l0-159c0-22 18-39 39-39l214 0c21 0 39 17 39 39l0 159c0 22-18 40-39 40z m264-491c-6 0-11 5-11 11l0 220-292 0 0-220c0-6-5-11-11-11-5 0-10 5-10 11l0 231c0 6 5 11 10 11l314 0c5 0 10-5 10-11l0-231c0-6-5-11-10-11z m0 157l-314 0c-5 0-10 5-10 11 0 5 5 10 10 10l314 0c5 0 10-5 10-10 0-6-5-11-10-11z m-135 37l-44 0c-6 0-11 5-11 11 0 6 5 11 11 11l44 0c6 0 11-5 11-11 0-6-5-11-11-11z"/>
<glyph unicode="&#92;" d="M78 75c-6 0-11 5-11 11l0 328c0 6 5 11 11 11 6 0 11-5 11-11l0-328c0-6-5-11-11-11z m59 71c-6 0-11 5-11 11l0 214c0 6 5 11 11 11 6 0 11-5 11-11l0-214c0-6-5-11-11-11z m59 0c-5 0-10 5-10 11l0 214c0 6 5 11 10 11 6 0 11-5 11-11l0-214c0-6-5-11-11-11z m60 0c-6 0-11 5-11 11l0 214c0 6 5 11 11 11 6 0 11-5 11-11l0-214c0-6-5-11-11-11z m59 0c-6 0-10 5-10 11l0 214c0 6 4 11 10 11 6 0 11-5 11-11l0-214c0-6-5-11-11-11z m60 0c-6 0-11 5-11 11l0 214c0 6 5 11 11 11 6 0 11-5 11-11l0-214c0-6-5-11-11-11z m59-71c-6 0-11 5-11 11l0 328c0 6 5 11 11 11 6 0 10-5 10-11l0-328c0-6-4-11-10-11z m0 285l-356 0c-6 0-11 5-11 11 0 6 5 11 11 11l356 0c6 0 10-5 10-11 0-6-4-11-10-11z m0-214l-356 0c-6 0-11 5-11 11 0 6 5 11 11 11l356 0c6 0 10-5 10-11 0-6-4-11-10-11z m-180-146c-5 0-9 0-14 0-141 8-234 121-238 126-3 5-3 12 2 15 5 4 11 3 15-1 1-2 91-112 222-118 86-5 171 35 253 118 4 5 11 5 15 0 4-4 4-10 0-15-82-83-168-125-255-125z m-176 467c-6 0-11 4-11 10l0 24c0 6 5 11 11 11 6 0 11-5 11-11l0-24c0-6-5-10-11-10z m356 0c-6 0-11 4-11 10l0 24c0 6 5 11 11 11 6 0 10-5 10-11l0-24c0-6-4-10-10-10z"/>
<glyph unicode="&#57344;" d="M449 0l-386 0c-5 0-10 5-10 11l0 490c0 6 5 11 10 11l386 0c5 0 10-5 10-11l0-490c0-6-5-11-10-11z m-375 21l364 0 0 470-364 0z m315-21l-266 0c-6 0-11 5-11 11l0 273c0 90 65 163 144 163 79 0 144-73 144-163l0-273c0-6-5-11-11-11z m-256 21l246 0 0 263c0 78-55 141-123 141-68 0-123-63-123-141z m37 161c-6 0-11 5-11 11l0 30c0 6 5 11 11 11l38 0c6 0 10-5 10-11 0-6-4-10-10-10l-27 0 0-20c0-6-5-11-11-11z"/>
<glyph unicode="&#57345;" d="M118 254c-2 0-4 1-6 2l-107 65c-4 3-6 7-5 12 1 4 5 7 10 8l134 14c64 4 79 13 83 16-5 6-31 19-57 27-5 1-8 6-7 11 0 5 4 9 9 10l116 18c2 0 5 0 6-1l212-96c4-2 7-6 6-11-1-5-4-8-9-9l-383-66c-1 0-2 0-2 0z m-75 69l77-47 345 59-176 80-74-11c19-10 35-22 34-36-3-19-32-29-103-34z m452-205c-1 0-3 1-5 2l-176 102c-3 2-5 6-5 10l0 67c0 6 4 11 10 11 6 0 11-5 11-11l0-61 155-91 0 176c0 6 4 11 10 11 6 0 11-5 11-11l0-194c0-4-2-7-5-9-2-1-4-2-6-2z m-389-43c-2 0-4 1-6 3l-86 71c-3 2-4 5-4 8l0 167c0 6 5 11 10 11 6 0 11-5 11-11l0-162 65-54 0 161c0 6 5 11 10 11 6 0 11-5 11-11l0-183c0-4-2-8-6-10-2-1-3-1-5-1z"/>
<glyph unicode="&#57346;" d="M435 39l-355 0 0 444 355 0z m-334 22l313 0 0 400-313 0z m400-61c-1 0-3 0-4 1l-78 39c-3 2-5 6-5 10l0 422c0 4 2 8 6 10l78 29c3 2 7 1 9-1 3-2 5-5 5-9l0-490c0-4-2-7-5-9-2-1-4-2-6-2z m-66 56l56-28 0 458-56-21z m-424-56c-2 0-4 1-6 2-3 2-5 5-5 9l0 490c0 4 2 7 5 9 3 2 6 3 9 1l78-29c4-2 6-6 6-10l0-422c0-4-2-8-5-10l-77-39c-2-1-4-1-5-1z m10 486l0-458 56 28 0 409z m226-14l21 0 0-415-21 0z m-153-42l158 0 0-22-158 0z m163-52l167 0 0-22-167 0z m0-106l167 0 0-22-167 0z m0-107l167 0 0-21-167 0z m-120-156c-6 0-11 5-11 11l0 30c0 6 5 11 11 11 6 0 11-5 11-11l0-30c0-6-5-11-11-11z m241 0c-6 0-11 5-11 11l0 30c0 6 5 11 11 11 6 0 10-5 10-11l0-30c0-6-4-11-10-11z"/>
<glyph unicode="&#57347;" d="M335 163l-158 0c-64 0-116 46-116 102 0 49 62 247 195 247 124 0 195-194 195-247 0-56-52-102-116-102z m-79 328c-116 0-174-183-174-226 0-44 43-81 95-81l158 0c52 0 95 37 95 81 0 47-65 226-174 226z m-159-491c-2 0-3 0-4 1-6 2-8 8-6 14l61 155c2 6 9 8 14 6 6-2 8-8 6-14l-61-155c-2-4-6-7-10-7z m318 0c-4 0-8 3-10 7l-61 155c-2 6 0 12 6 14 5 2 12 0 14-6l61-155c2-6 0-12-6-14-1-1-2-1-4-1z m-161 233c-60 0-99 24-102 26-5 3-6 10-3 14 3 5 10 7 15 4 3-2 82-51 185 0 5 3 12 1 14-5 3-5 1-11-4-14-39-19-75-25-105-25z"/>
<glyph unicode="&#57348;" d="M453 203l-143 0c-6 0-10 5-10 11 0 6 4 11 10 11l134 0 47 278c1 6 6 10 12 9 6-1 10-7 9-12l-48-288c-1-5-6-9-11-9z m12 107l-141 0c-6 0-10 5-10 10 0 6 4 11 10 11l141 0c6 0 11-5 11-11 0-5-5-10-11-10z m-98-101c-5 0-10 3-11 8l-16 95c-1 6 2 11 8 12 6 1 12-3 13-9l16-94c1-6-2-11-8-12-1 0-1 0-2 0z m21-137c-6 0-10 5-10 11l0 124c0 6 4 11 10 11 6 0 11-5 11-11l0-124c0-6-5-11-11-11z m-78-34c-4 0-8 2-10 7-2 5 1 11 6 13l78 31c6 2 12-1 14-6 2-6 0-12-6-14l-78-30c-1-1-3-1-4-1z m7-38l-7 0c-6 0-10 5-10 11 0 6 4 10 10 10l7 0c6 0 11-4 11-10 0-6-5-11-11-11z m149 38c-1 0-2 0-4 1l-78 30c-5 2-8 8-6 14 2 5 9 8 14 6l78-31c6-2 8-8 6-13-1-5-5-7-10-7z m0-38l-7 0c-6 0-10 5-10 11 0 6 4 10 10 10l7 0c6 0 11-4 11-10 0-6-5-11-11-11z m-76 23l-8 0c-6 0-11 5-11 10 0 6 5 11 11 11l8 0c6 0 11-5 11-11 0-5-5-10-11-10z m-104 280l-275 0c-6 0-11 5-11 11 0 5 5 10 11 10l275 0c6 0 11-5 11-10 0-6-5-11-11-11z m-37-280l-207 0c-6 0-11 5-11 10l0 281c0 5 5 10 11 10l207 0c6 0 11-5 11-10l0-281c0-5-5-10-11-10z m-196 21l186 0 0 259-186 0z m16-44c-6 0-10 5-10 11l0 22c0 6 4 11 10 11 6 0 11-5 11-11l0-22c0-6-5-11-11-11z m145 0c-6 0-10 5-10 11l0 22c0 6 4 11 10 11 6 0 11-5 11-11l0-22c0-6-5-11-11-11z m-35 339c0 0 0 0 0 0l-128 0c-6 0-11 5-11 11l0 78c0 4 2 7 5 9l106 73c3 2 7 3 11 1 3-1 5-4 6-8l22-149c0-1 0-3 0-4 0-6-5-11-11-11z m-117 22l105 0-18 122-87-60z"/>
<glyph unicode="&#57349;" d="M501 0l-490 0c-6 0-11 5-11 11l0 490c0 6 5 11 11 11l490 0c6 0 11-5 11-11l0-490c0-6-5-11-11-11z m-480 21l470 0 0 470-470 0z m472 343l-474 0c-6 0-11 4-11 10 0 6 5 11 11 11l474 0c6 0 11-5 11-11 0-6-5-10-11-10z m0-119l-474 0c-6 0-11 5-11 11 0 6 5 11 11 11l474 0c6 0 11-5 11-11 0-6-5-11-11-11z m-237-237c-6 0-11 5-11 11l0 237c0 6 5 11 11 11 6 0 11-5 11-11l0-237c0-6-5-11-11-11z m-66 81c-6 0-11 5-11 11l0 58c0 6 5 11 11 11 5 0 10-5 10-11l0-58c0-6-5-11-10-11z m134 0c-6 0-10 5-10 11l0 58c0 6 4 11 10 11 6 0 11-5 11-11l0-58c0-6-5-11-11-11z m-268 376l29-76-20-8-29 77z m52 0l30-76-20-8-29 77z m53 0l29-76-20-8-29 77z m63-52l72 0 0-21-72 0z m245-56l17-13-60-81-17 13z m-60 0l17-13-61-81-17 13z m-61 0l17-13-60-81-17 13z m-57-18l11-18-90-57-12 18z"/>
</font>
</defs>
</svg>
