<?xml version="1.0" standalone="no"?>
<!DOCTYPE svg PUBLIC "-//W3C//DTD SVG 1.1//EN" "http://www.w3.org/Graphics/SVG/1.1/DTD/svg11.dtd">
<svg xmlns="http://www.w3.org/2000/svg">
<metadata>Generated by Fontastic.me</metadata>
<defs>
<font id="real-estate" horiz-adv-x="512">
<font-face font-family="real-estate" units-per-em="512" ascent="480" descent="-32"/>
<missing-glyph horiz-adv-x="512" />

<glyph unicode="&#97;" d="M443 0l-375 0c-6 0-10 4-10 11l0 250c0 7 4 11 10 11 7 0 11-4 11-11l0-240 353 0 0 240c0 7 4 11 11 11 6 0 10-4 10-11l0-250c0-7-4-11-10-11z m58 251l-80 0c-6 0-10 4-10 10 0 7 4 11 10 11l54 0-219 214-219-214 133 0c6 0 10-4 10-11 0-6-4-10-10-10l-159 0c-5 0-9 2-10 6-2 4-1 9 2 12l246 240c4 4 10 4 14 0l246-240c3-3 4-8 2-12-1-4-5-6-10-6z m-182-251c-6 0-11 4-11 11l0 94c0 6 5 10 11 10 6 0 11-4 11-10l0-94c0-7-5-11-11-11z m-126 0c-6 0-11 4-11 11l0 106c0 14 4 26 10 36 3 5 10 6 15 3 5-3 6-10 3-15-4-7-5-15-5-25l0-106c-1-6-6-10-12-10z m105 96c-37 0-72 15-97 41-26 25-40 59-40 97 0 37 14 71 40 97 25 26 59 40 97 40 37 0 71-15 97-40 25-26 39-60 39-97 0-38-14-72-39-97-21-21-47-35-77-40-8-1-14-1-20-1z m0 254c-31 0-60-12-83-34-21-22-34-51-34-82 0-31 12-61 34-83 26-25 62-38 100-33 17 4 43 11 65 33 21 22 34 52 34 83 0 31-12 60-34 82-23 22-51 34-82 34z m203-331c-3 0-5 1-7 3l-105 105c-4 4-4 11 0 15 5 4 11 4 15 0l105-105c4-4 4-10 0-15-2-2-4-3-8-3z"/>
<glyph unicode="&#98;" d="M459 347c-2 0-5 1-7 2l-177 138-176-138c-4-3-12-3-15 2-3 4-3 12 2 15l183 144c4 3 9 3 13 0l183-144c4-3 5-11 2-15-2-3-5-4-8-4z m-242-225l-72 0c-6 0-11 4-11 10l0 266c0 6 5 11 11 11 6 0 11-5 11-11l0-255 61 0c6 0 10-4 10-11 0-6-4-10-10-10z m188 0l-70 0c-6 0-11 4-11 10 0 7 5 11 11 11l60 0 0 255c0 6 4 11 10 11 7 0 11-5 11-11l0-266c0-6-4-10-11-10z m-72 0c-7 0-11 4-11 10l0 111-93 0 0-111c0-6-4-10-10-10-7 0-11 4-11 10l0 122c0 6 4 11 11 11l114 0c6 0 10-5 10-11l0-122c0-6-4-10-10-10z m127-122c-29 0-53 23-53 53 0 30 24 54 53 54 29 0 52-24 52-54 0-30-23-53-52-53z m0 85c-17 0-31-14-31-32 0-18 14-32 31-32 17 0 31 14 31 32 0 18-14 32-31 32z m-42-50l-407 0c-7 0-11 4-11 11 0 6 4 11 11 11l407 0c7 0 11-5 11-11 0-7-4-11-11-11z m-407 0c-7 0-11 4-11 11l0 65c0 6 4 11 11 11 6 0 10-5 10-11l0-65c0-7-4-11-10-11z m39 0c-6 0-11 4-11 11l0 93c0 6 5 10 11 10 7 0 11-4 11-10l0-93c0-7-4-11-11-11z m39 0c-7 0-11 4-11 11l0 55c0 7 4 11 11 11 6 0 10-4 10-11l0-55c0-7-4-11-10-11z m39 0c-6 0-11 4-11 11l0 38c0 7 5 11 11 11 6 0 11-4 11-11l0-38c0-7-5-11-11-11z"/>
<glyph unicode="&#99;" d="M513 0l-514 0 33 403 137 0 0-21-118 0-29-361 468 0-29 361-122 0 0 21 141 0z m-34 191l-169 0-8 112 21 2 7-93 149 0z m-127-181l-14 96-169 0 0 125 21 0 0-104 167 0 16-115z m-321 269l148 0 0-21-148 0z m222-56c-59 0-96 163-96 204 0 47 42 85 96 85 53 0 96-38 96-85 0-41-38-204-96-204z m0 268c-42 0-75-29-75-64 0-45 40-183 75-183 35 0 74 138 74 183 0 35-34 64-74 64z m0-121c-25 0-44 19-44 44 0 24 19 44 44 44 24 0 44-20 44-44 0-25-20-44-44-44z m0 66c-13 0-23-9-23-22 0-13 10-23 23-23 13 0 22 10 22 23 0 13-9 22-22 22z"/>
<glyph unicode="&#100;" d="M337 53c-3 0-7 2-10 6-3 5-1 11 5 15l154 89-220 324-196-112 195-284c3-6 2-12-4-15-5-3-11-2-15 3l-199 293c-2 2-2 6-1 9 1 3 2 5 5 6l214 123c5 3 10 1 13-3l233-343c2-2 2-5 1-8-1-3-2-6-5-7l-165-95c-2-1-3-1-5-1z m-47-53c-18 0-35 9-46 23-7 12-10 25-7 39 3 14 12 25 24 32 9 5 18 7 28 7 18 0 36-8 46-23 7-12 11-26 7-39-3-13-11-25-24-32-8-4-17-7-28-7z m0 81c-6 0-12-1-17-4-7-4-13-11-15-19-2-8 0-15 4-22 7-8 16-14 28-14 7 0 13 3 18 5 8 4 13 10 15 19 2 7 0 15-4 21-6 8-17 14-29 14z m89 85c-4 0-8 3-9 6l-136 218c-4 6-1 12 3 15 5 4 12 1 15-3l136-219c3-5 1-11-3-14-2-3-4-3-6-3z m-324 202c-3 0-6 1-8 4l-15 22-17-8c-5-2-12 0-14 5-2 6 0 12 5 14l25 11c4 2 10 1 13-3l20-28c3-4 2-12-2-15-2-1-4-2-7-2z"/>
<glyph unicode="&#101;" d="M422 329c-2 0-4 1-6 2l-160 119-160-119c-4-4-12-2-15 2-3 4-2 12 2 15l167 125c4 3 8 3 12 0l167-125c4-3 5-11 2-15-2-3-5-4-9-4z m-219-142l-65 0c-7 0-11 4-11 10l0 177c0 7 4 11 11 11 6 0 10-4 10-11l0-166 55 0c6 0 10-4 10-11 0-6-4-10-10-10z m171 0l-64 0c-6 0-10 4-10 10 0 7 4 11 10 11l54 0 0 166c0 7 4 11 10 11 7 0 11-4 11-11l0-177c0-6-4-10-11-10z m-67 0c-6 0-10 4-10 10l0 89-82 0 0-89c0-6-4-10-10-10-7 0-11 4-11 10l0 100c0 6 4 10 11 10l102 0c7 0 11-4 11-10l0-100c0-6-4-10-11-10z m194-49l-490 0c-7 0-11 4-11 10l0 353c0 7 4 11 11 11l490 0c7 0 11-4 11-11l0-353c0-6-4-10-11-10z m-480 21l470 0 0 332-470 0z m92-159c-1 0-2 0-3 1-5 2-9 8-7 14l45 134c2 6 8 9 14 7 5-2 9-8 7-14l-45-136c-2-3-7-6-11-6z m286 0c-4 0-9 3-10 7l-44 136c-3 5 1 12 6 14 5 2 12-1 14-7l45-135c2-5-1-12-7-14-2-1-3-1-4-1z"/>
<glyph unicode="&#102;" d="M382 0l-371 0c-7 0-11 4-11 11l0 256c0 4 2 7 6 9l244 110c2 1 5 1 7 0l128-45c4-1 8-5 8-9l0-321c0-7-5-11-11-11z m-361 21l350 0 0 303-117 41-233-105z m232-21c-7 0-11 4-11 11l0 357c0 6 4 11 11 11 6 0 10-5 10-11l0-357c0-7-4-11-10-11z m-205 213c-4 0-9 4-11 8-2 5 1 12 8 14l151 47c6 2 12-1 14-8 2-5-1-12-7-14l-152-47c-1 0-2 0-3 0z m0-56c-5 0-10 3-11 8-1 6 2 12 9 13l151 32c6 1 12-2 13-8 1-6-2-12-8-13l-152-32c-1 0-1 0-2 0z m0-56c-5 0-10 5-11 10-1 5 4 11 10 12l151 16c6 1 11-4 12-10 1-5-3-11-9-12l-152-16c0 0-1 0-1 0z m151-56l-151 0c-6 0-11 4-11 10 0 7 5 11 11 11l151 0c7 0 11-4 11-11 0-6-4-10-11-10z m302-45l-163 0c-6 0-11 4-11 11 0 6 5 10 11 10l153 0 0 422-145 47-139-62 0-72c0-6-4-10-11-10-6 0-10 4-10 10l0 79c0 4 2 9 6 10l148 66c2 1 6 1 8 1l157-51c4-2 7-7 7-11l0-439c0-7-4-11-11-11z m-64 366c-6 0-10 4-10 11l0 41c0 7 4 11 10 11 7 0 11-4 11-11l0-41c0-7-4-11-11-11z m0-75c-6 0-10 4-10 11l0 41c0 7 4 11 10 11 7 0 11-4 11-11l0-41c0-7-4-11-11-11z m0-76c-6 0-10 5-10 11l0 43c0 6 4 10 10 10 7 0 11-4 11-10l0-43c0-6-4-11-11-11z m0-74c-6 0-10 4-10 10l0 42c0 6 4 11 10 11 7 0 11-5 11-11l0-42c0-6-4-10-11-10z m0-75c-6 0-10 4-10 11l0 41c0 7 4 11 10 11 7 0 11-4 11-11l0-41c0-7-4-11-11-11z"/>
<glyph unicode="&#103;" d="M432 0l-352 0c-6 0-11 4-11 11l0 422c0 6 5 11 11 11l73 0c6 0 10-5 10-11 0-6-4-11-10-11l-62 0 0-401 330 0 0 401-63 0c-6 0-10 5-10 11 0 6 4 11 10 11l74 0c6 0 11-5 11-11l0-422c0-7-5-11-11-11z m-63 370l-226 0c-5 0-10 3-11 9-5 21-2 65 42 75 33 9 36 23 36 25 0 3 0 13 8 20 8 9 20 13 36 13l4 0c16 0 28-4 35-13 8-8 8-17 8-20 0-5 8-18 36-25 45-10 47-54 42-75 0-6-5-9-10-9z m-216 21l208 0c1 13-2 37-28 42-55 13-54 45-54 46 0 1 0 4-2 6-3 4-9 6-19 6l-5 0c-10 0-16-2-19-6-1-2-1-5-1-5 0-4 0-33-53-47-26-5-29-29-27-42z m-11-43l8 0 0-62 30 0 0-8-38 0c0 0 0 70 0 70z m103-34c0-24-15-37-32-37-18 0-31 14-31 36 0 22 14 36 32 36 20 0 31-14 31-35z m-53-1c0-15 9-28 22-28 14 0 23 13 23 29 0 13-8 27-23 27-15 0-22-14-22-28z m75-12l-8-22-9 0 23 70 11 0 23-70-8 0-8 22z m22 6l-6 20c-1 5-2 9-4 13-1-4-2-8-3-13l-6-20z m29-29l0 70 9 0 23-35c5-9 9-15 13-23-1 10-1 18-1 29l0 29 8 0 0-70-8 0-23 36c-5 7-9 16-13 23 0-8 1-17 1-29l0-30c0 0-9 0-9 0z m56-66l-236 0c-7 0-11 5-11 11 0 6 4 11 11 11l236 0c7 0 11-5 11-11 0-6-4-11-11-11z m0-51l-236 0c-7 0-11 4-11 11 0 6 4 10 11 10l236 0c7 0 11-4 11-10 0-7-4-11-11-11z m0-52l-236 0c-7 0-11 4-11 10 0 7 4 11 11 11l236 0c7 0 11-4 11-11 0-6-4-10-11-10z m0-51l-129 0c-6 0-10 4-10 10 0 7 4 11 10 11l129 0c7 0 11-4 11-11 0-6-4-10-11-10z"/>
<glyph unicode="&#104;" d="M378 0l-244 0c-41 0-74 33-74 75l0 362c0 42 33 75 74 75l243 0c41 0 74-33 74-75l0-362c1-20-6-39-20-53-14-13-33-22-53-22z m-244 491c-29 0-53-24-53-54l0-362c0-30 24-54 53-54l244 0c13 0 27 6 37 16 10 10 15 24 15 38l0 362c0 30-24 54-53 54z m-54-267l362 0 0-21-362 0z m42-52l41 0 0-22-41 0z m75 0l42 0 0-22-42 0z m76 0l42 0 0-22-42 0z m76 0l41 0 0-22-41 0z m-227-50l41 0 0-22-41 0z m75 0l42 0 0-22-42 0z m76 0l42 0 0-22-42 0z m76 0l41 0 0-22-41 0z m-227-52l41 0 0-21-41 0z m75 0l42 0 0-21-42 0z m76 0l42 0 0-21-42 0z m76 0l41 0 0-21-41 0z m2 165l-190 0 0 113-40 0 135 133 135-133-40 0z m-169 21l148 0 0 113 10 0-84 82-84-82 10 0z m-22 115c-6 0-11 4-11 11l0 95 66 0 0-56c0-6-4-10-10-10-7 0-11 4-11 10l0 34-23 0 0-73c0-7-5-11-11-11z"/>
<glyph unicode="&#105;" d="M501 0l-490 0c-7 0-11 4-11 11l0 306c0 6 4 10 11 10l490 0c7 0 11-4 11-10l0-306c0-7-4-11-11-11z m-480 21l470 0 0 285-470 0z m413 288c-2 0-4 1-6 2l-172 116-172-116c-5-3-11-2-15 4-3 5-2 11 4 15l177 118c3 2 8 2 11 0l178-119c6-4 7-10 4-15-2-3-6-5-9-5z m-178 120c-6 0-11 4-11 10l0 62c0 7 5 11 11 11 6 0 11-4 11-11l0-62c0-6-5-10-11-10z m-147-377c-7 0-11 5-11 11l0 202c0 6 4 10 11 10 6 0 10-4 10-10l0-202c0-6-4-11-10-11z m98 0c-6 0-11 5-11 11l0 202c0 6 5 10 11 10 6 0 11-4 11-10l0-202c0-6-5-11-11-11z m98 0c-6 0-11 5-11 11l0 202c0 6 5 10 11 10 6 0 11-4 11-10l0-202c0-6-5-11-11-11z m98 0c-6 0-10 5-10 11l0 202c0 6 4 10 10 10 7 0 11-4 11-10l0-202c0-6-4-11-11-11z"/>
<glyph unicode="&#106;" d="M471 0l-430 0c-7 0-11 4-11 11l0 423c0 7 4 11 11 11l430 0c7 0 11-4 11-11l0-423c0-7-4-11-11-11z m-420 21l410 0 0 402-410 0z m61 373c-6 0-11 4-11 10l0 97c0 7 5 11 11 11 6 0 11-4 11-11l0-97c0-6-5-10-11-10z m288 0c-6 0-11 4-11 10l0 97c0 7 5 11 11 11 6 0 11-4 11-11l0-97c0-6-5-10-11-10z m-234-147l-33-16-6 31 45 22 33 0 0-177-39 0c0 0 0 140 0 140z m219-50c0-54-21-92-64-92-44 0-63 41-63 91 0 51 21 92 64 92 45 0 63-43 63-91z m-87-2c0-40 9-60 24-60 15 0 24 21 24 61 0 40-9 60-24 60-15 0-24-19-24-61z"/>
<glyph unicode="&#107;" d="M501 68l-122 0c-7 0-11 5-11 11l0 88c0 7 4 11 11 11l122 0c7 0 11-4 11-11l0-88c0-6-4-11-11-11z m-112 22l102 0 0 67-102 0z m-10-22l-123 0c-6 0-11 5-11 11l0 88c0 7 5 11 11 11l123 0c6 0 10-4 10-11l0-88c0-6-4-11-10-11z m-112 22l101 0 0 67-101 0z m-11-22l-123 0c-6 0-10 5-10 11l0 88c0 7 4 11 10 11l123 0c6 0 11-4 11-11l0-88c0-6-5-11-11-11z m-112 22l101 0 0 67-101 0z m297 67l-123 0c-7 0-11 4-11 10l0 89c0 6 4 11 11 11l123 0c6 0 10-5 10-11l0-89c0-6-4-10-10-10z m-112 21l101 0 0 67-101 0z m-11-21l-123 0c-6 0-10 4-10 10l0 89c0 6 4 11 10 11l123 0c6 0 11-5 11-11l0-89c0-6-5-10-11-10z m-112 21l101 0 0 67-101 0z m173 67l-123 0c-6 0-11 5-11 11l0 89c0 6 5 10 11 10l123 0c6 0 10-4 10-10l0-89c0-6-4-11-10-11z m-112 22l101 0 0 67-101 0z m51 67l-123 0c-6 0-10 4-10 11l0 88c0 6 4 11 10 11l123 0c6 0 11-5 11-11l0-88c0-7-5-11-11-11z m-112 21l101 0 0 67-101 0z m50-110l-123 0c-6 0-10 5-10 11l0 89c0 6 4 10 10 10l123 0c6 0 11-4 11-10l0-89c0-6-5-11-11-11z m-112 22l101 0 0 67-101 0z m51-110l-122 0c-7 0-11 4-11 10l0 89c0 6 4 11 11 11l122 0c7 0 11-5 11-11l0-89c0-6-4-10-11-10z m-112 21l102 0 0 67-102 0z m50-110l-122 0c-7 0-11 5-11 11l0 88c0 7 4 11 11 11l122 0c7 0 11-4 11-11l0-88c0-6-4-11-11-11z m-112 22l102 0 0 67-102 0z"/>
<glyph unicode="&#108;" d="M275 256c0-12-9-21-21-21-12 0-21 9-21 21 0 12 9 21 21 21 12 0 21-9 21-21z m-61-256c-25 0-47 23-47 51l0 410c0 28 22 51 47 51 1 0 1 0 3 0l201-31c26 0 46-23 46-51l0-348c0-28-21-51-46-51l-201-31c-2 0-2 0-3 0z m-1 491c-14 0-24-14-24-30l0-410c0-16 10-30 24-30l202 31c1 0 1 0 2 0 14 0 26 14 26 30l0 348c0 16-12 30-26 30-1 0-1 0-2 0z m-76-468l-78 0c-7 0-11 5-11 11l0 436c0 7 4 11 11 11l78 0c6 0 10-4 10-11 0-6-4-10-10-10l-68 0 0-415 68 0c6 0 10-4 10-11 0-6-4-11-10-11z"/>
<glyph unicode="&#109;" d="M438 159l-364 0c-7 0-11 4-11 11l0 76c0 7 4 11 11 11l364 0c7 0 11-4 11-11l0-76c0-7-4-11-11-11z m-354 21l344 0 0 56-344 0z m322 56l-300 0c-4 0-7 2-9 4-2 2-3 6-1 10l50 135c1 4 5 8 10 8l200 0c5 0 9-4 10-8l50-133c1-2 1-3 1-6 0-6-4-10-11-10z m-285 21l269 0-42 114-185 0z m5-138c-7 0-11 5-11 11l0 36c0 7 4 11 11 11 6 0 11-4 11-11l0-36c0-6-5-11-11-11z m260 0c-6 0-11 5-11 11l0 36c0 7 5 11 11 11 7 0 11-4 11-11l0-36c0-6-4-11-11-11z m-238 78l-45 0c-6 0-10 5-10 11 0 6 4 11 10 11l45 0c7 0 11-5 11-11 0-6-4-11-11-11z m261 0l-45 0c-7 0-11 5-11 11 0 6 4 11 11 11l45 0c6 0 10-5 10-11 0-6-4-11-10-11z m-153-197c-141 0-256 115-256 256 0 141 115 256 256 256 141 0 256-115 256-256 0-141-115-256-256-256z m0 491c-129 0-235-106-235-235 0-129 106-235 235-235 129 0 235 106 235 235 0 129-106 235-235 235z m-151-439c-3 0-5 1-7 2-4 4-5 11-2 15l303 386c3 5 11 6 15 3 4-4 5-11 2-15l-303-386c-2-4-5-5-8-5z"/>
<glyph unicode="&#110;" d="M286 0c0 0-1 0 0 0l-276 27c-6 0-10 5-10 10l0 257c0 4 2 7 4 9l138 98c3 2 8 2 13 0l137-98c3-2 5-5 5-9l0-283c0-4-2-7-4-8-2-2-5-3-7-3z m-265 47l254-25 0 267-127 91-127-91z m265-47c-4 0-8 2-10 5-3 6-1 12 5 14l210 107 0 198-127 91-215-33c-5-1-11 3-11 8-1 6 3 12 8 12l219 35c3 0 5 0 7-2l135-97c3-2 4-5 4-8l0-209c0-5-2-8-5-10l-215-110c-2-1-3-1-5-1z m-95 10c-6 0-11 4-11 10l0 189-88 6 0-178c0-6-5-10-11-10-6 0-11 4-11 10l0 189c0 3 1 5 4 8 2 2 5 3 8 3l110-8c5 0 10-5 10-10l0-199c0-6-5-10-11-10z m10 380c-7 0-11 5-11 11l0 100c0 7 4 11 11 11l66 0c6 0 10-4 10-11l0-90c0-7-4-11-10-11-7 0-11 4-11 11l0 80-45 0 0-90c0-6-4-11-10-11z m165-275c-2 0-4 1-5 2-4 2-6 6-6 9l0 102c0 5 3 9 8 10l72 24c3 1 7 1 10-1 3-2 4-5 4-8l0-94c0-4-2-8-6-10l-73-33c-1-1-3-1-4-1z m11 106l0-78 51 23 0 73z"/>
<glyph unicode="&#111;" d="M483 0l-455 0c-7 0-11 4-11 11l0 334c0 6 4 10 11 10l455 0c7 0 11-4 11-10l0-334c0-7-4-11-11-11z m-445 21l435 0 0 313-435 0z m463 313l-490 0c-5 0-9 3-11 7-1 5 0 10 4 12l246 157c3 2 7 2 11 0l246-157c4-2 5-7 4-12-1-4-5-7-10-7z m-454 21l418 0-209 134z m338-132l-258 0c-6 0-11 4-11 11 0 6 5 10 11 10l258 0c6 0 11-4 11-10 0-7-5-11-11-11z m0-57l-258 0c-6 0-11 5-11 11 0 6 5 11 11 11l258 0c6 0 11-5 11-11 0-6-5-11-11-11z m0-56l-258 0c-6 0-11 4-11 11 0 6 5 10 11 10l258 0c6 0 11-4 11-10 0-7-5-11-11-11z m0-56l-258 0c-6 0-11 5-11 11 0 6 5 11 11 11l258 0c6 0 11-5 11-11 0-6-5-11-11-11z"/>
<glyph unicode="&#112;" d="M512 0l-512 0 0 217 144 94 0-81 123 83 0-82 122 82 0-82 123 82z m-491 21l470 0 0 251-123-81 0 81-123-81 0 81-122-81 0 81-102-66z m400 230l-24 240-42 0-23-233-22 2 26 252 80 0 27-259z m-361-113l21 0 0-29-21 0z m54 0l21 0 0-29-21 0z m56 0l21 0 0-29-21 0z m55 0l21 0 0-29-21 0z m54 0l22 0 0-29-22 0z m56 0l21 0 0-29-21 0z m54 0l22 0 0-29-22 0z"/>
<glyph unicode="&#113;" d="M315 333c-9 0-17 2-25 6l-144 79c-12 7-19 16-22 28-3 13-2 24 4 36l2 5c8 15 24 25 41 25 8 0 17-2 23-6l144-80c11-7 19-16 23-28 3-12 2-25-5-35l-1-5c-8-16-23-25-40-25z m-167 145l-2-5c-3-7-4-14-3-21 2-6 6-11 13-15l144-79c13-7 29-3 35 9l2 4c3 7 4 14 3 20-2 7-6 12-13 15l-144 80c-12 9-27 4-35-8z m45-362c-8 0-17 2-24 7l-144 79c-12 6-20 16-23 27-3 13-2 26 4 38l3 3c8 15 24 24 41 24 9 0 17-2 24-6l144-80c10-6 19-16 22-28 3-13 2-25-5-36l-2-3c-8-15-24-25-40-25z m-143 158c-9 0-18-5-22-14l-2-4c-5-6-6-14-4-20 3-7 7-12 13-15l144-79c13-8 29-3 35 9l4 5c3 5 4 13 2 19-2 6-7 12-13 15l-144 80c-4 3-9 4-13 4z m164-87l-159 88 94 167 159-88z m-129 97l122-67 72 130-121 65z m178-1l244-136-10-19-244 136z m131-283l-331 0c-29 0-52 23-52 52 0 29 23 53 52 53l331 0c28 0 52-24 52-53-1-30-25-52-52-52z m-331 83c-17 0-31-14-31-31 0-18 13-31 31-31l331 0c17 0 29 14 31 31 0 17-14 31-31 31z"/>
<glyph unicode="&#114;" d="M501 19l-151 0c-7 0-11 4-11 11l0 454c0 7 4 11 11 11l151 0c7 0 11-4 11-11l0-454c0-7-4-11-11-11z m-140 22l130 0 0 433-130 0z m81 359l-32 0c-7 0-11 4-11 11 0 6 4 10 11 10l32 0c6 0 10-4 10-10 0-7-4-11-10-11z m0-83l-32 0c-7 0-11 4-11 10 0 7 4 11 11 11l32 0c6 0 10-4 10-11 0-6-4-10-10-10z m0-247l-32 0c-7 0-11 5-11 11 0 6 4 11 11 11l32 0c6 0 10-5 10-11 0-6-4-11-10-11z m-296-61c-1 0-3 0-4 1l-137 67c-2 1-4 3-5 6-1 3-1 6 1 9l202 406c2 5 8 8 14 4l135-67c2-1 4-3 5-6 1-3 1-6-1-9l-202-406c0-3-5-5-8-5z m-121 83l116-58 193 387-116 58z m237 283c-2 0-3 0-5 2l-29 14c-5 4-7 10-4 14 3 6 10 8 14 5l29-15c5-4 7-10 4-14-1-3-4-6-9-6z m-37-74c-1 0-3 0-4 1l-29 14c-5 2-7 8-5 14 2 5 8 7 14 5l28-14c6-2 8-8 6-14-2-4-6-6-10-6z m-110-221c-2 0-3 0-5 1l-29 15c-5 3-7 10-4 14 3 5 9 7 14 4l28-15c6-3 8-9 5-14-1-3-5-5-9-5z"/>
<glyph unicode="&#115;" d="M381 0l-249 0c-6 0-10 4-10 11l0 490c0 7 4 11 10 11l249 0c6 0 10-4 10-11l0-490c0-7-4-11-10-11z m-238 21l227 0 0 470-227 0z m-11-21l-121 0c-7 0-11 4-11 11l0 372c0 3 1 5 3 7l122 119c3 3 7 4 12 2 4-2 6-5 6-10l0-490c0-7-4-11-11-11z m-111 21l101 0 0 455-101-97z m480-21l-121 0c-7 0-11 4-11 11l0 490c0 5 2 9 6 10 5 2 9 1 12-2l122-119c2-2 3-4 3-7l0-372c0-7-4-11-11-11z m-111 21l101 0 0 358-101 98z m-207 434l22 0 0-27-22 0z m62 0l22 0 0-27-22 0z m62 0l22 0 0-27-22 0z m-124-81l22 0 0-27-22 0z m62 0l22 0 0-27-22 0z m62 0l22 0 0-27-22 0z m-124-81l22 0 0-27-22 0z m62 0l22 0 0-27-22 0z m62 0l22 0 0-27-22 0z m-124-80l22 0 0-27-22 0z m62 0l22 0 0-27-22 0z m62 0l22 0 0-27-22 0z m23-213l-147 0 0 147 147 0z m-125 21l103 0 0 105-103 0z m-162 332l21 0 0-38-21 0z m0-78l21 0 0-38-21 0z m0-78l21 0 0-38-21 0z m0-76l21 0 0-39-21 0z m39 260l21 0 0-39-21 0z m0-78l21 0 0-38-21 0z m0-78l21 0 0-38-21 0z m0-77l21 0 0-38-21 0z m365 205l21 0 0-38-21 0z m0-78l21 0 0-38-21 0z m0-78l21 0 0-38-21 0z m0-76l21 0 0-39-21 0z m-41 260l22 0 0-39-22 0z m0-78l22 0 0-38-22 0z m0-78l22 0 0-38-22 0z m0-77l22 0 0-38-22 0z"/>
<glyph unicode="&#116;" d="M198 62l-130 0c-6 0-10 4-10 11l0 240-47 0c-5 0-9 3-10 7-1 4 0 9 3 12l214 178c4 3 9 3 13 0l215-178c3-3 4-8 3-12-1-4-5-7-10-7l-46 0 0-29c0-7-5-11-11-11-7 0-11 4-11 11l0 39c0 7 4 11 11 11l28 0-186 153-183-153 27 0c7 0 11-4 11-11l0-240 119 0c7 0 11-4 11-10 0-7-4-11-11-11z m-140 290c-7 0-11 4-11 11l0 126c0 6 4 10 11 10l68 0c6 0 11-4 11-10l0-70c0-6-5-10-11-10-7 0-11 4-11 10l0 59-47 0 0-115c0-7-4-11-10-11z m312-353c-13 0-25 4-37 15-32 30-79 37-87 38-7 0-37-1-54 12 0 0-1 1-1 1-3 3-12 12-10 25 2 27 29 36 43 36 1 0 2 0 2 0l42-9-89 154c-10 17-5 39 12 50 8 5 19 6 28 4 9-2 17-8 22-17l69-119c4-6 1-12-4-15-5-3-12-1-15 4l-67 120c-2 3-5 6-9 6-3 1-7 0-11-2-7-4-10-14-5-21l101-174c2-4 2-9-1-12-2-3-7-5-11-4l-64 14c-4 0-19-4-20-19 0-2 0-3 3-6 8-6 29-7 40-7 2 0 2 0 3 0 2 0 59-8 99-45 30-28 84 20 84 20 1 0 1 1 2 1 0 0 31 17 47 28 11 7 12 39-9 77l-67 113c-2 4-6 6-9 7-2 0-6 1-8-1-3-2-5-5-6-10-1-4 0-7 2-11l16-27c3-5 1-12-3-15-5-3-12-1-15 3l-16 27c-5 7-6 17-4 27 2 9 7 18 16 22 6 4 16 6 24 4 10-2 18-8 24-18l64-109c25-42 26-88 3-104-16-11-43-26-48-29-7-5-42-34-76-34z m-70 180c-3 0-8 2-10 6l-22 38c-6 10-7 20-5 30 3 8 9 16 16 20 8 5 18 6 27 4 10-2 17-9 21-18l25-41c3-6 1-12-4-15-6-4-12-1-15 4l-25 43c-2 4-5 6-8 7-3 1-7 0-10-1-4-2-5-5-6-7-1-5 0-10 2-14l22-39c3-5 1-11-4-15-1-2-2-2-4-2z m42 22c-3 0-7 2-9 5l-18 31c-6 9-7 20-5 30 3 8 9 16 16 20 8 5 17 6 27 4 10-2 17-9 21-18l20-32c3-5 1-12-5-15-5-3-11-1-15 4l-19 33c-2 5-5 7-8 8-4 1-7 0-10-1-4-2-5-5-6-8-1-4 0-9 2-13l18-31c3-6 1-12-4-15-1-2-2-2-5-2z"/>
<glyph unicode="&#117;" d="M50 247c-2 0-4 2-6 3l-40 27c-2 2-4 5-4 8 0 3 0 5 2 8l92 119c1 1 2 2 3 3l105 58c4 2 9 1 12-3 4-4 4-9 0-13l-155-205c-2-3-6-5-9-5z m-24 41l22-15 119 156-57-32z m432-250c-3 0-5 1-7 3l-365 265c-2 2-4 4-4 8 0 3 0 5 2 8l44 57c3 4 10 5 15 2l365-265c2-2 4-4 4-7 0-3 0-6-2-9l-44-57c-2-4-5-5-8-5z m-350 279l347-253 31 41-347 251z"/>
<glyph unicode="&#118;" d="M469 327l-353 0c-23 0-42 20-42 43l0 50c0 24 19 43 42 43l353 0c24 0 43-19 43-43l0-50c0-23-19-43-43-43z m-353 115c-11 0-21-10-21-22l0-50c0-12 10-21 21-21l353 0c12 0 22 9 22 21l0 50c0 12-10 22-22 22z m171-275c-6 0-11 5-11 11l0 47-266 29c-6 1-10 5-10 11l0 130c0 6 4 10 11 10l63 0c6 0 10-4 10-10 0-7-4-11-10-11l-53 0 0-110 267-29c5-1 10-5 10-10l0-57c0-6-5-11-11-11z m29-118l-55 0c-6 0-10 4-10 11l0 112c0 6 4 10 10 10l55 0c6 0 10-4 10-10l0-112c0-7-4-11-10-11z m-44 21l33 0 0 91-33 0z"/>
<glyph unicode="&#119;" d="M380 0c-3 0-6 1-8 3l-369 369c-4 5-4 11 0 15 4 4 11 4 15 0l369-369c4-4 4-11 0-15-2-2-4-3-7-3z m121 122c-3 0-5 1-7 3l-369 369c-4 4-4 11 0 15 4 4 10 4 15 0l369-369c4-5 4-11 0-15-2-2-4-3-8-3z m-432 188c-3 0-5 1-7 4-4 4-4 10 0 15l121 121c5 4 11 4 15 0 5-4 5-11 0-15l-121-121c-2-3-4-4-8-4z m89-88c-3 0-5 1-8 3-4 4-4 11 0 15l122 122c4 4 11 4 15 0 4-5 4-11 0-15l-122-122c-2-2-4-3-7-3z m87-88c-3 0-5 1-7 4-4 4-4 10 0 15l121 121c5 4 11 4 15 0 5-4 5-11 0-15l-121-121c-2-3-4-4-8-4z m88-88c-3 0-6 1-8 3-4 4-4 11 0 15l123 123c4 4 11 4 15 0 4-5 4-11 0-15l-123-123c-2-2-4-3-7-3z"/>
<glyph unicode="&#120;" d="M256 0c-141 0-256 115-256 256 0 141 115 256 256 256 141 0 256-115 256-256 0-141-115-256-256-256z m0 491c-129 0-235-106-235-235 0-129 106-235 235-235 129 0 235 106 235 235 0 129-106 235-235 235z m0-232c-37 0-65 108-65 136 0 42 33 75 76 75l2 0c40 0 73-34 73-75 0-39-34-86-67-126-6-9-14-10-19-10z m13 190l-1 0c-31 0-55-23-55-54 0-34 31-113 44-114 0 0 1 1 2 2 19 23 63 76 63 113-1 29-24 53-53 53z m0-407l-2 0c-43 0-76 33-76 75 0 29 28 136 65 136 5 0 12-2 18-10 33-40 67-88 67-126 0-20-7-39-21-53-13-15-32-22-51-22z m-13 191c-14-2-44-80-44-116 0-31 24-54 55-54l2 0c14 0 28 5 37 16 10 11 15 23 15 38 0 36-44 90-63 113-1 1-2 1-2 3z m-139-42c-42 0-75 33-75 76-1 19 6 38 20 52 14 15 34 23 55 23 39 0 86-34 126-67 9-7 12-16 9-25-11-32-104-59-135-59z m0 130c-15 0-30-6-39-17-10-10-15-23-15-37 0-31 23-55 54-55 34 0 113 31 114 44 0 0 0 1-2 2-22 19-76 63-112 63z m278-130c-31 0-124 27-135 58-3 9 0 19 9 25 40 33 88 67 126 67 20 0 40-8 55-23 14-14 21-33 20-53 0-41-33-74-75-74z m0 130c-36 0-90-44-113-63-3-1-3-2-3-2 2-14 80-44 116-44 31 0 54 24 54 55 0 14-4 27-15 37-9 11-24 17-39 17z"/>
<glyph unicode="&#121;" d="M459 0l-406 0c-6 0-10 4-10 11l0 298-32 0c-5 0-9 4-10 8-1 4 0 9 4 12l246 181c4 3 8 3 12 0l246-181c3-4 5-8 4-12-1-4-5-8-11-8l-32 0 0-298c-1-7-5-11-11-11z m-395 21l384 0 0 299c0 6 4 11 11 11l10 0-213 158-213-158 10 0c7 0 11-5 11-11z m192 306c-23 0-43 20-43 43 0 24 20 43 43 43 23 0 43-19 43-43 0-23-20-43-43-43z m0 64c-12 0-21-9-21-21 0-12 9-21 21-21 12 0 21 9 21 21 0 12-9 21-21 21z m32-345c-17 0-30 12-30 25l0 90-7 0 0-90c0-13-13-25-30-25-17 0-30 12-30 25l0 147-12-13c-6-8-16-10-23-10-7 0-13 2-18 6-7 4-11 10-12 18-1 7 2 14 7 19l64 67c2 3 6 6 9 9 4 5 12 8 19 9 4 1 8 1 11 1l40 0c3 0 7 0 12-1 4-1 12-3 18-8 3-2 7-6 9-9l64-67c5-5 7-12 6-19-1-8-6-15-15-19-4-4-11-5-17-5-8 0-16 3-22 10l-13 13 0-146c0-15-13-27-30-27z m-48 136l29 0c6 0 10-4 10-10l0-101c0-2 4-4 9-4 5 0 9 2 9 4l0 173c0 5 2 9 6 10 4 2 8 1 12-2l31-32c4-5 10-3 12-2 0 0 1 0 1 1 4 2 5 3 5 3l-65 69c0 0-1 1-1 1-1 2-3 3-5 5-1 0-1 1-2 1-1 1-4 2-8 3 0 0-1 0-1 0-1 0-3 0-6 0l-40 0c-3 0-3 0-6 0-1 0-2-1-3-1-2 0-4-1-5-2-1-1-2-3-2-3-2-1-3-2-5-4 0 0-1-1-1-1l-65-68c-1-1-1-1-1-2 0-1 1-2 2-3 1-2 4-2 7-2 3 0 5 2 6 3 0 0 1 1 1 1l31 32c3 3 8 4 12 2 4-2 6-6 6-10l0-173c0-2 4-4 9-4 5 0 8 2 8 4l0 101c-1 7 4 11 10 11z"/>
<glyph unicode="&#122;" d="M415 404c-2 0-3 0-5 1l-154 85-154-85c-5-3-11-1-15 5-2 5-1 11 5 15l159 86c3 2 7 2 10 0l159-86c6-4 8-10 5-15-3-4-6-6-10-6z m-404-113c-5 0-8 2-10 7-2 5 0 11 5 13l120 55 0 69c0 7 4 11 11 11 6 0 10-4 10-11l0-76c0-4-2-7-6-9l-126-58c-1-1-3-1-4-1z m490 0c-1 0-3 0-4 1l-126 58c-4 2-6 5-6 9l0 76c0 7 4 11 10 11 7 0 11-4 11-11l0-69 120-55c5-2 7-8 5-13-2-5-5-7-10-7z m-33-291l-424 0c-7 0-11 4-11 11l0 305c0 6 4 10 11 10 6 0 10-4 10-10l0-295 404 0 0 295c0 6 4 10 10 10 7 0 11-4 11-10l0-305c0-7-4-11-11-11z m-162 0l-95 0c-6 0-10 4-10 11l0 146c0 6 4 10 10 10l95 0c7 0 11-4 11-10l0-146c0-7-4-11-11-11z m-84 21l73 0 0 125-73 0z"/>
<glyph unicode="&#65;" d="M444 0l-375 0c-6 0-10 4-10 11l0 281c0 7 4 11 10 11l375 0c6 0 10-4 10-11l0-281c0-7-4-11-10-11z m-364 21l353 0 0 261-353 0z m309 267c-6 0-10 4-10 11l0 128c0 35-29 64-64 64l-118 0c-35 0-64-29-64-64l0-128c0-7-4-11-10-11-7 0-11 4-11 11l0 128c0 47 38 85 85 85l118 0c46 0 85-39 85-85l0-128c0-7-4-11-11-11z m-99-161c0-19-15-34-34-34-19 0-34 15-34 34 0 19 15 34 34 34 19 0 34-15 34-34z m-34-80c-6 0-11 4-11 11l0 55c0 6 5 11 11 11 6 0 11-5 11-11l0-55c0-7-5-11-11-11z"/>
<glyph unicode="&#66;" d="M352 194l-192 0 0 164 21 0 0-143 150 0 0 143 21 0z m-203 135l-12 17 119 98 119-98-12-17-107 87z m26 84l21 0 0-40-21 0z m122-220l-82 0 0 111 82 0z m-60 21l38 0 0 69-38 0z m144-214l-250 0c-36 0-64 28-64 64l0 384c0 36 28 64 64 64l250 0c36 0 64-28 64-64l0-384c0-35-29-64-64-64z m-250 491c-23 0-42-20-42-43l0-384c0-23 19-43 42-43l250 0c23 0 42 20 42 43l0 384c0 23-19 43-42 43z m-53-364l356 0 0-21-356 0z m182-49l31 0 0-21-31 0z m73 0l31 0 0-21-31 0z"/>
<glyph unicode="&#67;" d="M502 447l-492 0c-7 0-11 4-11 11 0 6 4 10 11 10l492 0c7 0 11-4 11-10 0-7-4-11-11-11z m-24-442l-444 0c-6 0-11 5-11 11l0 381c0 6 5 10 11 10l444 0c6 0 11-4 11-10l0-381c0-6-5-11-11-11z m-433 22l422 0 0 359-422 0z m53 376c-6 0-11 4-11 11l0 83c0 6 5 11 11 11 7 0 11-5 11-11l0-83c0-7-4-11-11-11z m312 0c-7 0-11 4-11 11l0 83c0 6 4 11 11 11 6 0 10-5 10-11l0-83c0-7-4-11-10-11z m-312-82c-6 0-11 4-11 11l0 35c0 6 5 11 11 11 7 0 11-5 11-11l0-35c0-7-4-11-11-11z m312 0c-7 0-11 4-11 11l0 35c0 6 4 11 11 11 6 0 10-5 10-11l0-35c0-7-4-11-10-11z m-321-103c5 1 11 1 19 1 10 0 17-2 21-6 4-3 6-8 6-14 0-8-6-14-12-17 5-2 8-6 9-13 2-9 5-18 6-20l-14 0c-1 2-3 8-5 16-2 10-5 12-12 12l-6 0 0-29-12 0z m12-31l8 0c8 0 14 4 14 11 0 8-6 12-14 12-4 0-7 0-8-1z m110-2c0-24-14-38-34-38-20 0-33 15-33 35 0 22 14 37 33 37 22 1 34-15 34-34z m-52-2c0-13 7-25 19-25 13 0 19 12 19 25 0 13-6 26-19 26-13 0-19-12-19-26z m127 2c0-24-14-38-34-38-21 0-33 15-33 35 0 22 14 37 33 37 21 1 34-15 34-34z m-53-2c0-13 7-25 19-25 13 0 19 12 19 25 0 13-6 26-19 26-13 0-19-12-19-26z m123-6c0 9-1 20-1 30-2-9-5-18-8-27l-11-30-10 0-9 30c-3 9-6 18-8 27 0-10-1-20-1-30l-1-28-12 0 5 71 17 0 9-28c3-9 5-16 7-25 2 8 4 16 7 25l10 28 17 0 4-71-13 0z m27-15c4-2 11-4 17-4 9 0 13 4 13 9 0 6-3 9-13 12-12 4-19 11-19 20 0 12 9 21 24 21 8 0 13-2 17-3l-3-11c-2 1-7 3-14 3-8 0-11-4-11-8 0-6 4-8 13-12 13-4 19-11 19-20 0-11-9-22-27-22-8 0-15 2-19 4z"/>
<glyph unicode="&#68;" d="M489 379c-2 0-4 0-5 1l-228 110-228-110c-6-2-12 0-14 5-2 5 0 12 5 14l233 112c3 1 6 1 9 0l233-112c5-2 7-9 5-14-3-4-6-6-10-6z m-403-344c-6 0-10 4-10 11l0 340c0 7 4 11 10 11 7 0 11-4 11-11l0-340c0-7-4-11-11-11z m113 0c-6 0-10 4-10 11l0 340c0 7 4 11 10 11 7 0 11-4 11-11l0-340c0-7-4-11-11-11z m114 0c-7 0-11 4-11 11l0 340c0 7 4 11 11 11 6 0 10-4 10-11l0-340c0-7-4-11-10-11z m113 0c-7 0-11 4-11 11l0 340c0 7 4 11 11 11 6 0 10-4 10-11l0-340c0-7-4-11-10-11z m58-35l-456 0c-7 0-11 4-11 11 0 6 4 10 11 10l456 0c7 0 11-4 11-10 0-7-4-11-11-11z"/>
<glyph unicode="&#69;" d="M501 406l-490 0c-7 0-11 5-11 11 0 6 4 11 11 11l490 0c7 0 11-5 11-11 0-6-4-11-11-11z m-21-299l-410 0c-6 0-11 5-11 11l0 252c0 2 0 4 0 7 1 3 4 7 11 7l410 0c6 0 12-5 12-12l0-254c0-6-6-11-12-11z m-400 21l390 0 0 235-390 0z m-69-128c-7 0-11 4-11 11l0 490c0 7 4 11 11 11 6 0 10-4 10-11l0-490c0-7-4-11-10-11z m130 338c-7 0-11 4-11 11l0 95c0 6 4 10 11 10 6 0 10-4 10-10l0-95c0-7-4-11-10-11z m269 0c-7 0-11 4-11 11l0 95c0 6 4 10 11 10 6 0 10-4 10-10l0-95c0-7-4-11-10-11z m-280-21l0-27 29 0 0 27 17 0 0-68-17 0 0 28-29 0 0-28-17 0 0 68c0 0 17 0 17 0z m132-33c0-23-15-37-37-37-22 0-36 15-36 36 0 20 15 36 37 36 24-1 36-16 36-35z m-55-1c0-14 7-23 19-23 12 0 18 10 18 24 0 13-6 22-18 22-13 0-19-11-19-23z m78 21l-20 0 0 13 59 0 0-13-21 0 0-55-17 0 0 55z m94-27l-29 0 0-16 32 0 0-12-49 0 0 68 48 0 0-13-30 0 0-14 29 0z m16 40l17 0 0-56 31 0 0-12-48 0z m-233-125l-24 2-10 19-10-19-23-2 18-14-5-21 21 12 20-12-5 21z m74 0l-25 2-9 19-10-19-23-2 18-14-6-21 21 12 21-12-5 21z m72 0l-23 2-10 19-9-19-25-2 19-14-5-21 20 12 22-12-7 21z m74 0l-24 2-10 19-9-19-24-2 19-14-5-21 20 12 21-12-6 21z m73 0l-24 2-10 19-8-19-25-2 18-14-4-21 20 12 22-12-7 21z"/>
<glyph unicode="&#70;" d="M501 438l-490 0c-7 0-11 5-11 11 0 6 4 11 11 11l490 0c7 0 11-5 11-11 0-6-4-11-11-11z m-490-115c-7 0-11 4-11 11l0 167c0 7 4 11 11 11 6 0 10-4 10-11l0-167c0-7-4-11-10-11z m490-323l-431 0c-6 0-10 4-10 11l0 344c0 7 4 11 10 11l431 0c7 0 11-4 11-11l0-344c0-7-4-11-11-11z m-420 21l410 0 0 324-410 0z m57 324c-7 0-11 4-11 10l0 94c0 6 4 11 11 11 6 0 10-5 10-11l0-94c0-6-4-10-10-10z m282 0c-6 0-10 4-10 10l0 94c0 6 4 11 10 11 7 0 11-5 11-11l0-94c0-6-4-10-11-10z m-292-109l0-41 31 0 0 41 18 0 0-106-18 0 0 45-31 0 0-45-19 0 0 106z m141-51c0-36-16-56-41-56-24 0-38 24-38 54 0 32 16 56 40 56 25-1 39-26 39-54z m-60-3c0-20 8-35 20-35 13 0 21 15 21 36 0 20-8 36-21 36-12 0-20-15-20-37z m85 35l-22 0 0 20 64 0 0-20-22 0 0-86-20 0z m101-42l-31 0 0-26 34 0 0-19-52 0 0 106 51 0 0-19-32 0 0-23 30 0z m16 61l19 0 0-86 33 0 0-20-51 0z"/>
<glyph unicode="&#71;" d="M101 0c-6 0-10 4-10 11l0 369-80 0c-7 0-11 4-11 10 0 7 4 11 11 11l80 0 0 100c0 4 2 7 4 9 3 2 6 3 10 1l298-111c6-2 8-6 7-12-1-5-6-8-11-8l-288 0 0-369c1-7-3-11-10-11z m11 401l228 0-228 85z m288-125c-6 0-11 5-11 11l0 103c0 7 5 11 11 11 6 0 11-4 11-11l0-103c0-6-5-11-11-11z m101-15l-202 0c-7 0-11 5-11 11 0 6 4 11 11 11l202 0c7 0 11-5 11-11 0-6-4-11-11-11z m-490 81c-7 0-11 5-11 11l0 80c0 6 4 11 11 11 6 0 10-5 10-11l0-80c0-6-4-11-10-11z"/>
<glyph unicode="&#72;" d="M443 0l-374 0c-6 0-10 4-10 11l0 335c0 6 4 10 10 10 7 0 11-4 11-10l0-325 352 0 0 325c0 6 4 10 11 10 6 0 10-4 10-10l0-335c0-7-4-11-10-11z m58 289c-2 0-4 1-6 2l-239 196-239-196c-4-3-11-3-15 2-4 5-3 12 1 15l246 202c4 3 9 3 13 0l246-202c4-4 5-10 1-15-1-3-4-4-8-4z m-400 79c-6 0-10 4-10 11l0 86c0 6 4 11 10 11 7 0 11-5 11-11l0-86c0-7-4-11-11-11z m12-116c5-3 13-6 20-6 12 0 18 7 18 15 0 9-4 13-16 17-13 6-22 13-22 25 0 14 11 23 28 23 8 0 15-2 19-4l-3-9c-3 1-9 4-16 4-12 0-16-8-16-13 0-9 5-12 17-17 15-5 22-13 22-26 0-12-9-24-30-24-8 0-17 2-22 5z m76 72l0-36 41 0 0 36 12 0 0-86-12 0 0 40-41 0 0-40-11 0 0 86z m146-41c0-30-18-46-41-46-22 0-38 18-38 44 0 27 17 44 41 44 22 1 38-17 38-42z m-67-2c0-19 9-36 27-36 19 0 28 16 28 37 0 17-8 35-28 35-18 0-27-17-27-36z m81 42c5 1 13 2 21 2 11 0 19-2 25-7 4-4 7-11 7-18 0-8-2-14-6-18-7-7-16-10-27-10-3 0-6 0-8 1l0-34-11 0 0 84z m12-41c2-1 5-1 9-1 14 0 21 6 21 18 0 11-8 17-20 17-5 0-8 0-10-1z m-40-282l-130 0c-6 0-11 4-11 11l0 195c0 6 5 11 11 11l130 0c6 0 11-5 11-11l0-195c0-7-5-11-11-11z m-119 21l108 0 0 174-108 0z"/>
<glyph unicode="&#73;" d="M447 0l-382 0c-6 0-11 4-11 11l0 323c0 6 5 11 11 11l382 0c6 0 11-5 11-11l0-323c0-7-5-11-11-11z m-371 21l360 0 0 302-360 0z m425 302l-490 0c-4 0-8 2-9 6-2 3-2 7-1 10l57 118c2 3 5 6 9 6l378 0c4 0 7-2 9-6l56-117c1-2 2-4 2-6 0-7-4-11-11-11z m-473 22l456 0-46 97-364 0z m349 97l-51 0c-6 0-10 4-10 10l0 49c0 7 4 11 10 11l51 0c6 0 10-4 10-11l0-49c0-6-4-10-10-10z m-40 21l29 0 0 28-29 0z m-110-463l-106 0c-7 0-11 4-11 11l0 211c0 6 4 11 11 11l106 0c7 0 11-5 11-11l0-211c0-7-4-11-11-11z m-96 21l86 0 0 190-86 0z m246 85l-86 0c-6 0-10 4-10 10l0 106c0 6 4 11 10 11l86 0c6 0 10-5 10-11l0-106c0-6-4-10-10-10z m-75 21l64 0 0 84-64 0z"/>
<glyph unicode="&#74;" d="M356 0l-331 0c-7 0-11 4-11 11l0 454c0 6 4 11 11 11l331 0c7 0 11-5 11-11l0-29c0-6-4-10-11-10-6 0-10 4-10 10l0 18-311 0 0-433 311 0 0 320c0 7 4 11 10 11 7 0 11-4 11-11l0-330c0-7-4-11-11-11z m-13 324l-50 2c-3 0-5 1-7 5-2 3-3 5-2 8l7 54c0 3 2 5 4 7l143 110c5 3 12 3 15-2l43-55c2-2 2-5 2-7 0-3-2-5-4-8l-144-112c-2-1-4-2-7-2z m-38 24l34-1 132 103-29 37-133-101z m-45-83l-138 0c-7 0-11 4-11 10 0 7 4 11 11 11l138 0c7 0 11-4 11-11 0-6-4-10-11-10z m0-95l-138 0c-7 0-11 4-11 10 0 7 4 11 11 11l138 0c7 0 11-4 11-11 0-6-4-10-11-10z m0-95l-138 0c-7 0-11 4-11 10 0 7 4 11 11 11l138 0c7 0 11-4 11-11 0-6-4-10-11-10z"/>
<glyph unicode="&#75;" d="M144 0c-39 0-75 15-101 43-57 57-56 152 2 211 49 49 122 59 178 25 5-3 6-9 3-14-3-6-9-7-15-4-48 29-111 21-152-22-48-50-49-132-1-181 22-24 53-37 86-37 0 0 0 0 1 0 34 0 66 14 92 39 36 37 48 95 28 142-3 5 0 11 5 13 5 3 12 0 14-5 23-55 10-121-32-165-30-29-67-45-108-45z m-50 61c-12 0-23 4-31 13-17 17-17 44 0 61 7 9 19 14 31 14 12 0 23-5 31-14 17-17 17-44 0-61-9-9-19-13-31-13z m0 67c-7 0-12-2-16-7-9-9-9-24 0-32 8-9 23-9 32 0 8 8 8 23 0 32-4 4-10 7-16 7z m182 70c-3 0-5 1-7 4-4 4-4 10 0 15l220 222-25 48-26 3 0-28c0-5-4-10-9-11l-34-4 8-33c1-3 0-8-2-10-2-2-5-4-10-3l-36 4-1-55c0-3-1-7-4-9-2-2-5-3-9-2l-34 7-76-77c-4-4-10-4-14 0-5 4-5 10 0 15l80 81c2 2 6 3 9 3l27-5 1 54c0 3 1 5 3 8 2 2 5 3 9 2l33-4-8 30c-1 4 0 7 1 9 1 2 5 4 8 4l37 4 0 31c0 4 1 7 3 8 2 2 6 3 9 3l42-4c4 0 7-2 9-6l31-59c2-5 1-10-2-13l-225-228c-2-3-5-4-8-4z"/>
<glyph unicode="&#76;" d="M489 95l-196 0c-6 0-10 4-10 11l0 268c0 7 4 11 10 11l196 0c6 0 10-4 10-11l0-268c0-7-4-11-10-11z m-185 21l174 0 0 248-174 0z m197 248l-201 0c-7 0-11 4-11 10 0 7 4 11 11 11l168 0-141 104-142-105c-5-3-12-2-15 2-4 4-3 12 2 15l149 109c4 3 9 3 13 0l174-127c3-3 5-8 4-12-2-4-6-7-11-7z m-384-364c-6 0-10 4-10 11l0 76-96 0c-7 0-11 5-11 11 0 7 4 11 11 11l106 0c7 0 11-4 11-11l0-87c0-7-4-11-11-11z m176 0l-176 0c-2 0-5 1-6 2l-107 88c-3 2-4 5-4 8l0 292c0 7 4 11 11 11l282 0c7 0 11-4 11-11l0-379c0-7-4-11-11-11z m-171 21l161 0 0 359-262 0 0-277z m-53 298l-16 0c-6 0-10 4-10 11 0 6 4 10 10 10l16 0c7 0 11-4 11-10 0-7-4-11-11-11z m178 0l-146 0c-6 0-10 4-10 11 0 6 4 10 10 10l146 0c7 0 11-4 11-10 0-7-4-11-11-11z m-178-61l-16 0c-6 0-10 4-10 11 0 6 4 10 10 10l16 0c7 0 11-4 11-10 0-7-4-11-11-11z m178 0l-146 0c-6 0-10 4-10 11 0 6 4 10 10 10l146 0c7 0 11-4 11-10 0-7-4-11-11-11z m-178-61l-16 0c-6 0-10 5-10 11 0 6 4 11 10 11l16 0c7 0 11-5 11-11 0-6-4-11-11-11z m178 0l-146 0c-6 0-10 5-10 11 0 6 4 11 10 11l146 0c7 0 11-5 11-11 0-6-4-11-11-11z m-178-60l-16 0c-6 0-10 4-10 10 0 7 4 11 10 11l16 0c7 0 11-4 11-11 0-6-4-10-11-10z m178 0l-146 0c-6 0-10 4-10 10 0 7 4 11 10 11l146 0c7 0 11-4 11-11 0-6-4-10-11-10z"/>
<glyph unicode="&#77;" d="M501 0l-490 0c-7 0-11 4-11 11l0 490c0 7 4 11 11 11l490 0c7 0 11-4 11-11l0-490c0-7-4-11-11-11z m-480 21l470 0 0 470-470 0z m480 214l-217 0c-7 0-11 4-11 10l0 84c0 6 4 10 11 10l98 0c-7 88-95 95-98 95-6 0-10 5-10 11l0 56c0 7 4 11 11 11 6 0 10-4 10-11l0-47c29-5 109-28 109-125 0-7-4-11-10-11l-99 0 0-62 206 0c7 0 11-4 11-11 0-6-4-10-11-10z m-225-149c-45 0-79 13-101 37-20 22-25 49-26 64l-138 0c-7 0-11 4-11 10 0 7 4 11 11 11l149 0c3 0 6-1 7-3 3-2 4-6 4-9 0 0-4-34 20-58 18-20 47-30 85-30 7 0 11-5 11-11 0-6-4-11-11-11z m8-86c-7 0-11 4-11 11l0 130c0 5 4 10 11 10 4 0 106 7 106 93 0 7 5 11 11 11 6 0 11-4 11-11 0-80-72-107-118-113l0-120c0-7-4-11-10-11z m-125 452l-117 0c-7 0-11 5-11 11 0 6 4 11 11 11l117 0c6 0 11-5 11-11 0-6-5-11-11-11z m0-39l-117 0c-7 0-11 4-11 10 0 7 4 11 11 11l117 0c6 0 11-4 11-11 0-6-5-10-11-10z m0-41l-117 0c-7 0-11 5-11 11 0 6 4 11 11 11l117 0c6 0 11-5 11-11 0-6-5-11-11-11z m0-39l-117 0c-7 0-11 4-11 10 0 7 4 11 11 11l117 0c6 0 11-4 11-11 0-6-5-10-11-10z"/>
<glyph unicode="&#78;" d="M131 0c-6 0-10 4-10 11l0 490c0 7 4 11 10 11 7 0 11-4 11-11l0-490c0-7-4-11-11-11z m0 326c-2 0-4 1-6 3-3 2-4 5-4 8l0 164c0 4 1 7 4 9 3 2 6 2 9 2l250-75c4-1 7-5 7-9 0-5-3-9-7-11l-250-90c-1-1-2-1-3-1z m11 161l0-135 205 74z"/>
<glyph unicode="&#79;" d="M422 320c-2 0-4 1-6 2l-160 126-160-126c-4-3-12-3-15 2-3 5-3 12 2 15l167 131c4 4 9 4 12 0l167-131c4-3 5-10 2-15-2-3-5-4-9-4z m-219-149l-65 0c-7 0-11 4-11 10l0 187c0 6 4 11 11 11 6 0 10-5 10-11l0-176 55 0c6 0 10-4 10-11 0-6-4-10-10-10z m171 0l-64 0c-6 0-10 4-10 10 0 7 4 11 10 11l54 0 0 176c0 6 4 11 10 11 7 0 11-5 11-11l0-187c0-6-4-10-11-10z m-67 0c-6 0-10 4-10 10l0 94-82 0 0-94c0-6-4-10-10-10-7 0-11 4-11 10l0 105c0 6 4 11 11 11l102 0c7 0 11-5 11-11l0-105c0-6-4-10-11-10z m194-52l-490 0c-7 0-11 5-11 11l0 371c0 7 4 11 11 11l490 0c7 0 11-4 11-11l0-371c0-6-4-11-11-11z m-480 22l470 0 0 350-470 0z m235-100c-6 0-11 4-11 10l0 33c0 7 5 11 11 11 6 0 11-4 11-11l0-33c0-6-5-10-11-10z m193-41l-386 0c-6 0-11 4-11 11 0 6 5 10 11 10l386 0c6 0 11-4 11-10 0-7-5-11-11-11z"/>
<glyph unicode="&#80;" d="M460 96l-161 0c-7 0-11 4-11 11 0 6 4 10 11 10l150 0 0 239-270 0 0-13c0-6-4-10-10-10-7 0-11 4-11 10l0 24c0 6 4 11 11 11l291 0c6 0 10-5 10-11l0-260c0-7-4-11-10-11z m41 260l-374 0c-3 0-8 2-9 6-2 3-2 6-1 10l43 95c2 4 5 7 10 7l288 0c4 0 7-3 9-7l43-93c1-2 2-4 2-6 0-7-4-12-11-12z m-358 22l341 0-34 73-274 0z m263 73l-38 0c-6 0-11 4-11 11l0 39c0 7 5 11 11 11l38 0c7 0 11-4 11-11l0-39c0-7-4-11-11-11z m-27 22l17 0 0 18-17 0z m27-293l-65 0c-6 0-10 5-10 11l0 85c0 7 4 11 10 11l65 0c7 0 11-4 11-11l0-85c0-6-4-11-11-11z m-54 22l44 0 0 64-44 0z m-171-61c-54 0-99 47-99 104 0 58 45 105 99 105 55 0 100-47 100-105 0-57-45-104-100-104z m0 188c-42 0-78-38-78-84 0-46 36-83 78-83 43 0 78 37 78 83 0 46-35 84-78 84z m171-329l-341 0c-4 0-7 1-8 3-1 2-3 6-3 9 5 61 53 111 122 130 3 1 5 0 8-1 2-1 4-4 5-7l14-64 9 13-7 12c-2 4-1 10 3 14l21 18c4 3 10 3 14 0l20-18c3-3 4-9 2-13l-6-12 8-14 15 64c1 4 2 6 6 7 2 1 5 2 8 1 67-20 115-72 121-130 0-3-1-7-4-9-2-2-4-3-7-3z m-329 21l317 0c-8 43-45 79-94 96l-18-78c-1-4-4-7-8-8-5-1-9 1-11 5l-26 41c-2 3-2 7 0 10l6 10-8 6-7-6 5-10c2-3 2-7 0-10l-25-41c-3-3-7-5-11-5-4 1-8 4-9 8l-17 78c-50-16-85-53-94-96z"/>
<glyph unicode="&#81;" d="M421 0l-410 0c-7 0-11 4-11 11l0 490c0 7 4 11 11 11l354 0c6 0 10-4 10-11 0-6-4-10-10-10l-344 0 0-470 390 0 0 362c0 6 4 11 10 11 7 0 11-5 11-11l0-372c0-7-4-11-11-11z m-150 0l-111 0c-6 0-11 4-11 11l0 174c0 6 5 10 11 10l111 0c6 0 11-4 11-10l0-174c0-7-5-11-11-11z m-100 21l89 0 0 153-89 0z m-76 404l-42 0c-6 0-10 4-10 10 0 7 4 11 10 11l42 0c6 0 11-4 11-11 0-6-5-10-11-10z m0-119l-42 0c-6 0-10 4-10 11 0 6 4 10 10 10l42 0c6 0 11-4 11-10 0-7-5-11-11-11z m139 0l-43 0c-6 0-11 4-11 11 0 6 5 10 11 10l43 0c6 0 10-4 10-10 0-7-4-11-10-11z m-139-118l-42 0c-6 0-10 4-10 10 0 7 4 11 10 11l42 0c6 0 11-4 11-11 0-6-5-10-11-10z m0-119l-42 0c-6 0-10 5-10 11 0 6 4 11 10 11l42 0c6 0 11-5 11-11 0-6-5-11-11-11z m270 237l-43 0c-6 0-11 4-11 11 0 6 5 10 11 10l43 0c6 0 10-4 10-10 0-7-4-11-10-11z m0-118l-43 0c-6 0-11 4-11 10 0 7 5 11 11 11l43 0c6 0 10-4 10-11 0-6-4-10-10-10z m0-119l-43 0c-6 0-11 5-11 11 0 6 5 11 11 11l43 0c6 0 10-5 10-11 0-6-4-11-10-11z m14 293c-38 0-68 33-68 74 0 40 29 74 64 75l4 0c34 0 62-28 67-66 0-2 0-4-1-7 0-1 0-1 0-2l0-4c-1-18-8-34-17-47-14-15-30-23-49-23z m-4 128c-23-1-42-25-42-54 0-30 20-53 46-53 15 0 25 8 32 16 7 8 11 21 12 34l0 3c0 2 0 6 2 8-5 25-24 45-46 45l-4 0z m126-208c-3 0-5 1-7 3l-87 96c-4 4-3 10 2 15 4 4 10 3 14-1l87-96c4-5 3-11-1-15-2-1-6-2-8-2z"/>
<glyph unicode="&#82;" d="M293 0c-6 0-10 4-10 11l0 490c0 7 4 11 10 11 7 0 11-4 11-11l0-490c0-7-4-11-11-11z m73 0l-145 0c-7 0-11 4-11 11 0 6 4 10 11 10l145 0c6 0 11-4 11-10 0-7-5-11-11-11z m-73 369l-236 0c-4 0-6 1-8 3l-46 47c-4 4-4 11 0 15l46 50c2 2 4 3 8 3l236 0c7 0 11-4 11-10l0-97c0-7-4-11-11-11z m-232 21l222 0 0 76-222 0-35-39z m406-109l-174 0c-6 0-10 4-10 10l0 96c0 7 4 11 10 11l174 0c3 0 7-2 9-4l34-49c2-4 2-9 0-13l-34-47c-2-2-6-4-9-4z m-163 21l158 0 27 36-27 39-158 0z"/>
<glyph unicode="&#83;" d="M435 0l-358 0c-7 0-11 4-11 11l0 276-55 0c-5 0-9 3-10 7-1 5 0 9 3 12l246 204c4 3 9 3 13 0l246-204c3-3 4-7 3-12-1-4-5-7-10-7l-55 0 0-276c-1-7-5-11-12-11z m-348 21l338 0 0 277c0 6 4 10 10 10l36 0-215 179-215-179 36 0c6 0 10-4 10-10z m39 161c5 1 14 3 21 3 12 0 19-3 25-8 4-4 6-10 6-16 0-12-7-19-16-22 7-2 11-9 13-17 3-12 5-21 6-24l-10 0c-1 2-4 10-6 20-2 12-7 16-17 17l-10 0 0-37-11 0z m11-39l11 0c12 0 19 6 19 16 0 11-8 16-20 16-5 0-9 0-10-1 0 0 0-31 0-31z m102-5l-33 0 0-31 37 0 0-10-48 0 0 86 47 0 0-9-35 0 0-28 33 0 0-8z m19-41l0 86 12 0 28-43c6-10 11-19 16-28-1 12-1 22-1 35l0 36 10 0 0-86-12 0-27 44c-7 9-12 19-16 29 1-11 1-22 1-36l0-37z m100 77l-26 0 0 9 64 0 0-9-27 0 0-77-12 0z m-202 133l47 0 0-9-36 0 0-29 34 0 0-10-34 0 0-39-10 0z m136-41c0-30-18-46-40-46-23 0-39 18-39 43 0 28 17 45 41 45 23 1 38-17 38-42z m-67-3c0-18 10-35 28-35 18 0 28 16 28 37 0 17-9 35-28 35-18 0-28-17-28-37z m81 43c5 1 14 2 21 2 12 0 20-2 25-7 4-4 6-10 6-16 0-12-7-19-16-23 7-2 11-8 13-17 3-11 6-20 7-23l-12 0c-1 2-3 9-5 20-3 12-8 16-18 17l-10 0 0-37-11 0c0 0 0 84 0 84z m12-39l12 0c11 0 19 6 19 16 0 10-9 16-20 16-6 0-10 0-11-1 0 0 0-31 0-31z m-253 65c-6 0-11 4-11 10l0 145c0 7 5 11 11 11l77 0c6 0 11-4 11-11l0-81c0-6-5-10-11-10-7 0-11 4-11 10l0 71-55 0 0-135c0-6-5-10-11-10z"/>
<glyph unicode="&#84;" d="M437 0l-362 0c-7 0-11 4-11 11l0 353-53 0c-6 0-10 3-11 8-1 5 1 10 5 12l246 127c3 1 6 1 9 0l246-127c4-2 6-7 5-12-1-4-5-8-11-8l-53 0 0-353c1-7-3-11-10-11z m-352 21l342 0 0 353c0 7 4 11 10 11l21 0-202 105-202-105 21 0c6 0 10-4 10-11z m84 277c-7 0-11 4-11 10l0 40c0 6 4 10 11 10 6 0 10-4 10-10l0-40c0-6-4-10-10-10z m87 0c-6 0-11 4-11 10l0 40c0 6 5 10 11 10 6 0 11-4 11-10l0-40c0-6-5-10-11-10z m87 0c-6 0-10 4-10 10l0 40c0 6 4 10 10 10 7 0 11-4 11-10l0-40c0-6-4-10-11-10z m-174-112c-7 0-11 4-11 10l0 40c0 6 4 10 11 10 6 0 10-4 10-10l0-40c0-6-4-10-10-10z m87 0c-6 0-11 4-11 10l0 40c0 6 5 10 11 10 6 0 11-4 11-10l0-40c0-6-5-10-11-10z m87 0c-6 0-10 4-10 10l0 40c0 6 4 10 10 10 7 0 11-4 11-10l0-40c0-6-4-10-11-10z m-174-112c-7 0-11 4-11 10l0 40c0 6 4 10 11 10 6 0 10-4 10-10l0-40c0-6-4-10-10-10z m87 0c-6 0-11 4-11 10l0 40c0 6 5 10 11 10 6 0 11-4 11-10l0-40c0-6-5-10-11-10z m87 0c-6 0-10 4-10 10l0 40c0 6 4 10 10 10 7 0 11-4 11-10l0-40c0-6-4-10-11-10z"/>
<glyph unicode="&#85;" d="M443 0l-375 0c-6 0-10 4-10 11l0 250c0 7 4 11 10 11l375 0c6 0 10-4 10-11l0-250c0-7-4-11-10-11z m-364 21l353 0 0 230-353 0z m422 230l-490 0c-5 0-9 2-10 6-2 4-1 9 2 12l246 240c4 4 10 4 14 0l246-240c3-3 4-8 2-12-1-4-5-6-10-6z m-464 21l439 0-220 214z m282-272c-6 0-11 4-11 11l0 106c0 29-23 54-52 54-29 0-52-24-52-54l0-106c0-7-5-11-11-11-6 0-11 4-11 11l0 106c0 42 33 75 74 75 41 0 74-33 74-75l0-106c0-7-5-11-11-11z"/>
<glyph unicode="&#86;" d="M435 0l-358 0c-7 0-11 4-11 11l0 276-55 0c-5 0-9 3-10 7-1 5 0 9 3 12l246 204c4 3 9 3 13 0l246-204c3-3 4-7 3-12-1-4-5-7-10-7l-55 0 0-276c-1-7-5-11-12-11z m-348 21l338 0 0 277c0 6 4 10 10 10l36 0-215 179-215-179 36 0c6 0 10-4 10-10z m45 90c6-3 13-5 21-5 11 0 18 6 18 15 0 8-5 12-16 17-14 5-23 12-23 24 0 14 11 24 28 24 9 0 15-3 19-5l-3-9c-3 1-9 4-16 4-12 0-16-7-16-13 0-8 5-12 17-17 15-5 22-13 22-25 0-13-9-25-29-25-9 0-17 2-23 5z m78 14l-8-27-12 0 29 87 14 0 29-87-11 0-10 27z m29 8l-9 25c-2 5-3 11-4 16-1-5-3-11-4-16l-9-25z m36 50l11 0 0-76 37 0 0-10-48 0z m105-45l-33 0 0-31 37 0 0-10-48 0 0 86 47 0 0-9-35 0 0-28 33 0 0-8z m-224 169l47 0 0-9-36 0 0-29 34 0 0-10-34 0 0-39-10 0z m136-41c0-30-18-46-40-46-23 0-39 18-39 43 0 28 17 45 41 45 23 1 38-17 38-42z m-67-3c0-18 10-35 28-35 18 0 28 16 28 37 0 17-9 35-28 35-18 0-28-17-28-37z m81 43c5 1 14 2 21 2 12 0 20-2 25-7 4-4 6-10 6-16 0-12-7-19-16-23 7-2 11-8 13-17 3-11 6-20 7-23l-12 0c-1 2-3 9-5 20-3 12-8 16-18 17l-10 0 0-37-11 0c0 0 0 84 0 84z m12-39l12 0c11 0 19 6 19 16 0 10-9 16-20 16-6 0-10 0-11-1 0 0 0-31 0-31z m-253 65c-6 0-11 4-11 10l0 145c0 7 5 11 11 11l77 0c6 0 11-4 11-11l0-81c0-6-5-10-11-10-7 0-11 4-11 10l0 71-55 0 0-135c0-6-5-10-11-10z"/>
<glyph unicode="&#87;" d="M126 0c-1 0-1 0-2 0-6 1-10 6-9 13l68 386c2 5 7 10 13 8 6-1 10-6 9-12l-68-386c-2-6-6-9-11-9z m223 0c-6 0-10 3-11 9l-69 386c-1 5 3 11 8 12 6 2 12-3 13-8l69-386c2-6-3-12-8-13-1 0-1 0-2 0z m14 391l-252 0c-6 0-11 5-11 11l0 99c0 7 5 11 11 11l252 0c6 0 10-4 10-11l0-99c0-6-4-11-10-11z m-241 22l230 0 0 78-230 0z m279-4c-6 0-11 4-11 10l0 70c0 6 5 10 11 10 6 0 11-4 11-10l0-70c0-6-5-10-11-10z"/>
<glyph unicode="&#88;" d="M501 0l-490 0c-7 0-11 4-11 11l0 490c0 7 4 11 11 11l490 0c7 0 11-4 11-11l0-490c0-7-4-11-11-11z m-480 21l470 0 0 470-470 0z m302-21l-133 0c-7 0-11 4-11 11l0 188c0 7 4 11 11 11l133 0c7 0 11-4 11-11l0-188c0-7-4-11-11-11z m-122 21l112 0 0 168-112 0z m-88 385l-42 0c-6 0-10 5-10 11 0 6 4 11 10 11l42 0c6 0 11-5 11-11 0-6-5-11-11-11z m0-106l-42 0c-6 0-10 4-10 10 0 7 4 11 10 11l42 0c6 0 11-4 11-11 0-6-5-10-11-10z m0-106l-42 0c-6 0-10 4-10 11 0 6 4 10 10 10l42 0c6 0 11-4 11-10 0-7-5-11-11-11z m0-107l-42 0c-6 0-10 5-10 11 0 7 4 11 10 11l42 0c6 0 11-4 11-11 0-6-5-11-11-11z m324 319l-42 0c-7 0-11 5-11 11 0 6 4 11 11 11l42 0c7 0 11-5 11-11 0-6-4-11-11-11z m0-106l-42 0c-7 0-11 4-11 10 0 7 4 11 11 11l42 0c7 0 11-4 11-11 0-6-4-10-11-10z m-160 106l-42 0c-7 0-11 5-11 11 0 6 4 11 11 11l42 0c7 0 11-5 11-11 0-6-4-11-11-11z m0-106l-42 0c-7 0-11 4-11 10 0 7 4 11 11 11l42 0c7 0 11-4 11-11 0-6-4-10-11-10z m160-106l-42 0c-7 0-11 4-11 11 0 6 4 10 11 10l42 0c7 0 11-4 11-10 0-7-4-11-11-11z m0-107l-42 0c-7 0-11 5-11 11 0 7 4 11 11 11l42 0c7 0 11-4 11-11 0-6-4-11-11-11z"/>
<glyph unicode="&#89;" d="M501 261c-2 0-5 1-7 4l-238 221-238-221c-4-5-11-5-15 0-4 4-4 10 0 14l246 230c4 4 10 4 14 0l246-230c4-4 4-10 0-14-2-3-4-4-8-4z m-324-261l-95 0c-6 0-11 4-11 11l0 325c0 6 5 11 11 11 7 0 11-5 11-11l0-315 84 0c6 0 11-4 11-10 0-7-5-11-11-11z m253 0l-94 0c-6 0-11 4-11 11 0 6 5 10 11 10l83 0 0 315c0 6 4 11 11 11 6 0 11-5 11-11l0-325c0-7-5-11-11-11z m-98 0c-7 0-11 4-11 11l0 151-130 0 0-151c0-7-4-11-11-11-6 0-10 4-10 11l0 162c0 6 4 10 10 10l152 0c6 0 10-4 10-10l0-162c0-7-4-11-10-11z"/>
<glyph unicode="&#90;" d="M501 0l-370 0c-6 0-10 4-10 11l0 437c0 6 4 11 10 11l370 0c7 0 11-5 11-11l0-437c0-7-4-11-11-11z m-359 21l349 0 0 416-349 0z m118-21l-129 0c-6 0-10 4-10 11l0 218c0 7 4 11 10 11l129 0c7 0 11-4 11-11l0-218c0-7-4-11-11-11z m-118 21l108 0 0 198-108 0z m291 373c-6 0-11 4-11 10l0 97c0 7 5 11 11 11 6 0 11-4 11-11l0-97c0-6-5-10-11-10z m-103 0c-7 0-11 4-11 10l0 97c0 7 4 11 11 11 6 0 10-4 10-11l0-97c0-6-4-10-10-10z m26-394c-6 0-10 4-10 11 0 2 2 212 155 212 7 0 11-4 11-11 0-6-4-10-11-10-132 0-134-184-134-191 0-7-4-11-11-11z m-276 478l-69 0c-7 0-11 4-11 11 0 6 4 10 11 10l69 0c6 0 11-4 11-10 0-7-5-11-11-11z m0-478l-69 0c-7 0-11 4-11 11 0 6 4 10 11 10l69 0c6 0 11-4 11-10 0-7-5-11-11-11z m-34 301c-7 0-11 4-11 10l0 178c0 6 4 10 11 10 6 0 11-4 11-10l0-178c0-6-5-10-11-10z m0-291c-7 0-11 4-11 10l0 177c0 7 4 11 11 11 6 0 11-4 11-11l0-177c0-6-5-10-11-10z m0 251c-18 0-29 8-29 22 0 11 10 20 28 20 18 0 28-9 28-21 1-13-10-21-27-21z m-1 34c-14 0-23-5-23-12 0-9 9-13 23-13 13 0 22 4 22 13 0 7-7 12-22 12z m1-83c-18 0-29 8-29 22 0 11 10 20 28 20 18 0 28-9 28-21 1-13-10-21-27-21z m-1 34c-14 0-23-5-23-12 0-9 9-13 23-13 13 0 22 4 22 13 0 7-7 12-22 12z"/>
<glyph unicode="&#48;" d="M79 459c-2 0-5 1-8 3l-26 24-26-24c-4-4-10-4-15 0-4 4-4 11 0 15l33 32c5 4 11 4 15 0l34-32c5-4 5-11 0-15-2-2-4-3-7-3z m-35-316c-2 0-6 1-8 3l-33 31c-4 4-4 11 0 15 4 4 11 4 15 0l26-25 26 25c5 4 12 4 15 0 5-4 4-11-1-15l-34-31c-1-2-4-3-6-3z m1 0c-7 0-11 4-11 11l0 347c0 7 4 11 11 11 6 0 10-4 10-11l0-347c0-7-4-11-10-11z m394-142c-2 0-5 1-7 3-4 5-4 11 0 15l25 26-25 26c-4 5-3 11 1 15 4 5 11 4 15-1l31-34c3-4 3-10 0-15l-31-33c-3-1-5-2-9-2z m-283-1c-3 0-6 1-8 3l-32 34c-4 5-4 11 0 15l32 33c5 5 11 5 15 0 4-4 4-10 0-15l-24-25 24-27c4-4 4-11 0-15-2-2-5-3-7-3z m314 34l-346 0c-7 0-11 4-11 11 0 6 4 10 11 10l346 0c7 0 11-4 11-10 0-7-4-11-11-11z m31 107l-355 0c-3 0-5 1-7 3-2 2-4 5-4 7l23 350c0 6 5 10 11 10l310 0c5 0 11-4 11-10l22-346c0-1 0-2 0-4 0-6-4-10-11-10z m-343 21l333 0-22 329-291 0z m326 154l-114 0c-5 0-9 4-11 9l-11 85-80 0c-7 0-11 4-11 10l0 75c0 6 4 11 11 11 6 0 10-5 10-11l0-64 79 0c6 0 10-4 11-10l12-84 104 0c7 0 11-4 11-11 0-6-4-10-11-10z m-84-175c-5 0-10 4-11 9l-8 88-113 0c-7 0-11 4-11 11l0 51c0 6 4 10 11 10 6 0 10-4 10-10l0-41 112 0c6 0 10-4 11-9l10-97c0-7-5-11-11-12 1 0 0 0 0 0z m-132 205l-107 0c-6 0-11 4-11 10 0 7 5 11 11 11l107 0c6 0 10-4 10-11 0-6-4-10-10-10z"/>
<glyph unicode="&#49;" d="M467 0l-422 0c-7 0-11 4-11 11l0 351c0 6 4 10 11 10 6 0 10-4 10-10l0-341 402 0 0 341c0 6 4 10 10 10 7 0 11-4 11-10l0-351c0-7-4-11-11-11z m34 338c-2 0-4 0-5 2l-240 149-240-150c-5-3-12-1-15 3-3 6-1 12 3 15l246 153c3 2 7 2 11 0l246-153c5-3 6-9 3-15-1-2-5-4-9-4z m-140-274l-210 0c-23 0-42 19-42 43l0 32c0 23 19 42 42 42l208 0c24 0 43-19 43-42l0-28c1-1 1-3 1-4 0-24-19-43-42-43z m-210 96c-11 0-21-10-21-21l0-32c0-12 10-22 21-22l210 0c10 0 19 8 21 18 0 2-1 3-1 4l0 32c0 11-10 21-22 21z m208-1c-4 0-8 2-9 6l-30 69-128 0-29-69c-2-5-8-7-14-5-5 2-7 9-5 14l32 75c2 4 5 6 10 6l141 0c5 0 9-2 10-6l32-75c2-5 0-12-5-14-1-1-3-1-5-1z m-170-48l-24 0c-6 0-10 4-10 11 0 6 4 10 10 10l24 0c6 0 10-4 10-10 0-7-4-11-10-11z m158 0l-24 0c-6 0-10 4-10 11 0 6 4 10 10 10l24 0c6 0 10-4 10-10 0-7-4-11-10-11z m-170-74c-6 0-11 5-11 11l0 21c0 7 5 11 11 11 6 0 11-4 11-11l0-21c0-6-5-11-11-11z m158 0c-6 0-11 5-11 11l0 21c0 7 5 11 11 11 6 0 11-4 11-11l0-21c0-6-5-11-11-11z"/>
<glyph unicode="&#50;" d="M413 0l-313 0c-23 0-41 19-41 42l0 428c-1 11 3 21 10 29 8 9 20 13 31 13l313 0c23 0 41-18 41-42l0-428c0-24-18-42-41-42z m-313 491c-6 0-11-2-16-7-3-3-4-8-4-13l0-429c0-11 10-21 20-21l313 0c10 0 20 10 20 21l0 428c0 11-10 21-20 21z m306-158l-299 0 0 124 299 0z m-278 21l257 0 0 81-257 0z m14-67l18 0 0-21-18 0z m105 0l18 0 0-21-18 0z m105 0l18 0 0-21-18 0z m-210-69l18 0 0-22-18 0z m105 0l18 0 0-22-18 0z m105 0l18 0 0-22-18 0z m-210-71l18 0 0-21-18 0z m105 0l18 0 0-21-18 0z m105 0l18 0 0-21-18 0z m-210-70l18 0 0-22-18 0z m105 0l18 0 0-22-18 0z m105 0l18 0 0-22-18 0z"/>
<glyph unicode="&#51;" d="M267 0l-267 0 0 512 267 0z m-246 21l224 0 0 470-224 0z m491-21l-267 0 0 322 267 0z m-245 21l224 0 0 280-224 0z m-217 434l21 0 0-72-21 0z m0-107l21 0 0-73-21 0z m0-108l21 0 0-73-21 0z m0-108l21 0 0-71-21 0z m142 323l21 0 0-72-21 0z m0-107l21 0 0-73-21 0z m0-108l21 0 0-73-21 0z m-69 215l21 0 0-72-21 0z m0-107l21 0 0-73-21 0z m0-108l21 0 0-73-21 0z m175-47l21 0 0-42-21 0z m140 0l22 0 0-42-22 0z m-69 0l21 0 0-42-21 0z m-71 74l21 0 0-42-21 0z m140 0l22 0 0-42-22 0z m-69 0l21 0 0-42-21 0z m-177-135l21 0 0-71-21 0z m-18-132l-82 0 0 143 82 0z m-61 21l40 0 0 101-40 0z m342-21l-152 0 0 134 152 0z m-131 21l110 0 0 92-110 0z"/>
<glyph unicode="&#52;" d="M512 0l-512 0 0 247 320 0 0-21-299 0 0-205 470 0 0 205-109 0 0 21 130 0z m-246 63l25 128 146 310c1 4 6 11 20 11 6 0 13-2 21-5 15-9 28-23 22-36l-147-312z m45 120l-9-50 34 38 144 307c-1 2-5 6-12 9-3 3-7 4-11 4 0 0-2 0-2 0z m-235 7l144 0 0-21-144 0z m0-56l144 0 0-21-144 0z m0-55l144 0 0-21-144 0z"/>
<glyph unicode="&#53;" d="M82 310c-3 0-6 1-8 4-5 4-4 10 1 15l209 181c4 3 9 3 14 0l210-180c4-5 5-11 1-15-4-5-11-6-15-1l-203 173-201-174c-3-2-6-3-8-3z m61-130c-6 0-11 5-11 11l0 181c0 7 5 11 11 11 6 0 11-4 11-11l0-181c0-6-5-11-11-11z m298 16c-7 0-11 5-11 11l0 165c0 7 4 11 11 11 6 0 10-4 10-11l0-165c0-6-4-11-10-11z m-342-196c-3 0-6 2-8 4l-89 128c-2 3-2 7-1 10 1 3 3 5 6 6l153 51c1 0 3 2 4 0l122-14c13-2 25-19 25-36 0-12-7-33-55-35-51-3-96 5-97 5-5 2-10 7-9 13 1 6 7 10 13 9 0 0 44-9 92-6 20 2 34 7 35 14 1 7-4 14-7 15l-119 15-136-46 74-107 78 50c1 1 2 1 5 1l187 32c10 4 81 37 111 78 11 15 10 20 10 20-3 2-17 0-23-2l-102-67c-5-4-12-3-15 3-3 5-2 12 3 15l103 67c6 4 36 12 49-1 9-10 7-26-8-47-35-49-117-84-120-85-1 0-1-1-2-1l-187-32-84-55c-4-1-6-2-8-2z"/>
<glyph unicode="&#54;" d="M256 0l-245 0c-7 0-11 4-11 11l0 490c0 7 4 11 11 11l245 0c6 0 11-4 11-11l0-490c0-7-5-11-11-11z m-235 21l224 0 0 470-224 0z m480-21l-245 0c-6 0-11 4-11 11l0 337c0 6 5 10 11 10l245 0c7 0 11-4 11-10l0-337c0-7-4-11-11-11z m-234 21l224 0 0 316-224 0z m-85-21l-98 0c-6 0-10 4-10 11l0 174c0 6 4 10 10 10l98 0c7 0 11-4 11-10l0-174c0-7-4-11-11-11z m-87 21l77 0 0 153-77 0z m333-21l-98 0c-7 0-11 4-11 11l0 159c0 6 4 10 11 10l98 0c6 0 10-4 10-10l0-159c0-7-4-11-10-11z m-88 21l77 0 0 138-77 0z m-174 327l-66 0c-6 0-10 4-10 10 0 7 4 11 10 11l66 0c7 0 11-4 11-11 0-6-4-10-11-10z"/>
<glyph unicode="&#55;" d="M438 0l-438 0 0 512 438 0 0-163-21 0 0 142-396 0 0-470 396 0 0 232 21 0z m-130 51l22 114 124 261c5 10 21 12 37 5 9-3 17-11 20-18 2-4 1-10 0-13l-126-263z m42 107l-7-36 25 27 123 257c-1 1-5 4-8 6-5 2-8 3-9 3z m-253 265l228 0 0-21-228 0z m0-80l228 0 0-21-228 0z m0-80l228 0 0-21-228 0z"/>
<glyph unicode="&#56;" d="M501 0l-490 0c-7 0-11 4-11 11l0 76c0 7 4 11 11 11l490 0c7 0 11-4 11-11l0-76c0-7-4-11-11-11z m-480 21l470 0 0 56-470 0z m480 318l-490 0c-5 0-9 3-11 8-2 4 1 9 4 11l246 152c3 2 7 2 11 0l246-152c4-2 6-7 4-11-2-5-5-8-10-8z m-453 22l416 0-208 128z m77-284l-77 0c-6 0-11 4-11 10l0 263c0 6 5 11 11 11l77 0c6 0 10-5 10-11l0-263c0-6-4-10-10-10z m-66 21l55 0 0 241-55 0z m235-21l-76 0c-7 0-11 4-11 10l0 263c0 6 4 11 11 11l76 0c7 0 11-5 11-11l0-263c0-6-4-10-11-10z m-66 21l56 0 0 241-56 0z m236-21l-77 0c-6 0-10 4-10 10l0 263c0 6 4 11 10 11l77 0c6 0 11-5 11-11l0-263c0-6-5-10-11-10z m-66 21l55 0 0 241-55 0z"/>
<glyph unicode="&#57;" d="M501 0l-490 0c-4 0-7 2-9 4-2 3-3 7-1 10l86 257c2 4 6 7 10 7l96 0c6 0 11-4 11-10 0-7-5-11-11-11l-88 0-79-236 461 0-65 236-102 0c-6 0-11 4-11 11 0 6 5 10 11 10l110 0c4 0 8-3 11-7l71-257c1-3 0-7-2-10-2-3-5-4-9-4z m-245 163c-3 0-6 1-9 4-4 7-113 150-113 217 0 70 55 128 122 128 67 0 122-58 122-128 0-67-109-210-113-217-3-3-6-4-9-4z m0 328c-55 0-100-48-100-107 0-46 66-145 100-192 34 47 100 147 100 192 0 60-43 107-100 107z m0-174c-35 0-64 30-64 67 0 37 29 67 64 67 35 0 64-30 64-67 0-37-29-67-64-67z m0 113c-23 0-43-20-43-46 0-26 20-46 43-46 23 0 43 20 43 46 0 26-20 46-43 46z"/>
<glyph unicode="&#33;" d="M68 0c-6 0-10 4-10 11l0 490c0 7 4 11 10 11 7 0 11-4 11-11l0-490c0-7-4-11-11-11z m433 403l-490 0c-7 0-11 4-11 11 0 6 4 11 11 11l490 0c7 0 11-5 11-11 0-7-4-11-11-11z m-70-296l-269 0c-23 0-43 19-43 42l0 172c0 24 20 43 43 43l269 0c23 0 43-19 43-43l0-172c0-23-20-42-43-42z m-269 235c-12 0-21-9-21-21l0-172c0-11 9-21 21-21l269 0c12 0 21 10 21 21l0 172c0 12-9 21-21 21z m36-19c-6 0-10 4-10 11l0 73c0 7 4 11 10 11 7 0 11-4 11-11l0-73c0-7-4-11-11-11z m196 0c-7 0-11 4-11 11l0 73c0 7 4 11 11 11 6 0 10-4 10-11l0-73c0-7-4-11-10-11z m-165-31l31 0 0-6-23 0 0-19 21 0 0-7-21 0 0-25-8 0c0 0 0 57 0 57z m91-27c0-21-12-30-27-30-15 0-25 11-25 28 0 19 11 30 26 30 16 0 26-11 26-28z m-45-2c0-12 7-23 18-23 12 0 18 11 18 23 0 12-6 24-18 24-11 0-18-11-18-24z m55 28c4 1 9 1 13 1 8 0 13-1 18-4 3-2 4-6 4-11 0-7-4-12-11-15 4-1 8-5 9-11 2-9 3-14 4-16l-8 0c-1 2-2 6-4 14-2 7-4 10-12 10l-7 0 0-24-7 0 0 56z m7-25l8 0c7 0 12 4 12 10 0 8-5 11-12 11-4 0-7 0-8-1 0 0 0-20 0-20z m-124-107c4-2 9-4 13-4 8 0 12 4 12 9 0 6-3 9-11 12-9 3-15 9-15 16 0 9 8 16 18 16 7 0 11-1 13-3l-2-7c-2 1-5 4-11 4-7 0-10-5-10-9 0-5 3-8 11-11 10-4 15-8 15-17 0-8-6-17-20-17-5 0-12 2-15 3z m53 8l-6-18-7 0 19 58 9 0 19-58-8 0-6 18z m19 7l-6 17c-1 4-2 7-3 11-1-4-2-7-3-11l-5-17z m23 33l8 0 0-51 24 0 0-7-32 0z m71-30l-23 0 0-20 25 0 0-8-32 0 0 58 31 0 0-6-24 0 0-19 23 0z"/>
<glyph unicode="&#34;" d="M256 0c-3 0-6 1-9 4-7 10-174 227-174 325 0 101 82 183 183 183 101 0 183-82 183-183 0-98-167-315-174-325-3-3-6-4-9-4z m0 491c-90 0-162-73-162-162 0-79 128-254 162-300 34 46 162 222 162 300 0 89-72 162-162 162z m0-260c-53 0-97 44-97 98 0 53 44 97 97 97 53 0 97-44 97-97 0-54-44-98-97-98z m0 173c-42 0-76-34-76-75 0-42 34-76 76-76 42 0 76 34 76 76 0 41-34 75-76 75z"/>
<glyph unicode="&#35;" d="M385 110l-314 0c-6 0-10 4-10 11l0 202c0 25 19 44 44 44l99 0c6 0 10-4 10-11 0-6-4-10-10-10l-99 0c-12 0-23-11-23-23l0-192 292 0 0 113c0 7 5 11 11 11 6 0 11-4 11-11l0-123c0-7-5-11-11-11z m61-110l-435 0c-5 0-8 2-10 5-2 4-2 8 0 11l61 110c2 3 5 5 9 5l314 0c4 0 8-2 10-5l59-108c1-2 3-4 3-6 0-8-5-12-11-12z m-417 21l399 0-49 89-301 0z m439 214l-241 0c-6 0-10 4-10 10l0 91-23 0c-4 0-8 2-9 6-2 5-2 9 2 12l153 155c5 4 11 4 15 0l154-155c3-3 4-7 2-12-2-4-5-6-10-6l-22 0 0-91c0-6-4-10-11-10z m-230 21l220 0 0 91c0 6 4 10 10 10l8 0-128 129-128-129 7 0c7 0 11-4 11-10z m110 15c-7 0-11 4-11 11l0 74c0 7 4 11 11 11 6 0 10-4 10-11l0-74c0-7-4-11-10-11z"/>
<glyph unicode="&#36;" d="M425 35l-338 0c-21 0-37 16-37 38l0 65c0 21 16 37 37 37l338 0c21 0 37-16 37-37l0-65c0-22-16-38-37-38z m-338 119c-8 0-16-8-16-16l0-65c0-9 8-16 16-16l338 0c8 0 16 7 16 16l0 65c0 8-8 16-16 16z m326 0l-314 0c-3 0-7 2-8 5-2 3-2 6-1 11l45 100c3 4 6 6 10 6l222 0c4 0 7-2 10-6l45-100c1-4 1-8-1-11-1-3-5-5-8-5z m-297 21l281 0-36 79-210 0z m38-80l-41 0c-6 0-11 4-11 11 0 6 5 10 11 10l41 0c6 0 10-4 10-10 0-7-4-11-10-11z m245 0l-41 0c-6 0-10 4-10 11 0 6 4 10 10 10l41 0c6 0 11-4 11-10 0-7-5-11-11-11z m-300-95c-6 0-10 4-10 11l0 31c0 6 4 10 10 10 7 0 11-4 11-10l0-31c0-7-4-11-11-11z m314 0c-7 0-11 4-11 11l0 31c0 6 4 10 11 10 6 0 10-4 10-10l0-31c0-7-4-11-10-11z m88 342c-2 0-4 0-5 1l-240 146-240-146c-5-2-12-1-15 5-2 5-1 11 4 15l246 148c3 2 7 2 10 0l246-148c5-4 6-10 3-15-1-3-5-6-9-6z"/>
<glyph unicode="&#37;" d="M463 0l-226 0c-7 0-11 4-11 11l0 490c0 7 4 11 11 11l226 0c6 0 11-4 11-11l0-490c0-7-5-11-11-11z m-216 21l205 0 0 470-205 0z m-10-21l-226 0c-7 0-11 4-11 11l0 251c0 4 2 7 4 9l226 154c4 2 8 2 11 1 4-3 6-6 6-10l0-405c0-7-4-11-10-11z m-216 21l205 0 0 375-205-139z m480-21c-6 0-10 4-10 11l0 449c0 6 4 10 10 10 7 0 11-4 11-10l0-449c0-7-4-11-11-11z m-215 422c-7 0-11 5-11 11l0 24c0 6 4 10 11 10 6 0 11-4 11-10l0-24c0-6-5-11-11-11z m64 0c-7 0-11 5-11 11l0 24c0 6 4 10 11 10 6 0 11-4 11-10l0-24c0-6-5-11-11-11z m65 0c-6 0-11 5-11 11l0 24c0 6 5 10 11 10 6 0 11-4 11-10l0-24c0-6-5-11-11-11z m-129-53c-7 0-11 4-11 11l0 22c0 7 4 11 11 11 6 0 11-4 11-11l0-22c0-7-5-11-11-11z m64 0c-7 0-11 4-11 11l0 22c0 7 4 11 11 11 6 0 11-4 11-11l0-22c0-7-5-11-11-11z m65 0c-6 0-11 4-11 11l0 22c0 7 5 11 11 11 6 0 11-4 11-11l0-22c0-7-5-11-11-11z m-129-54c-7 0-11 4-11 10l0 23c0 6 4 10 11 10 6 0 11-4 11-10l0-23c0-6-5-10-11-10z m64 0c-7 0-11 4-11 10l0 23c0 6 4 10 11 10 6 0 11-4 11-10l0-23c0-6-5-10-11-10z m65 0c-6 0-11 4-11 10l0 23c0 6 5 10 11 10 6 0 11-4 11-10l0-23c0-6-5-10-11-10z m-129-55c-7 0-11 5-11 11l0 22c0 7 4 11 11 11 6 0 11-4 11-11l0-22c0-6-5-11-11-11z m64 0c-7 0-11 5-11 11l0 22c0 7 4 11 11 11 6 0 11-4 11-11l0-22c0-6-5-11-11-11z m65 0c-6 0-11 5-11 11l0 22c0 7 5 11 11 11 6 0 11-4 11-11l0-22c0-6-5-11-11-11z m-129-54c-7 0-11 4-11 11l0 22c0 6 4 11 11 11 6 0 11-5 11-11l0-22c0-7-5-11-11-11z m64 0c-7 0-11 4-11 11l0 22c0 6 4 11 11 11 6 0 11-5 11-11l0-22c0-7-5-11-11-11z m65 0c-6 0-11 4-11 11l0 22c0 6 5 11 11 11 6 0 11-5 11-11l0-22c0-7-5-11-11-11z m-129-55c-7 0-11 5-11 11l0 24c0 6 4 10 11 10 6 0 11-4 11-10l0-24c0-6-5-11-11-11z m64 0c-7 0-11 5-11 11l0 24c0 6 4 10 11 10 6 0 11-4 11-10l0-24c0-6-5-11-11-11z m65 0c-6 0-11 5-11 11l0 24c0 6 5 10 11 10 6 0 11-4 11-10l0-24c0-6-5-11-11-11z m-129-53c-7 0-11 4-11 11l0 22c0 7 4 11 11 11 6 0 11-4 11-11l0-22c0-7-5-11-11-11z m64 0c-7 0-11 4-11 11l0 22c0 7 4 11 11 11 6 0 11-4 11-11l0-22c0-7-5-11-11-11z m65 0c-6 0-11 4-11 11l0 22c0 7 5 11 11 11 6 0 11-4 11-11l0-22c0-7-5-11-11-11z m-129-54c-7 0-11 4-11 10l0 23c0 6 4 10 11 10 6 0 11-4 11-10l0-23c0-6-5-10-11-10z m64 0c-7 0-11 4-11 10l0 23c0 6 4 10 11 10 6 0 11-4 11-10l0-23c0-6-5-10-11-10z m65 0c-6 0-11 4-11 10l0 23c0 6 5 10 11 10 6 0 11-4 11-10l0-23c0-6-5-10-11-10z m-226 216c-7 0-11 5-11 11l0 22c0 7 4 11 11 11 6 0 10-4 10-11l0-22c0-6-4-11-10-11z m-65-54c-7 0-11 4-11 11l0 22c0 6 4 11 11 11 6 0 10-5 10-11l0-22c0-7-4-11-10-11z m65 0c-7 0-11 4-11 11l0 22c0 6 4 11 11 11 6 0 10-5 10-11l0-22c0-7-4-11-10-11z m-130-55c-7 0-11 5-11 11l0 24c0 6 4 10 11 10 6 0 10-4 10-10l0-24c0-6-4-11-10-11z m65 0c-7 0-11 5-11 11l0 24c0 6 4 10 11 10 6 0 10-4 10-10l0-24c0-6-4-11-10-11z m65 0c-7 0-11 5-11 11l0 24c0 6 4 10 11 10 6 0 10-4 10-10l0-24c0-6-4-11-10-11z m-130-53c-7 0-11 4-11 11l0 22c0 7 4 11 11 11 6 0 10-4 10-11l0-22c0-7-4-11-10-11z m65 0c-7 0-11 4-11 11l0 22c0 7 4 11 11 11 6 0 10-4 10-11l0-22c0-7-4-11-10-11z m65 0c-7 0-11 4-11 11l0 22c0 7 4 11 11 11 6 0 10-4 10-11l0-22c0-7-4-11-10-11z m-130-54c-7 0-11 4-11 10l0 23c0 6 4 10 11 10 6 0 10-4 10-10l0-23c0-6-4-10-10-10z m65 0c-7 0-11 4-11 10l0 23c0 6 4 10 11 10 6 0 10-4 10-10l0-23c0-6-4-10-10-10z m65 0c-7 0-11 4-11 10l0 23c0 6 4 10 11 10 6 0 10-4 10-10l0-23c0-6-4-10-10-10z"/>
<glyph unicode="&#38;" d="M457 320c-3 0-6 1-7 2l-194 165-194-165c-4-4-12-3-15 1-4 4-3 12 1 15l201 171c4 3 9 3 13 0l201-171c4-4 5-11 1-15-1-2-4-3-7-3z m44-320l-490 0c-7 0-11 4-11 11l0 320c0 6 4 10 11 10l490 0c7 0 11-4 11-10l0-320c0-7-4-11-11-11z m-480 21l470 0 0 299-470 0z m64 112c7-4 17-8 28-8 12 0 17 6 17 15 0 8-5 14-18 19-18 7-30 20-30 40 0 24 16 42 42 42 13 0 21-3 27-6l-5-25c-4 2-12 7-22 7-11 0-17-8-17-14 0-9 6-13 20-20 19-8 29-21 29-40 0-22-14-43-44-43-13 0-25 5-31 9z m112 4l-7-36-26 0 33 137 32 0 34-137-26 0-9 36z m28 23l-6 29c-2 8-5 18-6 26-2-8-3-18-5-26l-6-29z m53 79l25 0 0-111 44 0 0-26-69 0z m149-79l-41 0 0-32 45 0 0-26-70 0 0 137 67 0 0-26-43 0 0-28 42 0z"/>
<glyph unicode="&#39;" d="M501 313c-2 0-5 1-7 3l-194 171-195-172c-5-5-11-4-15 1-5 4-4 10 1 15l202 178c5 3 10 3 14 0l202-178c4-5 5-11 1-15-2-2-5-3-9-3z m-266-204l-79 0c-7 0-11 4-11 10l0 254c0 7 4 11 11 11 6 0 10-4 10-11l0-243 69 0c6 0 10-4 10-11 0-6-4-10-10-10z m208 0l-78 0c-7 0-11 4-11 10 0 7 4 11 11 11l67 0 0 243c0 7 4 11 11 11 6 0 10-4 10-11l0-254c0-6-4-10-10-10z m-81 0c-7 0-11 4-11 10l0 133-104 0 0-133c0-6-4-10-10-10-7 0-11 4-11 10l0 143c0 7 4 11 11 11l125 0c6 0 10-4 10-11l0-143c0-6-4-10-10-10z m-283 326c-2 0-5 1-8 2l-26 25-26-24c-4-4-10-3-15 1-4 4-4 11 0 14l33 30c5 3 10 3 14 0l34-30c5-4 6-10 1-15-1-2-4-3-7-3z m-34-300c-2 0-6 2-8 3l-34 29c-4 5-5 11-1 15 4 5 11 6 15 1l28-23 25 23c5 5 11 4 15-1 5-4 4-10-1-15l-32-28c-2-2-5-4-7-4z m0 0c-7 0-11 5-11 11l0 330c0 6 4 10 11 10 6 0 10-4 10-10l0-330c0-6-4-11-10-11z m398-134c-4 0-6 1-8 3-4 5-4 11 0 15l24 25-24 24c-4 5-4 11 0 15 4 4 11 4 15 0l31-32c4-4 4-10 0-15l-31-32c-2-2-4-3-7-3z m-286-1c-3 0-6 1-8 3l-32 32c-4 4-4 11 0 15l32 32c5 4 11 4 15 0 5-4 5-11 0-15l-24-24 24-25c5-4 5-11 0-15-2-2-4-3-7-3z m317 33l-349 0c-7 0-11 4-11 11 0 6 4 10 11 10l349 0c6 0 10-4 10-10 0-7-4-11-10-11z"/>
<glyph unicode="&#40;" d="M443 323c-2 0-6 1-8 3l-179 161-179-161c-4-4-11-3-15 1-4 5-3 11 1 15l186 167c4 3 10 3 13 0l188-168c4-4 4-10 1-15-3-2-5-3-8-3z m-247-192l-72 0c-7 0-11 4-11 11l0 239c0 6 4 10 11 10 6 0 10-4 10-10l0-228 62 0c7 0 11-5 11-11 0-7-4-11-11-11z m192 0l-71 0c-7 0-11 4-11 11 0 6 4 11 11 11l61 0 0 228c0 6 4 10 10 10 7 0 11-4 11-10l0-239c0-7-4-11-11-11z m-74 0c-7 0-11 4-11 11l0 123-94 0 0-123c0-7-4-11-11-11-6 0-10 4-10 11l0 133c0 7 4 11 10 11l116 0c6 0 10-4 10-11l0-133c0-7-4-11-10-11z m187-131l-490 0c-4 0-7 1-9 4-2 2-2 6-2 9l51 227c1 5 6 9 11 9l62 0c6 0 10-5 10-11 0-7-4-11-10-11l-54 0-45-206 464 0-42 206-59 0c-6 0-10 4-10 11 0 6 4 11 10 11l67 0c6 0 10-4 11-9l46-227c1-3 0-7-2-9-2-3-5-4-9-4z m-337 3c-5 0-9 4-10 10l-8 58c-1 6 3 11 10 12 5 1 10-3 11-9l8-59c1-5-3-11-10-12 0 0-1 0-1 0z m314 90l-285 0c-6 0-11 4-11 10 0 7 5 11 11 11l285 0c6 0 11-4 11-11 0-6-5-10-11-10z"/>
<glyph unicode="&#41;" d="M277 110l-266 0c-7 0-11 4-11 11l0 222c0 7 4 11 11 11l266 0c7 0 11-4 11-11l0-222c0-7-4-11-11-11z m-256 21l246 0 0 202-246 0z m480-21l-180 0c-6 0-11 4-11 11 0 6 5 10 11 10l170 0 0 90-37 0c-4 0-8 3-10 7l-39 130-81 0c-6 0-10 5-10 11 0 6 4 11 10 11l89 0c4 0 8-3 10-8l40-130 38 0c7 0 11-4 11-11l0-110c0-7-4-11-11-11z m-375-81c-20 0-36 16-36 36 0 20 16 36 36 36 20 0 36-16 36-36 0-20-16-36-36-36z m0 51c-9 0-15-6-15-15 0-8 6-15 15-15 8 0 15 7 15 15 0 9-7 15-15 15z m308-51c-20 0-36 16-36 36 0 20 16 36 36 36 20 0 36-16 36-36 0-20-16-36-36-36z m0 51c-8 0-15-6-15-15 0-8 7-15 15-15 9 0 15 7 15 15 0 9-6 15-15 15z m-113 30l-310 0c-7 0-11 4-11 11 0 6 4 10 11 10l299 0 0 236-152 87 0-97c0-6-4-10-11-10-6 0-10 4-10 10l0 116c0 4 2 7 5 9 3 2 7 2 11 0l173-99c4-2 6-5 6-10l0-252c0-7-5-11-11-11z m47 75l-19 0c-7 0-11 4-11 10 0 7 4 11 11 11l19 0c6 0 11-4 11-11 0-6-5-10-11-10z"/>
<glyph unicode="&#42;" d="M457 320c-3 0-6 1-7 2l-194 165-194-165c-4-4-12-3-15 1-4 4-3 12 1 15l201 171c4 3 9 3 13 0l201-171c4-4 5-11 1-15-1-2-4-3-7-3z m44-320l-490 0c-7 0-11 4-11 11l0 320c0 6 4 10 11 10l490 0c7 0 11-4 11-10l0-320c0-7-4-11-11-11z m-480 21l470 0 0 299-470 0z m49 216c8 2 21 3 33 3 16 0 28-3 36-11 6-6 9-16 9-28 0-18-9-30-19-35l0-1c8-4 12-12 15-25 3-15 6-33 9-39l-25 0c-2 5-4 15-7 32-4 17-8 22-19 23l-7 0 0-54-25 0z m25-59l10 0c12 0 19 8 19 19 0 13-7 20-18 20-7 0-10-2-12-2l0-37z m136-19l-39 0 0-32 45 0 0-26-71 0 0 137 69 0 0-25-43 0 0-28 41 0z m23-58l0 137 29 0 22-50c6-15 13-31 18-47-2 18-2 36-2 56l0 40 22 0 0-137-25 0-24 53c-6 14-13 32-19 48 1-19 1-38 1-60l0-42-22 0z m133 111l-30 0 0 26 85 0 0-26-30 0 0-111-25 0c0 0 0 111 0 111z"/>
<glyph unicode="&#43;" d="M109 57l-1 81-97-1 0 21 118 1 1-102z m265-12l-260 0-114 97 0 370 374 0 0-355-21 0 0 334-332 0 0-338 102-87 230 0 0 4 21 0z m-287 392l200 0 0-21-200 0z m0-73l200 0 0-22-200 0z m0-75l200 0 0-21-200 0z m379-289c-3 0-6 1-9 3l-211 131-76 96 121-22 212-131c14-10 9-32-3-50-7-13-20-27-34-27z m-205 151l206-130c3 1 9 7 15 17 7 10 9 19 9 22l-207 128-62 11z"/>
<glyph unicode="&#44;" d="M431 159c-6 0-11 4-11 11l0 146-249 0 0-92c0-6-5-11-11-11-6 0-11 5-11 11l0 102c0 7 5 11 11 11l271 0c6 0 11-4 11-11l0-156c0-7-5-11-11-11z m42 157l-355 0c-4 0-8 2-9 6-2 4-1 9 2 12l177 175c4 4 11 4 15 0l177-175c3-3 4-8 2-12-2-4-5-6-9-6z m-329 21l302 0-152 149z m198-204c-6 0-10 5-10 11l0 78c0 19-16 36-35 36-20 0-36-16-36-36l0-32c0-7-4-11-10-11-7 0-11 4-11 11l0 32c0 32 26 57 57 57 30 0 56-26 56-57l0-78c0-6-4-11-11-11z m-331-133c-2 0-5 0-6 1-3 2-5 5-5 10l0 182c0 4 3 9 7 10 11 4 105 37 139 35 36-3 128-47 132-49 4-2 26-15 29-35 0-3 1-6 0-9l123 32c1 1 55 19 75-14 7-12 9-23 6-35-5-18-21-28-24-29-169-109-236-102-320-79-77 22-151-17-152-17-1-3-2-3-4-3z m107 46c19 0 37-2 56-8 80-22 140-28 303 77 1 0 10 7 14 17 1 6 0 12-5 19-8 15-39 8-50 5l-171-44c-3 0-5 0-6 0l-100 29c-5 2-9 7-8 13 3 5 8 8 13 7l97-28 21 6c4 6 4 10 4 11-1 10-14 19-17 21-25 11-97 43-124 47-24 1-92-22-124-32l0-158c20 7 55 18 97 18z"/>
<glyph unicode="&#45;" d="M389 0l-378 0c-7 0-11 4-11 11l0 490c0 7 4 11 11 11l378 0c7 0 11-4 11-11l0-490c0-7-4-11-11-11z m-368 21l358 0 0 470-358 0z m480-21l-112 0c-6 0-10 4-10 11l0 368c0 6 4 10 10 10l112 0c7 0 11-4 11-10l0-368c0-7-4-11-11-11z m-101 21l91 0 0 347-91 0z m-138-21l-124 0c-7 0-11 4-11 11l0 106c0 7 4 11 11 11l124 0c7 0 11-4 11-11l0-106c0-7-4-11-11-11z m-114 21l104 0 0 86-104 0z m-63 362c-6 0-10 4-10 11l0 39c0 6 4 11 10 11 7 0 11-5 11-11l0-39c0-7-4-11-11-11z m77 0c-6 0-11 4-11 11l0 39c0 6 5 11 11 11 7 0 11-5 11-11l0-39c0-7-4-11-11-11z m77 0c-6 0-11 4-11 11l0 39c0 6 5 11 11 11 6 0 11-5 11-11l0-39c0-7-5-11-11-11z m77 0c-7 0-11 4-11 11l0 39c0 6 4 11 11 11 6 0 10-5 10-11l0-39c0-7-4-11-10-11z m-231-111c-6 0-10 4-10 11l0 39c0 7 4 11 10 11 7 0 11-4 11-11l0-39c0-7-4-11-11-11z m77 0c-6 0-11 4-11 11l0 39c0 7 5 11 11 11 7 0 11-4 11-11l0-39c0-7-4-11-11-11z m77 0c-6 0-11 4-11 11l0 39c0 7 5 11 11 11 6 0 11-4 11-11l0-39c0-7-5-11-11-11z m77 0c-7 0-11 4-11 11l0 39c0 7 4 11 11 11 6 0 10-4 10-11l0-39c0-7-4-11-10-11z m-231-112c-6 0-10 4-10 11l0 39c0 7 4 11 10 11 7 0 11-4 11-11l0-39c0-7-4-11-11-11z m77 0c-6 0-11 4-11 11l0 39c0 7 5 11 11 11 7 0 11-4 11-11l0-39c0-7-4-11-11-11z m77 0c-6 0-11 4-11 11l0 39c0 7 5 11 11 11 6 0 11-4 11-11l0-39c0-7-5-11-11-11z m77 0c-7 0-11 4-11 11l0 39c0 7 4 11 11 11 6 0 10-4 10-11l0-39c0-7-4-11-10-11z m130 101c-7 0-11 5-11 11l0 33c0 6 4 11 11 11 6 0 11-5 11-11l0-33c0-6-5-11-11-11z m0-94c-7 0-11 5-11 11l0 33c0 7 4 11 11 11 6 0 11-4 11-11l0-33c0-6-5-11-11-11z m0-93c-7 0-11 4-11 10l0 33c0 7 4 11 11 11 6 0 11-4 11-11l0-33c0-6-5-10-11-10z"/>
<glyph unicode="&#46;" d="M435 0l-358 0c-7 0-11 4-11 11l0 276-55 0c-5 0-9 3-10 7-1 5 0 9 3 12l246 204c4 3 9 3 13 0l246-204c3-3 4-7 3-12-1-4-5-7-10-7l-55 0 0-276c-1-7-5-11-12-11z m-348 21l338 0 0 277c0 6 4 10 10 10l36 0-215 179-215-179 36 0c6 0 10-4 10-10z m-22 311c-6 0-11 4-11 10l0 145c0 7 5 11 11 11l77 0c6 0 11-4 11-11l0-81c0-6-5-10-11-10-7 0-11 4-11 10l0 71-55 0 0-135c0-6-5-10-11-10z m111-248c-2 0-4 1-6 2-5 4-7 10-3 15l160 223c4 5 10 7 15 2 5-3 7-9 3-15l-160-222c-3-4-6-5-9-5z m34 153c-25 0-47 21-47 47 0 25 22 47 47 47 26 0 47-22 47-47 0-26-21-47-47-47z m0 72c-14 0-25-11-25-25 0-14 11-26 25-26 14 0 26 12 26 26 0 14-12 25-26 25z m92-227c-26 0-47 21-47 47 0 26 21 47 47 47 25 0 47-21 47-47 0-26-22-47-47-47z m0 73c-14 0-26-12-26-26 0-14 12-26 26-26 14 0 25 12 25 26 0 14-11 26-25 26z"/>
<glyph unicode="&#47;" d="M435 0l-358 0c-7 0-11 4-11 11l0 276-55 0c-5 0-9 3-10 7-1 5 0 9 3 12l246 204c4 3 9 3 13 0l246-204c3-3 4-7 3-12-1-4-5-7-10-7l-55 0 0-276c-1-7-5-11-12-11z m-348 21l338 0 0 277c0 6 4 10 10 10l36 0-215 179-215-179 36 0c6 0 10-4 10-10z m-22 311c-6 0-11 4-11 10l0 145c0 7 5 11 11 11l77 0c6 0 11-4 11-11l0-81c0-6-5-10-11-10-7 0-11 4-11 10l0 71-55 0 0-135c0-6-5-10-11-10z m144-250c-16 0-31 7-43 17l-29 31c-11 11-18 27-18 42 0 15 7 31 18 42 11 12 26 17 42 17 16 0 31-6 43-17l30-29c23-25 23-62 0-86-12-10-27-17-43-17z m-29 129c-10 0-20-4-26-12-7-7-12-17-12-26 0-10 4-20 12-27l29-31c14-14 40-15 55 0 15 15 15 40 0 56l-30 30c-9 7-18 10-28 10z m49-30c-3 0-5 1-7 4-4 4-4 10 0 14l123 123c4 4 10 4 14 0 5-4 5-11 0-15l-122-122c-2-3-4-4-8-4z m133 78c-4 0-6 1-8 3l-27 28c-4 4-4 11 0 15 5 4 11 4 15 0l27-28c4-4 4-10 0-15-2-2-5-3-7-3z m-32-18c-4 0-6 1-8 3l-20 21c-4 4-4 10 0 14 4 5 11 5 15 0l20-20c4-4 4-10 0-15-2-2-4-3-7-3z"/>
<glyph unicode="&#58;" d="M386 109l-245 0 0 179-60 0 182 151 184-151-61 0z m-224 21l203 0 0 179 22 0-124 103-122-103 21 0z m-7 196l-22 0 0 102 71 0 0-61-22 0 0 39-27 0z m100-326c-21 0-42 2-63 7l5 21c106-27 219 24 268 121 51 103 24 226-66 294l13 17c98-75 129-209 72-320-43-88-134-140-229-140z m-171 66c-85 77-109 203-56 307 55 107 180 161 297 130l-5-20c-108 29-223-21-273-120-48-95-27-212 52-282z m-72-15l-2 22 75 6-6 76 21 2 9-97z m386 317l-9 97 97 9 3-22-76-6 6-76z"/>
<glyph unicode="&#59;" d="M403 291c-26 0-53 11-73 29-44 42-47 111-8 156 21 22 51 36 81 36 28 0 54-11 74-30 44-41 47-111 7-156-21-22-50-35-81-35z m0 200c-24 0-48-11-65-30-32-36-30-93 5-126 16-15 38-24 59-24 25 0 48 11 64 29 32 37 30 93-5 126-15 16-35 25-58 25z m-338-491c-2 0-5 1-7 3-5 4-5 11-1 15l276 308c4 5 10 5 15 1 4-4 4-10 1-14l-276-310c-3-2-5-3-8-3z m0 0c-2 0-5 1-7 3l-55 50c-4 5-4 11-1 15 4 5 11 5 15 1l54-50c5-4 5-10 2-15-3-3-5-4-8-4z m30 33c-2 0-5 1-8 3l-76 73c-5 4-5 10 0 15 4 4 10 4 15 0l76-73c5-4 5-10 0-15-2-2-4-3-7-3z m30 34c-2 0-6 1-8 3l-46 44c-4 4-4 11 0 15 5 4 11 4 15 0l46-44c5-4 5-10 0-15-2-2-4-3-7-3z m30 33c-4 0-6 1-8 3l-32 31c-4 5-4 11 0 15 4 5 11 5 15 0l32-31c4-4 4-10 0-15-2-2-4-3-7-3z"/>
<glyph unicode="&#60;" d="M415 404c-2 0-3 0-5 1l-154 85-154-85c-5-3-11-1-15 5-2 5-1 11 5 15l159 86c3 2 7 2 10 0l159-86c6-4 8-10 5-15-3-4-6-6-10-6z m-404-113c-5 0-8 2-10 7-2 5 0 11 5 13l120 55 0 69c0 7 4 11 11 11 6 0 10-4 10-11l0-76c0-4-2-7-6-9l-126-58c-1-1-3-1-4-1z m490 0c-1 0-3 0-4 1l-126 58c-4 2-6 5-6 9l0 76c0 7 4 11 10 11 7 0 11-4 11-11l0-69 120-55c5-2 7-8 5-13-2-5-5-7-10-7z m-33-291l-424 0c-7 0-11 4-11 11l0 305c0 6 4 10 11 10 6 0 10-4 10-10l0-295 404 0 0 295c0 6 4 10 10 10 7 0 11-4 11-10l0-305c0-7-4-11-11-11z m-131 60l-162 0c-6 0-11 4-11 10l0 122c0 6 5 11 11 11l162 0c6 0 11-5 11-11l0-122c0-6-5-10-11-10z m-151 21l140 0 0 100-140 0z m128 102c-7 0-11 5-11 11l0 44c0 16-19 34-47 34-26 0-47-15-47-33l0-44c0-6-4-10-11-10-6 0-10 4-10 10l0 44c0 30 31 54 68 54 37 0 68-25 68-55l0-44c0-6-4-11-10-11z"/>
<glyph unicode="&#61;" d="M11 148c-7 0-11 5-11 11l0 224c0 6 4 11 11 11l41 0 102 50c3 1 6 1 9 0l98-50 59 0c6 0 11-5 11-11 0-6-5-11-11-11l-62 0c-2 0-3 0-5 1l-96 49-98-49c-1-1-4-1-5-1l-33 0 0-213c0-6-4-11-10-11z m490 0l-180 0c-6 0-11 5-11 11 0 6 5 11 11 11l170 0 0 95-37 0c-4 0-8 3-10 7l-40 137-80 0c-6 0-10 4-10 10 0 7 4 11 10 11l89 0c4 0 8-3 10-8l40-136 38 0c7 0 11-4 11-11l0-116c0-6-4-11-11-11z m-375-81c-20 0-36 16-36 36 0 21 16 37 36 37 20 0 36-16 36-37 0-20-16-36-36-36z m0 51c-9 0-15-6-15-15 0-8 6-14 15-14 8 0 15 6 15 14 0 9-7 15-15 15z m308-51c-20 0-36 16-36 36 0 21 16 37 36 37 20 0 36-16 36-37 0-20-16-36-36-36z m0 51c-8 0-15-6-15-15 0-8 7-14 15-14 9 0 15 6 15 14 0 9-6 15-15 15z m-113 30l-310 0c-7 0-11 5-11 11 0 6 4 11 11 11l299 0 0 242c0 6 5 10 11 10 6 0 11-4 11-10l0-253c0-6-5-11-11-11z m47 75l-19 0c-7 0-11 4-11 11 0 6 4 10 11 10l19 0c6 0 11-4 11-10 0-7-5-11-11-11z"/>
<glyph unicode="&#62;" d="M501 122l-170 0c-7 0-11 4-11 10 0 7 4 11 11 11l160 0 0 84-33 0c-5 0-9 3-11 8l-38 122-76 0c-7 0-11 5-11 11 0 6 4 11 11 11l83 0c4 0 9-4 11-8l38-122 36 0c7 0 11-5 11-11l0-106c0-6-4-10-11-10z m-355-77c-19 0-35 16-35 35 0 19 16 35 35 35 19 0 35-16 35-35 0-19-16-35-35-35z m0 49c-7 0-14-7-14-14 0-7 7-14 14-14 8 0 14 7 14 14 0 7-6 14-14 14z m291-49c-19 0-35 16-35 35 0 19 16 35 35 35 20 0 36-16 36-35 0-19-16-35-36-35z m0 49c-7 0-14-7-14-14 0-7 7-14 14-14 8 0 14 7 14 14 0 7-6 14-14 14z m-106 28l-295 0c-6 0-10 4-10 10l0 71c0 6 4 10 10 10 7 0 11-4 11-10l0-60 273 0 0 221-313 82c-5 2-8 7-7 14 1 5 7 9 13 7l320-84c4-1 7-5 7-11l0-240c1-6-3-10-9-10z m43 71l-17 0c-6 0-10 4-10 11 0 6 4 10 10 10l17 0c7 0 11-4 11-10 0-7-4-11-11-11z"/>
<glyph unicode="&#63;" d="M189 381c-3 0-6 1-8 3l-42 42-42-42c-4-4-11-4-15 0-4 4-4 11 0 15l49 49c4 4 11 4 15 0l50-49c5-4 5-11 0-15-2-2-4-3-7-3z m184 0c-3 0-5 1-7 3l-50 49c-5 4-5 11 0 15 4 4 10 4 15 0l42-42 42 42c4 4 11 4 15 0 4-4 4-11 0-15l-49-49c-2-2-4-3-8-3z m128-358l-490 0c-7 0-11 5-11 11l0 444c0 6 4 11 11 11l490 0c7 0 11-5 11-11l0-444c0-6-4-11-11-11z m-480 22l470 0 0 422-470 0z m271 137l-71 0c-7 0-11 5-11 11l0 100c0 7 4 11 11 11l71 0c7 0 11-4 11-11l0-100c0-6-4-11-11-11z m-61 22l51 0 0 79-51 0z m25 113c-18 0-33 15-33 33 0 18 15 33 33 33 18 0 33-15 33-33 0-18-15-33-33-33z m0 45c-6 0-12-6-12-12 0-7 6-12 12-12 6 0 12 5 12 12 0 6-6 12-12 12z m-29-302c-6 0-10 4-10 10l0 81c0 7 4 11 10 11 7 0 11-4 11-11l0-81c0-6-4-10-11-10z m58 0c-7 0-11 4-11 10l0 81c0 7 4 11 11 11 6 0 10-4 10-11l0-81c0-6-4-10-10-10z m-99 150c-7 0-11 4-11 11l0 52c0 6 4 11 11 11 6 0 10-5 10-11l0-52c0-7-4-11-10-11z m140 0c-6 0-10 4-10 11l0 52c0 6 4 11 10 11 7 0 11-5 11-11l0-52c0-7-4-11-11-11z"/>
<glyph unicode="&#64;" d="M501 352c-2 0-3 0-5 1l-240 137-240-137c-5-2-12-1-15 4-2 6-1 12 4 15l246 139c3 2 7 2 10 0l246-139c5-3 7-9 4-15-2-3-6-5-10-5z m0-299l-490 0c-7 0-11 5-11 11l0 102c0 7 4 11 11 11l490 0c7 0 11-4 11-11l0-102c0-6-4-11-11-11z m-480 22l470 0 0 81-470 0z m438 81l-406 0c-3 0-6 2-8 4-2 3-2 6-1 10l67 182c1 4 5 7 10 7l270 0c5 0 9-3 10-7l66-180c2-1 2-3 2-6 0-6-4-10-10-10z m-391 21l375 0-59 161-256 0z m12-177c-6 0-11 4-11 11l0 49c0 6 5 10 11 10 6 0 11-4 11-10l0-49c0-7-5-11-11-11z m352 0c-6 0-11 4-11 11l0 49c0 6 5 10 11 10 6 0 11-4 11-10l0-49c0-7-5-11-11-11z m-321 105l-61 0c-6 0-11 4-11 10 0 7 5 11 11 11l61 0c6 0 11-4 11-11 0-6-5-10-11-10z m351 0l-61 0c-6 0-11 4-11 10 0 7 5 11 11 11l61 0c6 0 11-4 11-11 0-6-5-10-11-10z"/>
<glyph unicode="&#91;" d="M415 404c-2 0-3 0-5 1l-154 85-154-85c-5-3-11-1-15 5-2 5-1 11 5 15l159 86c3 2 7 2 10 0l159-86c6-4 8-10 5-15-3-4-6-6-10-6z m-404-113c-5 0-8 2-10 7-2 5 0 11 5 13l120 55 0 69c0 7 4 11 11 11 6 0 10-4 10-11l0-76c0-4-2-7-6-9l-126-58c-1-1-3-1-4-1z m490 0c-1 0-3 0-4 1l-126 58c-4 2-6 5-6 9l0 76c0 7 4 11 10 11 7 0 11-4 11-11l0-69 120-55c5-2 7-8 5-13-2-5-5-7-10-7z m-33-291l-424 0c-7 0-11 4-11 11l0 305c0 6 4 10 11 10 6 0 10-4 10-10l0-295 404 0 0 295c0 6 4 10 10 10 7 0 11-4 11-10l0-305c0-7-4-11-11-11z m-175 60l-162 0c-6 0-10 4-10 10l0 122c0 6 4 11 10 11l162 0c7 0 11-5 11-11l0-122c0-6-4-10-11-10z m-151 21l141 0 0 100-141 0z m239 102c-7 0-11 5-11 11l0 44c0 18-21 33-47 33-25 0-46-14-46-32l0-44c0-6-4-10-10-10-7 0-11 4-11 10l0 44c0 30 30 53 67 53 38 0 68-24 68-54l0-44c0-6-4-11-10-11z"/>
<glyph unicode="&#93;" d="M396 404c-2 0-3 0-6 1l-146 84-146-84c-5-3-12-1-15 5-2 5-1 11 4 15l152 86c3 2 7 2 11 0l151-86c5-4 6-10 4-15-2-4-6-6-9-6z m-385-113c-5 0-8 2-10 7-2 5 0 11 5 13l113 55 0 69c0 7 5 11 11 11 7 0 11-4 11-11l0-76c0-4-2-7-7-9l-119-58c-1-1-3-1-4-1z m466 0c-1 0-3 0-4 1l-120 58c-3 2-6 5-6 9l0 76c0 7 4 11 10 11 7 0 11-4 11-11l0-69 113-55c5-2 8-8 5-13-2-5-5-7-9-7z m-31-291l-403 0c-7 0-11 4-11 11l0 305c0 6 4 10 11 10 6 0 10-4 10-10l0-295 382 0 0 295c0 6 4 10 11 10 6 0 11-4 11-10l0-305c0-7-5-11-11-11z m-58 0l-89 0c-7 0-11 4-11 11l0 146c0 6 4 10 11 10l89 0c7 0 11-4 11-10l0-146c0-7-4-11-11-11z m-79 21l69 0 0 125-69 0z m192 381c-5 0-10 4-10 11l-2 35-34 2c-6 0-10 5-9 12 0 6 5 11 12 9l42-3c6 0 10-4 10-9l2-46c0-6-4-11-11-11z m-431-329c-2 0-4 0-5 1-5 3-6 9-3 15l60 100c2 4 6 6 10 5 5-1 8-4 9-8l6-44 61 82c2 3 6 4 10 4l69-6 197 233c5 5 11 6 15 2 4-5 6-11 1-15l-200-239c-2-4-6-5-10-5l-68 7-73-97c-2-3-7-6-10-5-5 2-8 5-8 9l-6 41-45-75c-2-3-6-5-10-5z m204 220l-61 0c-6 0-10 5-10 11 0 6 4 11 10 11l61 0c7 0 11-5 11-11 0-6-4-11-11-11z"/>
<glyph unicode="&#94;" d="M435 0l-358 0c-7 0-11 4-11 11l0 276-55 0c-5 0-9 3-10 7-1 5 0 9 3 12l246 204c4 3 9 3 13 0l246-204c3-3 4-7 3-12-1-4-5-7-10-7l-55 0 0-276c-1-7-5-11-12-11z m-348 21l338 0 0 277c0 6 4 10 10 10l36 0-215 179-215-179 36 0c6 0 10-4 10-10z m-22 311c-6 0-11 4-11 10l0 145c0 7 5 11 11 11l77 0c6 0 11-4 11-11l0-81c0-6-5-10-11-10-7 0-11 4-11 10l0 71-55 0 0-135c0-6-5-10-11-10z m284-272l-186 0c-6 0-10 4-10 10l0 156c0 7 4 11 10 11l186 0c6 0 10-4 10-11l0-156c0-6-4-10-10-10z m-175 21l164 0 0 134-164 0z m21 134c-4 0-7 3-9 6l-24 45c-20 38-5 88 33 109 40 22 90 6 111-33 3-5 1-11-4-15-5-3-12-1-15 5-15 29-52 39-81 24-29-16-40-52-25-81l24-45c3-5 1-11-4-13-3-2-4-2-6-2z m61-84c-19 0-34 15-34 34 0 20 15 34 34 34 19 0 34-14 34-34 0-19-15-34-34-34z m0 47c-7 0-13-5-13-13 0-7 6-12 13-12 7 0 13 5 13 12 0 8-6 13-13 13z m0-91c-6 0-11 5-11 11l0 39c0 6 5 10 11 10 6 0 11-4 11-10l0-39c0-6-5-11-11-11z"/>
<glyph unicode="&#95;" d="M435 0l-358 0c-7 0-11 4-11 11l0 276-55 0c-5 0-9 3-10 7-1 5 0 9 3 12l246 204c4 3 9 3 13 0l246-204c3-3 4-7 3-12-1-4-5-7-10-7l-55 0 0-276c-1-7-5-11-12-11z m-348 21l338 0 0 277c0 6 4 10 10 10l36 0-215 179-215-179 36 0c6 0 10-4 10-10z m-22 311c-6 0-11 4-11 10l0 145c0 7 5 11 11 11l77 0c6 0 11-4 11-11l0-81c0-6-5-10-11-10-7 0-11 4-11 10l0 71-55 0 0-135c0-6-5-10-11-10z m292-285l-202 0c-7 0-11 4-11 11l0 169c0 7 4 11 11 11l202 0c7 0 11-4 11-11l0-169c0-7-4-11-11-11z m-192 21l182 0 0 149-182 0z m169 149l-155 0c-6 0-10 4-10 10l0 82c0 33 27 61 60 61l55 0c33 0 61-28 61-61l0-82c0-6-5-10-11-10z m-144 21l133 0 0 71c0 22-18 40-39 40l-55 0c-21 0-39-18-39-40z m66-113c-20 0-36 16-36 36 0 20 16 36 36 36 20 0 36-16 36-36 0-20-16-36-36-36z m0 51c-9 0-15-6-15-15 0-8 6-15 15-15 9 0 15 7 15 15 0 9-6 15-15 15z m0-99c-6 0-11 4-11 10l0 42c0 6 5 11 11 11 6 0 11-5 11-11l0-42c0-6-5-10-11-10z"/>
<glyph unicode="&#96;" d="M444 0l-376 0c-6 0-10 4-10 11l0 240-47 0c-5 0-9 2-10 6-2 4-1 9 2 12l246 240c4 4 10 4 14 0l246-240c3-3 4-8 2-12-2-4-5-6-10-6l-47 0 0-240c0-7-4-11-10-11z m-365 21l354 0 0 240c0 7 4 11 11 11l31 0-219 214-219-214 31 0c7 0 11-4 11-11z m177 92c-42 0-62 24-67 46-1 5 2 12 8 13 6 1 12-2 13-9 1-6 10-29 46-29 20 0 45 5 45 27 0 15 0 27-50 53-50 27-53 48-50 57 0 31 17 52 44 58 27 5 58-6 65-23 3-5 0-12-5-14-5-2-12 0-14 6-2 5-22 13-41 10-19-4-28-17-28-38 0-1 0-1 0-2 0-1 3-15 39-34 53-29 61-45 61-73 0-12-4-48-66-48z m0 202c-6 0-11 4-11 10l0 30c0 7 5 11 11 11 6 0 11-4 11-11l0-30c0-6-5-10-11-10z m0-240c-6 0-11 4-11 10l0 31c0 7 5 11 11 11 6 0 11-4 11-11l0-31c0-6-5-10-11-10z"/>
<glyph unicode="&#123;" d="M453 83l-163 0c-6 0-11 4-11 11 0 6 5 11 11 11l153 0 0 186-155 0c-6 0-11 4-11 11 0 6 5 11 11 11l165 0c7 0 11-5 11-11l0-208c0-7-4-11-11-11z m48 208l-209 0c-6 0-10 4-10 11 0 6 4 11 10 11l184 0-175 173-147-145c-5-4-11-4-15 0-5 5-5 11 0 15l154 153c5 4 11 4 15 0l201-200c3-3 4-7 2-11-1-5-5-7-10-7z m-149-208c-6 0-11 4-11 11l0 88c0 24-18 43-40 43-2 0-6 0-8 0-5-2-11 1-14 6-2 6 2 12 7 14 5 2 11 2 14 2 35 0 62-27 62-64l0-88c1-8-4-12-10-12z m-68-83l-273 0c-7 0-11 4-11 11l0 258c0 3 1 5 3 7l84 77c3 2 5 3 8 3l189 0c6 0 10-4 10-10l0-335c0-7-4-11-10-11z m-263 21l252 0 0 314-174 0-78-70z m188 226l-124 0c-6 0-10 5-10 11 0 7 4 11 10 11l124 0c6 0 11-4 11-11 0-6-5-11-11-11z m0-82l-124 0c-6 0-10 5-10 11 0 6 4 11 10 11l124 0c6 0 11-5 11-11 0-6-5-11-11-11z m0-82l-124 0c-6 0-10 4-10 11 0 6 4 11 10 11l124 0c6 0 11-5 11-11 0-7-5-11-11-11z"/>
</font>
</defs>
</svg>
