<?xml version="1.0" standalone="no"?>
<!DOCTYPE svg PUBLIC "-//W3C//DTD SVG 1.1//EN" "http://www.w3.org/Graphics/SVG/1.1/DTD/svg11.dtd">
<svg xmlns="http://www.w3.org/2000/svg">
<metadata>Generated by Fontastic.me</metadata>
<defs>
<font id="music" horiz-adv-x="512">
<font-face font-family="music" units-per-em="512" ascent="480" descent="-32"/>
<missing-glyph horiz-adv-x="512" />

<glyph unicode="&#97;" d="M438 354l-360 0c-4 0-7 1-9 4l-41 63c-3 5-2 11 3 14 5 4 12 2 15-3l38-57 348 0 33 63c3 5 10 7 15 4 5-3 7-9 4-14l-36-69c-2-3-6-5-10-5z m63-285l-490 0c-6 0-11 4-11 10l0 354c0 6 5 10 11 10l490 0c6 0 11-4 11-10l0-354c0-6-5-10-11-10z m-480 21l470 0 0 332-470 0z m118 53c-37 0-67 31-67 68 0 37 30 67 67 67 37 0 68-30 68-67 0-37-31-68-68-68z m0 114c-25 0-46-21-46-46 0-26 21-46 46-46 26 0 46 20 46 46 0 25-20 46-46 46z m234-114c-37 0-68 31-68 68 0 37 31 67 68 67 37 0 67-30 67-67 0-37-30-68-67-68z m0 114c-26 0-46-21-46-46 0-26 20-46 46-46 25 0 46 20 46 46 0 25-21 46-46 46z m-5 0l-224 0c-6 0-10 4-10 10 0 6 4 11 10 11l224 0c6 0 10-5 10-11 0-6-4-10-10-10z m0-114l-224 0c-6 0-10 5-10 11 0 6 4 11 10 11l224 0c6 0 10-5 10-11 0-6-4-11-10-11z"/>
<glyph unicode="&#98;" d="M497 174l-482 0c-4 0-7 3-9 6-2 4-2 8 1 11l240 317c2 2 5 4 8 4 0 0 0 0 0 0 4 0 7-2 9-4l241-317c3-3 3-7 1-11-2-3-5-6-9-6z m-460 22l438 0-220 288z m464-196l-490 0c-6 0-11 5-11 11l0 94c0 6 5 10 11 10l490 0c6 0 11-4 11-10l0-94c0-6-5-11-11-11z m-480 21l470 0 0 73-470 0z"/>
<glyph unicode="&#99;" d="M214 0c-5 0-10 5-10 10 0 6 4 11 10 11 19 1 37 10 48 23 5 6 8 14 9 23-5 0-10 0-15 0l-10 1c-32 2-53 3-84 27-26 21-42 46-45 75-4 30 6 61 29 89 6 8 13 15 19 22 13 15 25 28 34 44l4 8c3 5 6 9 8 14-12 41-20 83-14 125 3 17 18 35 34 39 14 3 27-2 37-14 21-27 1-81-1-87-9-22-21-44-33-66 6-18 13-36 19-54 3-7 5-14 8-20 23 7 50 7 65 1 28-11 61-46 68-87 4-21 2-54-32-83-24-21-46-30-69-33-2-14-6-27-15-38-14-18-38-29-63-30 0 0 0 0-1 0z m6 320l-3-6c-10-17-23-32-36-47-6-7-12-14-18-21-19-24-28-50-25-74 3-22 16-43 37-60 26-20 42-21 72-23l10 0c6-1 11-1 16-1-1 10-2 21-3 30 0 5-1 8-1 12-4 45-10 78-21 110 0 0 0 1 0 1-3-2-6-4-8-6-2-3-6-9 3-20 3-5 2-12-3-15-5-4-11-3-15 2-15 22-8 38-2 46 5 5 11 10 18 14-3 7-5 14-8 21-4 12-9 24-13 37z m48-71c0 0 0-1 1-2 13-42 18-82 21-115 1-3 1-7 1-11 1-10 3-21 3-31 18 3 35 11 54 27 21 18 30 40 25 64-6 34-35 63-54 70-12 4-33 3-51-2z m-28 242c-1 0-2-1-3-1-9-2-17-12-19-22-4-31 0-63 8-95 8 15 15 30 21 45 9 23 13 54 4 66-4 5-8 7-11 7z"/>
<glyph unicode="&#100;" d="M240 22c-99 0-191 63-223 162-19 60-14 123 15 179 28 55 77 96 136 116 60 19 123 14 179-15 55-28 96-77 115-136 8-25 12-50 12-75 0-6-5-11-11-11 0 0 0 0 0 0-6 1-11 5-11 11 1 23-3 46-10 68-17 54-55 98-105 124-51 26-108 31-162 13-54-17-98-55-124-105-26-51-31-108-13-162 36-112 155-173 267-137 15 5 30 11 44 20 5 3 12 1 15-4 3-5 1-11-4-14-15-10-32-17-49-23-23-7-47-11-71-11z m-143 170c-4 0-8 3-10 7-14 45-10 93 11 135 22 42 58 73 103 87 6 2 12-1 13-7 2-5-1-11-6-13-40-13-72-40-91-77-19-37-22-79-9-118 1-6-2-12-7-14-1 0-3 0-4 0z m143 0c-35 0-64 29-64 64 0 35 29 64 64 64 35 0 64-29 64-64 0-35-29-64-64-64z m0 107c-24 0-43-19-43-43 0-24 19-43 43-43 23 0 42 19 42 43 0 24-19 43-42 43z m127-200c-7 0-14 2-21 4-6 3-11 7-16 11-4 5-8 12-10 19-3 8-4 16-4 26 0 9 1 18 4 25 2 7 6 13 10 18 5 6 10 9 16 12 7 3 14 4 21 4 4 0 8 0 11-1 4 0 7-1 10-2 2-1 5-2 7-3 3-1 5-2 8-4l0-18-1 0c-2 1-3 3-6 5-2 1-4 3-7 5-3 1-6 3-10 4-3 1-7 1-12 1-5 0-9-1-14-3-4-2-8-5-11-9-3-4-6-8-8-14-1-6-2-13-2-20 0-8 1-15 3-21 1-5 4-10 7-14 4-4 7-7 12-9 4-1 8-2 13-2 5 0 9 0 12 1 4 1 8 3 10 4 3 2 6 4 8 5 2 2 3 3 5 4l1 0 0-18c-3-1-5-2-7-3-3-1-5-2-8-3-4-1-7-2-10-3-3 0-6-1-11-1z m140 60c0-11-2-20-6-29-4-8-10-15-17-19-6-4-12-6-18-8-6-1-13-1-23-1l-26 0 0 114 26 0c11 0 19-1 25-2 7-2 12-4 16-7 7-5 13-11 17-19 4-9 6-18 6-29z m-16 0c0 9-1 16-4 22-3 7-7 12-13 15-4 3-8 4-13 5-5 1-10 2-17 2l-12 0 0-88 12 0c7 0 13 0 18 1 5 1 9 3 14 6 5 4 9 9 11 15 3 6 4 13 4 22z"/>
<glyph unicode="&#101;" d="M92 26c-21 0-38 7-50 20-33 35-16 102 39 152 40 38 135 95 186 95 13 0 23-4 29-11 38-41-59-171-99-209-32-29-72-47-105-47z m175 245c-40 0-130-49-172-88-44-41-61-97-38-123 10-11 25-13 35-13 28 0 62 16 90 42 54 50 118 158 99 178-3 4-10 4-14 4z m-118-271c-30 0-59 10-85 31-4 4-5 10-1 15 4 4 10 5 15 1 52-42 112-26 151 4 53 41 93 126 52 216-2 5 0 11 6 14 5 2 11 0 14-6 45-100 1-195-59-241-30-23-62-34-93-34z m144 262c-2 0-5 1-7 3-4 4-4 11 0 15l183 184c4 4 10 4 15 0 4-4 4-11 0-15l-183-184c-2-2-5-3-8-3z m182 185c-2 0-5 1-7 3l-43 44c-4 4-4 11 0 15 4 4 11 4 15 0l43-44c4-4 4-11 0-15-2-2-5-3-8-3z m-41-36c-3 0-5 1-7 3l-25 25c-4 4-4 11 0 15 4 4 11 4 15 0l25-25c4-5 4-11 0-15-2-2-5-3-8-3z m-316-339c-3 0-6 1-9 4l-31 38c-4 5-3 12 1 15 5 4 12 4 15-1l32-39c4-4 3-11-1-15-2-1-5-2-7-2z"/>
<glyph unicode="&#102;" d="M142 0c-77 0-139 62-139 139 0 77 62 139 139 139 77 0 139-62 139-139 0-77-62-139-139-139z m0 257c-65 0-118-53-118-118 0-65 53-118 118-118 65 0 118 53 118 118 0 65-53 118-118 118z m100-38c-3 0-6 1-8 3-4 5-4 11 1 15l256 233c4 4 11 4 15-1 4-4 4-11-1-15l-256-233c-2-1-5-2-7-2z m256 232c-3 0-6 2-8 4l-35 39c-4 5-4 11 1 15 4 4 11 4 15-1l35-39c4-4 4-11-1-15-2-2-4-3-7-3z m-47-40c-3 0-6 1-8 3l-22 24c-4 5-3 11 1 15 4 4 11 4 15 0l22-25c4-4 4-11-1-15-2-2-4-2-7-2z m-305-326c-3 0-6 1-8 3l-47 52c-4 4-3 11 1 15 4 4 11 3 15-1l47-51c4-5 3-11-1-15-2-2-5-3-7-3z"/>
<glyph unicode="&#103;" d="M192 64c-106 0-192 86-192 192 0 106 86 192 192 192 106 0 192-86 192-192 0-106-86-192-192-192z m0 363c-94 0-171-77-171-171 0-94 77-171 171-171 94 0 171 77 171 171 0 94-77 171-171 171z m0-211c-22 0-40 18-40 40 0 22 18 40 40 40 22 0 40-18 40-40 0-22-18-40-40-40z m0 59c-10 0-18-9-18-19 0-10 8-19 18-19 10 0 19 9 19 19 0 10-9 19-19 19z m103-23c-21 0-38 17-38 38 0 21 17 38 38 38 21 0 37-17 37-38 0-21-16-38-37-38z m0 54c-9 0-17-7-17-16 0-9 8-17 17-17 9 0 16 8 16 17 0 9-7 16-16 16z m-102 19c-21 0-38 17-38 38 0 21 17 38 38 38 21 0 38-17 38-38 0-21-17-38-38-38z m0 54c-9 0-16-7-16-16 0-9 7-17 16-17 9 0 17 8 17 17 0 9-8 16-17 16z m-103-130c-21 0-38 17-38 38 0 21 17 38 38 38 21 0 38-17 38-38 0-21-17-38-38-38z m0 54c-9 0-17-7-17-16 0-9 8-17 17-17 9 0 16 8 16 17 0 9-7 16-16 16z m41-176c-20 0-37 17-37 38 0 21 17 38 37 38 21 0 38-17 38-38 0-21-17-38-38-38z m0 54c-9 0-16-7-16-16 0-9 7-17 16-17 10 0 17 8 17 17 0 9-7 16-17 16z m145-41c-21 0-38 17-38 38 0 21 17 38 38 38 21 0 38-17 38-38 0-21-17-38-38-38z m0 55c-9 0-17-8-17-17 0-9 8-16 17-16 9 0 16 7 16 16 0 9-7 17-16 17z m202-106c-12 0-24 0-35 5-9 3-17 8-25 14-1 1-3 2-5 3-11 8-15 8-28 3-20-9-37-7-55-6-5 0-11 1-17 1-6 0-11 5-11 11 1 5 5 10 11 10 7 0 13-1 19-1 17-1 30-2 45 4 19 9 31 8 48-4 2-1 4-3 6-4 6-5 13-9 19-11 12-5 26-4 40-4 4 0 8 0 11 0 6 0 11-4 11-10 0-6-5-11-11-11-3 0-7 0-11 0-4 0-8 0-12 0z"/>
<glyph unicode="&#104;" d="M172 99c-6 0-11 5-11 11l0 367c0 6 5 11 11 11l329 0c6 0 11-5 11-11l0-271c0-6-5-11-11-11-6 0-10 5-10 11l0 261-309 0 0-357c0-6-4-11-10-11z m-104-75c-30 0-52 12-60 32-11 30 18 68 66 86 15 5 32 9 46 9 30 0 53-12 60-32 6-16 1-34-12-50-13-15-32-28-54-36-15-6-31-9-46-9z m52 105c-12 0-25-2-39-7-38-15-59-43-53-59 4-11 20-18 40-18 12 0 26 3 39 8 18 6 34 17 44 29 5 6 13 18 9 29-4 11-19 18-40 18z m277-6c-29 0-52 11-59 31-6 16-1 34 12 50 13 16 32 28 54 37 15 5 31 8 46 8 30 0 52-12 60-31 5-16 1-34-13-51-12-15-31-28-53-36-16-5-32-8-47-8z m53 105c-12 0-26-3-39-7-19-7-34-18-44-30-5-6-13-18-9-29 4-11 19-18 39-18 13 0 26 3 39 7 19 7 35 18 45 30 5 6 13 18 9 29-5 11-20 18-40 18z m40 106l-316 0c-6 0-11 5-11 11 0 6 5 11 11 11l316 0c6 0 11-5 11-11 0-6-5-11-11-11z m-400 74l-79 0c-6 0-11 5-11 11 0 6 5 10 11 10l79 0c6 0 10-4 10-10 0-6-4-11-10-11z m0-79l-79 0c-6 0-11 5-11 11 0 6 5 10 11 10l79 0c6 0 10-4 10-10 0-6-4-11-10-11z m0-79l-79 0c-6 0-11 5-11 11 0 6 5 10 11 10l79 0c6 0 10-4 10-10 0-6-4-11-10-11z"/>
<glyph unicode="&#105;" d="M11 0c-2 0-4 1-6 2-3 2-5 5-5 9l0 490c0 4 2 7 5 9 3 2 7 3 10 1l491-245c4-2 6-5 6-9 0-4-2-8-6-10l-491-246c-1-1-3-1-4-1z m10 484l0-456 457 229z"/>
<glyph unicode="&#106;" d="M501 54l-490 0c-6 0-11 5-11 11l0 291c0 6 5 11 11 11l490 0c6 0 11-5 11-11l0-291c0-6-5-11-11-11z m-480 21l470 0 0 270-470 0z m384 59c-30 0-55 25-55 56 0 30 25 55 55 55 31 0 56-25 56-55 0-31-25-56-56-56z m0 90c-19 0-34-15-34-34 0-19 15-35 34-35 19 0 35 16 35 35 0 19-16 34-35 34z m-298-90c-31 0-56 25-56 56 0 30 25 55 56 55 30 0 55-25 55-55 0-31-25-56-55-56z m0 90c-19 0-35-15-35-34 0-19 16-35 35-35 19 0 34 16 34 35 0 19-15 34-34 34z m189-49l-80 0c-6 0-10 5-10 11l0 86c0 5 4 10 10 10l80 0c6 0 10-5 10-10l0-86c0-6-4-11-10-11z m-69 22l58 0 0 64-58 0z m201 148c-6 0-11 5-11 11l0 81-322 0 0-80c0-6-5-11-11-11-6 0-11 5-11 11l0 90c0 6 5 11 11 11l344 0c6 0 11-5 11-11l0-91c0-6-5-11-11-11z m-93 6c-6 0-11 4-11 10l0 21c0 6 5 11 11 11 6 0 11-5 11-11l0-21c0-6-5-10-11-10z m-79 0c-6 0-11 4-11 10l0 21c0 6 5 11 11 11 6 0 11-5 11-11l0-21c0-6-5-10-11-10z m-79 0c-6 0-11 4-11 10l0 21c0 6 5 11 11 11 6 0 11-5 11-11l0-21c0-6-5-10-11-10z"/>
<glyph unicode="&#107;" d="M256 162c-56 0-101 46-101 103l0 144c0 57 45 103 101 103 56 0 101-46 101-103l0-144c0-57-45-103-101-103z m0 329c-44 0-80-37-80-82l0-144c0-45 36-82 80-82 44 0 80 37 80 82l0 144c0 45-36 82-80 82z m0-398c-86 0-156 71-160 161 0 6 5 11 10 12 6 0 11-5 11-11 4-79 64-141 139-141 75 0 135 62 139 141 0 6 5 11 11 11 5-1 10-6 10-12-4-90-74-161-160-161z m0-79c-6 0-11 5-11 11l0 79c0 6 5 10 11 10 6 0 11-4 11-10l0-79c0-6-5-11-11-11z m80-14l-160 0c-6 0-11 5-11 11 0 6 5 10 11 10l160 0c6 0 11-4 11-10 0-6-5-11-11-11z m7 400l-39 0c-6 0-11 4-11 10 0 6 5 11 11 11l39 0c6 0 11-5 11-11 0-6-5-10-11-10z m0-74l-39 0c-6 0-11 5-11 11 0 6 5 11 11 11l39 0c6 0 11-5 11-11 0-6-5-11-11-11z m0-73l-39 0c-6 0-11 5-11 11 0 6 5 10 11 10l39 0c6 0 11-4 11-10 0-6-5-11-11-11z m-138 147l-39 0c-6 0-11 4-11 10 0 6 5 11 11 11l39 0c6 0 11-5 11-11 0-6-5-10-11-10z m0-74l-39 0c-6 0-11 5-11 11 0 6 5 11 11 11l39 0c6 0 11-5 11-11 0-6-5-11-11-11z m0-73l-39 0c-6 0-11 5-11 11 0 6 5 10 11 10l39 0c6 0 11-4 11-10 0-6-5-11-11-11z"/>
<glyph unicode="&#108;" d="M155 0l-144 0c-6 0-11 5-11 11l0 490c0 6 5 11 11 11l144 0c5 0 10-5 10-11l0-490c0-6-5-11-10-11z m-134 21l123 0 0 470-123 0z m480-21l-144 0c-5 0-10 5-10 11l0 490c0 6 5 11 10 11l144 0c6 0 11-5 11-11l0-490c0-6-5-11-11-11z m-133 21l123 0 0 470-123 0z"/>
<glyph unicode="&#109;" d="M168 97c-6 0-11 5-11 11l0 372c0 6 5 11 11 11l333 0c6 0 11-5 11-11l0-275c0-6-5-10-11-10-6 0-10 4-10 10l0 264-313 0 0-361c0-6-4-11-10-11z m-105-76c-31 0-53 12-61 32-5 16-1 34 13 51 12 15 32 28 54 36 15 6 32 9 47 9 30 0 53-12 60-32 6-16 1-34-13-51-12-15-31-28-53-36-16-6-32-9-47-9z m53 107c-13 0-26-3-40-8-19-7-34-17-45-30-5-6-13-18-9-29 5-12 20-18 41-18 12 0 26 2 39 7 19 7 35 18 45 30 5 6 13 18 9 30-4 11-20 18-40 18z m280-7c-30 0-53 12-60 32-6 16-1 34 13 51 12 15 31 28 53 36 16 6 32 9 47 9 31 0 53-12 61-32 11-31-18-69-67-87-15-6-32-9-47-9z m53 107c-12 0-26-3-39-8-19-7-35-17-45-30-5-6-13-18-9-30 4-11 20-18 40-18 13 0 26 3 40 8 39 14 60 43 54 60-5 11-20 18-41 18z m41 107l-320 0c-6 0-11 5-11 11 0 6 5 11 11 11l320 0c6 0 11-5 11-11 0-6-5-11-11-11z"/>
<glyph unicode="&#110;" d="M187 0c-23 0-42 7-55 21-19 18-25 46-19 78 6 30 24 61 49 86l92 92c32 32 73 52 110 52 22 0 41-8 55-21 18-19 25-46 18-78-6-31-24-61-49-87l-92-92c-32-32-73-51-109-51z m177 307c-31 0-67-17-95-45l-92-92c-22-22-38-49-43-75-5-25 0-46 13-59 9-10 23-15 40-15 31 0 66 17 94 46l92 91c22 23 38 50 43 76 5 25 1 45-13 59-9 9-23 14-39 14z m-330-275c-2 0-5 1-7 3-4 4-4 11 0 15l370 370c4 5 11 5 15 0 4-4 4-11 0-15l-370-370c-2-2-5-3-8-3z m249 13c-3 0-6 1-8 3l-21 22c-4 4-4 11 0 15 4 4 11 4 15 0l22-21c4-5 4-11 0-16-3-2-5-3-8-3z m34 35c-2 0-5 1-7 3l-22 22c-4 4-4 10 0 15 4 4 11 4 15 0l22-22c4-4 4-11 0-15-2-2-5-3-8-3z m35 34c-3 0-6 1-8 3l-21 22c-4 4-4 11 0 15 4 4 11 4 15 0l21-22c5-4 5-10 0-15-2-2-4-3-7-3z m34 35c-2 0-5 1-7 3l-22 21c-4 5-4 11 0 16 4 4 11 4 15 0l22-22c4-4 4-11 0-15-2-2-5-3-8-3z m85 226c-6 0-12 1-18 3-18 4-36 16-52 31-15 16-27 34-31 52-6 20-3 36 8 47 1 1 2 2 2 2 5 3 11 3 14-1 4-5 4-12 0-16 0 0-1 0-1 0-5-6-6-15-3-27 4-14 13-29 26-42 13-12 28-22 42-26 12-3 21-2 27 3 0 0 0 0 0 1 4 4 11 5 15 1 4-4 5-10 2-14-1-1-2-2-2-3-7-7-17-11-29-11z m-425-356c-3 0-5 1-7 3l-28 28c-4 4-4 11 0 15 4 4 11 4 15 0l28-28c4-4 4-10 0-15-2-2-5-3-8-3z"/>
<glyph unicode="&#111;" d="M155 13c-22 0-42 9-55 25l-50 61c-24 31-19 76 12 101l1 2c18 14 58 32 91 38 11 15 23 29 32 37l2 1c12 10 27 16 43 16 17 0 32-7 43-20l38-47c9-12 13-27 10-43-3-16-11-31-24-41l-2-1c-8-7-20-14-34-21-10-35-41-76-59-91l-2-1c-13-10-29-16-46-16z m76 259c-11 0-21-4-30-11l-1-1c-9-7-21-21-31-36-1-2-4-4-7-4-30-5-69-22-85-35l-2-1c-22-18-25-50-8-71l49-61c10-11 24-18 39-18 12 0 23 4 33 12l1 1c16 13 46 54 54 85 1 3 3 6 6 7 14 6 27 13 34 19l1 1c9 8 15 18 17 28 2 10 0 20-6 27l-38 47c-6 7-15 11-26 11z m-211-37c-3 0-6 1-8 4-4 5-3 12 2 15l314 243c4 4 11 3 15-2 3-4 2-11-2-15l-314-243c-2-1-4-2-7-2z m126-143c-3 0-7 2-9 5l-26 33c-3 5-2 12 2 15 5 4 12 3 15-2l26-33c4-5 3-12-2-15-2-2-4-3-6-3z m141 145c-3 0-6 1-8 4-4 4-4 11 1 15l184 159c4 4 11 4 15-1 3-4 3-11-1-15l-184-159c-2-2-5-3-7-3z m205 136c-3 0-6 1-8 3l-42 49c-4 4-4 11 1 15 4 3 11 3 15-1l42-49c3-4 3-11-1-15-2-2-5-2-7-2z m-41-35c-3 0-6 1-8 3l-42 49c-4 4-3 11 1 15 5 4 12 3 15-1l42-49c4-4 4-11-1-15-2-2-4-2-7-2z"/>
<glyph unicode="&#112;" d="M142 41c-21 0-41 10-55 26l-49 61c-25 30-20 76 11 101l2 1c18 15 57 33 91 39 10 15 22 29 32 36l1 2c13 10 28 15 43 15 17 0 33-7 43-19l38-47c10-12 14-28 11-44-3-16-12-30-25-41l-1-1c-8-6-20-13-34-20-11-35-41-76-60-91l-1-1c-14-11-30-17-47-17z m76 260c-10 0-21-4-29-11l-2-1c-8-7-20-21-30-36-2-3-5-4-8-5-30-4-69-21-85-34l-1-2c-22-18-26-49-9-71l50-61c9-11 23-17 38-17 12 0 24 4 33 11l2 1c16 14 46 54 54 85 1 4 3 6 6 7 13 7 26 14 33 20l2 1c9 7 15 17 17 28 1 10-1 19-7 27l-38 46c-6 8-15 12-26 12z m56-35c-3 0-6 1-8 3-4 5-3 11 1 15l184 160c5 4 11 3 15-1 4-5 3-11-1-15l-184-160c-2-2-4-2-7-2z m205 135c-3 0-6 1-8 4l-42 48c-4 5-3 11 1 15 5 4 11 4 15-1l42-48c4-5 3-11-1-15-2-2-4-3-7-3z m-40-35c-3 0-6 1-8 4l-42 48c-4 5-4 11 1 15 4 4 11 4 15-1l42-48c4-5 3-11-1-15-2-2-5-3-7-3z m-302-259c-28 0-50 23-50 50 0 27 22 50 50 50 27 0 50-23 50-50 0-27-23-50-50-50z m0 78c-16 0-29-12-29-28 0-16 13-28 29-28 15 0 28 12 28 28 0 16-13 28-28 28z m100 24c-3 0-6 1-9 4l-20 26c-4 4-3 11 1 15 5 3 11 3 15-2l21-26c4-4 3-11-2-15-1-1-4-2-6-2z"/>
<glyph unicode="&#113;" d="M13 0c-1 0-3 0-4 1-4 2-7 6-7 10l2 114c0 3 1 6 4 8l426 376c4 4 11 4 15 0l58-62c2-2 3-5 3-8-1-3-2-5-4-7l-486-429c-2-2-4-3-7-3z m12 120l-1-85 460 406-44 46z m90 54c-3 0-6 1-8 3l-15 16c-4 4-4 11 1 15 4 4 11 4 15-1l15-15c4-5 4-12-1-16-2-1-4-2-7-2z m50 44c-2 0-5 1-7 3l-15 16c-5 5-4 11 0 15 4 4 11 4 15 0l15-16c4-4 4-11 0-15-2-2-5-3-8-3z m51 45c-3 0-6 1-8 3l-15 16c-4 4-4 11 0 15 5 4 11 4 15-1l16-16c4-4 3-11-1-15-2-2-5-2-7-2z m50 44c-3 0-6 1-8 3l-15 16c-4 5-4 11 1 15 4 4 11 4 15 0l15-16c4-4 4-11-1-15-2-2-4-3-7-3z m51 45c-3 0-6 1-8 3l-15 16c-4 4-4 11 0 15 4 4 11 4 15-1l15-15c4-5 4-12 0-16-2-2-5-2-7-2z m50 44c-3 0-6 1-8 3l-15 16c-4 5-4 11 0 15 5 4 12 4 16 0l15-16c4-4 4-11-1-15-2-2-4-3-7-3z m83 6c-14 0-28 6-38 16-9 9-14 22-13 36 0 15 7 30 20 41 0 0 1 1 1 1 4 4 11 4 15-1 4-4 3-11-2-15 0 0 0-1 0-1-8-7-13-17-13-26 0-8 2-15 8-20 12-13 34-12 49 1 0 0 1 1 1 1 4 4 11 4 15-1 4-4 4-11-1-15-12-11-28-17-42-17z"/>
<glyph unicode="&#114;" d="M252 83c-6 0-10 5-10 11l0 407c0 6 4 11 10 11 6 0 11-5 11-11l0-407c0-6-5-11-11-11z m-115-83c-33 0-57 13-65 34-6 17-1 37 14 55 13 16 34 30 58 39 17 7 35 10 51 10 33 0 57-13 65-34 6-17 2-37-13-55-14-16-35-30-59-39-17-7-35-10-51-10z m58 117c-14 0-29-3-43-9-21-7-39-19-50-33-6-7-15-20-10-33 5-13 22-21 45-21 14 0 29 3 44 9 20 7 38 19 49 33 6 7 15 20 10 33-5 13-22 21-45 21z m237 181c-6 0-10 4-11 10-4 45-23 92-51 124-24 29-80 60-115 59-6-1-11 4-11 10-1 6 4 11 10 11 43 2 104-33 132-66 31-36 52-87 56-136 1-6-3-11-9-12 0 0-1 0-1 0z m0-166c-6 0-10 4-11 9-4 46-23 92-51 125-24 28-80 60-115 58-6 0-11 4-11 10-1 6 4 11 10 11 43 3 104-33 132-66 31-35 52-86 56-136 1-5-3-11-9-11 0 0-1 0-1 0z"/>
<glyph unicode="&#115;" d="M501 47c-2 0-4 0-6 2l-297 199c-3 2-5 5-5 8 0 4 2 7 5 9l297 198c4 3 8 3 11 1 4-2 6-6 6-9l0-398c0-3-2-7-6-9-1-1-3-1-5-1z m-278 209l268-179 0 358z m85-209c-2 0-4 0-6 2l-297 199c-3 2-5 5-5 8 0 4 2 7 5 9l297 198c4 3 8 3 11 1 4-2 6-6 6-9l0-123c0-6-5-11-11-11-6 0-10 5-10 11l0 103-268-179 268-179 0 106c0 6 4 10 10 10 6 0 11-4 11-10l0-126c0-3-2-7-6-9-1-1-3-1-5-1z"/>
<glyph unicode="&#116;" d="M47 3c-6 0-11 5-11 11l0 484c0 6 5 10 11 10 5 0 10-4 10-10l0-484c0-6-5-11-10-11z m36 130l-72 0c-6 0-11 5-11 11 0 6 5 10 11 10l72 0c5 0 10-4 10-10 0-6-5-11-10-11z m103-130c-6 0-10 5-10 11l0 484c0 6 4 10 10 10 6 0 11-4 11-10l0-484c0-6-5-11-11-11z m36 297l-72 0c-6 0-10 4-10 10 0 6 4 11 10 11l72 0c6 0 11-5 11-11 0-6-5-10-11-10z m104-297c-6 0-11 5-11 11l0 484c0 6 5 10 11 10 6 0 10-4 10-10l0-484c0-6-4-11-10-11z m36 207l-72 0c-6 0-11 5-11 11 0 6 5 11 11 11l72 0c6 0 10-5 10-11 0-6-4-11-10-11z m103-207c-5 0-10 5-10 11l0 484c0 6 5 10 10 10 6 0 11-4 11-10l0-484c0-6-5-11-11-11z m36 437l-71 0c-6 0-11 5-11 10 0 6 5 11 11 11l71 0c6 0 11-5 11-11 0-5-5-10-11-10z"/>
<glyph unicode="&#117;" d="M226 0c-5 0-11 0-17 1-29 5-55 20-72 44l-49 66c-17 24-24 53-20 82 5 29 20 55 44 73l161 118c4 3 11 2 14-2 4-5 3-12-2-15l-161-119c-19-14-31-34-35-58-3-24 2-47 16-66l49-66c14-20 35-32 58-36 24-3 48 2 67 17l160 118c20 14 32 35 36 58 3 24-2 47-17 67-3 4-2 11 3 14 5 4 11 3 15-2 17-24 24-53 20-82-5-29-20-55-44-72l-161-119c-19-14-41-21-65-21z m9 67c-2 0-3 0-5 0-19 1-36 10-47 24l-27 37c-11 15-14 33-9 52 5 19 16 36 33 48l108 80c5 3 12 2 15-3 4-4 3-11-2-15l-109-79c-12-10-21-22-24-36-4-13-2-25 5-34l27-37c7-9 18-15 32-16 14-1 28 4 41 13l108 80c13 9 22 22 25 36 3 12 1 25-6 34-3 5-2 11 3 15 4 3 11 2 15-2 10-15 13-33 9-53-5-18-17-35-33-47l-109-80c-15-11-33-17-50-17z m-164-47c-1 0-1 0-2 0-3 0-5 2-7 4l-45 62c-2 2-2 5-2 8 0 2 2 5 4 6l53 39c4 3 11 2 14-2 4-5 3-12-2-15l-43-32 32-45 44 33c4 3 11 2 15-3 3-4 2-11-3-15l-52-38c-2-1-4-2-6-2z m336 332c-5 0-9 3-10 8-2 6 2 12 7 13l64 17-68 92-35-56c-1-1-1-2-3-3l-78-57c-5-4-11-3-15 2-3 5-2 12 2 15l77 56 43 68c2 3 5 5 8 5 4 0 7-2 9-4l87-118c2-3 2-7 1-10-1-3-4-6-7-7l-79-21c-1 0-2 0-3 0z m-109-61c-4 0-7 2-9 5-3 5-1 12 4 15l107 60c5 3 12 1 14-4 3-5 1-12-4-15l-107-60c-1-1-3-1-5-1z m113-47c-3 0-6 1-9 4l-141 193c-4 5-3 11 2 15 5 3 11 2 15-2l142-193c3-5 2-12-3-15-1-2-4-2-6-2z m-37-86c-4 0-7 1-9 4l-170 231c-3 5-2 11 3 15 4 3 11 2 15-3l169-230c4-5 3-12-2-15-2-1-4-2-6-2z m-74-54c-3 0-7 1-9 4l-169 231c-4 4-3 11 2 15 5 3 11 2 15-3l170-230c3-5 2-12-3-15-2-2-4-2-6-2z m95 171c-3 0-7 1-9 4-3 5-2 12 3 15 8 6 19 14 31 17 23 7 41 2 54-15 3-5 2-12-3-15-5-4-11-3-15 2-7 10-15 12-29 8-9-3-16-7-26-14-2-2-4-2-6-2z"/>
<glyph unicode="&#118;" d="M11 47c-2 0-4 0-5 1-4 2-6 6-6 9l0 398c0 3 2 7 6 9 3 2 7 2 11-1l297-198c3-2 5-5 5-9 0-3-2-6-5-8l-297-199c-2-2-4-2-6-2z m10 388l0-358 268 179z m183-388c-2 0-4 0-5 1-4 2-6 6-6 9l0 126c0 6 5 10 11 10 6 0 10-4 10-10l0-106 268 179-268 179 0-103c0-6-4-11-10-11-6 0-11 5-11 11l0 123c0 3 2 7 6 9 3 2 7 2 11-1l297-198c3-2 5-5 5-9 0-3-2-6-5-8l-297-199c-2-2-4-2-6-2z"/>
<glyph unicode="&#119;" d="M256 0c-141 0-256 115-256 256 0 141 115 256 256 256 141 0 256-115 256-256 0-141-115-256-256-256z m0 491c-129 0-235-106-235-235 0-129 106-235 235-235 129 0 235 106 235 235 0 129-106 235-235 235z m-173-302c-5 0-9 3-11 8-15 49-11 101 12 147 24 46 64 80 113 96 6 1 12-2 13-7 2-6-1-12-7-14-43-14-79-44-100-85-21-40-24-87-10-131 2-5-2-11-7-13-1 0-2-1-3-1z m173-2c-38 0-69 31-69 69 0 38 31 69 69 69 38 0 69-31 69-69 0-38-31-69-69-69z m0 117c-26 0-48-22-48-48 0-26 22-48 48-48 26 0 48 22 48 48 0 26-22 48-48 48z m140-36c-6 0-10 4-11 9-1 6 3 11 9 12l41 6 0 190c0 6 4 10 10 10 6 0 11-4 11-10l0-199c0-6-4-10-9-11l-50-7c0 0-1 0-1 0z"/>
<glyph unicode="&#120;" d="M10 0c-2 0-3 0-5 1-4 2-6 6-6 10l4 97c0 3 1 5 3 7l358 311c4 4 11 3 15-1 4-5 3-11-1-15l-354-308-3-67 389 338c4 4 11 3 15-1 4-5 3-12-1-15l-407-354c-2-2-5-3-7-3z m87 145c-3 0-6 1-8 4l-12 13c-4 5-4 12 1 15 4 4 11 4 15-1l12-13c4-5 3-12-1-15-2-2-5-3-7-3z m42 37c-3 0-6 1-8 3l-12 14c-4 5-3 11 1 15 5 4 11 4 15-1l12-14c4-4 4-11-1-15-2-1-4-2-7-2z m42 36c-3 0-6 2-8 4l-12 14c-4 4-3 11 1 15 5 4 11 3 15-1l12-14c4-4 4-11-1-15-2-2-4-3-7-3z m43 37c-3 0-6 1-9 4l-12 14c-3 4-3 11 2 15 4 3 11 3 15-1l12-14c3-5 3-11-1-15-2-2-5-3-7-3z m42 37c-3 0-6 1-8 3l-12 14c-4 5-4 11 1 15 4 4 11 4 15-1l12-14c4-4 3-11-1-15-2-1-5-2-7-2z m42 36c-3 0-6 2-8 4l-12 14c-4 4-3 11 1 15 4 4 11 3 15-1l12-14c4-4 3-11-1-15-2-2-5-3-7-3z m63 80c-4 0-7 2-9 5-3 5-2 11 3 14 0 1 0 2 1 3 0 2 1 4 1 5 0 1 1 2 1 3 0 4-1 10-2 16-2 6-3 12-3 18 0 14 4 26 13 34 0 0 1 1 2 1 4 4 11 2 15-2 3-5 2-11-3-15 0 0 0 0 0 0-4-3-6-9-6-17 0-4 2-9 3-14 1-8 3-16 2-23 0-3-1-6-2-9 0-1-1-2-1-3-1-4-3-11-10-15-2-1-3-1-5-1z m108-59c-3 0-6 0-9 1-6 1-12 3-18 5-5 2-11 4-15 4-2 0-3 0-4 0l-3-1c-2 0-6-1-7-2-4-3-11-2-14 3-4 5-3 11 2 15 5 3 10 4 15 5l2 1c3 0 6 1 9 1 8-1 15-3 23-6 4-2 9-4 13-4 8-1 14 0 18 3 0 0 0 0 0 1 5 4 11 4 15-1 4-4 4-11 0-15 0 0-1-1-1-1-7-6-16-9-26-9z m16 8c-21 0-54 30-77 56-11 12-63 74-39 95 2 2 6 4 12 4 21 0 54-30 77-56 16-18 29-37 37-53 3-7 15-31 2-42-2-2-6-4-12-4z m0 21l0-11 0 11c0 0 0 0 0 0z m-100 112c2-10 13-33 39-63 26-30 48-45 57-48-2 9-13 33-39 63-26 30-48 45-57 48z"/>
<glyph unicode="&#121;" d="M372 0c-11 0-23 2-34 7-25 11-45 34-54 63l-103 323c-7 24-15 49-16 97 0 11 8 15 11 16 21 6 66-57 85-85l39-58c7-10 23-39 40-68 20-34 41-71 52-87 3-5 2-11-3-15-5-3-12-2-15 3-11 16-32 53-52 88-17 29-33 57-40 67l-39 58c-22 33-44 58-56 70 1-38 8-59 15-79l102-323c7-24 23-42 43-50 17-8 37-7 55 2 40 19 39 65 34 91-1 6 3 11 9 12 6 1 11-3 12-8 10-54-7-96-45-115-13-6-27-9-40-9z m127 259c-2 0-5 1-7 3-4 3-5 10-1 14 0 5-9 24-35 48-26 23-47 29-52 28-3-4-10-4-14-1-4 4-5 11-1 15 2 3 7 7 15 7 19 1 47-16 66-33 29-26 52-60 37-77-2-3-5-4-8-4z m-52-147c-5 0-10 4-10 10-8 83 52 150 55 153 4 4 10 5 15 1 4-4 4-11 1-15-1-1-57-63-50-138 0-5-4-11-10-11 0 0 0 0-1 0z m-64 80c-5 0-9 2-10 7-28 81 11 161 13 164 3 6 9 8 14 5 6-3 8-9 5-14 0-1-37-76-12-148 2-6-1-12-7-14-1 0-2 0-3 0z m-291 263c-3 0-6 1-8 4-4 5-3 11 2 15l3 3c26 20 53 38 75 34 9-1 16-6 20-13 4-5 2-12-3-15-5-3-11-1-15 3-1 3-3 4-5 4-16 3-47-21-59-30l-3-3c-2-1-4-2-7-2z m-51-33c0 0 0 0 0 0-23 0-37 7-40 19-5 17 18 29 25 33 19 11 34 16 46 16 12 0 18-5 22-10 9-11 6-26 6-28-4-21-33-30-59-30z m-18 24c3-1 9-3 18-3 21 0 37 7 38 14 1 2 0 8-2 10 0 1-2 1-5 1-6 0-16-2-36-12-8-5-11-8-13-10z m219-354c-4 0-8 2-10 6-2 5 0 11 5 14l30 15c5 2 12 0 14-5 3-6 1-12-5-15l-29-14c-2-1-4-1-5-1z m-10 42c-4 0-8 2-10 6-3 6 0 12 5 15l30 14c5 3 11 1 14-5 3-5 0-11-5-14l-30-15c-1 0-3-1-4-1z m-12 43c-4 0-8 2-10 6-2 5 0 12 5 14l30 15c5 2 12 0 14-5 3-5 1-12-4-14l-30-15c-2-1-3-1-5-1z"/>
<glyph unicode="&#122;" d="M342 93c-2 0-4 1-6 1-5 0-10 4-10 10l0 319c0 6 5 11 10 11 77 3 144-46 168-118 14-43 10-89-11-130-21-40-56-70-99-84-17-6-34-9-52-9z m5 320l0-298c14 0 27 3 40 7 38 12 69 38 87 74 18 35 22 76 9 114-19 60-73 100-136 103z m-5-198c-2 0-5 0-7 0-5 1-9 6-9 11l0 76c0 5 4 9 9 10 24 3 46-11 53-33 8-26-6-53-31-62-5-1-10-2-15-2z m5 76l0-54c1 0 2 0 3 1 14 4 22 20 18 34-3 10-11 17-21 19z m-298-213c-6 0-11 5-11 10l0 36c0 6 5 11 11 11 6 0 10-5 10-11l0-36c0-5-4-10-10-10z m0 99c-6 0-11 4-11 10l0 36c0 6 5 11 11 11 6 0 10-5 10-11l0-36c0-6-4-10-10-10z m0 98c-6 0-11 5-11 11l0 36c0 6 5 10 11 10 6 0 10-4 10-10l0-36c0-6-4-11-10-11z m0 99c-6 0-11 5-11 11l0 35c0 6 5 11 11 11 6 0 10-5 10-11l0-35c0-6-4-11-10-11z m250-296c-6 0-11 5-11 10l0 36c0 6 5 11 11 11 5 0 10-5 10-11l0-36c0-5-5-10-10-10z m0 99c-6 0-11 4-11 10l0 36c0 6 5 11 11 11 5 0 10-5 10-11l0-36c0-6-5-10-10-10z m0 98c-6 0-11 5-11 11l0 36c0 6 5 10 11 10 5 0 10-4 10-10l0-36c0-6-5-11-10-11z m0 99c-6 0-11 5-11 11l0 35c0 6 5 11 11 11 5 0 10-5 10-11l0-35c0-6-5-11-10-11z m-60-295c-5 0-10 5-10 11l0 51c0 8-9 15-18 15l-74 0c-10 0-18-7-18-15l0-51c0-6-5-11-11-11-6 0-11 5-11 11l0 51c0 20 18 37 40 37l74 0c21 0 39-17 39-37l0-51c0-6-5-11-11-11z m-28 142l-74 0c-22 0-40 17-40 39l0 132c0 21 18 39 40 39l74 0c21 0 39-18 39-39l0-132c0-22-18-39-39-39z m-74 189c-10 0-18-8-18-18l0-132c0-10 8-18 18-18l74 0c10 0 18 8 18 18l0 132c0 10-8 18-18 18z m-126-332c-6 0-11 5-11 10l0 332c0 6 5 11 11 11 6 0 10-5 10-11l0-332c0-5-4-10-10-10z m326 0c-6 0-11 5-11 10l0 332c0 6 5 11 11 11 6 0 10-5 10-11l0-332c0-5-5-10-10-10z"/>
<glyph unicode="&#65;" d="M187 0c-23 0-42 7-55 21-37 37-24 111 30 164l92 92c32 32 73 52 110 52 22 0 41-8 55-21 18-19 25-46 18-78-6-31-24-61-49-87l-92-92c-32-32-73-51-109-51z m177 307c-31 0-67-17-95-45l-92-92c-44-44-58-106-30-134 9-10 23-15 40-15 31 0 66 17 94 46l92 91c22 23 38 50 43 76 5 25 1 45-13 59-9 9-23 14-39 14z m-330-275c-2 0-5 1-7 3-4 4-4 11 0 15l370 370c4 5 11 5 15 0 4-4 4-11 0-15l-370-370c-2-2-5-3-8-3z m124 132c-3 0-6 1-8 4l-22 21c-4 4-4 11 0 15 5 4 11 4 16 0l21-21c4-5 4-11 0-15-2-3-5-4-7-4z m34 35c-3 0-5 1-7 3l-22 22c-4 4-4 11 0 15 4 4 11 4 15 0l22-22c4-4 4-11 0-15-2-2-5-3-8-3z m35 34c-3 0-6 1-8 3l-22 22c-4 4-4 11 0 15 5 4 11 4 15 0l22-21c4-5 4-11 0-16-2-2-5-3-7-3z m34 35c-3 0-5 1-8 3l-21 22c-4 4-4 11 0 15 4 4 11 4 15 0l22-22c4-4 4-11 0-15-3-2-5-3-8-3z m210 107c-6 0-12 1-18 3-18 4-36 16-52 31-15 16-27 34-31 52-6 20-3 36 8 47 1 1 2 2 2 2 5 3 11 3 14-1 4-5 4-12 0-16 0 0-1 0-1 0-5-6-6-15-3-27 4-14 13-29 26-42 13-12 28-22 42-26 12-3 21-2 27 3 0 0 0 0 0 1 4 4 11 5 15 1 4-4 5-10 2-14-1-1-2-2-2-3-7-7-17-11-29-11z m-425-356c-3 0-5 1-7 3l-28 28c-4 4-4 11 0 15 4 4 11 4 15 0l28-28c4-4 4-10 0-15-2-2-5-3-8-3z"/>
<glyph unicode="&#66;" d="M256 0c-141 0-256 115-256 256 0 141 115 256 256 256 141 0 256-115 256-256 0-141-115-256-256-256z m0 491c-129 0-235-106-235-235 0-129 106-235 235-235 129 0 235 106 235 235 0 129-106 235-235 235z m0-285c-28 0-50 22-50 50 0 28 22 50 50 50 28 0 50-22 50-50 0-28-22-50-50-50z m0 79c-16 0-29-13-29-29 0-16 13-29 29-29 16 0 29 13 29 29 0 16-13 29-29 29z m138-31c-26 0-47 21-47 48 0 26 21 47 47 47 26 0 48-21 48-47 0-27-22-48-48-48z m0 74c-14 0-26-12-26-26 0-15 12-27 26-27 15 0 26 12 26 27 0 14-11 26-26 26z m-137 25c-26 0-47 21-47 48 0 26 21 47 47 47 26 0 48-21 48-47 0-27-22-48-48-48z m0 74c-14 0-26-12-26-26 0-15 12-27 26-27 15 0 26 12 26 27 0 14-11 26-26 26z m-139-177c-26 0-48 22-48 48 0 26 22 47 48 47 26 0 47-21 47-47 0-26-21-48-47-48z m0 74c-15 0-26-12-26-26 0-15 11-26 26-26 14 0 26 11 26 26 0 14-12 26-26 26z m56-239c-26 0-48 22-48 48 0 26 22 47 48 47 26 0 47-21 47-47 0-26-21-48-47-48z m0 74c-15 0-26-12-26-26 0-15 11-26 26-26 14 0 26 11 26 26 0 14-12 26-26 26z m195-55c-26 0-48 21-48 47 0 26 22 47 48 47 26 0 47-21 47-47 0-26-21-47-47-47z m0 73c-15 0-26-12-26-26 0-14 11-26 26-26 14 0 26 12 26 26 0 14-12 26-26 26z"/>
<glyph unicode="&#67;" d="M185 5c-2 0-3 0-5 1-3 2-6 5-6 9l0 482c0 4 3 7 6 9 4 2 8 2 11-1l317-240c2-2 4-5 4-8 0-4-2-7-4-9l-316-241c-2-2-5-2-7-2z m11 470l0-438 288 219z m-91-475l-94 0c-6 0-11 5-11 11l0 490c0 6 5 11 11 11l94 0c6 0 10-5 10-11l0-490c0-6-4-11-10-11z m-84 21l73 0 0 470-73 0z"/>
<glyph unicode="&#68;" d="M444 0l-376 0c-6 0-11 5-11 11l0 490c0 6 5 11 11 11l376 0c6 0 11-5 11-11l0-490c0-6-5-11-11-11z m-366 21l356 0 0 470-356 0z m178 314c-31 0-56 25-56 56 0 31 25 56 56 56 31 0 56-25 56-56 0-31-25-56-56-56z m0 91c-19 0-35-16-35-35 0-19 16-35 35-35 19 0 35 16 35 35 0 19-16 35-35 35z m0-361c-63 0-115 51-115 115 0 63 52 114 115 114 63 0 115-51 115-114 0-64-52-115-115-115z m0 208c-51 0-93-42-93-93 0-52 42-94 93-94 51 0 93 42 93 94 0 51-42 93-93 93z"/>
<glyph unicode="&#69;" d="M131 270c-67 0-121 54-121 121 0 67 54 121 121 121 67 0 121-54 121-121 0-67-54-121-121-121z m0 221c-55 0-99-45-99-100 0-55 44-100 99-100 55 0 100 45 100 100 0 55-45 100-100 100z m233-474c-3 0-6 1-8 3l-223 252c-4 4-4 11 0 15 5 4 12 4 16-1l216-244 45 34-182 272c-3 5-2 11 3 15 5 3 12 2 15-3l187-280c3-5 2-11-2-14l-61-47c-2-2-4-2-6-2z m80-17c-1 0-2 0-3 0-22 1-39 21-51 35-3 5-2 12 2 15 5 4 12 3 15-2 14-17 25-26 36-27 8 0 17 5 27 15 18 19 11 36-3 64-1 3-3 7-5 10-2 6 0 12 6 14 5 3 11 0 14-5 1-3 3-7 5-10 12-26 27-58-2-88-13-14-27-21-41-21z m-189 217c-3 0-6 1-8 4l-23 27c-4 5-3 11 1 15 5 4 12 3 15-1l23-27c4-5 3-12-1-15-2-2-5-3-7-3z"/>
<glyph unicode="&#70;" d="M501 0l-490 0c-6 0-11 5-11 11l0 490c0 6 5 11 11 11l490 0c6 0 11-5 11-11l0-490c0-6-5-11-11-11z m-480 21l470 0 0 470-470 0z"/>
<glyph unicode="&#71;" d="M206 263c-72 0-206 12-206 58 0 47 134 59 206 59 71 0 205-12 205-59 0-46-134-58-205-58z m0 96c-122 0-185-26-185-38 0-11 63-37 185-37 121 0 184 26 184 37 0 12-63 38-184 38z m0-332c-72 0-206 12-206 59 0 10 6 19 19 26 5 4 11 2 15-3 3-5 1-12-4-15-7-4-9-7-9-8 0-12 63-38 185-38 121 0 184 26 184 38 0 1-2 4-8 8-5 3-7 10-4 15 4 5 10 6 15 3 12-8 18-17 18-26 0-47-134-59-205-59z m181 33c-6 0-11 5-11 10l0 232c0 6 5 11 11 11 6 0 10-5 10-11l0-232c0-5-4-10-10-10z m-363 0c-5 0-10 5-10 10l0 232c0 6 5 11 10 11 6 0 11-5 11-11l0-232c0-5-5-10-11-10z m268 265c-3 0-7 2-9 5-3 5-2 12 3 15l209 138c5 4 12 2 15-3 3-5 2-11-3-15l-209-138c-2-1-4-2-6-2z m-116-18c-2 0-5 1-7 3l-155 153c-5 4-5 10-1 15 5 4 11 4 16 0l155-153c4-4 4-11 0-15-2-2-5-3-8-3z"/>
<glyph unicode="&#72;" d="M56 129c-25 0-42 7-50 21-14 22-2 57 35 100 34 39 85 81 145 118 85 54 172 87 225 87 25 0 42-7 50-21 31-49-69-149-180-218-85-54-172-87-225-87z m355 305c-49 0-133-33-214-84-57-36-107-76-140-114-29-33-41-62-33-75 5-9 20-11 32-11 49 0 133 33 214 84 120 75 190 162 173 189-5 9-20 11-32 11z m-310-377c-24 0-41 6-50 21-3 5-2 11 3 14 5 3 12 2 15-3 17-28 126-2 246 73 120 75 190 162 173 189-3 5-1 12 4 15 5 3 11 1 14-4 31-49-69-149-180-218-78-49-169-87-225-87z m82 181c-13 0-18 5-21 9-4 7-6 19 11 38 10 12 25 24 43 35 26 17 51 26 68 26 13 0 18-5 21-9 4-7 6-19-11-38-10-12-25-24-43-35-26-17-51-26-68-26z m-2 21c0 0 1 0 2 0 10 0 32 7 57 23 30 18 43 36 46 43 0 0-1 0-2 0-10 0-32-7-57-23-30-18-44-36-46-43z m319 81c-4 0-7 2-9 5l-46 74c-3 5-2 11 3 15 5 3 12 1 15-4l46-73c3-5 2-12-3-15-2-1-4-2-6-2z m-436-272c-4 0-7 1-9 5l-46 73c-3 5-2 12 3 15 5 3 12 1 15-3l46-74c3-5 1-12-4-15-1-1-3-1-5-1z"/>
<glyph unicode="&#73;" d="M290 99c-87 0-158 70-158 157 0 87 71 157 158 157 86 0 157-70 157-157 0-87-71-157-157-157z m0 293c-75 0-136-61-136-136 0-75 61-136 136-136 75 0 136 61 136 136 0 75-61 136-136 136z m-104-180c-4 0-9 3-10 7-20 63 14 131 77 151 6 2 12-1 13-7 2-6-1-12-6-14-52-16-80-72-64-123 2-6-1-12-7-14-1 0-2 0-3 0z m104-2c-26 0-46 21-46 46 0 25 20 46 46 46 25 0 45-21 45-46 0-25-20-46-45-46z m0 70c-14 0-25-11-25-24 0-13 11-24 25-24 13 0 24 11 24 24 0 13-11 24-24 24z m211-252l-490 0c-6 0-11 5-11 11l0 434c0 6 5 11 11 11l490 0c6 0 11-5 11-11l0-434c0-6-5-11-11-11z m-480 22l470 0 0 412-470 0z m64-13c-6 0-10 5-10 11l0 416c0 6 4 11 10 11 6 0 11-5 11-11l0-416c0-6-5-11-11-11z"/>
<glyph unicode="&#74;" d="M208 124c-6 0-11 5-11 11l0 154c0 6 5 11 11 11 6 0 11-5 11-11l0-154c0-6-5-11-11-11z m-48-31c-16 0-28 6-33 17-2 6-2 12 1 19 5 10 17 20 33 25 8 3 16 4 23 4 17 0 29-6 33-17 3-6 2-12-1-19-5-10-17-20-33-25-7-3-15-4-23-4z m24 44c-5 0-10-1-16-3-11-4-18-10-20-14-1-1-1-2-1-2 0-1 4-4 13-4 5 0 11 1 16 3 12 4 19 10 21 14 0 1 0 2 0 2 0 1-4 4-13 4z m99 69c-5 0-10 4-11 9-1 16-9 32-19 44-9 9-31 20-43 20-6 0-11 4-12 10 0 6 5 11 11 11 20 1 46-13 59-27 14-14 23-35 26-55 0-6-4-11-10-12 0 0-1 0-1 0z m96-159l-270 0c-26 0-52 21-59 47l-48 196c-4 14-1 28 6 38 8 9 19 15 32 15l270 0c26 0 52-21 59-48l48-195c4-15 1-28-6-39-8-9-19-14-32-14z m-339 274c-6 0-11-2-15-6-4-5-5-13-3-20l49-195c4-18 22-32 38-32l270 0c6 0 11 2 15 7 4 5 5 12 3 19l-49 195c-4 18-22 32-38 32l-270 0z m38 3c-5 0-9 4-10 9l-4 18c-4 13-2 26 6 35 7 10 19 15 32 15l206 0c6 0 10-4 10-10 0-6-4-11-10-11l-206 0c-6 0-12-2-15-7-4-4-5-10-3-17l4-19c2-5-2-11-8-12 0 0-1-1-2-1z m332-251c-1 0-2 0-3 1-6 1-9 7-7 13l83 305c1 5 7 9 13 7 6-2 9-7 7-13l-83-305c-1-5-5-8-10-8z m83 306c-1 0-2 1-3 1-5 1-9 7-7 13l7 26c2 7 1 14-3 18-3 5-9 7-15 7l-102 0c-17 0-34-14-39-30l-7-27c-1-5-7-9-13-7-5 1-9 7-7 13l7 26c7 26 32 46 59 46l102 0c13 0 25-5 32-15 8-9 10-23 6-36l-7-27c-1-4-5-8-10-8z"/>
<glyph unicode="&#75;" d="M119 330c-43 0-77 34-77 77 0 42 34 77 77 77 42 0 77-35 77-77 0-43-35-77-77-77z m0 132c-31 0-56-25-56-55 0-31 25-56 56-56 30 0 55 25 55 56 0 30-25 55-55 55z m188-132c-42 0-77 34-77 77 0 42 35 77 77 77 43 0 77-35 77-77 0-43-34-77-77-77z m0 132c-31 0-55-25-55-55 0-31 24-56 55-56 31 0 56 25 56 56 0 30-25 55-56 55z m33-434l-254 0 0 11 0 11 254 0c35 0 64 29 64 64l0 107c0 35-29 64-64 64l-254 0c-36 0-65-29-65-64l0-107c0-17 7-33 19-45 13-13 29-19 46-19l0-22c-23 0-44 9-61 26-16 16-25 37-25 60l0 107c0 47 39 86 86 86l254 0c47 0 86-39 86-86l0-107c0-23-9-44-26-60-16-17-37-26-60-26z m161 31c-1 0-2 0-4 1l-84 34c-6 2-8 9-6 14 2 6 8 8 14 6l70-28 0 163-70-28c-6-2-12 0-14 6-2 5 0 12 6 14l84 34c4 1 7 1 10-1 3-2 5-5 5-9l0-195c0-4-2-7-5-9-1-1-4-2-6-2z"/>
<glyph unicode="&#76;" d="M211 1c-3 0-6 2-8 4l-144 144c-3 3-4 8-2 12 2 4 6 6 10 6l94-2c35-1 63-30 63-65l-2-88c-1-4-3-8-7-10-1 0-3-1-4-1z m-118 144l108-108 1 63c1 24-18 43-42 44z m299-145l-183 0c-2 0-5 1-7 3l-141 147c-2 2-3 5-3 8l0 290c0 35 28 64 64 64l270 0c35 0 64-29 64-64l0-384c0-35-29-64-64-64z m-178 21l178 0c23 0 42 19 42 43l0 384c0 24-19 43-42 43l-270 0c-24 0-43-19-43-43l0-286z m7 336c-1 12-2 27-2 37l0 0c-3-10-7-20-11-32l-15-42-9 0-14 41c-4 12-7 23-10 33l0 0c0-10-1-25-2-38l-2-37-10 0 6 87 14 0 14-42c4-11 7-20 9-29l1 0c2 9 5 18 9 29l15 42 14 0 6-87-11 0z m30 48c5 0 12 1 21 1 11 0 19-2 24-7 5-4 8-10 8-18 0-8-2-14-7-18-6-7-15-10-26-10-3 0-7 0-9 1l0-35-11 0z m11-42c2-1 5-1 9-1 14 0 22 7 22 19 0 11-8 16-21 16-4 0-8 0-10 0z m56-31c3-2 10-5 18-5 14 0 19 9 19 16 0 12-11 17-22 17l-6 0 0 8 6 0c9 0 19 4 19 14 0 7-4 13-15 13-6 0-13-3-16-6l-3 9c4 3 12 6 21 6 17 0 24-10 24-20 0-8-5-16-15-19l0-1c10-2 18-9 18-21 0-13-10-25-30-25-9 0-17 3-21 6z"/>
<glyph unicode="&#77;" d="M251 0c-6 0-11 5-11 10 0 6 4 11 10 11 19 1 37 10 48 23 5 6 8 14 9 23-4 0-9 0-15 0l-10 1c-31 2-52 3-84 27-26 21-41 46-45 75-3 30 7 61 29 89 6 8 13 15 19 22 13 15 25 28 34 44l5 8c2 5 5 9 7 14-12 41-20 83-13 125 2 17 17 35 34 39 13 3 27-2 36-14 21-27 1-81-1-87-9-22-20-44-32-66 5-18 12-36 18-54 3-7 5-13 8-20 23 7 50 7 66 1 28-11 61-46 68-87 4-21 1-54-32-83-24-21-46-30-70-33-2-14-6-27-15-38-14-18-38-29-63-30 0 0 0 0 0 0z m5 320l-3-6c-10-17-23-32-36-47-6-7-12-14-18-21-19-24-28-50-25-74 3-22 16-43 38-60 25-20 41-21 72-23l10 0c5-1 10-1 15-1 0 10-1 21-3 31 0 4 0 7-1 11-4 45-10 78-20 110-1 0-1 1-1 1-3-2-6-4-7-6-2-3-7-9 2-20 3-5 2-12-3-15-4-4-11-2-14 2-16 22-8 38-2 46 4 5 10 10 17 14-2 7-5 14-8 21-4 12-8 24-13 37z m48-71c0 0 0-1 1-2 11-34 17-68 21-115 1-3 1-7 2-11 1-10 2-20 2-31 19 3 36 11 55 27 20 18 29 40 25 64-6 34-36 63-55 70-12 4-33 3-51-2z m-28 242c-1 0-2-1-3-1-8-2-17-12-18-22-5-31-1-63 7-95 8 15 15 30 21 45 9 23 13 54 4 66-4 5-8 7-11 7z m-105-10l-80 0c-6 0-11 4-11 10 0 6 5 11 11 11l80 0c6 0 10-5 10-11 0-6-4-10-10-10z m0-80l-80 0c-6 0-11 4-11 10 0 6 5 11 11 11l80 0c6 0 10-5 10-11 0-6-4-10-10-10z m0-80l-80 0c-6 0-11 4-11 10 0 6 5 11 11 11l80 0c6 0 10-5 10-11 0-6-4-10-10-10z"/>
<glyph unicode="&#78;" d="M378 0c-3 0-5 1-7 2l-167 131c-3 2-4 5-4 8l0 230c0 3 1 6 4 8l167 131c3 2 8 3 11 1 4-2 6-6 6-10l0-490c0-4-2-8-6-10-1-1-3-1-4-1z m-157 146l146-114 0 447-146-113z m161 17c-4 0-8 3-10 7-2 5 0 12 6 14 28 11 46 40 46 72 0 32-18 61-46 72-6 2-8 9-6 14 2 6 9 8 14 6 36-15 60-52 60-92 0-41-24-77-60-92-1 0-3-1-4-1z m-172-33l-133 0c-6 0-10 5-10 11l0 230c0 6 4 11 10 11l133 0c6 0 11-5 11-11 0-6-5-11-11-11l-122 0 0-208 122 0c6 0 11-5 11-11 0-6-5-11-11-11z"/>
<glyph unicode="&#79;" d="M311 0c-2 0-5 1-6 2l-168 131c-2 2-4 5-4 8l0 230c0 3 2 6 4 8l168 131c3 2 7 3 11 1 3-2 6-6 6-10l0-490c0-4-3-8-6-10-2-1-3-1-5-1z m-156 146l145-114 0 447-145-113z m160 17c-4 0-8 3-9 7-3 5 0 12 5 14 28 11 47 40 47 72 0 32-19 61-47 72-5 2-8 9-5 14 2 6 8 8 13 6 37-15 60-51 60-92 0-41-23-77-59-92-2 0-3-1-5-1z m43-42c-5 0-9 2-10 6-3 6 0 12 6 14 44 18 73 64 73 115 0 51-29 97-73 115-6 2-9 8-6 14 2 5 8 8 14 5 52-21 86-74 86-134 0-59-34-113-86-134-2-1-3-1-4-1z m39-38c-4 0-8 3-10 7-2 5 0 11 6 14 58 24 98 85 98 152 0 67-40 128-98 152-6 3-8 9-6 14 2 6 8 8 14 6 66-27 111-96 111-172 0-77-44-144-111-172-1-1-3-1-4-1z m-253 47l-133 0c-6 0-11 5-11 11l0 230c0 6 5 11 11 11l133 0c6 0 11-5 11-11 0-6-5-11-11-11l-123 0 0-208 123 0c6 0 11-5 11-11 0-6-5-11-11-11z"/>
<glyph unicode="&#80;" d="M252 83c-6 0-10 5-10 11l0 407c0 6 4 11 10 11 6 0 11-5 11-11l0-407c0-6-5-11-11-11z m-115-83c-33 0-57 13-65 34-6 17-1 37 14 55 13 16 34 30 58 39 17 7 35 10 51 10 33 0 57-13 65-34 12-34-19-75-72-94-17-7-35-10-51-10z m58 117c-14 0-29-3-43-9-21-7-39-19-50-33-6-7-15-20-10-33 5-13 22-21 45-21 14 0 29 3 44 9 40 14 67 45 59 66-5 13-22 21-45 21z m237 181c-6 0-10 4-11 10-4 45-23 92-51 124-24 29-80 60-115 59-6-1-11 4-11 10-1 6 4 11 10 11 43 2 104-33 132-66 30-36 52-87 56-136 1-6-3-11-9-12 0 0-1 0-1 0z m-246 147l-89 0c-6 0-10 5-10 11 0 5 4 10 10 10l89 0c6 0 11-5 11-10 0-6-5-11-11-11z m0-93l-89 0c-6 0-10 5-10 11 0 6 4 11 10 11l89 0c6 0 11-5 11-11 0-6-5-11-11-11z m0-92l-89 0c-6 0-10 5-10 11 0 6 4 10 10 10l89 0c6 0 11-4 11-10 0-6-5-11-11-11z"/>
<glyph unicode="&#81;" d="M274 237c-6 0-11 5-11 11l0 177c0 6 5 10 11 10 6 0 11-4 11-10l0-177c0-6-5-11-11-11z m-50-36c-17 0-29 7-34 19-3 9-1 20 7 30 7 8 17 14 28 19 8 3 16 4 24 4 17 0 30-7 34-19 6-17-9-39-35-48-8-3-16-5-24-5z m25 51c-5 0-11-1-17-3-7-3-14-8-19-13-2-3-4-7-3-9 1-2 6-5 14-5 5 0 11 2 17 4 16 6 23 17 22 21-1 2-6 5-14 5z m103 79c-6 0-10 4-11 9-2 19-9 38-21 51-9 11-32 23-45 23-5 0-10 4-11 10 0 6 4 11 10 11 23 1 51-17 63-30 14-17 23-40 25-63 1-6-3-11-9-11 0 0-1 0-1 0z m0-83c-6 0-10 4-11 9-2 19-9 38-21 51-9 11-32 24-45 23-5 0-10 4-11 10 0 6 4 11 10 11 23 2 51-17 63-30 14-17 23-40 25-63 1-6-3-11-9-11 0 0-1 0-1 0z m-141-247c-3 0-6 2-8 4l-144 144c-3 3-4 8-2 12 2 4 6 6 10 6l94-2c35-1 63-30 63-65l-2-88c0-4-3-8-7-10-1 0-3-1-4-1z m-118 144l108-108 1 63c1 24-18 43-42 44z m299-145l-183 0c-2 0-5 1-7 3l-141 147c-2 2-3 5-3 8l0 290c0 35 28 64 64 64l270 0c35 0 64-29 64-64l0-384c0-35-29-64-64-64z m-178 21l178 0c23 0 42 19 42 43l0 384c0 24-19 43-42 43l-270 0c-24 0-43-19-43-43l0-286z"/>
<glyph unicode="&#82;" d="M256 55c-83 0-151 68-151 151 0 84 68 152 151 152 83 0 151-68 151-152 0-83-68-151-151-151z m0 281c-72 0-130-58-130-130 0-71 58-130 130-130 72 0 130 59 130 130 0 72-58 130-130 130z m-99-172c-5 0-9 2-11 7-9 29-7 60 8 88 14 27 37 47 67 57 5 2 11-1 13-7 2-6-1-12-7-13-24-8-43-25-55-47-11-22-13-48-5-72 1-5-2-11-7-13-1 0-2 0-3 0z m99-2c-24 0-44 20-44 44 0 25 20 45 44 45 24 0 44-20 44-45 0-24-20-44-44-44z m0 67c-13 0-23-10-23-23 0-12 10-23 23-23 13 0 23 11 23 23 0 13-10 23-23 23z m245-38l-59 0c-6 0-11 5-11 11 0 5 5 10 11 10l48 0c-5 124-108 224-234 224-126 0-229-100-234-224l46 0c6 0 11-5 11-10 0-6-5-11-11-11l-57 0c-3 0-6 1-8 3-2 2-3 5-3 8 0 140 115 255 256 255 141 0 256-115 256-255 0-3-1-6-3-8-2-2-5-3-8-3z m-421-40c-6 0-11 5-11 11l0 96c0 6 5 10 11 10 6 0 10-4 10-10l0-96c0-6-4-11-10-11z m355 0c-6 0-10 5-10 11l0 96c0 6 4 10 10 10 6 0 11-4 11-10l0-96c0-6-5-11-11-11z"/>
<glyph unicode="&#83;" d="M379 47l-270 0c-26 0-52 21-59 47l-48 196c-4 14-1 28 6 38 8 9 19 15 32 15l270 0c26 0 52-21 59-48l48-195c4-15 1-28-6-39-8-9-19-14-32-14z m-339 274c-6 0-11-2-15-6-4-5-5-13-3-20l49-195c4-18 22-32 38-32l270 0c6 0 11 2 15 7 4 5 5 12 3 19l-49 195c-4 18-22 32-38 32l-270 0z m38 3c-5 0-9 4-10 9l-4 18c-4 13-2 26 6 35 7 10 19 15 32 15l206 0c6 0 10-4 10-10 0-6-4-11-10-11l-206 0c-6 0-12-2-15-7-4-4-5-10-3-17l4-19c2-5-2-11-8-12 0 0-1-1-2-1z m332-251c-1 0-2 0-3 1-6 1-9 7-7 13l83 305c1 5 7 9 13 7 6-2 9-7 7-13l-83-305c-1-5-5-8-10-8z m83 306c-1 0-2 1-3 1-5 1-9 7-7 13l7 26c2 7 1 14-3 18-3 5-9 7-15 7l-102 0c-17 0-34-14-39-30l-7-27c-1-5-7-9-13-7-5 1-9 7-7 13l7 26c7 26 32 46 59 46l102 0c13 0 25-5 32-15 8-9 10-23 6-36l-7-27c-1-4-5-8-10-8z m-182-149l-186 0c-6 0-11 4-11 10 0 6 5 11 11 11l186 0c6 0 11-5 11-11 0-6-5-10-11-10z m0-121l-186 0c-6 0-11 5-11 11 0 6 5 11 11 11l186 0c6 0 11-5 11-11 0-6-5-11-11-11z m-32 2c-6 0-11 5-11 11l0 117c0 6 5 10 11 10 6 0 11-4 11-10l0-117c0-6-5-11-11-11z m-122 0c-6 0-10 5-10 11l0 117c0 6 4 10 10 10 6 0 11-4 11-10l0-117c0-6-5-11-11-11z"/>
<glyph unicode="&#84;" d="M481 170c0 0-1 0-1 0-6 1-10 6-9 12 1 9 1 18 1 26 0 120-97 217-216 217-119 0-217-97-217-217 0-8 1-17 2-26 1-6-3-11-9-12-6-1-11 3-12 9-1 10-2 20-2 29 0 131 107 238 238 238 131 0 238-107 238-238 0-9-1-19-2-29-1-5-5-9-11-9z m-15 60c-5 0-10 4-10 9-1 6 3 12 9 12l28 4c6 0 11-4 12-10 1-6-3-11-9-12l-28-3c-1 0-1 0-2 0z m-422 0c0 0-1 0-1 0l-28 3c-6 1-10 6-9 12 0 6 6 10 11 9l29-3c5-1 10-6 9-12-1-5-5-9-11-9z m23-164c-37 0-67 30-67 66 0 37 30 67 67 67 0 0 1 0 1 0 6-1 10-5 10-11l0-111c0-6-4-11-10-11 0 0-1 0-1 0z m-10 110c-21-4-36-22-36-44 0-21 16-39 36-44z m49-109c-6 0-10 5-10 11l0 106c0 6 4 11 10 11 6 0 11-5 11-11l0-106c0-6-5-11-11-11z m339-1c0 0-1 0-1 0-6 1-10 5-10 11l0 111c0 6 4 10 10 11 0 0 1 0 1 0 37 0 67-30 67-67 0-36-30-66-67-66z m10 111l0-89c20 5 36 23 36 44 0 22-16 40-36 45z m-49-110c-6 0-11 5-11 11l0 106c0 6 5 11 11 11 6 0 10-5 10-11l0-106c0-6-4-11-10-11z"/>
<glyph unicode="&#85;" d="M350 16c-68 0-123 55-123 123 0 68 55 123 123 123 68 0 123-55 123-123 0-68-55-123-123-123z m0 225c-56 0-102-46-102-102 0-56 46-101 102-101 56 0 101 45 101 101 0 56-45 102-101 102z m0-181c-44 0-79 36-79 79 0 44 35 79 79 79 43 0 79-35 79-79 0-43-36-79-79-79z m0 137c-32 0-58-26-58-58 0-32 26-57 58-57 32 0 58 25 58 57 0 32-26 58-58 58z m-216 208c-16 0-36 9-54 26-27 26-36 57-21 73 5 5 12 8 20 8 16 0 36-10 54-26 27-27 36-58 21-73-5-6-12-8-20-8z m-55 86c-1 0-4-1-5-2-4-4 1-23 21-43 15-14 30-20 39-20 1 0 4 0 5 1 4 4-1 24-21 43-15 14-30 21-39 21z m9-450c-6 0-11 5-11 11l0 387c0 6 5 10 11 10 6 0 10-4 10-10l0-387c0-6-4-11-10-11z m66-41c-4 0-8 3-10 7-7 19-31 33-56 33-26 0-50-14-58-33-2-6-8-8-13-6-6 2-9 8-6 14 11 27 41 46 77 46 35 0 65-19 76-46 2-6 0-12-6-14-1-1-2-1-4-1z m100 0c-1 0-3 0-4 1-5 2-8 8-6 14 7 16 21 31 40 39 6 2 12-1 14-6 2-6 0-12-6-14-13-6-24-16-28-27-2-4-6-7-10-7z m192 0c-5 0-9 3-10 7-5 11-15 21-29 27-5 2-8 8-5 14 2 5 8 8 14 6 18-8 33-23 40-39 2-6-1-12-6-14-2-1-3-1-4-1z m-174 279l-63 0c-24 0-43 19-43 43l0 44c0 24 19 43 43 43l63 0c23 0 43-19 43-43l0-44c0-24-20-43-43-43z m-63 109c-12 0-22-10-22-22l0-44c0-12 10-21 22-21l63 0c12 0 21 9 21 21l0 44c0 12-9 22-21 22z m250-109l-63 0c-23 0-43 19-43 43l0 44c0 24 20 43 43 43l63 0c24 0 43-19 43-43l0-44c0-24-19-43-43-43z m-63 109c-12 0-21-10-21-22l0-44c0-12 9-21 21-21l63 0c12 0 22 9 22 21l0 44c0 12-10 22-22 22z"/>
<glyph unicode="&#86;" d="M103 0c-4 0-8 2-10 6-2 5 0 12 5 14 62 31 101 95 130 141 32 53 44 114 36 186-4 32-23 75-56 98-24 17-52 21-83 13-22-5-37-17-41-34-3-15 4-30 19-43 5-4 5-11 2-15-4-5-11-6-15-2-22 18-32 42-26 65 5 24 26 43 56 50 37 9 71 3 100-17 39-27 60-76 65-113 9-77-4-142-39-199-28-46-71-116-138-149-2-1-4-1-5-1z m246 399c-31 0-56 25-56 57 0 31 25 56 56 56 32 0 57-25 57-56 0-32-25-57-57-57z m0 92c-19 0-35-16-35-35 0-20 16-36 35-36 20 0 36 16 36 36 0 19-16 35-36 35z m44-254c-31 0-56 25-56 57 0 31 25 56 56 56 31 0 57-25 57-56 0-32-26-57-57-57z m0 92c-19 0-35-16-35-35 0-20 16-36 35-36 20 0 35 16 35 36 0 19-15 35-35 35z"/>
<glyph unicode="&#87;" d="M310 6c-3 0-5 1-7 2l-162 127c-3 2-5 5-5 8l0 224c0 3 2 7 5 9l162 126c3 3 8 3 11 1 4-1 6-5 6-9l0-477c0-4-2-8-6-10-1 0-3-1-4-1z m-152 143l141-110 0 433-141-110 0-213z m156 16c-4 0-8 2-10 7-2 5 0 11 6 13 27 11 44 39 44 70 0 31-18 59-44 70-6 2-8 9-6 14 2 6 8 8 14 6 35-14 58-50 58-90 0-40-23-75-58-89-1-1-3-1-4-1z m41-41c-4 0-8 2-10 6-2 6 0 12 6 14 42 18 71 62 71 111 0 49-29 94-71 111-6 3-8 9-6 14 2 6 8 8 14 6 50-21 84-73 84-131 0-57-34-110-84-131-2 0-3 0-4 0z m38-37c-4 0-8 2-10 7-2 5 0 11 6 14 57 23 95 82 95 147 0 65-38 125-95 148-6 2-8 9-6 14 2 5 8 8 14 6 65-27 108-94 108-168 0-73-43-141-108-167-1-1-3-1-4-1z m-246 46l-129 0c-6 0-11 5-11 10l0 224c0 6 5 11 11 11l129 0c6 0 11-5 11-11 0-6-5-10-11-10l-119 0 0-203 119 0c6 0 11-5 11-11 0-5-5-10-11-10z m-95-133c-3 0-5 1-7 3-4 3-5 10-1 15l421 490c4 5 11 5 15 1 5-3 5-10 2-15l-422-490c-2-3-5-4-8-4z"/>
<glyph unicode="&#88;" d="M501 8l-490 0c-6 0-11 5-11 11 0 6 5 11 11 11l490 0c6 0 11-5 11-11 0-6-5-11-11-11z m-437 58l-45 0c-6 0-11 5-11 11 0 6 5 11 11 11l45 0c6 0 10-5 10-11 0-6-4-11-10-11z m142 1l-45 0c-5 0-10 5-10 11 0 6 5 11 10 11l45 0c6 0 11-5 11-11 0-6-5-11-11-11z m142 1l-44 0c-6 0-11 5-11 11 0 6 5 11 11 11l44 0c6 0 11-5 11-11 0-6-5-11-11-11z m143 1l-45 0c-6 0-11 5-11 11 0 6 5 11 11 11l45 0c6 0 10-5 10-11 0-6-4-11-10-11z m-285 81l-45 0c-5 0-10 5-10 11 0 6 5 10 10 10l45 0c6 0 11-4 11-10 0-6-5-11-11-11z m0 83l-45 0c-5 0-10 4-10 10 0 6 5 11 10 11l45 0c6 0 11-5 11-11 0-6-5-10-11-10z m0 82l-45 0c-5 0-10 5-10 11 0 6 5 10 10 10l45 0c6 0 11-4 11-10 0-6-5-11-11-11z m0 83l-45 0c-5 0-10 5-10 10 0 6 5 11 10 11l45 0c6 0 11-5 11-11 0-5-5-10-11-10z m142-247l-44 0c-6 0-11 5-11 11 0 5 5 10 11 10l44 0c6 0 11-5 11-10 0-6-5-11-11-11z m143 1l-45 0c-6 0-11 5-11 10 0 6 5 11 11 11l45 0c6 0 10-5 10-11 0-5-4-10-10-10z m-143 81l-44 0c-6 0-11 5-11 11 0 6 5 11 11 11l44 0c6 0 11-5 11-11 0-6-5-11-11-11z m143 1l-45 0c-6 0-11 5-11 11 0 6 5 11 11 11l45 0c6 0 10-5 10-11 0-6-4-11-10-11z m-143 82l-44 0c-6 0-11 5-11 11 0 6 5 10 11 10l44 0c6 0 11-4 11-10 0-6-5-11-11-11z m143 1l-45 0c-6 0-11 5-11 11 0 6 5 10 11 10l45 0c6 0 10-4 10-10 0-6-4-11-10-11z m0 83l-45 0c-6 0-11 4-11 10 0 6 5 11 11 11l45 0c6 0 10-5 10-11 0-6-4-10-10-10z m0 82l-45 0c-6 0-11 5-11 11 0 6 5 11 11 11l45 0c6 0 10-5 10-11 0-6-4-11-10-11z"/>
<glyph unicode="&#89;" d="M168 97c-6 0-11 5-11 11l0 372c0 6 5 11 11 11l333 0c6 0 11-5 11-11l0-275c0-6-5-10-11-10-6 0-10 4-10 10l0 264-313 0 0-361c0-6-4-11-10-11z m-105-76c-31 0-53 12-61 32-5 16-1 34 13 51 12 15 32 28 54 36 15 6 32 9 47 9 30 0 53-12 60-32 6-16 1-34-13-51-12-15-31-28-53-36-16-6-32-9-47-9z m53 107c-13 0-26-3-40-8-19-7-34-17-45-30-5-6-13-18-9-29 5-12 20-18 41-18 12 0 26 2 39 7 19 7 35 18 45 30 5 6 13 18 9 30-4 11-20 18-40 18z m280-7c-30 0-53 12-60 32-6 16-1 34 13 51 12 15 31 28 53 36 16 6 32 9 47 9 31 0 53-12 61-32 5-16 1-34-13-51-12-15-32-28-54-36-15-6-32-9-47-9z m53 107c-12 0-26-3-39-8-19-7-35-17-45-30-5-6-13-18-9-30 4-11 20-18 40-18 13 0 26 3 40 8 19 7 34 18 45 30 5 6 13 18 9 30-5 11-20 18-41 18z"/>
<glyph unicode="&#90;" d="M448 279c-4 0-8 3-10 7l-62 186c-2 6 1 12 6 14l53 18c6 1 12-2 14-7l62-186c1-3 1-6 0-8-1-3-4-5-6-6l-53-18c-2 0-3 0-4 0z m-49 190l56-166 33 11-56 166z m-208-461c-2 0-3 0-4 1l-181 77c-2 1-4 3-5 6-1 3-1 6 0 8l22 52c2 5 9 8 14 5l180-77c3-1 5-3 6-6 1-3 1-6 0-8l-22-52c-2-4-6-6-10-6z m-166 94l160-69 14 31-161 70z m187 19c-2 0-3 1-5 2l-144 70c-6 2-8 9-5 14 2 5 9 8 14 5l145-70c5-3 7-9 4-15-1-3-5-6-9-6z m20 36c-2 0-4 0-6 1l-134 89c-5 4-6 10-3 15 4 5 10 6 15 3l134-89c5-3 6-10 3-15-2-3-5-4-9-4z m25 32c-3 0-5 1-8 2l-121 106c-4 4-4 11-1 15 4 4 11 5 15 1l122-106c4-3 4-10 1-15-3-2-6-3-8-3z m28 28c-3 0-6 1-8 4l-106 120c-4 5-4 11 1 15 4 4 11 4 15-1l106-120c4-4 3-11-1-15-2-2-5-3-7-3z m32 25c-4 0-7 1-9 4l-90 134c-3 5-2 11 3 15 5 3 12 2 15-3l89-134c4-5 2-11-2-14-2-2-4-2-6-2z m34 20c-3 0-7 2-9 6l-72 144c-2 5 0 12 5 14 6 3 12 1 15-5l71-144c3-5 0-11-5-14-1-1-3-1-5-1z m38 16c-4 0-9 2-10 7l-52 152c-2 5 1 12 7 13 5 2 11-1 13-6l52-152c2-6-1-12-7-14-1 0-2 0-3 0z"/>
<glyph unicode="&#48;" d="M363 0c-2 0-5 1-7 3-4 4-4 11 0 15 8 8 18 16 27 24 25 22 52 45 64 77 18 47 8 109-23 143-75 84-86 165-71 208 7 23 22 38 39 41 18 4 37-5 54-24 4-4 4-11-1-15-4-4-11-3-15 1-11 13-23 19-34 17-10-2-18-12-23-26-13-38-3-110 67-188 36-40 47-110 27-165-14-37-43-61-71-85-9-8-17-15-25-23-2-2-5-3-8-3z m-214 0c-3 0-6 1-8 3-8 8-16 15-26 23-27 24-56 48-70 85-20 55-9 125 27 165 70 78 80 150 67 188-5 14-14 24-23 26-11 2-23-4-34-17-4-4-11-5-15-1-5 4-5 11-1 15 17 19 36 28 54 24 17-3 32-18 39-41 15-43 4-124-71-208-31-34-41-96-23-143 12-32 39-55 64-77 9-8 19-16 27-24 4-4 4-11 0-15-2-2-5-3-7-3z m216 0l-215 0c-6 0-11 5-11 11 0 6 5 10 11 10l215 0c6 0 10-4 10-10 0-6-4-11-10-11z m-6 391l-206 0c-6 0-11 5-11 11 0 6 5 10 11 10l206 0c6 0 11-4 11-10 0-6-5-11-11-11z m-55-384c-6 0-11 4-11 10l0 376c0 6 5 11 11 11 5 0 10-5 10-11l0-376c0-6-5-10-10-10z m-51 0c-6 0-11 4-11 10l0 376c0 6 5 11 11 11 5 0 10-5 10-11l0-376c0-6-5-10-10-10z m-52 0c-5 0-10 4-10 10l0 376c0 6 5 11 10 11 6 0 11-5 11-11l0-376c0-6-5-10-11-10z"/>
<glyph unicode="&#49;" d="M135 210c-50 0-90 41-90 91 0 50 40 90 90 90 50 0 91-40 91-90 0-50-41-91-91-91z m0 160c-38 0-69-31-69-69 0-39 31-70 69-70 38 0 70 31 70 70 0 38-32 69-70 69z m-34-151c-2 0-3 1-5 1-5 3-7 9-5 15l32 65-35 61c-3 5-1 11 4 14 5 3 12 2 15-4l37-65c2-3 2-7 1-10l-35-71c-1-3-5-6-9-6z m111 51c-1 0-2 0-3 0l-76 21c-6 1-9 7-7 13 1 5 7 9 13 7l76-20c6-2 9-8 8-13-2-5-6-8-11-8z m165-59c-50 0-91 41-91 91 0 50 41 90 91 90 50 0 90-40 90-90 0-50-40-91-90-91z m0 160c-38 0-69-31-69-69 0-38 31-69 69-69 38 0 69 31 69 69 0 38-31 69-69 69z m-79-85c-5 0-10 4-10 10-1 6 4 11 10 11l72 5 36 61c3 5 9 7 14 4 5-3 7-10 4-15l-38-65c-2-3-5-5-9-6l-78-5c0 0-1 0-1 0z m99-72c-4 0-9 4-10 8l-20 77c-1 5 2 11 8 13 5 1 11-2 13-8l20-76c1-6-2-12-8-13-1-1-2-1-3-1z m104-136l-490 0c-6 0-11 5-11 11l0 334c0 6 5 10 11 10l490 0c6 0 11-4 11-10l0-334c0-6-5-11-11-11z m-480 22l470 0 0 312-470 0z m408 24l-345 0c-11 0-22 4-30 12-8 9-12 19-12 31l3 125c0 6 5 10 11 10 5 0 10-5 10-11l-3-125c0-5 2-11 6-15 4-4 9-6 15-6l345 0c6 0 11 2 14 6 4 4 6 9 6 15l-5 116c0 6 4 11 10 11 6 1 11-4 11-10l5-116c1-11-3-22-11-30-8-9-19-13-30-13z m-173 64c-6 0-11 5-11 10l0 16c0 6 5 11 11 11 6 0 11-5 11-11l0-16c0-5-5-10-11-10z"/>
<glyph unicode="&#50;" d="M488 283c-4 0-7 2-9 5l-82 129c-3 5-2 11 3 15 5 3 12 1 15-4l82-128c3-5 1-12-4-15-1-1-3-2-5-2z m-35-54c0 0 0 0 0 0-5 0-10 1-14 5-14 10-13 33 2 53 10 13 24 22 36 22 6 0 11-2 15-5 7-6 11-15 9-26-1-9-5-19-12-28-10-13-24-21-36-21z m24 58c-4 0-12-4-19-13-9-12-9-22-6-24 0 0 1 0 1 0 5 0 13 5 20 13 4 6 7 12 7 17 1 4 0 6-1 7 0 0-1 0-2 0z m24 100c-3 0-6 2-8 4-10 13-24 22-38 27-11 4-33 3-42-4-5-3-12-2-15 3-3 5-2 11 3 15 16 11 45 11 60 6 19-5 37-18 49-34 3-4 3-11-2-15-2-1-4-2-7-2z m-323-346c-29 0-58 13-76 38l-41 55c-30 42-21 101 20 131l135 99c4 4 11 3 15-2 3-5 2-12-3-15l-134-99c-32-24-39-69-15-101l40-56c24-32 69-39 102-15l134 99c15 11 26 28 29 47 3 19-2 39-14 54-3 5-2 12 3 15 4 4 11 3 15-2 14-20 21-45 17-70-4-25-17-47-37-61l-135-99c-16-12-36-18-55-18z m7 55c-18 0-34 8-44 22l-23 30c-8 11-11 25-9 39 3 18 13 35 29 47l91 67c5 3 11 2 15-3 3-5 2-11-3-15l-90-66c-11-9-19-20-21-33-1-6-1-15 5-23l23-31c11-15 38-16 58-2l90 67c20 15 27 40 16 56-4 5-2 11 2 15 5 3 12 2 15-3 19-25 10-63-20-85l-91-67c-13-10-28-15-43-15z m-137-39c-3 0-6 2-8 5l-38 51c-2 2-2 5-2 8 1 2 2 5 4 7l44 32c5 3 11 2 15-3 3-4 2-11-2-14l-35-26 25-34 35 26c4 3 11 2 15-3 3-4 2-11-3-15l-43-32c-2-1-4-2-7-2z m281 277c-5 0-9 4-10 8-2 6 2 12 7 13l51 14-53 73-28-45c-1-1-2-2-3-3l-66-48c-4-3-11-2-15 2-3 5-2 12 3 15l64 47 35 56c2 3 5 5 8 5 4 1 7-1 9-4l73-98c2-3 2-7 1-10-1-3-4-6-7-7l-66-17c-1 0-2-1-3-1z m-91-51c-4 0-7 2-9 6-3 5-1 11 4 14l89 50c5 3 12 1 15-4 3-5 1-11-4-14l-90-50c-1-1-3-2-5-2z m94-39c-3 0-6 2-8 4l-119 161c-3 5-2 12 3 15 4 4 11 3 15-2l118-161c3-5 2-11-2-15-2-1-4-2-7-2z m-31-72c-3 0-7 2-9 5l-141 192c-4 5-3 11 2 15 5 3 12 2 15-2l142-193c3-4 2-11-3-15-2-1-4-2-6-2z m-61-45c-4 0-7 2-9 5l-141 192c-4 5-3 11 2 15 5 3 11 2 15-2l141-193c4-5 3-11-2-15-2-1-4-2-6-2z m79 143c-3 0-7 1-9 4-3 5-2 12 3 15 7 6 16 12 27 15 19 6 35 1 46-14 3-5 2-11-2-15-5-3-12-2-15 3-5 6-11 9-23 5-7-2-13-5-21-11-2-1-4-2-6-2z"/>
<glyph unicode="&#51;" d="M362 0l-298 0c-6 0-11 5-11 11l0 123c0 6 5 10 11 10l298 0c6 0 11-4 11-10l0-123c0-6-5-11-11-11z m-287 21l277 0 0 102-277 0z m335 199c-40 0-72 68-84 135-7 37-7 73-2 102 7 32 21 51 40 54 1 1 3 1 5 1 40 0 72-68 84-134 7-38 7-74 2-102-7-32-21-52-40-55-1 0-3-1-5-1z m-41 271c0 0-1 0-2-1-9-1-17-16-22-37-5-26-4-60 2-94 12-69 43-117 63-117 0 0 1 0 2 0 9 2 17 16 22 38 5 26 4 59-2 94-12 69-43 117-63 117z m-247-364c0 0 0 0 0 0-6 0-11 5-11 11 10 258 235 366 238 367 5 2 11 0 14-5 2-6 0-12-5-14-3-1-216-104-225-349-1-6-5-10-11-10z m52 2c-1 0-3 0-4 1-6 2-8 8-6 14 65 138 242 97 244 97 5-1 9-7 8-13-2-6-8-9-13-8-7 2-162 37-219-85-2-4-6-6-10-6z m231-71l-37 0c-6 0-11 5-11 10 0 6 5 11 11 11l37 0c6 0 11-5 11-11 0-5-5-10-11-10z"/>
<glyph unicode="&#52;" d="M11 57c-6 0-11 5-11 11l0 376c0 6 5 11 11 11 6 0 10-5 10-11l0-376c0-6-4-11-10-11z m81 142c-5 0-10 5-10 11l0 234c0 6 5 11 10 11 6 0 11-5 11-11l0-234c0-6-5-11-11-11z m82-142c-6 0-10 5-10 11l0 376c0 6 4 11 10 11 6 0 11-5 11-11l0-376c0-6-5-11-11-11z m82 142c-6 0-11 5-11 11l0 234c0 6 5 11 11 11 6 0 11-5 11-11l0-234c0-6-5-11-11-11z m82-142c-6 0-11 5-11 11l0 376c0 6 5 11 11 11 6 0 10-5 10-11l0-376c0-6-4-11-10-11z m82 142c-6 0-11 5-11 11l0 234c0 6 5 11 11 11 5 0 10-5 10-11l0-234c0-6-5-11-10-11z m81-142c-6 0-10 5-10 11l0 376c0 6 4 11 10 11 6 0 11-5 11-11l0-376c0-6-5-11-11-11z"/>
<glyph unicode="&#53;" d="M11 0c-6 0-11 5-11 11l0 240c0 6 5 10 11 10 6 0 10-4 10-10l0-240c0-6-4-11-10-11z m70 0c-6 0-11 5-11 11l0 266c0 5 5 10 11 10 6 0 10-5 10-10l0-266c0-6-4-11-10-11z m70 0c-6 0-11 5-11 11l0 294c0 6 5 11 11 11 6 0 11-5 11-11l0-294c0-6-5-11-11-11z m70 0c-6 0-11 5-11 11l0 326c0 6 5 10 11 10 6 0 11-4 11-10l0-326c0-6-5-11-11-11z m70 0c-6 0-11 5-11 11l0 361c0 6 5 11 11 11 6 0 11-5 11-11l0-361c0-6-5-11-11-11z m70 0c-6 0-11 5-11 11l0 400c0 6 5 10 11 10 6 0 11-4 11-10l0-400c0-6-5-11-11-11z m70 0c-6 0-10 5-10 11l0 443c0 6 4 10 10 10 6 0 11-4 11-10l0-443c0-6-5-11-11-11z m70 0c-6 0-10 5-10 11l0 490c0 6 4 11 10 11 6 0 11-5 11-11l0-490c0-6-5-11-11-11z"/>
<glyph unicode="&#54;" d="M501 0l-490 0c-6 0-11 5-11 11l0 253c0 6 5 11 11 11l490 0c6 0 11-5 11-11l0-253c0-6-5-11-11-11z m-480 21l470 0 0 233-470 0z m-10 233c-3 0-5 0-7 2-2 2-4 5-4 8l0 71c0 5 3 9 7 10l491 166c3 2 7 1 10-1 2-2 4-5 4-9l0-71c0-4-3-8-7-10l-491-166c-1 0-2 0-3 0z m10 74l0-49 470 159 0 48z m384-126c-1 0-3 0-4 1-6 2-8 9-5 14l21 44c3 5 9 7 14 5 6-3 8-9 5-14l-21-44c-2-4-6-6-10-6z m-106 0c-2 0-3 0-5 1-5 2-8 9-5 14l21 44c3 5 9 7 15 5 5-3 7-9 5-14l-22-44c-2-4-5-6-9-6z m-107 0c-2 0-3 0-5 1-5 2-7 9-5 14l22 44c2 5 9 7 14 5 5-3 8-9 5-14l-21-44c-2-4-6-6-10-6z m-107 0c-1 0-3 0-4 1-6 2-8 9-5 14l21 44c3 5 9 7 14 5 6-3 8-9 5-14l-21-44c-2-4-6-6-10-6z m36 99c-3 0-5 1-7 3l-44 37c-5 4-5 10-2 15 4 4 11 5 15 1l44-37c5-4 5-11 2-15-2-3-5-4-8-4z m109 36c-3 0-5 1-7 3l-44 37c-5 4-5 11-2 15 4 5 11 5 15 2l44-38c5-4 5-10 2-15-2-2-5-4-8-4z m108 37c-2 0-4 1-6 2l-44 38c-5 4-6 10-2 15 4 4 11 5 15 1l44-37c5-4 5-11 2-15-3-3-6-4-9-4z m109 36c-2 0-5 1-7 3l-44 37c-4 4-5 11-1 15 4 5 11 5 15 2l44-38c5-4 5-10 2-15-3-2-6-4-9-4z m50-262l-482 0c-6 0-11 5-11 11 0 6 5 11 11 11l482 0c6 0 11-5 11-11 0-6-5-11-11-11z m-240-61c-6 0-10 5-10 11l0 54c0 6 4 11 10 11 6 0 11-5 11-11l0-54c0-6-5-11-11-11z m4-34l-246 0c-6 0-11 5-11 11 0 6 5 11 11 11l246 0c6 0 11-5 11-11 0-6-5-11-11-11z"/>
<glyph unicode="&#55;" d="M208 48c-33 0-65 8-95 23-49 25-86 68-103 121-17 53-12 109 13 159 25 49 68 86 121 103 53 17 110 12 159-13 49-25 86-68 103-121 11-34 13-70 6-104-1-6-7-10-12-9-6 2-10 7-9 13 6 31 4 63-5 93-16 48-48 86-93 109-44 23-95 27-142 12-48-16-86-48-109-93-23-44-27-95-12-142 16-48 49-86 93-109 44-23 95-27 142-12 6 2 11 4 17 7 5 2 12-1 14-6 2-5 0-12-6-14-6-3-12-5-18-7-21-7-43-10-64-10z m-126 150c-4 0-9 3-10 8-13 39-9 82 10 119 19 38 51 66 91 78 6 2 12-1 14-6 2-6-1-12-7-14-35-11-63-35-79-67-17-33-20-69-9-104 2-6-1-12-7-13-1-1-2-1-3-1z m126 0c-32 0-58 26-58 58 0 32 26 58 58 58 32 0 58-26 58-58 0-32-26-58-58-58z m0 95c-20 0-36-17-36-37 0-20 16-37 36-37 20 0 37 17 37 37 0 20-17 37-37 37z m134-141c0-8-2-16-5-22-3-7-8-12-14-16-4-3-9-5-14-6-4-1-10-1-18-1l-21 0 0 91 21 0c9 0 15-1 20-2 5-2 9-3 13-6 5-4 10-9 13-15 3-7 5-14 5-23z m-13 0c0 7-1 13-3 18-2 5-6 9-10 12-4 2-7 3-11 4-3 1-8 1-13 1l-10 0 0-70 10 0c5 0 10 0 14 1 4 1 8 3 11 5 4 3 7 7 9 11 2 5 3 11 3 18z m92 46l-31-91-13 0-32 91 13 0 26-76 25 76z m80-46c0-8-1-16-5-22-3-7-8-12-13-16-5-3-9-5-14-6-5-1-11-1-18-1l-21 0 0 91 20 0c9 0 16-1 21-2 4-2 9-3 12-6 6-4 10-9 14-15 3-7 4-14 4-23z m-12 0c0 7-1 13-4 18-2 5-5 9-10 12-3 2-7 3-10 4-4 1-9 1-14 1l-9 0 0-70 9 0c5 0 10 0 14 1 4 1 8 3 11 5 4 3 7 7 10 11 2 5 3 11 3 18z"/>
<glyph unicode="&#56;" d="M478 124c-39 0-67 99-78 158-8 43-10 84-8 116 3 37 13 57 29 60 2 1 3 1 4 1 39 0 67-100 78-158 15-81 14-170-21-176-1-1-3-1-4-1z m-53 313c-2 0-9-8-12-41-2-30 1-69 8-110 17-91 46-140 57-140l0 0c9 1 21 56 4 151-17 91-46 140-57 140z m-338-384c-34 0-64 81-78 158-8 43-11 84-8 116 3 37 13 57 29 60 6 2 12-2 13-8 1-6-3-11-9-13-2 0-9-8-12-41-2-30 1-69 8-110 17-95 48-142 57-140 6 1 11-3 12-9 1-6-2-11-8-12-2-1-3-1-4-1z m-63 304c-5 0-9 4-11 9-1 5 2 11 8 12l201 52c1 0 1 0 2 0l208 23c6 1 11-4 12-9 0-6-4-12-10-12l-207-23-201-51c-1 0-1-1-2-1z m11-62c-5 0-9 3-10 8-2 6 2 11 7 13l202 51c0 0 1 0 1 0l164 18c6 1 11-3 12-9 0-6-4-11-10-12l-163-18-200-51c-1 0-2 0-3 0z m11-63c-4 0-9 4-10 8-1 6 2 12 8 13l201 51c1 1 1 1 2 1l156 17c6 1 11-4 11-9 1-6-3-12-9-12l-155-17-201-51c-1-1-2-1-3-1z m32-173c-6 0-10 4-11 9 0 6 4 11 10 12l205 23 202 51c6 1 12-2 13-8 2-5-2-11-7-13l-203-51c-1 0-1 0-2 0l-206-23c0 0-1 0-1 0z m-11 62c-6 0-10 4-11 10-1 6 4 11 9 12l206 22 160 41c6 1 12-2 13-8 2-5-2-11-8-13l-160-41c-1 0-1 0-2 0l-206-23c-1 0-1 0-1 0z m-12 63c-5 0-10 4-10 9-1 6 3 12 9 12l206 23 151 38c6 2 12-2 13-7 2-6-2-12-7-13l-153-39c0 0-1 0-1 0l-207-23c0 0 0 0-1 0z"/>
<glyph unicode="&#57;" d="M212 32c-33 0-66 8-97 24-50 25-87 69-105 123-36 111 26 231 137 267 77 25 163 3 218-56 5-4 4-11 0-15-4-4-11-4-15 0-50 53-127 73-197 50-99-32-155-139-122-239 15-49 49-88 94-111 45-24 97-28 145-12 38 12 71 35 94 67 4 4 10 5 15 2 5-4 6-10 2-15-26-35-62-61-104-74-22-7-43-11-65-11z m-142 156c-5 0-9 3-10 7-28 84 19 175 103 202 5 1 11-2 13-7 2-6-1-12-7-14-72-23-113-102-89-174 2-6-1-12-7-14-1 0-2 0-3 0z m142-3c-33 0-59 27-59 59 0 33 26 59 59 59 32 0 59-26 59-59 0-32-27-59-59-59z m0 97c-21 0-38-17-38-38 0-20 17-37 38-37 21 0 37 17 37 37 0 21-16 38-37 38z m149-226c-5 0-10 4-10 10-1 6 4 11 10 11 15 1 29 8 37 18 4 4 6 10 8 16-4 0-7 0-11 0l-8 1c-26 1-44 2-70 22-22 17-35 39-38 63-3 25 6 51 25 75 5 6 10 12 15 18 11 12 20 23 28 35l4 7c2 4 4 7 6 11-10 33-17 68-12 102 3 16 15 30 30 34 12 3 23-2 32-13 17-22 2-64-1-72-7-19-16-37-26-54 4-15 10-29 15-43 2-5 4-11 5-16 20 6 41 6 54 1 23-9 51-39 57-73 3-18 1-45-27-70-20-17-37-24-57-27-1-11-5-21-12-30-12-16-32-25-53-26 0 0-1 0-1 0z m4 259l0 0c-8-15-19-27-30-39-5-6-10-12-14-18-16-19-23-39-20-59 2-18 12-34 29-48 21-16 34-17 58-18l9-1c3 0 7 0 10 0 0 8-1 15-2 23 0 3 0 6-1 9-3 37-8 63-16 89-2-1-3-3-4-4-1-2-4-5 2-14 3-5 2-11-2-15-5-3-12-2-15 3-10 13-11 28-2 39 4 4 8 8 14 11-2 6-4 11-6 16-3 9-6 18-10 26z m42-54c0 0 1 0 1 0 9-28 14-56 17-95 1-3 1-6 1-9 1-7 2-15 2-23 14 2 27 9 42 21 16 15 23 32 20 51-5 27-29 50-44 56-9 3-25 3-39-1z m-25 197c-1 0-1 0-2 0-6-1-12-9-14-16-3-24 0-48 5-73 6 11 11 22 15 32 7 19 11 44 4 52-3 5-6 5-8 5z"/>
<glyph unicode="&#33;" d="M450 44l-439 0c-6 0-11 5-11 11l0 258c0 6 5 11 11 11l439 0c6 0 10-5 10-11l0-258c0-6-4-11-10-11z m-429 21l418 0 0 237-418 0z m-1 237c-4 0-7 2-9 5-4 4-3 11 2 15l220 168c4 3 11 2 15-2 3-5 2-12-2-15l-220-168c-2-2-4-3-6-3z m387-82l-354 0c-6 0-11 5-11 10 0 6 5 11 11 11l354 0c6 0 11-5 11-11 0-5-5-10-11-10z m94-47l-45 0c-6 0-11 5-11 11 0 6 5 11 11 11l35 0 0 95-35 0c-6 0-11 4-11 10 0 6 5 11 11 11l45 0c6 0 11-5 11-11l0-116c0-6-5-11-11-11z m-100-153c-6 0-11 5-11 11l0 24c0 6 5 10 11 10 6 0 11-4 11-10l0-24c0-6-5-11-11-11z m-341 0c-6 0-11 5-11 11l0 24c0 6 5 10 11 10 5 0 10-4 10-10l0-24c0-6-5-11-10-11z m303 87c-6 0-11 5-11 11l0 66c0 6 5 11 11 11 6 0 10-5 10-11l0-66c0-6-4-11-10-11z m-89 0c-6 0-10 5-10 11l0 66c0 6 4 11 10 11 6 0 11-5 11-11l0-66c0-6-5-11-11-11z m-88 0c-6 0-11 5-11 11l0 66c0 6 5 11 11 11 6 0 11-5 11-11l0-66c0-6-5-11-11-11z m-88 0c-6 0-11 5-11 11l0 66c0 6 5 11 11 11 6 0 10-5 10-11l0-66c0-6-4-11-10-11z"/>
<glyph unicode="&#34;" d="M404 0l-296 0c-6 0-11 5-11 11l0 490c0 6 5 11 11 11l296 0c6 0 11-5 11-11l0-490c0-6-5-11-11-11z m-286 21l276 0 0 470-276 0z m224 181l-172 0c-6 0-11 5-11 11l0 220c0 6 5 11 11 11l172 0c6 0 11-5 11-11l0-220c0-6-5-11-11-11z m-162 22l152 0 0 199-152 0z m76-172c-24 0-43 20-43 43 0 24 19 43 43 43 24 0 43-19 43-43 0-23-19-43-43-43z m0 64c-12 0-21-9-21-21 0-12 9-21 21-21 12 0 21 9 21 21 0 12-9 21-21 21z m20 197c-3 0-6 1-8 3l-35 36c-4 4-4 11 0 15 4 4 11 4 15 0l35-35c4-5 4-11 0-16-2-2-5-3-7-3z m-36-37c-2 0-5 1-7 4-4 4-4 10 0 15l35 35c4 4 11 4 15 0 4-4 4-11 0-15l-35-35c-2-3-5-4-8-4z"/>
<glyph unicode="&#35;" d="M398 156c-4 0-8 2-10 6-2 6 0 12 6 14 30 13 51 45 51 80 0 35-21 67-51 80-6 2-8 8-6 14 2 5 8 8 14 6 38-16 64-56 64-100 0-44-25-84-64-100-2 0-3 0-4 0z m28-28c-4 0-8 3-10 7-2 5 1 12 6 14 41 17 69 60 69 107 0 47-28 90-69 107-5 2-8 9-6 14 2 5 9 8 14 6 49-20 82-71 82-127 0-57-32-106-82-127-1 0-3-1-4-1z m-312 28c-1 0-2 0-4 0-39 16-64 56-64 100 0 44 26 84 64 100 6 2 12-1 14-6 2-6 0-12-6-14-30-13-51-45-51-80 0-35 21-67 51-80 6-2 8-8 6-14-2-4-6-6-10-6z m-28-28c-1 0-3 1-4 1-50 21-82 70-82 127 0 56 33 107 82 127 5 2 12-1 14-6 2-5-1-12-6-14-41-17-69-60-69-107 0-47 28-90 69-107 5-2 8-9 6-14-2-4-6-7-10-7z m281-128l-217 0c-6 0-11 5-11 11l0 490c0 6 5 11 11 11l217 0c6 0 11-5 11-11l0-490c0-6-5-11-11-11z m-206 21l196 0 0 470-196 0z m98 332c-24 0-44 19-44 43 0 24 20 43 44 43 24 0 43-19 43-43 0-24-19-43-43-43z m0 65c-13 0-22-10-22-22 0-12 9-22 22-22 12 0 22 10 22 22 0 12-10 22-22 22z m0-340c-44 0-80 36-80 80 0 44 36 80 80 80 44 0 79-36 79-80 0-44-35-80-79-80z m0 139c-33 0-59-27-59-59 0-32 26-58 59-58 32 0 58 26 58 58 0 32-26 59-58 59z"/>
<glyph unicode="&#36;" d="M443 21c-28 0-58 19-98 60-4 4-4 11 1 15 4 4 11 4 15 0 36-38 63-55 85-53 13 1 24 9 35 25 25 35-3 76-33 119-5 6-9 12-13 18-3 5-2 12 3 15 5 3 11 2 15-3 4-6 8-12 12-18 33-47 67-96 34-144-15-20-32-32-51-33-2 0-4-1-5-1z m-130 48c-21 0-42 10-57 27l-144 165c-2 3-3 5-2 8 0 3 1 6 3 7l89 77c4 4 11 4 15-1l144-165c27-31 25-76-4-102-12-10-27-16-44-16z m-178 198l138-157c10-12 25-19 40-19 12 0 22 3 30 11 20 17 21 49 2 71l-137 157z m6 11c-3 0-5 1-8 4l-120 138c-17 20-17 47-1 62 7 6 15 9 24 9 14 0 28-7 37-18l121-139c2-2 3-5 2-7 0-3-1-6-3-8l-45-38c-2-2-4-3-7-3z m-105 191c-2 0-6 0-10-3-7-7-6-21 3-32l113-130 29 24-114 131c-6 6-13 10-21 10z m6-76c-3 0-6 1-8 3-4 5-4 12 1 16l44 38c4 4 11 3 15-1 4-4 3-11-1-15l-44-39c-2-1-5-2-7-2z"/>
<glyph unicode="&#37;" d="M175 34l-128 0 0 11 0-11c-13 0-24 5-33 14-9 9-14 21-14 33l0 290c0 26 21 47 47 47l128 0c26 0 47-21 47-47l0-290c0-12-5-24-14-33-9-9-21-14-33-14z m-128 362c-14 0-26-11-26-25l0-290c0-7 3-13 8-18 5-5 11-7 18-7l128 0c14 0 25 11 25 25l0 290c0 14-11 25-25 25z m111 0l-94 0c-6 0-11 5-11 11l0 60c0 6 5 11 11 11l94 0c6 0 10-5 10-11l0-60c0-6-4-11-10-11z m-83 22l72 0 0 38-72 0z m261-337l-117 0c-6 0-11 4-11 10 0 6 5 11 11 11l117 0c14 0 25 11 25 26l0 46c0 26 21 47 47 47l57 0c14 0 26 11 26 25l0 69c0 15-12 26-26 26l-246 0c-6 0-11 5-11 11 0 6 5 10 11 10l246 0c26 0 47-21 47-47l0-69c0-25-21-47-47-47l-57 0c-14 0-26-11-26-25l0-46c0-26-21-47-46-47z m-27 207l-49 0c-6 0-11 5-11 10 0 6 5 11 11 11l49 0c6 0 11-5 11-11 0-5-5-10-11-10z m0-159l-49 0c-6 0-11 5-11 11 0 6 5 11 11 11l49 0c6 0 11-5 11-11 0-6-5-11-11-11z m117 159l-49 0c-6 0-11 5-11 10 0 6 5 11 11 11l49 0c6 0 10-5 10-11 0-5-4-10-10-10z"/>
<glyph unicode="&#38;" d="M112 220c0-9-7-16-16-16-9 0-16 7-16 16 0 9 7 17 16 17 9 0 16-8 16-17z m0 72c0-9-7-17-16-17-9 0-16 8-16 17 0 9 7 16 16 16 9 0 16-7 16-16z m212-154c-65 0-118 53-118 118 0 65 53 118 118 118 65 0 118-53 118-118 0-65-53-118-118-118z m0 215c-53 0-97-43-97-97 0-53 44-97 97-97 54 0 97 44 97 97 0 54-43 97-97 97z m0-169c-40 0-72 32-72 72 0 40 32 73 72 73 40 0 73-33 73-73 0-40-33-72-73-72z m0 123c-28 0-51-23-51-51 0-28 23-51 51-51 28 0 51 23 51 51 0 28-23 51-51 51z m177-151l-116 0c-6 0-11 5-11 11 0 6 5 11 11 11l106 0 0 156-102 0c-6 0-11 5-11 11 0 6 5 11 11 11l112 0c6 0 11-5 11-11l0-178c0-6-5-11-11-11z m-244 0l-246 0c-6 0-11 5-11 11l0 178c0 6 5 11 11 11l246 0c6 0 11-5 11-11 0-6-5-11-11-11l-236 0 0-156 236 0c6 0 11-5 11-11 0-6-5-11-11-11z"/>
<glyph unicode="&#39;" d="M94 285c-6 0-11 4-11 10l0 36c0 6 5 10 11 10 6 0 11-4 11-10l0-36c0-6-5-10-11-10z m81 0c-6 0-11 4-11 10l0 77c0 6 5 11 11 11 6 0 11-5 11-11l0-77c0-6-5-10-11-10z m81 0c-6 0-11 4-11 10l0 36c0 6 5 10 11 10 6 0 11-4 11-10l0-36c0-6-5-10-11-10z m81 0c-6 0-11 4-11 10l0 54c0 6 5 11 11 11 6 0 11-5 11-11l0-54c0-6-5-10-11-10z m81 0c-6 0-11 4-11 10l0 68c0 6 5 10 11 10 6 0 11-4 11-10l0-68c0-6-5-10-11-10z m-63-122c0-9-7-16-16-16-8 0-16 7-16 16 0 9 8 16 16 16 9 0 16-7 16-16z m95 0c0-9-7-16-16-16-9 0-16 7-16 16 0 9 7 16 16 16 9 0 16-7 16-16z m9 111l-406 0c-29 0-53 24-53 53l0 44c0 29 24 53 53 53l406 0c29 0 53-24 53-53l0-44c0-29-24-53-53-53z m-406 129c-17 0-32-15-32-32l0-44c0-17 15-32 32-32l406 0c17 0 32 15 32 32l0 44c0 17-15 32-32 32z m406-315l-406 0c-29 0-53 24-53 53l0 44c0 29 24 53 53 53l406 0c29 0 53-24 53-53l0-44c0-29-24-53-53-53z m-406 129c-17 0-32-15-32-32l0-44c0-17 15-32 32-32l406 0c17 0 32 15 32 32l0 44c0 17-15 32-32 32z m218-65l-211 0c-5 0-10 5-10 11 0 6 5 11 10 11l211 0c6 0 11-5 11-11 0-6-5-11-11-11z"/>
<glyph unicode="&#40;" d="M138 298c-48 0-88 48-88 107 0 59 40 107 88 107 49 0 88-48 88-107 0-59-39-107-88-107z m0 193c-37 0-67-39-67-86 0-47 30-86 67-86 37 0 67 39 67 86 0 47-30 86-67 86z m35-491l-69 0c-6 0-11 5-11 11l0 303c0 6 5 11 11 11 6 0 10-5 10-11l0-293 48 0 0 293c0 6 5 11 11 11 6 0 10-5 10-11l0-303c0-6-4-11-10-11z m201 298c-49 0-88 48-88 107 0 59 39 107 88 107 48 0 88-48 88-107 0-59-40-107-88-107z m0 193c-37 0-67-39-67-86 0-47 30-86 67-86 37 0 67 39 67 86 0 47-30 86-67 86z m34-491l-69 0c-6 0-10 5-10 11l0 303c0 6 4 11 10 11 6 0 11-5 11-11l0-293 48 0 0 293c0 6 4 11 10 11 6 0 11-5 11-11l0-303c0-6-5-11-11-11z"/>
<glyph unicode="&#41;" d="M254 188c-6 0-11 5-11 11l0 208c0 5 5 10 11 10 6 0 11-5 11-10l0-208c0-6-5-11-11-11z m-57-43c-19 0-33 8-38 21-7 20 10 44 39 55 9 3 19 5 28 5 18 0 32-8 37-21 7-19-10-43-39-54-9-4-18-6-27-6z m29 60c-7 0-13-1-20-4-20-7-29-21-27-27 3-7 21-9 38-3 19 7 28 21 26 27-1 4-8 7-17 7z m118 93c-6 0-11 4-11 9-2 22-11 45-25 61-11 13-37 29-52 28-6-1-11 4-11 10-1 6 4 11 10 11 25 1 57-20 70-35 16-19 27-46 29-73 1-5-4-11-9-11-1 0-1 0-1 0z m0-85c-6 0-11 4-11 9-2 22-11 45-25 61-11 13-36 29-52 28-6-1-11 4-11 10-1 6 4 11 10 11 25 1 57-20 70-35 16-19 27-46 29-73 1-6-4-11-9-11-1 0-1 0-1 0z m157 274l-490 0c-6 0-11 4-11 10 0 6 5 11 11 11l490 0c6 0 11-5 11-11 0-6-5-10-11-10z m-79-385l-332 0c-30 0-54 24-54 53l0 295c0 6 5 11 11 11l418 0c6 0 11-5 11-11l0-295c0-29-24-53-54-53z m-364 338l0-285c0-18 14-32 32-32l332 0c18 0 32 14 32 32l0 285z m95-436c-2 0-3 0-5 1-5 3-7 9-5 15l47 88c2 6 9 8 14 5 5-3 7-9 5-14l-47-89c-2-4-5-6-9-6z m206 0c-4 0-7 2-9 6l-47 89c-2 5 0 11 5 14 5 3 12 1 14-5l47-88c2-6 0-12-5-15-2-1-3-1-5-1z"/>
<glyph unicode="&#42;" d="M501 465l-490 0c-6 0-11 5-11 11 0 6 5 11 11 11l490 0c6 0 11-5 11-11 0-6-5-11-11-11z m-79-342l-332 0c-30 0-54 24-54 53l0 253c0 6 5 11 11 11l418 0c6 0 11-5 11-11l0-253c0-29-24-53-54-53z m-364 295l0-242c0-17 14-32 32-32l332 0c18 0 32 15 32 32l0 242z m95-393c-2 0-3 1-5 2-5 2-7 9-5 14l47 89c2 5 9 7 14 4 5-2 7-9 5-14l-47-89c-2-4-5-6-9-6z m206 0c-4 0-7 2-9 6l-47 89c-2 5 0 12 5 14 5 3 12 1 14-4l47-89c2-5 0-12-5-14-2-1-3-2-5-2z"/>
<glyph unicode="&#43;" d="M256 68c-108 0-196 89-196 197 0 108 88 196 196 196 108 0 196-88 196-196 0-108-88-197-196-197z m0 372c-97 0-175-79-175-175 0-97 78-175 175-175 97 0 175 78 175 175 0 96-78 175-175 175z m0-241c-37 0-66 29-66 66 0 37 29 66 66 66 37 0 66-29 66-66 0-37-29-66-66-66z m0 111c-25 0-45-20-45-45 0-25 20-45 45-45 25 0 45 20 45 45 0 25-20 45-45 45z m0 142c-6 0-11 5-11 11l0 38c0 6 5 11 11 11 6 0 11-5 11-11l0-38c0-6-5-11-11-11z m170-452l-340 0c-4 0-8 2-9 5-2 4-2 8 0 11l62 101c3 5 9 6 14 3 5-3 7-9 4-14l-52-85 302 0-51 85c-4 5-2 11 3 14 5 3 12 2 15-3l62-101c2-3 2-7 0-11-2-3-6-5-10-5z"/>
<glyph unicode="&#44;" d="M108 273c-59 0-108 49-108 109 0 59 49 108 108 108 60 0 109-49 109-108 0-60-49-109-109-109z m0 196c-48 0-87-39-87-87 0-49 39-88 87-88 49 0 88 39 88 88 0 48-39 87-88 87z m0-154c-36 0-66 30-66 67 0 36 30 66 66 66 37 0 67-30 67-66 0-37-30-67-67-67z m0 112c-25 0-45-20-45-45 0-26 20-46 45-46 26 0 46 20 46 46 0 25-20 45-46 45z m82-405l-163 0c-6 0-11 5-11 11l0 292c0 6 5 11 11 11 6 0 11-5 11-11l0-282 141 0 0 282c0 6 5 11 11 11 6 0 11-5 11-11l0-292c0-6-5-11-11-11z m-82 54c-5 0-10 5-10 10l0 28c0 6 5 11 10 11 6 0 11-5 11-11l0-28c0-5-5-10-11-10z m349-21l-168 0c-30 0-54 22-54 49l0 119c0 28 24 50 54 50l168 0c31 0 55-22 55-50l0-119c0-27-24-49-55-49z m-168 197c-18 0-33-13-33-29l0-119c0-15 15-28 33-28l168 0c19 0 34 13 34 28l0 119c0 16-15 29-34 29z"/>
<glyph unicode="&#45;" d="M440 22c-36 0-68 27-99 53-29 24-57 47-84 47-29 0-63-25-96-49-34-25-67-49-98-49-9 0-17 2-25 6-27 15-35 59-37 83-5 52 6 120 36 143 41 33 123 52 219 52 96 0 178-19 219-52 29-23 41-92 36-146-3-24-11-66-38-80-10-5-22-8-33-8z m-183 121c35 0 67-26 98-52 28-23 57-48 85-48 8 0 16 2 24 6 13 7 22 30 25 63 6 53-7 112-27 128-37 28-116 46-206 46-90 0-169-18-206-46-20-16-32-73-28-125 3-34 13-59 26-66 5-2 10-3 15-3 24 0 55 22 85 44 36 26 73 53 109 53z m165-41c-5 0-10 4-10 10l0 74c0 6 5 11 10 11 6 0 11-5 11-11l0-74c0-6-5-10-11-10z m37 37l-74 0c-5 0-10 4-10 10 0 6 5 11 10 11l74 0c6 0 11-5 11-11 0-6-5-10-11-10z m-183 75l-40 0c-6 0-11 5-11 11 0 6 5 10 11 10l40 0c6 0 11-4 11-10 0-6-5-11-11-11z m-20 73c-6 0-11 4-11 10l0 15c0 9 1 19 0 28 0 6-1 8-1 8-2 2-12 1-18 0-5 0-11-1-18-1 0 0 0 0 0 0l-5 0c-30 0-60 0-89 2-34 2-75 11-84 41-4 15-3 28 4 38 14 20 44 22 69 23 5 0 9 1 13 1 9 1 17 2 26 3 32 3 65 6 95 12 5 1 11 2 16 3 19 3 37 6 50 17 4 4 11 4 15-1 4-4 3-11-1-15-18-16-40-19-60-22-5-1-11-2-16-3-31-6-65-9-97-13-9 0-17-1-25-2-5-1-10-1-15-1-19-1-45-3-52-14-4-4-4-11-1-20 4-14 28-24 64-26 29-2 59-2 88-2l5 0c0 0 0 0 0 0 5 0 11 1 16 1 12 2 24 4 33-4 6-5 9-13 10-24 0-10 0-20 0-29l0-15c0-6-5-10-11-10z m-176-96c0-8-6-14-14-14-8 0-14 6-14 14 0 7 6 14 14 14 8 0 14-7 14-14z m71 0c0-8-6-14-14-14-8 0-14 6-14 14 0 7 6 14 14 14 8 0 14-7 14-14z m-71-64c0-8-6-14-14-14-8 0-14 6-14 14 0 7 6 14 14 14 8 0 14-7 14-14z m71 0c0-8-6-14-14-14-8 0-14 6-14 14 0 7 6 14 14 14 8 0 14-7 14-14z"/>
<glyph unicode="&#46;" d="M64 430l-53 0c-6 0-11 5-11 11 0 5 5 10 11 10l53 0c6 0 10-5 10-10 0-6-4-11-10-11z m146 0l-53 0c-6 0-11 5-11 11 0 5 5 10 11 10l53 0c5 0 10-5 10-10 0-6-5-11-10-11z m145 0l-53 0c-5 0-10 5-10 11 0 5 5 10 10 10l53 0c6 0 11-5 11-10 0-6-5-11-11-11z m146 0l-53 0c-6 0-10 5-10 11 0 5 4 10 10 10l53 0c6 0 11-5 11-10 0-6-5-11-11-11z m-437-369l-53 0c-6 0-11 5-11 10 0 6 5 11 11 11l53 0c6 0 10-5 10-11 0-5-4-10-10-10z m146 0l-53 0c-6 0-11 5-11 10 0 6 5 11 11 11l53 0c5 0 10-5 10-11 0-5-5-10-10-10z m145 0l-53 0c-5 0-10 5-10 10 0 6 5 11 10 11l53 0c6 0 11-5 11-11 0-5-5-10-11-10z m146 0l-53 0c-6 0-10 5-10 10 0 6 4 11 10 11l53 0c6 0 11-5 11-11 0-5-5-10-11-10z m-413 87l-75 0c-6 0-11 5-11 11 0 6 5 10 11 10l75 0c15 0 28 15 28 32l0 109c0 18-13 32-28 32l-75 0c-6 0-11 5-11 11 0 6 5 11 11 11l75 0c27 0 49-24 49-54l0-109c0-29-22-53-49-53z m371 0l-195 0c-29 0-53 24-53 53l0 109c0 30 24 54 53 54l195 0c29 0 53-24 53-54l0-109c0-29-24-53-53-53z m-195 194c-17 0-32-14-32-32l0-109c0-17 15-32 32-32l195 0c17 0 32 15 32 32l0 109c0 18-15 32-32 32z m237 144l-490 0c-6 0-11 5-11 11 0 6 5 11 11 11l490 0c6 0 11-5 11-11 0-6-5-11-11-11z m0-482l-490 0c-6 0-11 5-11 11 0 6 5 11 11 11l490 0c6 0 11-5 11-11 0-6-5-11-11-11z"/>
<glyph unicode="&#47;" d="M501 51l-490 0c-6 0-11 5-11 11l0 388c0 6 5 11 11 11l490 0c6 0 11-5 11-11l0-388c0-6-5-11-11-11z m-480 22l470 0 0 366-470 0z m417 294l-44 0c-6 0-11 5-11 11 0 6 5 10 11 10l44 0c6 0 11-4 11-10 0-6-5-11-11-11z m0-64l-44 0c-6 0-11 5-11 11 0 6 5 10 11 10l44 0c6 0 11-4 11-10 0-6-5-11-11-11z m-6-153c0-9-7-16-16-16-9 0-16 7-16 16 0 9 7 16 16 16 9 0 16-7 16-16z m0 81c0-9-7-16-16-16-9 0-16 7-16 16 0 8 7 16 16 16 9 0 16-8 16-16z m-239-119c-80 0-144 65-144 144 0 79 64 144 144 144 79 0 144-65 144-144 0-79-65-144-144-144z m0 267c-68 0-123-55-123-123 0-68 55-123 123-123 67 0 122 55 122 123 0 68-55 123-122 123z m-85-166c-5 0-9 3-11 8-9 28-6 57 7 84 14 26 36 45 64 54 6 2 12-1 14-7 1-6-2-12-7-13-23-8-41-23-52-44-11-21-13-45-5-68 2-5-2-11-7-13-1 0-2-1-3-1z m85 0c-24 0-43 20-43 43 0 23 19 43 43 43 23 0 42-20 42-43 0-23-19-43-42-43z m0 64c-12 0-22-9-22-21 0-12 10-21 22-21 11 0 21 9 21 21 0 12-10 21-21 21z m67-62c-4 0-8 2-10 6-2 6 0 12 6 14l38 18 40 139c2 6 8 9 13 8 6-2 9-8 8-14l-42-144c-1-3-3-5-6-6l-42-20c-2-1-3-1-5-1z"/>
<glyph unicode="&#58;" d="M228 132c-6 0-10 4-10 10l0 114c0 6 4 11 10 11l105 0c6 0 11-5 11-11l0-84c0-6-5-11-11-11-6 0-10 5-10 11l0 73-84 0 0-103c0-6-5-10-11-10z m-33-24c0 0 0 0 0 0-13 0-22 6-26 15-2 5-1 11 1 16 4 9 13 16 25 20 5 2 11 3 17 3 13 0 22-5 26-14 2-5 1-11-1-16-4-9-13-16-25-20-5-2-11-4-17-4z m-5 23c1-1 2-1 5-1 3 0 7 0 10 2 7 2 11 6 12 8-2 1-9 1-15-1-7-2-11-6-12-8z m110 8c-13 0-22 5-26 14-2 6-1 11 1 17 4 8 13 16 25 20 5 2 11 3 17 3 13 0 22-6 26-15 2-5 1-10-1-16-4-8-13-16-25-20-5-2-11-3-17-3z m-5 22c1 0 2-1 5-1 3 0 7 1 10 2 7 3 11 7 12 9-2 1-9 1-15-1-7-3-11-7-12-9z m35 43l-101 0c-6 0-11 5-11 11 0 6 5 11 11 11l101 0c6 0 10-5 10-11 0-6-4-11-10-11z m106-204l-360 0c-6 0-11 5-11 11l0 365c0 3 2 6 3 7l124 126c2 2 5 3 8 3l236 0c6 0 11-5 11-11l0-490c0-6-5-11-11-11z m-349 21l338 0 0 470-221 0-117-119z m280 360c-6 0-11 5-11 11l0 64c0 6 5 11 11 11 6 0 10-5 10-11l0-64c0-6-4-11-10-11z m-63 0c-6 0-11 5-11 11l0 64c0 6 5 11 11 11 6 0 11-5 11-11l0-64c0-6-5-11-11-11z m-63 0c-6 0-10 5-10 11l0 64c0 6 4 11 10 11 6 0 11-5 11-11l0-64c0-6-5-11-11-11z m140-325l-250 0c-6 0-10 5-10 11l0 241c0 6 4 11 10 11l250 0c6 0 10-5 10-11l0-241c0-6-4-11-10-11z m-239 21l228 0 0 221-228 0z"/>
<glyph unicode="&#59;" d="M499 0l-486 0c-6 0-11 5-11 11l0 51c0 37 30 67 67 67l374 0c37 0 67-30 67-67l0-51c0-6-5-11-11-11z m-476 21l466 0 0 41c0 25-21 45-46 45l-374 0c-25 0-46-20-46-45z m122 334c-43 0-78 35-78 78 0 44 35 79 78 79 44 0 79-35 79-79 0-43-35-78-79-78z m0 136c-31 0-57-26-57-58 0-31 26-57 57-57 32 0 58 26 58 57 0 32-26 58-58 58z m35-384c-6 0-11 5-11 11l0 254c0 6 5 10 11 10 6 0 10-4 10-10l0-254c0-6-4-11-10-11z m-69 0c-6 0-11 5-11 11l0 254c0 6 5 10 11 10 6 0 11-4 11-10l0-254c0-6-5-11-11-11z m283 52l-74 0c-6 0-10 5-10 11 0 6 4 11 10 11l74 0c6 0 10-5 10-11 0-6-4-11-10-11z"/>
<glyph unicode="&#60;" d="M129 90c-6 0-11 5-11 11l0 208c0 6 5 11 11 11 6 0 10-5 10-11l0-208c0-6-4-11-10-11z m30 56l-61 0c-6 0-11 5-11 11 0 6 5 10 11 10l61 0c6 0 11-4 11-10 0-6-5-11-11-11z m89-56c-6 0-11 5-11 11l0 208c0 6 5 11 11 11 6 0 11-5 11-11l0-208c0-6-5-11-11-11z m31 128l-62 0c-6 0-10 4-10 10 0 6 4 11 10 11l62 0c6 0 10-5 10-11 0-6-4-10-10-10z m88-128c-6 0-10 5-10 11l0 208c0 6 4 11 10 11 6 0 11-5 11-11l0-208c0-6-5-11-11-11z m31 89l-61 0c-6 0-11 5-11 11 0 6 5 10 11 10l61 0c6 0 11-4 11-10 0-6-5-11-11-11z m-268 234c0-9-7-16-16-16-9 0-16 7-16 16 0 9 7 16 16 16 9 0 16-7 16-16z m93 0c0-9-7-16-16-16-9 0-16 7-16 16 0 9 7 16 16 16 9 0 16-7 16-16z m92 0c0-9-7-16-16-16-8 0-16 7-16 16 0 9 8 16 16 16 9 0 16-7 16-16z m93 0c0-9-7-16-16-16-9 0-16 7-16 16 0 9 7 16 16 16 9 0 16-7 16-16z m94-393c-1 0-1 0-1 0l-490 0c-3 0-6 2-8 4-2 2-3 5-3 8l43 450c0 5 5 10 10 10l395 0c5 0 10-5 11-10l53-447c0-2 0-3 0-4 0-6-5-11-10-11z m-480 22l467 0-50 428-376 0z"/>
<glyph unicode="&#61;" d="M309 174l-132 0c-6 0-10 5-10 11 0 6 4 10 10 10l132 0c6 0 11-4 11-10 0-6-5-11-11-11z m15-56c-13 0-26 12-33 29-8 21-2 41 13 47 14 5 32-7 39-28 4-9 5-18 3-26-2-10-7-18-15-21-2 0-5-1-7-1z m-13 56c-1-1-4-9 0-20 4-10 11-14 13-14l0 0c1 0 3 8-1 19-4 10-10 15-12 15z m-134 1c-5 0-10 4-10 10-1 18 13 39 23 48 5 4 12 4 16-1 3-4 3-11-2-15-7-6-17-22-16-31 0-6-4-11-10-11 0 0-1 0-1 0z m54 0c-5 0-10 4-10 10-1 18 13 39 23 48 5 4 12 4 16-1 3-4 3-11-2-15-7-6-17-22-16-31 0-6-4-11-10-11 0 0-1 0-1 0z m158-175l-266 0c-6 0-10 5-10 11l0 345c0 6 4 10 10 10l266 0c6 0 10-4 10-10l0-345c0-6-4-11-10-11z m-255 21l244 0 0 324-244 0z m225 328c-6 0-11 5-11 11l0 131-184 0 0-131c0-6-5-11-11-11-6 0-11 5-11 11l0 141c0 6 5 11 11 11l206 0c6 0 11-5 11-11l0-141c0-6-5-11-11-11z m-149 49c-6 0-11 5-11 11l0 43c0 6 5 11 11 11 6 0 11-5 11-11l0-43c0-6-5-11-11-11z m92-3c-6 0-11 5-11 11l0 50c0 6 5 10 11 10 6 0 11-4 11-10l0-50c0-6-5-11-11-11z"/>
<glyph unicode="&#62;" d="M295 20c-87 0-158 71-158 159 0 87 71 158 158 158 87 0 158-71 158-158 0-88-71-159-158-159z m0 295c-75 0-137-61-137-136 0-76 62-137 137-137 76 0 137 61 137 137 0 75-61 136-137 136z m-118-54c0 0-1 0-1 0-6 1-10 7-9 13 1 5 25 132 96 180 5 3 12 2 15-3 4-5 2-12-3-15-64-43-87-165-87-166-1-5-5-9-11-9z m118-241c0 0 0 0 0 0-302 8-295 422-295 426 0 36 88 46 140 46 52 0 137-17 142-40 1-5 0-12-8-16-113-56-214-23-252-7 2-76 26-381 273-387 6 0 11-5 11-11 0-6-5-11-11-11z m-269 430c30-13 123-46 227 0-20 9-65 20-113 20-64 0-101-11-114-20z m392-363c-2 0-5 1-7 3-4 4-4 11 0 15l83 83c4 4 11 4 15 0 4-4 4-11 0-15l-83-83c-2-2-5-3-8-3z m-172-50c-6 0-11 5-11 11l0 38c0 6 5 11 11 11 6 0 10-5 10-11l0-38c0-6-4-11-10-11z m49-10c-6 0-10 5-10 11l0 48c0 6 4 11 10 11 6 0 11-5 11-11l0-48c0-6-5-11-11-11z m50 10c-6 0-11 5-11 11l0 38c0 6 5 11 11 11 6 0 10-5 10-11l0-38c0-6-5-11-10-11z m17 141l-116 0c-6 0-11 5-11 11l0 57c0 6 5 11 11 11l116 0c5 0 10-5 10-11l0-57c0-6-5-11-10-11z m-106 22l95 0 0 35-95 0z m187-22l-246 0c-5 0-10 5-10 11 0 6 5 11 10 11l246 0c6 0 10-5 10-11 0-6-4-11-10-11z"/>
<glyph unicode="&#63;" d="M240 13c-2 0-4 1-6 2l-152 121c-3 2-4 5-4 8l0 224c0 3 1 6 4 8l147 121c4 3 11 3 15-2 4-4 3-11-2-15l-143-117 0-214 148-117c5-4 6-10 2-15-2-3-5-4-9-4z m-152 120l-77 0c-6 0-11 5-11 11l0 224c0 6 5 11 11 11l77 0c6 0 11-5 11-11 0-6-5-11-11-11l-67 0 0-202 67 0c6 0 11-5 11-11 0-6-5-11-11-11z m288-17c0 0-1 0-2 0-6 1-9 7-8 13l45 227c2 6 7 10 13 9 6-1 10-7 8-13l-45-227c-1-5-6-9-11-9z m-59-35c-29 0-50 13-53 32-3 22 21 44 55 50 5 0 10 1 15 1 28 0 49-13 52-32 2-12-3-24-15-33-10-9-24-14-39-17-5-1-10-1-15-1z m17 61c-4 0-8 0-12-1-22-3-38-16-36-25 1-7 13-14 31-14 4 0 8 1 11 1 12 2 22 6 30 12 5 5 8 10 7 14-1 6-13 13-31 13z m167 74c-1 0-1 0-1 0-6 1-11 6-10 12 3 25-3 52-14 72-10 18-36 41-54 43-6 1-10 7-9 12 0 6 6 10 12 9 28-4 58-34 69-53 14-25 20-56 17-85 0-6-5-10-10-10z m-19-93c0 0-1 0-1 0-6 1-10 6-10 12 3 24-2 52-14 72-9 17-36 41-54 43-6 1-10 7-9 12 1 6 6 10 12 9 28-4 59-34 70-54 13-24 20-56 17-85-1-5-6-9-11-9z m-224-116c-56 0-101 109-101 249 0 140 45 249 101 249 57 0 101-109 101-249 0-37-3-72-9-105-1-6-6-10-12-9-6 1-10 7-9 13 6 31 9 66 9 101 0 134-42 228-80 228-37 0-79-94-79-228 0-134 42-228 79-228 19 0 38 22 53 59 2 6 8 8 14 6 5-2 8-8 6-14-19-46-45-72-73-72z m-24 173c-5 0-9 4-11 8-1 6 2 12 8 13 24 7 41 30 41 55 0 25-17 48-41 55-6 1-9 7-8 13 2 5 8 9 14 7 33-9 57-40 57-75 0-35-24-66-57-75-1 0-2-1-3-1z"/>
<glyph unicode="&#64;" d="M242 187c-33 0-63 14-82 40l-3 4c-35 45-27 111 18 146l148 113c18 15 40 22 63 22 33 0 63-15 82-40l3-4c35-46 27-111-18-146l-148-114c-18-14-40-21-63-21z m144 304c-18 0-36-6-50-17l-148-114c-36-28-42-80-15-116l4-4c15-20 39-32 65-32 18 0 36 6 50 17l148 114c36 28 42 80 15 116l-4 4c-15 20-39 32-65 32z m49-180c-4 0-7 1-9 4l-24 31c-3 5-2 11 2 15 5 3 12 3 15-2l24-31c4-5 3-11-2-15-2-1-4-2-6-2z m-56-43c-4 0-7 1-9 4l-24 31c-3 4-2 11 2 15 5 3 12 2 15-2l24-31c4-5 3-12-2-15-2-2-4-2-6-2z m-56-44c-3 0-7 2-9 5l-24 31c-3 4-2 11 2 15 5 3 12 2 15-2l24-31c4-5 3-12-2-15-2-2-4-3-6-3z m18 207c-3 0-6 2-8 5l-24 30c-3 5-3 12 2 15 5 4 11 3 15-1l24-31c4-5 3-12-2-15-2-2-4-3-7-3z m-55-43c-4 0-7 2-9 4l-24 31c-3 5-2 12 2 15 5 4 12 3 15-2l24-31c4-4 3-11-2-15-2-1-4-2-6-2z m-56-43c-4 0-7 2-9 4l-24 31c-3 5-2 12 2 15 5 4 12 3 15-2l24-31c4-4 3-11-2-15-2-1-4-2-6-2z m-110-165c-3 0-6 2-8 5-4 4-3 11 2 14l47 37c4 3 11 2 15-2 3-5 2-12-2-15l-47-36c-2-2-4-3-7-3z m0-165c-5 0-10 5-10 11l0 164c0 6 5 10 10 10 6 0 11-4 11-10l0-164c0-6-5-11-11-11z m91-15l-181 0c-6 0-11 5-11 11 0 6 5 10 11 10l181 0c6 0 11-4 11-10 0-6-5-11-11-11z"/>
<glyph unicode="&#91;" d="M256 420c-21 0-204 1-204 46 0 45 183 46 204 46 21 0 204-1 204-46 0-45-183-46-204-46z m-181 46c11-9 72-25 181-25 109 0 170 16 181 25-11 9-72 25-181 25-109 0-170-16-181-25z m181-466c-27 0-54 3-74 10-6 1-9 7-7 13 2 6 8 9 13 7 19-6 43-9 68-9 30 0 57 5 76 12 6 2 12 0 14-6 2-5-1-12-6-14-21-8-52-13-84-13z m-71 9c-4 0-8 3-10 7l-92 242c-1 0-1 1-1 2l-30 198c-1 6 3 12 9 13 6 1 11-4 12-9l30-198 92-240c2-6 0-12-6-14-1 0-2-1-4-1z m151 3c-1 0-2 1-4 1-5 2-8 8-6 14l82 232 31 203c1 5 6 9 12 9 6-1 10-7 9-13l-31-203c0-1 0-1 0-2l-83-233c-1-5-6-8-10-8z m83 234c-4 0-8 2-10 6l-64 150-57-145c-2-3-5-6-10-6-4-1-8 2-10 5l-83 152-83-152c-3-5-9-7-15-4-5 3-7 9-4 14l93 169c2 4 5 6 9 6 4 0 8-2 10-6l81-149 59 148c2 4 6 7 10 7 0 0 0 0 0 0 4 0 8-3 10-7l74-173c2-6-1-12-6-14-1-1-3-1-4-1z"/>
<glyph unicode="&#93;" d="M172 180c-6 0-11 4-11 10l0 165c0 6 4 10 9 11 1 0 75 7 100-74 2-6-1-12-7-14-6-1-12 2-13 7-16 50-51 58-68 60l0-155c0-6-4-10-10-10z m-47-34c-16 0-28 7-32 18-7 17 8 37 33 46 7 3 15 4 23 4 16 0 28-6 32-18 3-8 1-19-7-28-6-7-15-14-26-18-8-3-16-4-23-4z m24 47c-5 0-11-1-16-3-15-5-21-15-20-19 1-2 5-4 12-4 5 0 10 1 16 3 7 3 13 7 17 12 3 3 3 6 3 7-1 2-5 4-12 4z m205-84c-1 0-3 0-4 0-6 0-11 5-11 11l0 272c0 6 5 11 11 11 66 2 124-39 144-102 12-37 9-77-9-112-18-35-48-61-86-73-14-5-29-7-45-7z m7 273l0-252c11 1 21 3 32 6 32 10 58 33 73 63 15 29 18 64 8 96-16 50-61 84-113 87z m-7-169c-2 0-4 0-6 0-5 1-9 5-9 11l0 64c0 6 4 10 10 11 20 3 40-10 46-30 8-22-5-47-28-54-4-2-8-2-13-2z m7 64l0-42c0 0 0 0 0 0 11 4 18 16 14 28-2 7-8 12-14 14z m-11-207l-329 0c-6 0-10 5-10 11l0 350c0 6 4 11 10 11l329 0c6 0 11-5 11-11l0-350c0-6-5-11-11-11z m-318 22l307 0 0 328-307 0z"/>
<glyph unicode="&#94;" d="M380 0l-248 0c-6 0-11 5-11 11l0 490c0 6 5 11 11 11l248 0c6 0 11-5 11-11l0-490c0-6-5-11-11-11z m-237 21l226 0 0 470-226 0z m185 143l-144 0c-6 0-11 5-11 11l0 275c0 6 5 11 11 11l144 0c6 0 11-5 11-11l0-275c0-6-5-11-11-11z m-134 22l124 0 0 254-124 0z m77 96c-3 0-6 1-8 3l-29 29c-5 5-5 11 0 16 4 4 11 4 15 0l29-30c5-4 5-11 0-15-2-2-4-3-7-3z m-30-31c-3 0-5 1-7 3-5 4-5 11 0 15l29 30c4 4 11 4 15 0 5-5 5-11 0-15l-29-30c-2-2-5-3-8-3z m230-174c-23 0-42 18-42 41 0 23 19 42 42 42 22 0 41-19 41-42 0-23-19-41-41-41z m0 61c-11 0-20-9-20-20 0-11 9-20 20-20 11 0 20 9 20 20 0 11-9 20-20 20z m1 3c-5 0-9 3-10 7-5 15-15 33-24 49-11 20-26 39-43 53-5 4-10 8-15 11-5 3-6 9-3 14 3 5 9 7 14 4 6-4 12-8 18-13 19-15 36-36 48-58 10-18 20-37 25-53 2-6-2-12-7-14-1 0-2 0-3 0z m-431-64c-22 0-41 18-41 41 0 23 19 42 41 42 23 0 42-19 42-42 0-23-19-41-42-41z m0 61c-11 0-20-9-20-20 0-11 9-20 20-20 11 0 20 9 20 20 0 11-9 20-20 20z m-1 3c-1 0-2 0-3 0-6 2-9 8-7 14 5 16 15 35 25 53 16 29 40 55 66 71 5 3 11 1 14-4 3-5 2-11-3-14-22-14-44-37-58-64-10-17-19-34-24-49-1-4-5-7-10-7z m216-100c-23 0-41 19-41 42 0 22 18 41 41 41 23 0 41-19 41-41 0-23-18-42-41-42z m0 62c-11 0-20-9-20-20 0-11 9-20 20-20 11 0 20 9 20 20 0 11-9 20-20 20z"/>
<glyph unicode="&#95;" d="M460 75l-435 0c-6 0-10 5-10 11l0 95c0 6 4 11 10 11l435 0c6 0 10-5 10-11l0-95c0-6-4-11-10-11z m-424 22l413 0 0 74-413 0z m393 74c-3 0-6 1-8 4-4 4-3 11 1 15 34 28 54 70 54 114 0 82-67 149-149 149-6 0-11 5-11 11 0 6 5 11 11 11 94 0 170-77 170-171 0-50-22-98-61-131-2-1-4-2-7-2z m-190 0c-4 0-8 2-10 6l-149 320c-2 3-1 7 1 10 2 3 5 5 9 5l105 0c6 0 10-5 10-11 0-6-4-10-10-10l-89 0 142-305c3-5 1-12-5-14-1-1-3-1-4-1z m71 282c-20 0-35 4-55 11-11 4-22 9-33 15-9 5-18 9-27 12-5 2-8 8-6 14 2 6 8 8 14 6 9-3 19-8 29-13 10-5 20-11 30-14 22-8 38-11 61-9 6 1 11-4 12-10 0-5-4-11-10-11-5-1-10-1-15-1z m-172-282c-1 0-3 0-5 1-5 3-7 10-4 15l116 198c3 5 10 7 15 4 5-3 7-10 4-15l-116-198c-2-3-6-5-10-5z m240-171c-6 0-11 5-11 11l0 75c0 6 5 11 11 11 6 0 11-5 11-11l0-75c0-6-5-11-11-11z m-271 0c-6 0-10 5-10 11l0 75c0 6 4 11 10 11 6 0 11-5 11-11l0-75c0-6-5-11-11-11z"/>
<glyph unicode="&#96;" d="M267 384c-35 0-63 29-63 64 0 35 28 64 63 64 35 0 64-29 64-64 0-35-29-64-64-64z m0 107c-23 0-42-19-42-43 0-23 19-42 42-42 24 0 43 19 43 42 0 24-19 43-43 43z m-116-491c-48 0-86 39-86 87 0 47 38 86 86 86 48 0 87-39 87-86 0-48-39-87-87-87z m0 152c-36 0-65-29-65-65 0-36 29-66 65-66 36 0 66 30 66 66 0 36-30 65-66 65z m0-94c-16 0-29 13-29 29 0 16 13 29 29 29 16 0 29-13 29-29 0-16-13-29-29-29z m0 36c-4 0-7-3-7-7 0-4 3-8 7-8 4 0 8 4 8 8 0 4-4 7-8 7z m251-81l-126 0c-6 0-10 5-10 11l0 126c0 6 4 10 10 10l126 0c6 0 11-4 11-10l0-126c0-6-5-11-11-11z m-115 21l105 0 0 105-105 0z m66 159c-6 0-10 4-10 10l0 107c0 12-10 22-22 22l-107 0c-12 0-22-10-22-22l0-107c0-6-5-10-11-10-5 0-10 4-10 10l0 107c0 24 19 43 43 43l107 0c23 0 43-19 43-43l0-107c0-6-5-10-11-10z m-254-7c-2 0-4 1-6 2-5 4-6 10-3 15l83 118c3 4 10 6 15 2 4-3 6-10 2-15l-82-117c-2-3-6-5-9-5z m338 0c-4 0-7 2-9 5l-82 117c-4 5-2 12 2 15 5 4 12 2 15-2l83-118c3-5 2-11-3-15-2-1-4-2-6-2z"/>
<glyph unicode="&#123;" d="M50 258c-5 0-10 4-11 9-1 9-1 18-1 27 0 120 98 218 218 218 120 0 218-98 218-218 0-9 0-18-2-27 0-6-6-10-11-9-6 0-10 6-10 12 1 8 2 16 2 24 0 108-88 197-197 197-109 0-197-89-197-197 0-8 1-16 2-25 0-5-4-11-10-11 0 0-1 0-1 0z m398 55c-5 0-10 4-10 9-1 6 3 11 9 12l26 3c6 1 11-4 12-9 0-6-4-12-10-12l-26-3c0 0 0 0-1 0z m-385-1c-1 0-1 0-2 1l-25 3c-6 0-11 6-10 11 1 6 6 10 12 10l26-3c6-1 10-6 9-12-1-6-5-10-10-10z m20-149c-34 0-62 27-62 61 0 34 28 62 62 62 0 0 1 0 1 0 6 0 10-5 10-11l0-102c0-6-4-10-10-10z m-10 100c-18-4-31-20-31-39 0-19 13-34 31-39z m356-100c0 0-1 0-1 0-6 0-10 5-10 10l0 102c0 6 4 11 10 11 0 0 1 0 1 0 34 0 62-28 62-62 0-34-28-61-62-61z m10 100l0-78c18 5 31 20 31 39 0 19-13 35-31 39z m-183-100c-40 0-73 32-73 72 0 40 33 73 73 73 40 0 73-33 73-73 0-40-33-72-73-72z m0 124c-28 0-51-23-51-52 0-28 23-51 51-51 28 0 51 23 51 51 0 29-23 52-51 52z m164-287l-328 0c-3 0-6 2-8 4-2 3-3 7-2 10 25 76 94 127 174 127 80 0 149-51 174-127 1-3 0-7-2-10-2-2-5-4-8-4z m-312 21l296 0c-25 60-83 98-148 98-65 0-123-38-148-98z"/>
<glyph unicode="&#124;" d="M395 244c-3 0-7 2-9 5l-144 233c-4 5-2 11 3 14 5 3 12 2 15-3l144-232c3-5 2-12-3-15-2-1-4-2-6-2z m-62-97c-8 0-15 3-21 7-11 8-15 22-13 39 2 15 9 31 20 45 16 22 39 35 58 35 8 0 16-2 22-7 20-16 17-53-8-84-16-21-38-35-58-35z m44 105c-10 0-27-8-41-27-9-11-15-23-16-34-1-9 1-17 5-20 2-2 5-2 8-2 11 0 27 8 42 26 17 22 20 47 10 54-2 2-4 3-8 3z m44 179c-3 0-6 1-8 4-18 24-45 43-72 51-23 8-64 6-83-7-5-3-12-2-15 3-3 5-2 11 3 15 24 17 73 19 102 10 30-10 61-32 82-59 3-5 2-11-2-15-2-2-4-2-7-2z m60-95c-4 0-7 1-9 4-18 24-45 43-72 51-23 8-64 6-83-7-5-3-11-2-15 3-3 5-2 11 3 15 25 17 73 19 102 10 30-10 61-32 82-59 4-5 3-11-2-15-2-2-4-2-6-2z m-179-336l-270 0c-6 0-11 5-11 11l0 447c0 6 5 11 11 11l233 0c6 0 11-5 11-11 0-5-5-10-11-10l-223 0 0-427 250 0 0 373c0 6 4 10 10 10 6 0 11-4 11-10l0-383c0-6-5-11-11-11z m-56 185l-158 0c-6 0-10 4-10 10l0 201c0 6 4 11 10 11l158 0c5 0 10-5 10-11l0-201c0-6-5-10-10-10z m-147 21l136 0 0 180-136 0z m68-158c-22 0-40 18-40 40 0 22 18 40 40 40 22 0 40-18 40-40 0-22-18-40-40-40z m0 58c-10 0-19-8-19-18 0-11 9-19 19-19 10 0 18 8 18 19 0 10-8 18-18 18z"/>
<glyph unicode="&#125;" d="M328 124l-317 0c-6 0-11 5-11 11l0 303c0 6 5 11 11 11l317 0c6 0 10-5 10-11 0-6-4-11-10-11l-307 0 0-281 307 0c6 0 10-5 10-11 0-6-4-11-10-11z m173-72l-172 0c-6 0-11 5-11 11l0 386c0 6 5 11 11 11l172 0c6 0 11-5 11-11l0-386c0-6-5-11-11-11z m-161 21l151 0 0 366-151 0z m121 300l-92 0c-6 0-10 5-10 11 0 6 4 11 10 11l92 0c6 0 11-5 11-11 0-6-5-11-11-11z m-46-251c-6 0-10 5-10 11l0 36c0 6 4 11 10 11 6 0 11-5 11-11l0-36c0-6-5-11-11-11z m-181-54c-1 0-3 1-4 1-14 6-28 24-32 29-6 8-11 23-10 34 0 6 5 10 11 10 6-1 10-6 10-12-1-4 3-14 6-19 8-11 17-20 23-22 5-2 8-8 6-14-2-4-6-7-10-7z m-125 3c-5 0-9 3-10 7-2 5 0 12 6 14 6 2 15 11 22 22 4 5 7 14 7 19-1 6 4 11 10 11 6 1 11-3 11-9 1-11-4-26-10-34-4-5-18-24-32-29-2-1-3-1-4-1z m167 125l-209 0c-6 0-11 5-11 10l0 177c0 6 5 11 11 11l209 0c6 0 11-5 11-11l0-177c0-5-5-10-11-10z m-199 21l188 0 0 155-188 0z m102-57l-15 0c-6 0-11 4-11 10 0 6 5 11 11 11l15 0c6 0 11-5 11-11 0-6-5-10-11-10z m52-92l-125 0c-6 0-11 5-11 11 0 6 5 11 11 11l125 0c5 0 10-5 10-11 0-6-5-11-10-11z"/>
<glyph unicode="&#126;" d="M485 39l-434 0c-6 0-11 5-11 10l0 132c0 6 5 11 11 11l434 0c6 0 11-5 11-11l0-132c0-5-5-10-11-10z m-423 21l412 0 0 110-412 0z m102-60l-61 0c-6 0-11 5-11 11 0 6 5 10 11 10l61 0c6 0 11-4 11-10 0-6-5-11-11-11z m269 0l-61 0c-6 0-11 5-11 11 0 6 5 10 11 10l61 0c6 0 11-4 11-10 0-6-5-11-11-11z m-33 175c-6 0-11 4-11 10l0 198c0 6 5 11 11 11 5 0 10-5 10-11l0-198c0-6-5-10-10-10z m-106 214c-6 0-11 5-11 11 0 62 50 112 112 112 6 0 11-5 11-11 0-6-5-10-11-10-50 0-91-41-91-91 0-6-4-11-10-11z m48-20c-5 0-10 5-10 10 0 44 35 80 79 80 6 0 10-5 10-11 0-6-4-11-10-11-32 0-58-26-58-58 0-5-5-10-11-10z m-209-194c-6 0-11 4-11 10l0 198c0 6 5 11 11 11 6 0 11-5 11-11l0-198c0-6-5-10-11-10z m-106 214c-6 0-11 5-11 11 0 62 51 112 112 112 6 0 11-5 11-11 0-6-5-10-11-10-50 0-90-41-90-91 0-6-5-11-11-11z m49-20c-6 0-11 5-11 10 0 44 36 80 79 80 6 0 11-5 11-11 0-6-5-11-11-11-32 0-58-26-58-58 0-5-4-10-10-10z m145-263l-66 0c-6 0-11 5-11 11 0 6 5 10 11 10l66 0c6 0 11-4 11-10 0-6-5-11-11-11z m160 0l-66 0c-6 0-10 5-10 11 0 6 4 10 10 10l66 0c6 0 11-4 11-10 0-6-5-11-11-11z"/>
<glyph unicode="&#92;" d="M445 320c0 11-8 19-16 19-9 0-16-8-16-19 0-10 7-19 16-19 8 0 16 9 16 19z m14-204l-71 0c-6 0-10 5-10 11 0 6 4 10 10 10l71 0c17 0 32 15 32 32l0 165c0 17-15 32-32 32l-406 0c-17 0-32-15-32-32l0-165c0-17 15-32 32-32l71 0c6 0 10-4 10-10 0-6-4-11-10-11l-71 0c-29 0-53 24-53 53l0 165c0 29 24 53 53 53l406 0c29 0 53-24 53-53l0-165c0-29-24-53-53-53z m-55-116l-296 0c-3 0-6 1-8 4-2 2-3 5-3 8l22 157c0 5 5 9 10 9l254 0c5 0 10-4 10-9l22-157c0-3-1-6-3-8-2-3-5-4-8-4z m-284 21l272 0-19 136-234 0z m253 345c-6 0-11 4-11 10l0 115-209 0 0-115c0-6-5-10-11-10-6 0-11 4-11 10l0 125c0 6 5 11 11 11l231 0c6 0 10-5 10-11l0-125c0-6-4-10-10-10z"/>
<glyph unicode="&#57344;" d="M501 103l-490 0c-6 0-11 5-11 11l0 376c0 6 5 10 11 10l490 0c6 0 11-4 11-10l0-376c0-6-5-11-11-11z m-480 21l470 0 0 355-470 0z m419 62l-368 0c-6 0-11 5-11 11l0 239c0 6 5 11 11 11l368 0c6 0 11-5 11-11l0-239c0-6-5-11-11-11z m-357 22l346 0 0 217-346 0z m69-196c-2 0-5 1-7 2-4 4-5 11-1 15 31 34 29 84 29 84 0 6 4 11 10 11 6 1 11-4 11-10 0-2 3-59-34-99-2-2-5-3-8-3z m208 0c-3 0-6 1-8 3-37 40-34 97-34 99 0 6 5 11 11 10 6 0 10-5 10-11 0 0-2-50 29-84 4-4 3-11-1-15-2-1-5-2-7-2z m-90 137l-28 0c-6 0-11 5-11 10 0 6 5 11 11 11l28 0c6 0 11-5 11-11 0-5-5-10-11-10z"/>
<glyph unicode="&#57345;" d="M224 143c-49 0-89 40-89 89 0 50 40 90 89 90 50 0 90-40 90-90 0-49-40-89-90-89z m0 158c-37 0-68-31-68-69 0-37 31-68 68-68 38 0 68 31 68 68 0 38-30 69-68 69z m179-205l-358 0c-25 0-45 20-45 45l0 183c0 25 20 45 45 45l358 0c25 0 45-20 45-45l0-23c0-6-4-11-10-11-6 0-11 5-11 11l0 23c0 13-11 24-24 24l-358 0c-13 0-24-11-24-24l0-183c0-13 11-24 24-24l358 0c13 0 24 11 24 24l0 99c0 5 5 10 11 10 6 0 10-5 10-10l0-99c0-25-20-45-45-45z m98 133l-103 0c-6 0-11 5-11 10l0 62c0 6 5 11 11 11l103 0c6 0 11-5 11-11l0-62c0-5-5-10-11-10z m-92 21l82 0 0 40-82 0z m-303 145l-43 0c-6 0-11 5-11 11 0 6 5 10 11 10l43 0c6 0 10-4 10-10 0-6-4-11-10-11z"/>
<glyph unicode="&#57346;" d="M480 89l-448 0c-18 0-32 14-32 32l0 217c0 17 14 32 32 32l56 0c9 0 22 5 29 12l22 23c10 10 29 18 44 18l82 0c15 0 34-8 44-19l21-22c6-6 20-12 29-12l121 0c18 0 32-15 32-32l0-217c0-18-14-32-32-32z m-448 259c-6 0-11-4-11-10l0-217c0-6 5-11 11-11l448 0c6 0 11 5 11 11l0 217c0 6-5 10-11 10l-121 0c-15 0-34 8-44 19l-21 23c-6 6-20 12-29 12l-82 0c-9 0-23-6-29-12l-22-23c-10-11-29-19-44-19z m444 51l-48 0c-6 0-11 4-11 10 0 6 5 11 11 11l48 0c6 0 11-5 11-11 0-6-5-10-11-10z m-258-265c-54 0-98 44-98 98 0 53 44 97 98 97 53 0 97-44 97-97 0-54-44-98-97-98z m0 174c-42 0-76-34-76-76 0-42 34-76 76-76 42 0 76 34 76 76 0 42-34 76-76 76z"/>
<glyph unicode="&#57347;" d="M256 0c-141 0-256 115-256 256 0 141 115 256 256 256 141 0 256-115 256-256 0-141-115-256-256-256z m0 491c-129 0-235-106-235-235 0-129 106-235 235-235 129 0 235 106 235 235 0 129-106 235-235 235z m0-304c-38 0-69 31-69 69 0 38 31 69 69 69 38 0 69-31 69-69 0-38-31-69-69-69z m0 117c-26 0-48-22-48-48 0-26 22-48 48-48 26 0 48 22 48 48 0 26-22 48-48 48z m0 0c-5 0-9 3-10 8l-47 178c-1 5 2 11 8 13 6 1 12-2 13-8l46-178c2-5-2-11-7-13-1 0-2 0-3 0z m-49-20c-2 0-4 0-6 2l-146 112c-4 3-5 10-2 15 4 4 11 5 15 2l146-112c4-4 5-11 2-15-3-3-6-4-9-4z m248-179c-2 0-4 1-6 2l-150 110c-4 4-5 10-2 15 4 5 10 6 15 2l149-110c5-3 6-10 3-15-2-3-6-4-9-4z m-135-93c-4 0-8 3-10 7l-64 175c-2 5 1 11 6 13 6 2 12 0 14-6l64-174c2-6-1-12-6-14-2 0-3-1-4-1z"/>
<glyph unicode="&#57348;" d="M337 242l-246 0c-46 0-83 37-83 83l0 103c0 46 37 84 83 84l246 0c46 0 84-38 84-84l0-103c0-46-38-83-84-83z m-246 249c-34 0-62-28-62-63l0-103c0-34 28-62 62-62l246 0c34 0 62 28 62 62l0 103c0 35-28 63-62 63z m403-220c-2 0-3 1-4 1l-82 33c-6 3-8 9-6 14 2 6 8 8 14 6l67-27 0 158-67-28c-6-2-12 1-14 6-2 6 0 12 6 14l82 33c3 2 7 1 10-1 3-2 4-5 4-9l0-189c0-3-1-7-4-9-2-1-4-2-6-2z m-389-271c-2 0-3 0-4 1-5 2-8 8-6 13l82 233c2 6 8 9 14 7 5-2 8-8 6-14l-82-233c-2-4-6-7-10-7z m196 0c-4 0-8 3-10 7l-83 233c-2 6 1 12 7 14 5 2 11-1 13-7l83-233c2-5-1-11-6-13-2-1-3-1-4-1z"/>
<glyph unicode="&#57349;" d="M447 240l-382 0c-6 0-11 5-11 11-3 89 55 171 140 198 20 7 41 10 62 10 88 0 165-56 192-140 7-22 11-45 10-68 0-6-5-11-11-11z m-372 22l362 0c-1 17-4 34-9 50-24 75-93 126-172 126-19 0-37-3-55-9-73-24-124-91-126-167z m226-22l-90 0c-6 0-10 4-11 10-3 27 13 52 39 61 5 1 11 2 17 2 25 0 46-15 54-39 2-8 3-16 2-24-1-6-5-10-11-10z m-80 22l70 0c0 2-1 4-2 6-4 14-18 24-33 24-4 0-7-1-11-2-13-4-22-15-24-28z m280-209l-490 0c-6 0-11 5-11 11l0 187c0 6 5 11 11 11l490 0c6 0 11-5 11-11l0-187c0-6-5-11-11-11z m-480 21l470 0 0 166-470 0z m416 49c0-9-7-16-16-16-9 0-16 7-16 16 0 8 7 16 16 16 9 0 16-8 16-16z m0 69c0-9-7-16-16-16-9 0-16 7-16 16 0 9 7 16 16 16 9 0 16-7 16-16z m-91-22l-271 0c-6 0-11 5-11 11 0 6 5 11 11 11l271 0c6 0 11-5 11-11 0-6-5-11-11-11z"/>
</font>
</defs>
</svg>
